<svg xmlns="http://www.w3.org/2000/svg" xmlns:xlink="http://www.w3.org/1999/xlink" width="1341.381" height="760.425" viewBox="0 0 1341.381 760.425"><defs><style>.a,.b,.i{fill:#f5f5f5;}.a,.d{stroke:#fff;stroke-width:5px;}.c{fill:#fff;}.d,.j,.o{fill:none;}.e,.h{font-size:25px;}.e,.g,.l{font-family:FuturaBT-Book, Futura Bk BT;}.f{fill-rule:evenodd;}.g,.k{font-size:24px;}.h,.k,.m{font-family:CenturyGothic, Century Gothic;}.l,.m{font-size:27px;}.n,.p{stroke:none;}.p{fill:#fff;}.q{filter:url(#ab);}.r{filter:url(#z);}.s{filter:url(#w);}.t{filter:url(#u);}.u{filter:url(#r);}.v{filter:url(#p);}.w{filter:url(#m);}.x{filter:url(#k);}.y{filter:url(#h);}.z{filter:url(#f);}.aa{filter:url(#c);}.ab{filter:url(#a);}</style><filter id="a" x="465.867" y="350.847" width="323.455" height="354.182" filterUnits="userSpaceOnUse"><feOffset dy="3" input="SourceAlpha"/><feGaussianBlur stdDeviation="3" result="b"/><feFlood flood-opacity="0.161"/><feComposite operator="in" in2="b"/></filter><filter id="c" x="465.867" y="350.847" width="323.455" height="354.182" filterUnits="userSpaceOnUse"><feOffset dy="3" input="SourceAlpha"/><feGaussianBlur stdDeviation="3" result="d"/><feFlood flood-opacity="0.161" result="e"/><feComposite operator="out" in="SourceGraphic" in2="d"/><feComposite operator="in" in="e"/><feComposite operator="in" in2="SourceGraphic"/></filter><filter id="f" x="0" y="92.578" width="353.535" height="363.732" filterUnits="userSpaceOnUse"><feOffset dy="3" input="SourceAlpha"/><feGaussianBlur stdDeviation="3" result="g"/><feFlood flood-opacity="0.161"/><feComposite operator="in" in2="g"/></filter><filter id="h" x="0" y="92.578" width="353.535" height="363.732" filterUnits="userSpaceOnUse"><feOffset dy="3" input="SourceAlpha"/><feGaussianBlur stdDeviation="3" result="i"/><feFlood flood-opacity="0.161" result="j"/><feComposite operator="out" in="SourceGraphic" in2="i"/><feComposite operator="in" in="j"/><feComposite operator="in" in2="SourceGraphic"/></filter><filter id="k" x="216.214" y="427.31" width="256.64" height="333.115" filterUnits="userSpaceOnUse"><feOffset dy="3" input="SourceAlpha"/><feGaussianBlur stdDeviation="3" result="l"/><feFlood flood-opacity="0.161"/><feComposite operator="in" in2="l"/></filter><filter id="m" x="216.214" y="427.31" width="256.64" height="333.115" filterUnits="userSpaceOnUse"><feOffset dy="3" input="SourceAlpha"/><feGaussianBlur stdDeviation="3" result="n"/><feFlood flood-opacity="0.161" result="o"/><feComposite operator="out" in="SourceGraphic" in2="n"/><feComposite operator="in" in="o"/><feComposite operator="in" in2="SourceGraphic"/></filter><filter id="p" x="385.893" y="0" width="324.673" height="320.887" filterUnits="userSpaceOnUse"><feOffset dy="3" input="SourceAlpha"/><feGaussianBlur stdDeviation="3" result="q"/><feFlood flood-opacity="0.161"/><feComposite operator="in" in2="q"/></filter><filter id="r" x="385.893" y="0" width="324.673" height="320.887" filterUnits="userSpaceOnUse"><feOffset dy="3" input="SourceAlpha"/><feGaussianBlur stdDeviation="3" result="s"/><feFlood flood-opacity="0.161" result="t"/><feComposite operator="out" in="SourceGraphic" in2="s"/><feComposite operator="in" in="t"/><feComposite operator="in" in2="SourceGraphic"/></filter><filter id="u" x="758.726" y="114" width="258.116" height="331.31" filterUnits="userSpaceOnUse"><feOffset dy="3" input="SourceAlpha"/><feGaussianBlur stdDeviation="3" result="v"/><feFlood flood-opacity="0.161"/><feComposite operator="in" in2="v"/></filter><filter id="w" x="758.726" y="114" width="258.116" height="331.31" filterUnits="userSpaceOnUse"><feOffset dy="3" input="SourceAlpha"/><feGaussianBlur stdDeviation="3" result="x"/><feFlood flood-opacity="0.161" result="y"/><feComposite operator="out" in="SourceGraphic" in2="x"/><feComposite operator="in" in="y"/><feComposite operator="in" in2="SourceGraphic"/></filter><filter id="z" x="1101.783" y="208.96" width="239.598" height="319.389" filterUnits="userSpaceOnUse"><feOffset dy="3" input="SourceAlpha"/><feGaussianBlur stdDeviation="3" result="aa"/><feFlood flood-opacity="0.161"/><feComposite operator="in" in2="aa"/></filter><filter id="ab" x="1101.783" y="208.96" width="239.598" height="319.389" filterUnits="userSpaceOnUse"><feOffset dy="3" input="SourceAlpha"/><feGaussianBlur stdDeviation="3" result="ac"/><feFlood flood-opacity="0.161" result="ad"/><feComposite operator="out" in="SourceGraphic" in2="ac"/><feComposite operator="in" in="ad"/><feComposite operator="in" in2="SourceGraphic"/></filter></defs><g transform="translate(-2724.349 -5463.175)"><g data-type="innerShadowGroup"><g class="ab" transform="matrix(1, 0, 0, 1, 2724.35, 5463.18)"><g class="a" transform="translate(539.65 356.85) rotate(13)"><rect class="n" width="247" height="288" rx="28"/><rect class="o" x="2.5" y="2.5" width="242" height="283" rx="25.5"/></g></g><rect class="b" width="247" height="288" rx="28" transform="translate(3264.002 5820.022) rotate(13)"/><g class="aa" transform="matrix(1, 0, 0, 1, 2724.35, 5463.18)"><rect class="c" width="247" height="288" rx="28" transform="translate(539.65 356.85) rotate(13)"/></g><g class="d" transform="translate(3264.002 5820.022) rotate(13)"><rect class="n" width="247" height="288" rx="28"/><rect class="o" x="2.5" y="2.5" width="242" height="283" rx="25.5"/></g></g><text class="e" transform="translate(3249.044 5972.587) rotate(13)"><tspan x="0" y="0">MEU SITE DELIVERY</tspan></text><path class="f" d="M373.394,2456.633H393.41l.029,4.523h-20.08Zm3.128-21.19a11.28,11.28,0,0,0-2.093-1.006,7.906,7.906,0,0,0-8.883,2.82c-1.657,2.261.209,2.453.686,1.755a6.109,6.109,0,0,1,2.261-2.482,6.576,6.576,0,0,1,8.005.843c1.012.6,1.256-.948,1.477-1.424a5.6,5.6,0,0,1,.593-.988,6.045,6.045,0,0,1,10.121.656c.611,1.112.465,1.843,1.25,1.861.459.012.715-.4.988-.6a6.268,6.268,0,0,1,.965-.61,6.41,6.41,0,0,1,8.534,2.418,5.908,5.908,0,0,1-2.68,8.237c-3.261,1.529-4.308-.436-4.3,1.93.006,2.088.023,4.187,0,6.267h-3.988c-.006-.876,0-1.738,0-2.6,0-.812.18-1.946-.779-1.919-.9.024-.732,1.035-.732,1.861,0,.883.006,1.78,0,2.663h-3.767v-2.663c0-.773.169-1.855-.75-1.855s-.75,1.082-.75,1.855c0,.889.006,1.773,0,2.663h-3.767v-2.663c0-.826.169-1.832-.732-1.861-.942-.023-.779,1.053-.779,1.861,0,.878.006,1.762,0,2.639l-3.994.024v-6.076c0-.65.064-1.307-.547-1.464-.808-.2-3.325.558-5.808-2.273a7.947,7.947,0,0,1-.814-1.215c-.593-.948-2.7-.047-.012,2.547a7.425,7.425,0,0,0,2.349,1.7,8.415,8.415,0,0,0,3.325.773c-.075,4.146-.006,8.372-.006,12.523,0,1.313.953,1.022,2.1,1.022h18.789c1.174,0,2.168.309,2.168-1.022,0-4.158.07-8.377-.006-12.523a8.3,8.3,0,0,0,3.622-.918,7.445,7.445,0,0,0,3.7-9.14,7.881,7.881,0,0,0-10.418-4.418c-.587.238-1.058.587-1.535.8-.151-.192-.349-.645-.5-.877a8.215,8.215,0,0,0-.581-.814,7.538,7.538,0,0,0-11.592-.036,14.432,14.432,0,0,0-1.116,1.727Z" transform="translate(3554.82 3473.469) rotate(13)"/><path class="f" d="M327.281,2402.357c0-.615.134-1.436.715-1.436h43.939c.581,0,.715.82.715,1.436v9.192H327.275v-9.192Zm-2.151-.836v37.136c0,1.366,1.628,1.076,2.988,1.076h28.417c-.134-.512-.907-1.553-1.076-2.268H327.281v-23.643h45.375v8.243c0,.53,1.965.941,2.151.953V2402.48c0-1.349-.076-2.006-.744-2.721a2.98,2.98,0,0,0-2.36-1.1H328a3.16,3.16,0,0,0-2.866,2.867Z" transform="translate(3567.986 3490.406) rotate(13)"/><path class="f" d="M358.827,2408.308H380.32v2.028H358.827Zm-2.267-1.913v5.854c0,.274.081.355.361.355h25.672v-6.564H356.921C356.647,2406.04,356.56,2406.123,356.56,2406.4Z" transform="translate(3555.86 3484.436) rotate(13)"/><path class="f" d="M332.53,2410.042a2.189,2.189,0,0,0,4.186.958,2.219,2.219,0,0,0-1.913-3.109,2.184,2.184,0,0,0-2.267,2.151Z" transform="translate(3565.836 3485.944) rotate(13)"/><path class="f" d="M343.62,2410.046c0,2.947,4.418,2.936,4.418.121a2.311,2.311,0,0,0-2.151-2.267,2.342,2.342,0,0,0-2.267,2.151Z" transform="translate(3561.314 3484.895) rotate(13)"/><g data-type="innerShadowGroup"><g class="z" transform="matrix(1, 0, 0, 1, 2724.35, 5463.18)"><g class="a" transform="translate(9 164.86) rotate(-14)"><rect class="n" width="274" height="288" rx="28"/><rect class="o" x="2.5" y="2.5" width="269" height="283" rx="25.5"/></g></g><rect class="b" width="274" height="288" rx="28" transform="translate(2733.349 5628.04) rotate(-14)"/><g class="y" transform="matrix(1, 0, 0, 1, 2724.35, 5463.18)"><rect class="c" width="274" height="288" rx="28" transform="translate(9 164.86) rotate(-14)"/></g><g class="d" transform="translate(2733.349 5628.04) rotate(-14)"><rect class="n" width="274" height="288" rx="28"/><rect class="o" x="2.5" y="2.5" width="269" height="283" rx="25.5"/></g></g><text class="g" transform="translate(2790.818 5775.861) rotate(-14)"><tspan x="0" y="0">GESTOR DE PEDIDOS</tspan></text><path class="f" d="M362.209,2770.49h9.985a3.4,3.4,0,0,0,1.419-.424,2.889,2.889,0,0,0,.879-4.453,3.834,3.834,0,0,0-1.5-.991c0-3.617-2.343-8.669-5.081-11.2a19.769,19.769,0,0,0-4.848-3.549,20.158,20.158,0,0,0-6.437-2.093c0-1.551.151-1.964-.572-2.978a3.5,3.5,0,0,0-5.414,0c-.716,1.007-.565,1.426-.565,2.978a20.232,20.232,0,0,0-6.349,2.047,18.822,18.822,0,0,0-8.334,8.351,17.353,17.353,0,0,0-1.677,6.445c-1.513.732-2.185,1.3-2.185,3.118a2.845,2.845,0,0,0,1.469,2.271,3.379,3.379,0,0,0,1.488.47h27.721Zm-28.5-2.993a1.228,1.228,0,0,1,1.225-1h36.82a1.014,1.014,0,1,1,0,2h-36.82a1.222,1.222,0,0,1-1.225-1Zm19.632-17.966a17.692,17.692,0,0,1,15.543,8.86,13.522,13.522,0,0,1,1.771,6.113H336.02c0-4.715,3.391-9.643,7.637-12.231A19.146,19.146,0,0,1,353.341,2749.531Zm-1.086-2.867a1.09,1.09,0,0,1,2.179,0v.875h-2.179Z" transform="translate(1887.578 3095.789) rotate(-14)"/><path class="f" d="M343.68,2768.708a16.2,16.2,0,0,0,2.586.976c.484-2.086,3.338-5.358,5.209-6.631a15.141,15.141,0,0,1,6.26-2.647,21.824,21.824,0,0,1,2.772-.305v-2.6a17.789,17.789,0,0,0-14.293,6.939A22.53,22.53,0,0,0,343.68,2768.708Z" transform="translate(1880.5 3088.911) rotate(-14)"/><path class="f" d="M370.56,2740.694l1.773,1.862,3.726-3.645-1.863-1.951Z" transform="translate(1873.369 3101.055) rotate(-14)"/><path class="f" d="M354.59,2738.848l3.644,3.733,1.855-1.788-3.636-3.733Z" transform="translate(1879.342 3099.541) rotate(-14)"/><path class="f" d="M364.53,2738.285h2.586v-5.194H364.53Z" transform="translate(1876.113 3101.388) rotate(-14)"/><path class="f" d="M350.63,2749.641h5.179v-2.6H350.63Z" transform="translate(1879.719 3094.66) rotate(-14)"/><path class="f" d="M374.95,2749.641h5.179v-2.6H374.95Z" transform="translate(1870.633 3096.925) rotate(-14)"/><g data-type="innerShadowGroup"><g class="x" transform="matrix(1, 0, 0, 1, 2724.35, 5463.18)"><g class="a" transform="translate(225.21 463.97) rotate(-9)"><rect class="n" width="196" height="288" rx="28"/><rect class="o" x="2.5" y="2.5" width="191" height="283" rx="25.5"/></g></g><rect class="b" width="196" height="288" rx="28" transform="translate(2949.563 5927.146) rotate(-9)"/><g class="w" transform="matrix(1, 0, 0, 1, 2724.35, 5463.18)"><rect class="c" width="196" height="288" rx="28" transform="translate(225.21 463.97) rotate(-9)"/></g><g class="d" transform="translate(2949.563 5927.146) rotate(-9)"><rect class="n" width="196" height="288" rx="28"/><rect class="o" x="2.5" y="2.5" width="191" height="283" rx="25.5"/></g></g><text class="h" transform="translate(3008.354 6080.949) rotate(-9)"><tspan x="0" y="0">CASHBACK</tspan></text><path class="f" d="M4107.67,2420.782a12.708,12.708,0,0,1,5.309,0l0,8.635c.037,2.664.689,2.211-4.653,2.211-1.093,0-.66-2.973-.66-5.089v-5.752Zm16.816,3.542c0,1.1,1.558,1.389,2.617,2.032,1.91,1.162,4.031,2.626,5.663.268.2-.3.053-.158.269-.394.713-.8,5.883-2.189,7.236-2.727,1.315-.521,4.583-2.105,4.583-.285,0,.921-3.194,2.474-3.983,2.879-1.521.785-2.891,1.631-4.433,2.433-.766.4-1.251.746-2.135,1.184-8.772,4.347-6.753,4.194-12.951.189-2.359-1.527-3.849-1.175-6.821-.483v-7.747c.7-.184,1.91-.99,2.842-1.364,3.667-1.464,3.377-1.615,9.178,1.29.909.457,5.236,2.4,5.236,3.174,0,4.8-7.306-3.221-7.306-.443Zm-10.175-4.2c-1.98-1.326-.355-.885-6.2-.885a2,2,0,0,0-2,1.99v9.735c0,2.731,3.721,2.215,5.758,2.215,2.914,0,2.1-1.779,3-2.311.042-.021,3.483-.878,4.685-.283,4.256,2.089,4.908,5.362,10.082,3.1l15.141-8.094c3.15-1.852,1-4.8-.6-4.8-1.2,0-4.331,1.258-5.613,1.685-1.843.6-3.589,1.42-5.447,1.851-.3-1.288-1.247-1.732-2.357-2.289-1.169-.589-2.081-1.037-3.249-1.621-6.472-3.236-6.751-3.709-13.2-.294Z" transform="translate(-1396.475 4276.85) rotate(-9)"/><path class="f" d="M4145.761,2401.474h-1.549c-3.75,0-7.524-3.793-7.524-7.524v-1.327a8.076,8.076,0,0,1,7.524-7.526c2.869,0,4.5.354,6.59,2.484C4156.132,2393,4151.3,2401.474,4145.761,2401.474Zm-10.621-8.851c0,3.394.712,5.3,2.706,7.474,5.563,6.056,16.767,2.235,16.767-6.811a10.442,10.442,0,0,0-2.616-6.679c-1.736-2.158-4.711-3.057-7.784-3.057C4139.671,2383.551,4135.14,2388.081,4135.14,2392.623Z" transform="translate(-1407.518 4295.01) rotate(-9)"/><path class="f" d="M4147.746,2394.669c0,4.278,4.648,1.683,4.648,3.541a1.37,1.37,0,0,1-1.55,1.547c-1.967,0-.846-1.348-2.435-1.773-1.612,1.078.536,3.015,1.546,3.1.025,1.162.131,1.322,1.106,1.547,1.189-1.773-.632-.215,1.6-1.937,1.875-1.436,1.721-3.967-.4-4.573a15.559,15.559,0,0,0-1.722-.273c-1.148-.168-1.247.047-1.247-1.185,0-.878.858-1.105,1.549-1.105,1.967,0,.846,1.347,2.431,1.769,1.415-.948,0-2.321-1.016-2.967-.056-.032-.231-.122-.284-.159l-.327-.341a1.031,1.031,0,0,1-.068-.153c-.187-.379-.013-.468-.343-.789-.885-.868-.94.762-1.867,1.395a2.7,2.7,0,0,0-1.625,2.358Z" transform="translate(-1413.943 4292.614) rotate(-9)"/><path class="f" d="M4183.284,2411.15c.806-1.2,1.352-.853.441-2.21-1.084.089-3.094,2.426-3.094,2.878s2.026,2.785,3.1,2.873c.89-1.089.132-1.131-.442-1.994,1.548,0,3.1,0,4.647-.005,1.276,0,3.762.352,3.762-.889,0-1.059-1.794-.664-3.762-.664-1.547,0-3.1.005-4.647.005Z" transform="translate(-1430.686 4286.5) rotate(-9)"/><path class="f" d="M4127.105,2388.316a24.751,24.751,0,0,0,.22,5.532h1.106a24.782,24.782,0,0,0,.22-5.532A.773.773,0,1,0,4127.105,2388.316Z" transform="translate(-1404.035 4292.546) rotate(-9)"/><path class="f" d="M4170.417,2379.607a21.281,21.281,0,0,0,.219,5.089c1.758,0,1.328.285,1.328-5.53,0-.8-.559-.663-1.328-.663A3.269,3.269,0,0,0,4170.417,2379.607Z" transform="translate(-1423.631 4299.986) rotate(-9)"/><path class="f" d="M4165.367,2373.289c-.009,2.12-.316,4.389.431,5.5,1.518-.353,1.105-1.2,1.105-4.426a1.283,1.283,0,0,0-.662-1.326Z" transform="translate(-1420.85 4302.163) rotate(-9)"/><path class="f" d="M4132.531,2382.919c0,2.983-.439,4.867.663,4.867s.664-1.884.664-4.867A.665.665,0,1,0,4132.531,2382.919Z" transform="translate(-1406.156 4295.434) rotate(-9)"/><path class="f" d="M4141.015,2398.524c0,.995.258.885,1.328.885l.883-4.206c-1.041-.242-1.151-.231-1.641.791a5.567,5.567,0,0,0-.574,2.525Z" transform="translate(-1411.119 4290.053) rotate(-9)"/><path class="f" d="M4141.861,2405.252a3.189,3.189,0,0,0,.221,1.1C4145.392,2406.357,4141.861,2403.294,4141.861,2405.252Z" transform="translate(-1412.223 4285.66) rotate(-9)"/><path class="f" d="M4111.572,2438.925c0,.769-.136,1.326.663,1.326s.664-.557.664-1.326C4112.252,2438.778,4112.211,2438.678,4111.572,2438.925Z" transform="translate(-1400.578 4267.422) rotate(-9)"/><path class="f" d="M4189.456,2395.177c-.807-1.2-1.354-.853-.443-2.216,1.085.09,3.1,2.426,3.1,2.879s-2.027,2.783-3.1,2.873c-.89-1.09-.131-1.132.442-1.99-1.546,0-3.1-.005-4.646-.005-1.278,0-3.764.353-3.764-.889,0-1.058,1.794-.663,3.764-.663,1.546.006,3.1.006,4.646.006Z" transform="translate(-1429.691 4294.007) rotate(-9)"/><g data-type="innerShadowGroup"><g class="v" transform="matrix(1, 0, 0, 1, 2724.35, 5463.18)"><g class="i" transform="translate(409.97 6) rotate(3)"><path class="n" d="M 264 285.5 L 28 285.5 C 24.55642318725586 285.5 21.21719169616699 284.8261108398438 18.07503890991211 283.4971008300781 C 15.03880786895752 282.212890625 12.31146144866943 280.3739318847656 9.968769073486328 278.0312194824219 C 7.626115322113037 275.6885375976562 5.787115573883057 272.9612426757812 4.502884387969971 269.9249877929688 C 3.173884630203247 266.7828369140625 2.5 263.4435729980469 2.5 260 L 2.5 28 C 2.5 24.55642318725586 3.173884630203247 21.21719169616699 4.502884387969971 18.07503890991211 C 5.787115573883057 15.03880786895752 7.626115322113037 12.31146144866943 9.968769073486328 9.968769073486328 C 12.31146144866943 7.626115322113037 15.03880786895752 5.787115573883057 18.07503890991211 4.502884387969971 C 21.21719169616699 3.173884630203247 24.55642318725586 2.5 28 2.5 L 264 2.5 C 267.4435729980469 2.5 270.7828369140625 3.173884630203247 273.9249877929688 4.502884387969971 C 276.9612426757812 5.787115573883057 279.6885375976562 7.626115322113037 282.0312194824219 9.968769073486328 C 284.3739318847656 12.31146144866943 286.212890625 15.03880786895752 287.4971008300781 18.07503890991211 C 288.8261108398438 21.21719169616699 289.5 24.55642318725586 289.5 28 L 289.5 260 C 289.5 263.4435729980469 288.8261108398438 266.7828369140625 287.4971008300781 269.9249877929688 C 286.212890625 272.9612426757812 284.3739318847656 275.6885375976562 282.0312194824219 278.0312194824219 C 279.6885375976562 280.3739318847656 276.9612426757812 282.212890625 273.9249877929688 283.4971008300781 C 270.7828369140625 284.8261108398438 267.4435729980469 285.5 264 285.5 Z"/><path class="p" d="M 28 5 C 24.89279174804688 5 21.88119506835938 5.607421875 19.04888916015625 6.805419921875 C 16.3106689453125 7.963592529296875 13.85040283203125 9.62261962890625 11.73654174804688 11.73654174804688 C 9.62261962890625 13.85040283203125 7.963592529296875 16.3106689453125 6.805419921875 19.04888916015625 C 5.607421875 21.88119506835938 5 24.89279174804688 5 28 L 5 260 C 5 263.1072082519531 5.607421875 266.1188049316406 6.805419921875 268.9511108398438 C 7.963592529296875 271.6893310546875 9.62261962890625 274.1495971679688 11.73654174804688 276.2634582519531 C 13.85040283203125 278.3773803710938 16.3106689453125 280.0364074707031 19.04888916015625 281.194580078125 C 21.88119506835938 282.392578125 24.89279174804688 283 28 283 L 264 283 C 267.1072082519531 283 270.1188049316406 282.392578125 272.9511108398438 281.194580078125 C 275.6893310546875 280.0364074707031 278.1495971679688 278.3773803710938 280.2634582519531 276.2634582519531 C 282.3773803710938 274.1495971679688 284.0364074707031 271.6893310546875 285.194580078125 268.9511108398438 C 286.392578125 266.1188049316406 287 263.1072082519531 287 260 L 287 28 C 287 24.89279174804688 286.392578125 21.88119506835938 285.194580078125 19.04888916015625 C 284.0364074707031 16.3106689453125 282.3773803710938 13.85040283203125 280.2634582519531 11.73654174804688 C 278.1495971679688 9.62261962890625 275.6893310546875 7.963592529296875 272.9511108398438 6.805419921875 C 270.1188049316406 5.607421875 267.1072082519531 5 264 5 L 28 5 M 28 0 L 264 0 C 279.4639892578125 0 292 12.5360107421875 292 28 L 292 260 C 292 275.4639892578125 279.4639892578125 288 264 288 L 28 288 C 12.5360107421875 288 0 275.4639892578125 0 260 L 0 28 C 0 12.5360107421875 12.5360107421875 0 28 0 Z"/></g></g><g class="b" transform="translate(3134.315 5469.175) rotate(3)"><path class="n" d="M 264 285.5 L 28 285.5 C 24.55642318725586 285.5 21.21719169616699 284.8261108398438 18.07503890991211 283.4971008300781 C 15.03880786895752 282.212890625 12.31146144866943 280.3739318847656 9.968769073486328 278.0312194824219 C 7.626115322113037 275.6885375976562 5.787115573883057 272.9612426757812 4.502884387969971 269.9249877929688 C 3.173884630203247 266.7828369140625 2.5 263.4435729980469 2.5 260 L 2.5 28 C 2.5 24.55642318725586 3.173884630203247 21.21719169616699 4.502884387969971 18.07503890991211 C 5.787115573883057 15.03880786895752 7.626115322113037 12.31146144866943 9.968769073486328 9.968769073486328 C 12.31146144866943 7.626115322113037 15.03880786895752 5.787115573883057 18.07503890991211 4.502884387969971 C 21.21719169616699 3.173884630203247 24.55642318725586 2.5 28 2.5 L 264 2.5 C 267.4435729980469 2.5 270.7828369140625 3.173884630203247 273.9249877929688 4.502884387969971 C 276.9612426757812 5.787115573883057 279.6885375976562 7.626115322113037 282.0312194824219 9.968769073486328 C 284.3739318847656 12.31146144866943 286.212890625 15.03880786895752 287.4971008300781 18.07503890991211 C 288.8261108398438 21.21719169616699 289.5 24.55642318725586 289.5 28 L 289.5 260 C 289.5 263.4435729980469 288.8261108398438 266.7828369140625 287.4971008300781 269.9249877929688 C 286.212890625 272.9612426757812 284.3739318847656 275.6885375976562 282.0312194824219 278.0312194824219 C 279.6885375976562 280.3739318847656 276.9612426757812 282.212890625 273.9249877929688 283.4971008300781 C 270.7828369140625 284.8261108398438 267.4435729980469 285.5 264 285.5 Z"/><path class="n" d="M 28 5 C 24.89279174804688 5 21.88119506835938 5.607421875 19.04888916015625 6.805419921875 C 16.3106689453125 7.963592529296875 13.85040283203125 9.62261962890625 11.73654174804688 11.73654174804688 C 9.62261962890625 13.85040283203125 7.963592529296875 16.3106689453125 6.805419921875 19.04888916015625 C 5.607421875 21.88119506835938 5 24.89279174804688 5 28 L 5 260 C 5 263.1072082519531 5.607421875 266.1188049316406 6.805419921875 268.9511108398438 C 7.963592529296875 271.6893310546875 9.62261962890625 274.1495971679688 11.73654174804688 276.2634582519531 C 13.85040283203125 278.3773803710938 16.3106689453125 280.0364074707031 19.04888916015625 281.194580078125 C 21.88119506835938 282.392578125 24.89279174804688 283 28 283 L 264 283 C 267.1072082519531 283 270.1188049316406 282.392578125 272.9511108398438 281.194580078125 C 275.6893310546875 280.0364074707031 278.1495971679688 278.3773803710938 280.2634582519531 276.2634582519531 C 282.3773803710938 274.1495971679688 284.0364074707031 271.6893310546875 285.194580078125 268.9511108398438 C 286.392578125 266.1188049316406 287 263.1072082519531 287 260 L 287 28 C 287 24.89279174804688 286.392578125 21.88119506835938 285.194580078125 19.04888916015625 C 284.0364074707031 16.3106689453125 282.3773803710938 13.85040283203125 280.2634582519531 11.73654174804688 C 278.1495971679688 9.62261962890625 275.6893310546875 7.963592529296875 272.9511108398438 6.805419921875 C 270.1188049316406 5.607421875 267.1072082519531 5 264 5 L 28 5 M 28 0 L 264 0 C 279.4639892578125 0 292 12.5360107421875 292 28 L 292 260 C 292 275.4639892578125 279.4639892578125 288 264 288 L 28 288 C 12.5360107421875 288 0 275.4639892578125 0 260 L 0 28 C 0 12.5360107421875 12.5360107421875 0 28 0 Z"/></g><g class="u" transform="matrix(1, 0, 0, 1, 2724.35, 5463.18)"><g class="c" transform="translate(409.97 6) rotate(3)"><path class="n" d="M 264 285.5 L 28 285.5 C 24.55642318725586 285.5 21.21719169616699 284.8261108398438 18.07503890991211 283.4971008300781 C 15.03880786895752 282.212890625 12.31146144866943 280.3739318847656 9.968769073486328 278.0312194824219 C 7.626115322113037 275.6885375976562 5.787115573883057 272.9612426757812 4.502884387969971 269.9249877929688 C 3.173884630203247 266.7828369140625 2.5 263.4435729980469 2.5 260 L 2.5 28 C 2.5 24.55642318725586 3.173884630203247 21.21719169616699 4.502884387969971 18.07503890991211 C 5.787115573883057 15.03880786895752 7.626115322113037 12.31146144866943 9.968769073486328 9.968769073486328 C 12.31146144866943 7.626115322113037 15.03880786895752 5.787115573883057 18.07503890991211 4.502884387969971 C 21.21719169616699 3.173884630203247 24.55642318725586 2.5 28 2.5 L 264 2.5 C 267.4435729980469 2.5 270.7828369140625 3.173884630203247 273.9249877929688 4.502884387969971 C 276.9612426757812 5.787115573883057 279.6885375976562 7.626115322113037 282.0312194824219 9.968769073486328 C 284.3739318847656 12.31146144866943 286.212890625 15.03880786895752 287.4971008300781 18.07503890991211 C 288.8261108398438 21.21719169616699 289.5 24.55642318725586 289.5 28 L 289.5 260 C 289.5 263.4435729980469 288.8261108398438 266.7828369140625 287.4971008300781 269.9249877929688 C 286.212890625 272.9612426757812 284.3739318847656 275.6885375976562 282.0312194824219 278.0312194824219 C 279.6885375976562 280.3739318847656 276.9612426757812 282.212890625 273.9249877929688 283.4971008300781 C 270.7828369140625 284.8261108398438 267.4435729980469 285.5 264 285.5 Z"/><path class="n" d="M 28 5 C 24.89279174804688 5 21.88119506835938 5.607421875 19.04888916015625 6.805419921875 C 16.3106689453125 7.963592529296875 13.85040283203125 9.62261962890625 11.73654174804688 11.73654174804688 C 9.62261962890625 13.85040283203125 7.963592529296875 16.3106689453125 6.805419921875 19.04888916015625 C 5.607421875 21.88119506835938 5 24.89279174804688 5 28 L 5 260 C 5 263.1072082519531 5.607421875 266.1188049316406 6.805419921875 268.9511108398438 C 7.963592529296875 271.6893310546875 9.62261962890625 274.1495971679688 11.73654174804688 276.2634582519531 C 13.85040283203125 278.3773803710938 16.3106689453125 280.0364074707031 19.04888916015625 281.194580078125 C 21.88119506835938 282.392578125 24.89279174804688 283 28 283 L 264 283 C 267.1072082519531 283 270.1188049316406 282.392578125 272.9511108398438 281.194580078125 C 275.6893310546875 280.0364074707031 278.1495971679688 278.3773803710938 280.2634582519531 276.2634582519531 C 282.3773803710938 274.1495971679688 284.0364074707031 271.6893310546875 285.194580078125 268.9511108398438 C 286.392578125 266.1188049316406 287 263.1072082519531 287 260 L 287 28 C 287 24.89279174804688 286.392578125 21.88119506835938 285.194580078125 19.04888916015625 C 284.0364074707031 16.3106689453125 282.3773803710938 13.85040283203125 280.2634582519531 11.73654174804688 C 278.1495971679688 9.62261962890625 275.6893310546875 7.963592529296875 272.9511108398438 6.805419921875 C 270.1188049316406 5.607421875 267.1072082519531 5 264 5 L 28 5 M 28 0 L 264 0 C 279.4639892578125 0 292 12.5360107421875 292 28 L 292 260 C 292 275.4639892578125 279.4639892578125 288 264 288 L 28 288 C 12.5360107421875 288 0 275.4639892578125 0 260 L 0 28 C 0 12.5360107421875 12.5360107421875 0 28 0 Z"/></g></g><g class="j" transform="translate(3134.315 5469.175) rotate(3)"><path class="n" d="M 264 285.5 L 28 285.5 C 24.55642318725586 285.5 21.21719169616699 284.8261108398438 18.07503890991211 283.4971008300781 C 15.03880786895752 282.212890625 12.31146144866943 280.3739318847656 9.968769073486328 278.0312194824219 C 7.626115322113037 275.6885375976562 5.787115573883057 272.9612426757812 4.502884387969971 269.9249877929688 C 3.173884630203247 266.7828369140625 2.5 263.4435729980469 2.5 260 L 2.5 28 C 2.5 24.55642318725586 3.173884630203247 21.21719169616699 4.502884387969971 18.07503890991211 C 5.787115573883057 15.03880786895752 7.626115322113037 12.31146144866943 9.968769073486328 9.968769073486328 C 12.31146144866943 7.626115322113037 15.03880786895752 5.787115573883057 18.07503890991211 4.502884387969971 C 21.21719169616699 3.173884630203247 24.55642318725586 2.5 28 2.5 L 264 2.5 C 267.4435729980469 2.5 270.7828369140625 3.173884630203247 273.9249877929688 4.502884387969971 C 276.9612426757812 5.787115573883057 279.6885375976562 7.626115322113037 282.0312194824219 9.968769073486328 C 284.3739318847656 12.31146144866943 286.212890625 15.03880786895752 287.4971008300781 18.07503890991211 C 288.8261108398438 21.21719169616699 289.5 24.55642318725586 289.5 28 L 289.5 260 C 289.5 263.4435729980469 288.8261108398438 266.7828369140625 287.4971008300781 269.9249877929688 C 286.212890625 272.9612426757812 284.3739318847656 275.6885375976562 282.0312194824219 278.0312194824219 C 279.6885375976562 280.3739318847656 276.9612426757812 282.212890625 273.9249877929688 283.4971008300781 C 270.7828369140625 284.8261108398438 267.4435729980469 285.5 264 285.5 Z"/><path class="p" d="M 28 5 C 24.89279174804688 5 21.88119506835938 5.607421875 19.04888916015625 6.805419921875 C 16.3106689453125 7.963592529296875 13.85040283203125 9.62261962890625 11.73654174804688 11.73654174804688 C 9.62261962890625 13.85040283203125 7.963592529296875 16.3106689453125 6.805419921875 19.04888916015625 C 5.607421875 21.88119506835938 5 24.89279174804688 5 28 L 5 260 C 5 263.1072082519531 5.607421875 266.1188049316406 6.805419921875 268.9511108398438 C 7.963592529296875 271.6893310546875 9.62261962890625 274.1495971679688 11.73654174804688 276.2634582519531 C 13.85040283203125 278.3773803710938 16.3106689453125 280.0364074707031 19.04888916015625 281.194580078125 C 21.88119506835938 282.392578125 24.89279174804688 283 28 283 L 264 283 C 267.1072082519531 283 270.1188049316406 282.392578125 272.9511108398438 281.194580078125 C 275.6893310546875 280.0364074707031 278.1495971679688 278.3773803710938 280.2634582519531 276.2634582519531 C 282.3773803710938 274.1495971679688 284.0364074707031 271.6893310546875 285.194580078125 268.9511108398438 C 286.392578125 266.1188049316406 287 263.1072082519531 287 260 L 287 28 C 287 24.89279174804688 286.392578125 21.88119506835938 285.194580078125 19.04888916015625 C 284.0364074707031 16.3106689453125 282.3773803710938 13.85040283203125 280.2634582519531 11.73654174804688 C 278.1495971679688 9.62261962890625 275.6893310546875 7.963592529296875 272.9511108398438 6.805419921875 C 270.1188049316406 5.607421875 267.1072082519531 5 264 5 L 28 5 M 28 0 L 264 0 C 279.4639892578125 0 292 12.5360107421875 292 28 L 292 260 C 292 275.4639892578125 279.4639892578125 288 264 288 L 28 288 C 12.5360107421875 288 0 275.4639892578125 0 260 L 0 28 C 0 12.5360107421875 12.5360107421875 0 28 0 Z"/></g></g><text class="k" transform="translate(3144.061 5632.014) rotate(3)"><tspan x="0" y="0">CUPOM DE DESCONTO</tspan></text><path class="f" d="M4107.623,2669.371h42.436v6.124c-2.684,0-6.72,4.286-3.248,8.755a5.218,5.218,0,0,0,1.376,1.109,4.455,4.455,0,0,0,1.875.617v6.124h-42.436v-6.124c2.331,0,4.682-2.765,4.614-5.235a6.588,6.588,0,0,0-.425-1.971,5.642,5.642,0,0,0-.935-1.549,5.277,5.277,0,0,0-3.248-1.725v-6.124Zm-1.512-.8v7.634c0,1.457,2.507-.064,4.029,2.716a2.281,2.281,0,0,1,.349.81,3.747,3.747,0,0,1-2.9,4.688c-.692.14-1.475-.043-1.475.836v7.635a.672.672,0,0,0,.713.712h44.031a.668.668,0,0,0,.708-.712v-7.635c0-.836-.708-.712-1.4-.826a3.762,3.762,0,0,1-1.6-6.7c1.5-1.239,3-.268,3-1.528v-7.634a.664.664,0,0,0-.708-.708h-44.031a.668.668,0,0,0-.713.708Z" transform="translate(-712.391 2696.029) rotate(3)"/><path class="f" d="M4144.681,2691.674l1.067,1.109,12.162-12.119a3.051,3.051,0,0,0-.489-.536c-.212-.215-.326-.424-.643-.509l-12.1,12.049Z" transform="translate(-729.984 2689.641) rotate(3)"/><path class="f" d="M4161.4,2697.807a1.271,1.271,0,0,1,.491-1.194c1.41-1.253,3.318.889,2.021,2.2A1.483,1.483,0,0,1,4161.4,2697.807Zm-1.6-.177a3.052,3.052,0,1,0,3.2-2.931A3.059,3.059,0,0,0,4159.8,2697.631Z" transform="translate(-736.629 2682.283) rotate(3)"/><path class="f" d="M4144.406,2680.778a1.5,1.5,0,0,1,2.515-1.094,1.691,1.691,0,0,1,.325.38,1.5,1.5,0,0,1-1.264,2.175,1.428,1.428,0,0,1-1.4-.841,3.9,3.9,0,0,1-.172-.627Zm-1.509-.354a2.983,2.983,0,0,0,.824,2.465,3.06,3.06,0,0,0,4.931-.793,2.961,2.961,0,0,0,.277-1.672,3.055,3.055,0,0,0-5.043-1.934,2.93,2.93,0,0,0-1,1.934Z" transform="translate(-729.203 2690.572) rotate(3)"/><path class="f" d="M4131.467,2701.915v1.335h1.6c0-1.92.3-1.6-1.335-1.6-.2,0-.268.063-.268.268Z" transform="translate(-723.32 2679.758) rotate(3)"/><path class="f" d="M4131.471,2680.466c0,.4.412.262,1.335.262.417,0,.268-.547.268-1.6h-1.6v1.335Z" transform="translate(-723.873 2690.188) rotate(3)"/><path class="f" d="M4131.471,2692h1.6v-1.6h-1.6Z" transform="translate(-723.6 2684.965) rotate(3)"/><path class="f" d="M4131.467,2696.3v1.335h1.6v-1.6h-1.335c-.2,0-.268.065-.268.269Z" transform="translate(-723.457 2682.351) rotate(3)"/><path class="f" d="M4131.471,2686.1c0,.2.065.267.268.267h1.335v-1.6h-1.6v1.334Z" transform="translate(-723.736 2687.574) rotate(3)"/><path class="f" d="M4131.471,2708.973h1.6v-1.512h-1.6Z" transform="translate(-723.186 2677.056) rotate(3)"/><path class="f" d="M4131.471,2675.006h1.6v-1.5h-1.6Z" transform="translate(-724.012 2692.798) rotate(3)"/><path class="f" d="M4111.75,2708.973h1.513v-1.512h-1.513Z" transform="translate(-714.045 2677.535) rotate(3)"/><path class="f" d="M4111.75,2675.006h1.513v-1.5h-1.513Z" transform="translate(-714.871 2693.277) rotate(3)"/><path class="f" d="M4182.5,2708.973h1.511v-1.512H4182.5Z" transform="translate(-746.842 2675.816) rotate(3)"/><path class="f" d="M4182.5,2675.006h1.511v-1.5H4182.5Z" transform="translate(-747.668 2691.558) rotate(3)"/><g data-type="innerShadowGroup"><g class="t" transform="matrix(1, 0, 0, 1, 2724.35, 5463.18)"><g class="a" transform="translate(767.73 148.11) rotate(-8)"><rect class="n" width="202" height="288" rx="28"/><rect class="o" x="2.5" y="2.5" width="197" height="283" rx="25.5"/></g></g><rect class="b" width="202" height="288" rx="28" transform="translate(3492.075 5611.288) rotate(-8)"/><g class="s" transform="matrix(1, 0, 0, 1, 2724.35, 5463.18)"><rect class="c" width="202" height="288" rx="28" transform="translate(767.73 148.11) rotate(-8)"/></g><g class="d" transform="translate(3492.075 5611.288) rotate(-8)"><rect class="n" width="202" height="288" rx="28"/><rect class="o" x="2.5" y="2.5" width="197" height="283" rx="25.5"/></g></g><text class="l" transform="translate(3548.66 5791.163) rotate(-8)"><tspan x="0" y="0">RELATÓRIO</tspan></text><g transform="translate(3589.469 5693.533) rotate(-8)"><path class="f" d="M325.8,3615.185h30.892v40.063H325.8Zm-1.361,41.083h33.273V3613.83H324.44Z" transform="translate(-324.44 -3613.83)"/><path class="f" d="M351.6,3630.63c.33,1.237.36.713,1.02,1.7-.122.184-2.943,3.737-3.394,3.737-.824,0-3.23-2.5-4-3.121-.385-.3-1.032-.689-1.422-.952a22.321,22.321,0,0,0-4.078,4.413c-.946-.634-1.74-1.378-2.656-2.1l-2.778-1.979a11.531,11.531,0,0,1-1.954,2.46,5.573,5.573,0,0,0-1.777,2.632l.977.726a5.729,5.729,0,0,0,1.606-1.538c.635-.867,1-1.161,1.5-1.906.946.638,1.746,1.381,2.656,2.1l2.778,1.978a18.651,18.651,0,0,1,4.072-4.413c.061.056.159.056.183.158l5.25,4.255,4.414-5.433c1.258.336.44.344,1.7.679v-4.073c-1.7.038-2.381.642-4.078.68Z" transform="translate(-326.824 -3620.109)"/><path class="f" d="M361.547,3655.595l-1.007-1.368c-.641-1.123-.012-.6-1.026-1.349a3.735,3.735,0,1,0,2.039-.677v3.394Z" transform="translate(-337.444 -3628.776)"/><path class="f" d="M331.11,3672.248h12.564v-1.7H331.11Z" transform="translate(-327.038 -3635.922)"/><path class="f" d="M331.11,3676.691h12.564V3675H331.11Z" transform="translate(-327.038 -3637.656)"/><path class="f" d="M347.674,3657.442c0,.831-.751,1.356.678,1.356h1.7v-8.828h-2.375v7.467Z" transform="translate(-333.413 -3627.906)"/><path class="f" d="M336.68,3659.882h2.375v-7.131H336.68Z" transform="translate(-329.207 -3628.989)"/><path class="f" d="M341.12,3625.321h7.809v-2.041H341.12C341.431,3624.6,341.431,3623.989,341.12,3625.321Z" transform="translate(-330.937 -3617.51)"/><path class="f" d="M357.25,3672.248h9.17v-1.7h-9.17Z" transform="translate(-337.219 -3635.922)"/><path class="f" d="M357.25,3676.691h9.17V3675h-9.17Z" transform="translate(-337.219 -3637.656)"/><path class="f" d="M342.23,3660.746h2.381v-5.775H342.23Z" transform="translate(-331.369 -3629.855)"/><path class="f" d="M331.11,3624.456h3.736v-3.4H331.11Z" transform="translate(-327.038 -3616.647)"/><path class="f" d="M331.106,3657.666v3.736h2.375v-4.751H332.12c-.781,0-1.02.239-1.02,1.02Z" transform="translate(-327.034 -3630.509)"/><path class="f" d="M341.12,3622.073h7.809v-1.013H341.12Z" transform="translate(-330.937 -3616.647)"/></g><g data-type="innerShadowGroup"><g class="r" transform="matrix(1, 0, 0, 1, 2724.35, 5463.18)"><g class="a" transform="matrix(1, 0.07, -0.07, 1, 1130.87, 214.96)"><rect class="n" width="202" height="288" rx="28"/><rect class="o" x="2.5" y="2.5" width="197" height="283" rx="25.5"/></g></g><rect class="b" width="202" height="288" rx="28" transform="matrix(0.998, 0.07, -0.07, 0.998, 3855.222, 5678.135)"/><g class="q" transform="matrix(1, 0, 0, 1, 2724.35, 5463.18)"><rect class="c" width="202" height="288" rx="28" transform="matrix(1, 0.07, -0.07, 1, 1130.87, 214.96)"/></g><g class="d" transform="matrix(0.998, 0.07, -0.07, 0.998, 3855.222, 5678.135)"><rect class="n" width="202" height="288" rx="28"/><rect class="o" x="2.5" y="2.5" width="197" height="283" rx="25.5"/></g></g><text class="m" transform="matrix(0.998, 0.07, -0.07, 0.998, 3870.377, 5855.623)"><tspan x="0" y="0">CASHBACK</tspan></text><g transform="matrix(0.998, 0.07, -0.07, 0.998, 3923.055, 5766.733)"><path class="f" d="M4107.871,2421.176a14.362,14.362,0,0,1,6,0l0,9.763c.042,3.011.779,2.5-5.26,2.5-1.236,0-.748-3.361-.748-5.753v-6.5Zm19.015,4c0,1.25,1.76,1.571,2.957,2.3,2.16,1.314,4.559,2.969,6.4.3.231-.339.061-.179.3-.445.807-.9,6.651-2.476,8.182-3.083,1.487-.588,5.182-2.38,5.182-.322,0,1.042-3.611,2.8-4.5,3.255-1.719.888-3.27,1.845-5.012,2.75-.866.452-1.415.844-2.414,1.338-9.918,4.914-7.635,4.742-14.642.214-2.668-1.726-4.353-1.328-7.713-.547v-8.758c.786-.208,2.159-1.119,3.214-1.542,4.146-1.655,3.818-1.826,10.377,1.458,1.027.518,5.92,2.719,5.92,3.589,0,5.431-8.26-3.642-8.26-.5Zm-11.506-4.753c-2.238-1.5-.4-1-7-1a2.265,2.265,0,0,0-2.256,2.25v11.007c0,3.088,4.206,2.5,6.51,2.5,3.3,0,2.374-2.011,3.391-2.612.047-.024,3.938-.993,5.3-.321,4.812,2.362,5.549,6.063,11.4,3.51l17.118-9.151c3.562-2.094,1.125-5.432-.682-5.432-1.36,0-4.9,1.422-6.346,1.9-2.083.683-4.058,1.605-6.158,2.093-.339-1.457-1.409-1.958-2.664-2.588-1.322-.665-2.353-1.171-3.673-1.833-7.317-3.659-7.634-4.193-14.928-.333Z" transform="translate(-4106.12 -2391.153)"/><path class="f" d="M4147.147,2403.815H4145.4c-4.24,0-8.508-4.288-8.508-8.507v-1.5c0-4.23,4.208-8.508,8.508-8.508,3.244,0,5.084.4,7.451,2.809C4158.873,2394.237,4153.406,2403.815,4147.147,2403.815Zm-12.008-10.007c0,3.838.806,5.992,3.059,8.45,6.289,6.847,18.957,2.528,18.957-7.7a11.812,11.812,0,0,0-2.957-7.551c-1.963-2.44-5.328-3.456-8.8-3.456C4140.263,2383.55,4135.14,2388.673,4135.14,2393.808Z" transform="translate(-4117.875 -2377.296)"/><path class="f" d="M4147.746,2395.191c0,4.836,5.256,1.9,5.256,4a1.548,1.548,0,0,1-1.752,1.75c-2.224,0-.957-1.524-2.752-2-1.823,1.22.6,3.41,1.748,3.5.029,1.314.148,1.495,1.25,1.749,1.344-2.005-.713-.243,1.814-2.189,2.119-1.624,1.945-4.485-.458-5.17a17.531,17.531,0,0,0-1.946-.309c-1.3-.19-1.41.053-1.41-1.34,0-.993.97-1.249,1.75-1.249,2.224,0,.957,1.523,2.749,2,1.6-1.071.005-2.624-1.149-3.354-.062-.037-.261-.139-.321-.181l-.369-.385a1.241,1.241,0,0,1-.078-.174c-.209-.428-.013-.529-.387-.892-1-.981-1.064.862-2.111,1.577a3.055,3.055,0,0,0-1.838,2.666Z" transform="translate(-4122.978 -2380.178)"/><path class="f" d="M4183.631,2411.439c.91-1.356,1.528-.964.5-2.5-1.226.1-3.5,2.743-3.5,3.254s2.29,3.148,3.5,3.249c1.007-1.231.149-1.279-.5-2.255,1.749,0,3.506,0,5.255-.006,1.442,0,4.253.4,4.253-1,0-1.2-2.028-.75-4.253-.75-1.749,0-3.506.006-5.255.006Z" transform="translate(-4136.299 -2387.579)"/><path class="f" d="M4127.11,2388.419a27.984,27.984,0,0,0,.249,6.254h1.25a28.045,28.045,0,0,0,.248-6.254A.874.874,0,1,0,4127.11,2388.419Z" transform="translate(-4114.604 -2378.911)"/><path class="f" d="M4170.422,2379.752a24.06,24.06,0,0,0,.248,5.753c1.987,0,1.5.322,1.5-6.252,0-.9-.632-.749-1.5-.749A3.684,3.684,0,0,0,4170.422,2379.752Z" transform="translate(-4132.146 -2375.25)"/><path class="f" d="M4165.376,2373.32c-.01,2.4-.357,4.962.486,6.223,1.715-.4,1.25-1.362,1.25-5a1.45,1.45,0,0,0-.748-1.5Z" transform="translate(-4130.087 -2373.04)"/><path class="f" d="M4132.542,2383.01c0,3.374-.5,5.5.75,5.5s.75-2.129.75-5.5A.751.751,0,1,0,4132.542,2383.01Z" transform="translate(-4116.78 -2376.756)"/><path class="f" d="M4141.016,2398.974c0,1.125.293,1,1.5,1l1-4.755c-1.177-.273-1.3-.261-1.855.894a6.29,6.29,0,0,0-.648,2.855Z" transform="translate(-4120.251 -2381.963)"/><path class="f" d="M4141.86,2405.337a3.622,3.622,0,0,0,.25,1.25C4145.852,2406.587,4141.86,2403.124,4141.86,2405.337Z" transform="translate(-4120.595 -2385.821)"/><path class="f" d="M4111.573,2438.945c0,.869-.153,1.5.75,1.5s.75-.629.75-1.5C4112.342,2438.778,4112.295,2438.665,4111.573,2438.945Z" transform="translate(-4108.324 -2399.663)"/><path class="f" d="M4190.555,2395.465c-.912-1.356-1.53-.964-.5-2.5,1.226.1,3.5,2.743,3.5,3.255s-2.293,3.147-3.507,3.248c-1.006-1.231-.147-1.279.5-2.25-1.747,0-3.5-.005-5.252-.005-1.446,0-4.256.4-4.256-1.005,0-1.2,2.028-.75,4.256-.75,1.747.006,3.5.006,5.252.006Z" transform="translate(-4136.462 -2381.109)"/></g></g></svg>