<svg xmlns="http://www.w3.org/2000/svg" width="32.492" height="37.771" viewBox="0 0 32.492 37.771"><defs><style>.a{fill:#fff;fill-rule:evenodd;}</style></defs><path class="a" d="M2465.582,4882.285v-2.174c.844,0,3.149.166,3.563-.276.316-.34.072-2.047,1.7-2.047a1.474,1.474,0,0,1,1.428,1.06c.151.542-.1,1.259,1.25,1.259h2.588c0,1.552.292,2.923-.749,2.923h-9.022a.709.709,0,0,1-.754-.755Zm2.423-3.757h-8.1a2.272,2.272,0,0,0-1.423.246,2.226,2.226,0,0,0-1.249,2.007v29.494a2.278,2.278,0,0,0,.8,1.709c.631.514.956.547,2.045.547h15.371l-1.084-1.5h-12.03c-.947,0-3.511.311-3.511-.584v-29.83a.64.64,0,0,1,.5-.5H2464c0,1.663-.325,4.51,2.423,4.51h8.857a2.511,2.511,0,0,0,1.768-.741c.863-.947.655-2.3.655-3.77h4.68c.274,0,.5.362.5.669v16.708a7.431,7.431,0,0,1,1.589.25V4882.79c0-1.791.311-3.352-1.476-4.12-.674-.292-8.169-.142-9.3-.142a2.914,2.914,0,0,0-5.68,0Z" transform="translate(-2457.23 -4876.27)"/><path class="a" d="M2495.683,4932.318a5.786,5.786,0,0,1,1.735-4.7,6.012,6.012,0,1,1,5.736,10.077c-3.813,1.022-7.466-2.145-7.466-5.379Zm6.388,7.1h-.849a7.36,7.36,0,0,1-2.87-.75,7.581,7.581,0,0,1-3.541-10.059c2.248-4.714,8.485-5.609,11.746-2.5a7.2,7.2,0,0,1,1.928,2.5,6.923,6.923,0,0,1,.722,3.538,7.533,7.533,0,0,1-7.146,7.275Z" transform="translate(-2476.715 -4901.657)"/><path class="a" d="M2480.312,4905.058c-2.013.473-3.427,1.686-3.427,3.927,0,4.7,7.018,2.155,7.018,6.014,0,3.079-5.849,3-5.849-.668h-1.5a4.093,4.093,0,0,0,3.106,4.163c.777.194.651-.143.651,1.6h1.5c0-1.726-.1-1.443.479-1.523,2.1-.286,1.514-1.371,2.716-2.965a1.707,1.707,0,0,0,.363-2.243c-1.032-2.546-4.859-1.947-6.3-3.394-.91-.914-.741-3.41,2.153-3.41a2.616,2.616,0,0,1,1.655.6,2.417,2.417,0,0,1,.769,1.57h1.588a4.212,4.212,0,0,0-3.427-3.592v-1.755h-1.5v1.676Z" transform="translate(-2467.443 -4890.604)"/><path class="a" d="M2505.463,4934.95a2.18,2.18,0,0,0-.655.429l-2.017,1.491a2.183,2.183,0,0,0,.429.655,3.1,3.1,0,0,0,.49.6c.565-.376,1.07-.783,1.635-1.207a14.8,14.8,0,0,1,1.707-1.216v-5.012h-1.588Z" transform="translate(-2481.315 -4905.037)"/></svg>