<svg xmlns="http://www.w3.org/2000/svg" width="34.734" height="32.302" viewBox="0 0 34.734 32.302"><defs><style>.a{fill:#fff;fill-rule:evenodd;}</style></defs><path class="a" d="M526.614,2151.373h-3.256v-11.188h3.189a.771.771,0,0,1,.88.837v9.508a.746.746,0,0,1-.814.839Zm9.9-3.5a.661.661,0,0,0,.61.7h7.193c1.041,0,8.627-3.284,9.9-3.284a1.224,1.224,0,0,1,1.154,1.188c0,1.35-2.536,2.017-3.554,2.49-1.4.652-2.735,1.249-4.14,1.883-1.955.88-6.5,3.317-8.788,3.317-4.3,0-6.634-4.127-10.108-4.127v-8.461h4.273c2.1,0,4.164,1.789,5.712,2.574,1.732.881,6.7-.96,6.7,1.624,0,3.176-8.953-.047-8.953,2.1Zm-14.514-8.457v12.725a.623.623,0,0,0,.611.629h4.344a2.03,2.03,0,0,0,1.694-1.33c2.418.582,2.863,1.093,4.695,2.224,2.238,1.382,3.1,1.9,5.953,1.9,2.267,0,7.51-2.755,9.478-3.653,1.533-.7,2.986-1.357,4.524-2.049,1.94-.871,3.431-1.2,3.431-3.53a2.614,2.614,0,0,0-2.579-2.518,58.451,58.451,0,0,0-7.326,2.448c0-3.914-2.815-3.285-5.764-3.285-1.642,0-1.4.066-2.494-.577-4.235-2.5-3.507-2.22-9.924-2.22a1.97,1.97,0,0,0-1.831-1.4h-4.207a.622.622,0,0,0-.611.63Z" transform="translate(-522 -2123.263)"/><path class="a" d="M544.94,2110.046c0,.516.294.7.748.7.809,0,1.032-3.355,4-3.355,3.952,0,3.5,5.248,5,3.757.118-.118.748-1.665,1.041-2.077,2.158-3.019,6.578-1.747,6.578,2.655,0,2.219-2.1,4.454-3.308,5.537-1.325,1.187-3.331,3.242-4.694,4.184-1.164-.806-2.678-2.3-3.8-3.28-.634-.553-1.249-1.126-1.841-1.741-.563-.577-1.335-1.766-1.95-1.766-.521,0-.611.446-.611.838,0,.733,7.59,7.619,8.14,7.619h.2c.321,0,4.874-4.283,5.5-4.812,6.928-5.906,2.872-12.314-.956-12.314h-.677a5.086,5.086,0,0,0-4.07,2.868c-1.519-1.8-1.779-2.868-4.747-2.868-2,0-4.543,2.238-4.543,4.057Z" transform="translate(-534.084 -2105.991)"/><path class="a" d="M527.74,2145.323a.686.686,0,1,0,1.358,0A.686.686,0,0,0,527.74,2145.323Z" transform="translate(-525.024 -2126.376)"/><path class="a" d="M544.8,2119.618a.686.686,0,1,0,1.358,0A.686.686,0,0,0,544.8,2119.618Z" transform="translate(-534.011 -2112.836)"/></svg>