<svg xmlns="http://www.w3.org/2000/svg" width="30.586" height="30.582" viewBox="0 0 30.586 30.582"><defs><style>.a{fill:#fff;fill-rule:evenodd;}</style></defs><path class="a" d="M2522.987,2149.7a11.838,11.838,0,0,1-1.8,1.891c-4.468,4.473-10.436-.249-8.468-5.073a14.569,14.569,0,0,1,3.34-3.795Zm-14.836,5.842v.3l1.733,1.738h.308c.956-1,1.978-1.944,2.94-2.935,2.617,1.479,5.255,1.851,8.048.2.982-.576,5.059-4.449,5.318-5.147-.288-.787-1.21-1.144-1.666-1.96a16.4,16.4,0,0,0,2.53-2.661,3.986,3.986,0,0,0-1.68-1.538l-2.54,2.51c-.8-.41-2.55-2.535-3.443-3.277.474-.87,2.041-1.812,2.491-2.721a3.361,3.361,0,0,0-1.67-1.695l-2.554,2.52c-.811-.42-1.133-1.327-1.935-1.641-.683.244-4.576,4.352-5.137,5.329a7.447,7.447,0,0,0-1.078,4.043,7.592,7.592,0,0,0,1.264,4.014l-2.926,2.927Z" transform="translate(-2508.151 -2127.006)"/><path class="a" d="M2536.711,2122.992a13.612,13.612,0,0,1,3.872-3.356,4.978,4.978,0,0,1,6.393,6.525,14.506,14.506,0,0,1-3.345,3.823l-6.92-7Zm14.836-5.84v-.3c-.586-.557-1.158-1.172-1.749-1.74h-.288c-.977.987-1.978,1.949-2.95,2.94-2.686-1.538-5.274-1.817-8.122-.146-.928.546-4.986,4.4-5.24,5.088a15.187,15.187,0,0,0,2.485,2.681l5.23,5.236c3.3,3.3,2.174,3.325,5.426.063a14.019,14.019,0,0,0,2.467-2.842c1.636-2.857,1.3-5.407-.194-8.034l2.94-2.944Z" transform="translate(-2520.967 -2115.11)"/><path class="a" d="M2508.15,2175.91h1.734l-1.734-1.74Z" transform="translate(-2508.15 -2145.327)"/></svg>