<svg xmlns="http://www.w3.org/2000/svg" width="41.472" height="32.39" viewBox="0 0 41.472 32.39"><defs><style>.a{fill:#fff;fill-rule:evenodd;}</style></defs><path class="a" d="M4402.549,2128.32c-.058-.424,0-22.775-.008-24.619,0-.734.043-1.036.471-1.429a1.38,1.38,0,0,1,2.278.867c.05.444.01,14.734.01,15.154v9.455a1.64,1.64,0,0,1-.483,1.415,1.386,1.386,0,0,1-2.272-.848Zm-21.924-7.074,4.112-.01c.528,2.362,1.193,4.821,1.79,7.173a1.911,1.911,0,0,0,.838,1.406c.7.7.459.719-.529.906-.733.139-3.282.675-3.8.72l-2.408-10.2Zm5.336-9.884c1.231-.552,2.562-1.021,3.79-1.513,1.271-.508,2.525-1,3.786-1.514s2.528-1.021,3.786-1.513c.515-.2,3.58-1.474,3.822-1.494l0,20.784a17.306,17.306,0,0,1-1.885-.73c-.654-.261-1.255-.5-1.893-.754-.9-.361-11.058-4.363-11.411-4.575l0-8.7Zm20.729,1.873,2.747.9v3.071c-.083.148-.109.123-.3.183-.542.168-2.158.755-2.454.793l.01-4.944Zm-26.585-1.612a40.5,40.5,0,0,1,4.461-.045c.069.2.087,7.666.024,8.277a30.409,30.409,0,0,1-4.753-.078,4.019,4.019,0,0,1-2.533-1.351c-2.7-3.318.527-6.99,2.8-6.8Zm21.04-7.834c-.572.287-7.785,3.131-8.488,3.4l-7.465,2.977c-.834.217-5-.4-6.986.493a5.516,5.516,0,0,0-.164,10.032c1.494.7.913-.508,1.967,4l1.706,7.237c.326,1.341.435,1.128,3.077.6a17.087,17.087,0,0,0,3.634-.844,1.633,1.633,0,0,0,.7-1.547,2.159,2.159,0,0,0-.873-1.375c-.437-.438-.384-.686-.62-1.607l-.9-3.575a17.986,17.986,0,0,1-.448-1.857l14.847,5.91a3.235,3.235,0,0,0,.48,2.051,2.82,2.82,0,0,0,1.417,1.069,2.762,2.762,0,0,0,3.348-1.4c.479-.938.287-3.476.287-4.713,0-.937-.051-4.329.009-4.97,1.01-.365,2.017-.675,3.038-1.015,1.354-.454,1.1-.306,1.1-2.948,0-3.057.479-2.377-2.643-3.431a13.128,13.128,0,0,1-1.488-.513c-.066-.72-.01-6.27-.01-7.478a4.47,4.47,0,0,0-.295-2.208,2.765,2.765,0,0,0-4.742-.331,3.26,3.26,0,0,0-.494,2.054Z" transform="translate(-4374.904 -2100.553)"/><path class="a" d="M4449.876,2143.889l3.419,2.075a5.766,5.766,0,0,0,.691-1.189c-.379-.3-3.3-2-3.45-2.035l-.666,1.144Z" transform="translate(-4412.914 -2121.943)"/><path class="a" d="M4449.891,2115.407a7.583,7.583,0,0,0,.671,1.168c.323-.059,2.966-1.809,3.444-2a5.3,5.3,0,0,0-.691-1.2Z" transform="translate(-4412.924 -2107.056)"/><path class="a" d="M4454.659,2129.915l-4.017-.015a7.044,7.044,0,0,0-.032,1.356l4.073-.015-.024-1.331Z" transform="translate(-4413.281 -2115.433)"/><path class="a" d="M4383.4,2128.443h1.3l.014-2.647-1.311-.005Z" transform="translate(-4379.213 -2113.348)"/><path class="a" d="M4389.03,2128.443h1.3l.01-2.653h-1.308Z" transform="translate(-4382.068 -2113.348)"/><path class="a" d="M4384.921,2131.079a31,31,0,0,0,4.752.078c.064-.611.05-8.075-.023-8.277a40.15,40.15,0,0,0-4.464.044l4.444.005v8.189l-3.584,0c-.375,0-.794-.049-1.125-.049Z" transform="translate(-4379.983 -2111.853)"/><path class="a" d="M4383.327,2125.73l1.313.005-.015,2.647h-1.3Zm-.023,2.725,1.351.01a16.053,16.053,0,0,0,.02-2.78l-1.39-.014A20.647,20.647,0,0,0,4383.3,2128.455Z" transform="translate(-4379.135 -2113.288)"/><path class="a" d="M4388.96,2125.73h1.308l-.016,2.652h-1.3v-2.652Zm-.064,2.721,1.372.014a14.176,14.176,0,0,0,.023-2.79l-1.391,0-.009,2.781Z" transform="translate(-4381.996 -2113.288)"/><path class="a" d="M4454.623,2129.92l.024,1.332-4.073.015a6.967,6.967,0,0,1,.031-1.356c-.128.069-.046-.03-.085.108l.017,1.277a39.3,39.3,0,0,0,4.159-.015l.019-1.061c0-.3,0-.236-.088-.3Z" transform="translate(-4413.244 -2115.438)"/></svg>