<svg xmlns="http://www.w3.org/2000/svg" width="23.958" height="38.691" viewBox="0 0 23.958 38.691"><defs><style>.a{fill:#fff;fill-rule:evenodd;}</style></defs><path class="a" d="M532.407,4883.425c-.05-.18-.089-6.2-.005-6.513a.653.653,0,0,1,1.247-.05c.05.162.1,6.123.022,6.507A.657.657,0,0,1,532.407,4883.425Zm6.311-2.354c.345-1.285.59-2.167.857-3.469.067-.334.145-.941.245-1.242a4.545,4.545,0,0,1,1.431,1.191,5.459,5.459,0,0,1,1.213,4,4.888,4.888,0,0,1-.6,1.959,10.25,10.25,0,0,0-3.15-2.435ZM524.2,4883.49a.549.549,0,0,1-.083-.094,6,6,0,0,1-.518-1.9,5.443,5.443,0,0,1,2.632-5.143l.812,3.583a10.323,10.323,0,0,1,.312,1.179,6.985,6.985,0,0,0-1.714,1.014,18.071,18.071,0,0,0-1.441,1.353Zm14.786-10.619c.017.368.006.853.017,1.253h.145a2.185,2.185,0,0,0-.15-1.28c.412.222.339,1,.262,1.387-.323.121-.334-.03-.362-.052l-.106-.09a38.023,38.023,0,0,1-1.285,6.361c-.017.045-.05.177-.061.211-.094.223.028.056-.133.146h-2.293c-.05-1.264.05-2.567-.006-3.808a1.979,1.979,0,0,0-3.951-.056c-.078,1.229.033,2.6-.011,3.859l-2.354,0c-.506-.84-1.213-5.412-1.414-6.589l-.033.049c-.017,0-.117,0-.15,0a.533.533,0,0,1-.067-.012.217.217,0,0,1-.184-.193,2.994,2.994,0,0,1,.061-1.032c.078-.161.083-.071.162-.312.067-.338-.139-2.342-.162-2.892a24.674,24.674,0,0,1,.017-2.94,18.908,18.908,0,0,1,4.335-10.49,16.011,16.011,0,0,1,1.77-1.752,4.76,4.76,0,0,1,.779.706l.763.787a17.828,17.828,0,0,1,3.456,5.8,18.144,18.144,0,0,1,1.113,5.041,26.248,26.248,0,0,1,0,2.956C539.129,4870.412,538.923,4872.627,538.99,4872.871Zm-13.095.915c.412-.073.267-.491.278-1.338.005-.539.412-.528.423.057.022,1.98-.178,1.329-.6,1.787l.039.617a9.345,9.345,0,0,0-1.887,1.391,6.851,6.851,0,0,0-1.3,1.96,6.774,6.774,0,0,0,.518,6.475c.907,1.4,1.414.192,1.77-.277.629-.823,2.476-2.308,3.395-2.331l2.515,0a3.873,3.873,0,0,0,.334,2.188,1.981,1.981,0,0,0,3.3,0c.456-.684.289-1.312.339-2.186,2.382-.15,3.155-.127,4.853,1.23a7.221,7.221,0,0,1,1.436,1.614c.679.985,1.3-.008,1.681-.709a6.783,6.783,0,0,0-1.931-8.715l-.161-.106a5.755,5.755,0,0,0-.857-.543l.028-.613a1.025,1.025,0,0,1-.5-.772c-.033-.607.362-.708.467-.84l.234-.019c.056.042.206-2.78.212-3.156a24.871,24.871,0,0,0-.089-3.349,19.716,19.716,0,0,0-1.453-5.505,22.583,22.583,0,0,0-1.163-2.313,18.987,18.987,0,0,0-3.027-3.929,12.784,12.784,0,0,0-1.392-1.225c-.462-.237-.874.124-1.208.457a18.109,18.109,0,0,0-2.9,3.2,20.439,20.439,0,0,0-2.416,4.542c-1.641,4.257-1.352,7.686-.94,12.4Z" transform="translate(-520.944 -4853.111)"/><path class="a" d="M540.777,4914.3a6.051,6.051,0,0,0-.5-2.148,1.966,1.966,0,0,1,2.226,2.17Zm-17.814,0-1.731.021a1.964,1.964,0,0,1,2.226-2.17c-.05.251-.25.634-.339.976A5.4,5.4,0,0,0,522.963,4914.3Zm11.414-2.912a3.348,3.348,0,0,1,5.053,2.938c-4.664-.072-9.694,0-14.4,0l-.712,0a3.391,3.391,0,0,1,4.964-3.02,5.258,5.258,0,0,0-1.258,1.207c-.74,1-.184,1.457.317,1.435.59-.026.5-.578,1.28-1.233a3.293,3.293,0,0,1,4.5.177c.195.2.362.506.568.718.439.443,1.992.034.39-1.621l-.7-.593Zm-10.051-.411a7.642,7.642,0,0,0-1.23-.166,3.3,3.3,0,0,0-3.2,3.467c.067,1.375.545,1.367,1.274,1.367h21.453c.823,0,1.18-.187,1.224-1.417a3.3,3.3,0,0,0-3.255-3.417c-1.269-.019-.868.468-1.436-.072a5.629,5.629,0,0,0-2.226-1.086c-.05-1.379.278-2.782-.668-2.787-1-.012-.546,1.464-.674,2.731a5.094,5.094,0,0,0-2.287.874c-.167.116-.273.279-.484.25s-.406-.082-.634-.1a8.28,8.28,0,0,0-1.441.086,4.973,4.973,0,0,0-2.17-1.038c-.072-1.362.289-2.8-.668-2.792-1,0-.556,1.4-.674,2.731a5.272,5.272,0,0,0-2.621,1.125,2.469,2.469,0,0,1-.289.266Z" transform="translate(-519.893 -4876.949)"/><path class="a" d="M537.026,4868.3a4.439,4.439,0,1,1,0-.008Zm-.423-1.281a4.63,4.63,0,1,0,0-.005Z" transform="translate(-525.319 -4859.247)"/><path class="a" d="M538.608,4870.964a3.078,3.078,0,0,0-2.521,3.027.655.655,0,0,0,1.1.484c.39-.36.033-1.779,1.508-2.175a4.958,4.958,0,0,0,.773-.139.648.648,0,0,0,.351-.58C539.826,4870.926,539.2,4870.849,538.608,4870.964Z" transform="translate(-527.073 -4861.009)"/><path class="a" d="M543.238,4875.311c-.6.3-.278.669-.551,1.285a1.768,1.768,0,0,1-.946.925c-.484.191-1.085.05-1.28.539-.162.431.055.985.935.9,3.05-.311,3.372-4.425,1.836-3.642Z" transform="translate(-528.993 -4862.914)"/><path class="a" d="M553.853,4889.9a7.473,7.473,0,0,0,.206-1.631l-.234.018c-.111.14-.506.239-.468.839A1.08,1.08,0,0,0,553.853,4889.9Z" transform="translate(-534.733 -4868.705)"/><path class="a" d="M528.9,4889.227c-.134-.513.278.138.278-.963,0-.441-.072-.858.1-.941.145.172.078.835.072,1.1-.006.462-.078.646-.445.8Zm-.128-.323c.016.154.005.421.1.506.417-.457.623.188.6-1.787-.005-.578-.412-.6-.423-.056-.011.847.139,1.263-.278,1.336Z" transform="translate(-523.83 -4868.219)"/><path class="a" d="M530.924,4889.857l-.122-1.128c-.022-.2-.006-.248-.084-.368-.078.245-.084.15-.161.313a2.951,2.951,0,0,0-.061,1.027.221.221,0,0,0,.184.2c.022,0,.044,0,.067.01a.7.7,0,0,0,.15,0l.033-.05Z" transform="translate(-524.587 -4868.744)"/><path class="a" d="M551.956,4889.827l.106.09c.022.022.033.172.362.048.084-.385.15-1.157-.261-1.385a2.152,2.152,0,0,1,.15,1.281h-.145c-.011-.4,0-.885-.016-1.253a4.743,4.743,0,0,0-.2,1.219Z" transform="translate(-534.11 -4868.842)"/><path class="a" d="M528.984,4889.345c.373-.158.44-.341.445-.8.006-.267.072-.93-.073-1.1-.172.09-.1.506-.1.941,0,1.1-.412.45-.278.963Z" transform="translate(-523.911 -4868.336)"/><path class="a" d="M555.9,4893.39c-.056-.076.016-.054-.162-.109Z" transform="translate(-535.791 -4870.924)"/><path class="a" d="M532.407,4883.425c-.05-.18-.089-6.2-.005-6.513a.653.653,0,0,1,1.247-.05c.05.162.1,6.123.022,6.507A.657.657,0,0,1,532.407,4883.425Zm6.311-2.354c.345-1.285.59-2.167.857-3.469.067-.334.145-.941.245-1.242a4.545,4.545,0,0,1,1.431,1.191,5.459,5.459,0,0,1,1.213,4,4.888,4.888,0,0,1-.6,1.959,10.25,10.25,0,0,0-3.15-2.435ZM524.2,4883.49a.549.549,0,0,1-.083-.094,6,6,0,0,1-.518-1.9,5.443,5.443,0,0,1,2.632-5.143l.812,3.583a10.323,10.323,0,0,1,.312,1.179,6.985,6.985,0,0,0-1.714,1.014,18.071,18.071,0,0,0-1.441,1.353Zm14.786-10.619c.017.368.006.853.017,1.253h.145a2.185,2.185,0,0,0-.15-1.28c.412.222.339,1,.262,1.387-.323.121-.334-.03-.362-.052l-.106-.09a38.023,38.023,0,0,1-1.285,6.361c-.017.045-.05.177-.061.211-.094.223.028.056-.133.146h-2.293c-.05-1.264.05-2.567-.006-3.808a1.979,1.979,0,0,0-3.951-.056c-.078,1.229.033,2.6-.011,3.859l-2.354,0c-.506-.84-1.213-5.412-1.414-6.589l-.033.049c-.017,0-.117,0-.15,0a.533.533,0,0,1-.067-.012.217.217,0,0,1-.184-.193,2.994,2.994,0,0,1,.061-1.032c.078-.161.083-.071.162-.312.067-.338-.139-2.342-.162-2.892a24.674,24.674,0,0,1,.017-2.94,18.908,18.908,0,0,1,4.335-10.49,16.011,16.011,0,0,1,1.77-1.752,4.76,4.76,0,0,1,.779.706l.763.787a17.828,17.828,0,0,1,3.456,5.8,18.144,18.144,0,0,1,1.113,5.041,26.248,26.248,0,0,1,0,2.956C539.129,4870.412,538.923,4872.627,538.99,4872.871Zm-13.095.915c.412-.073.267-.491.278-1.338.005-.539.412-.528.423.057.022,1.98-.178,1.329-.6,1.787l.039.617a9.345,9.345,0,0,0-1.887,1.391,6.851,6.851,0,0,0-1.3,1.96,6.774,6.774,0,0,0,.518,6.475c.907,1.4,1.414.192,1.77-.277.629-.823,2.476-2.308,3.395-2.331l2.515,0a3.873,3.873,0,0,0,.334,2.188,1.981,1.981,0,0,0,3.3,0c.456-.684.289-1.312.339-2.186,2.382-.15,3.155-.127,4.853,1.23a7.221,7.221,0,0,1,1.436,1.614c.679.985,1.3-.008,1.681-.709a6.783,6.783,0,0,0-1.931-8.715l-.161-.106a5.755,5.755,0,0,0-.857-.543l.028-.613a1.025,1.025,0,0,1-.5-.772c-.033-.607.362-.708.467-.84l.234-.019c.056.042.206-2.78.212-3.156a24.871,24.871,0,0,0-.089-3.349,19.716,19.716,0,0,0-1.453-5.505,22.583,22.583,0,0,0-1.163-2.313,18.987,18.987,0,0,0-3.027-3.929,12.784,12.784,0,0,0-1.392-1.225c-.462-.237-.874.124-1.208.457a18.109,18.109,0,0,0-2.9,3.2,20.439,20.439,0,0,0-2.416,4.542c-1.641,4.257-1.352,7.686-.94,12.4Z" transform="translate(-520.944 -4853.111)"/><path class="a" d="M540.777,4914.3a6.051,6.051,0,0,0-.5-2.148,1.966,1.966,0,0,1,2.226,2.17Zm-17.814,0-1.731.021a1.964,1.964,0,0,1,2.226-2.17c-.05.251-.25.634-.339.976A5.4,5.4,0,0,0,522.963,4914.3Zm11.414-2.912a3.348,3.348,0,0,1,5.053,2.938c-4.664-.072-9.694,0-14.4,0l-.712,0a3.391,3.391,0,0,1,4.964-3.02,5.258,5.258,0,0,0-1.258,1.207c-.74,1-.184,1.457.317,1.435.59-.026.5-.578,1.28-1.233a3.293,3.293,0,0,1,4.5.177c.195.2.362.506.568.718.439.443,1.992.034.39-1.621l-.7-.593Zm-10.051-.411a7.642,7.642,0,0,0-1.23-.166,3.3,3.3,0,0,0-3.2,3.467c.067,1.375.545,1.367,1.274,1.367h21.453c.823,0,1.18-.187,1.224-1.417a3.3,3.3,0,0,0-3.255-3.417c-1.269-.019-.868.468-1.436-.072a5.629,5.629,0,0,0-2.226-1.086c-.05-1.379.278-2.782-.668-2.787-1-.012-.546,1.464-.674,2.731a5.094,5.094,0,0,0-2.287.874c-.167.116-.273.279-.484.25s-.406-.082-.634-.1a8.28,8.28,0,0,0-1.441.086,4.973,4.973,0,0,0-2.17-1.038c-.072-1.362.289-2.8-.668-2.792-1,0-.556,1.4-.674,2.731a5.272,5.272,0,0,0-2.621,1.125,2.469,2.469,0,0,1-.289.266Z" transform="translate(-519.893 -4876.949)"/><path class="a" d="M537.026,4868.3a4.439,4.439,0,1,1,0-.008Zm-.423-1.281a4.63,4.63,0,1,0,0-.005Z" transform="translate(-525.319 -4859.247)"/><path class="a" d="M538.608,4870.964a3.078,3.078,0,0,0-2.521,3.027.655.655,0,0,0,1.1.484c.39-.36.033-1.779,1.508-2.175a4.958,4.958,0,0,0,.773-.139.648.648,0,0,0,.351-.58C539.826,4870.926,539.2,4870.849,538.608,4870.964Z" transform="translate(-527.073 -4861.009)"/><path class="a" d="M543.238,4875.311c-.6.3-.278.669-.551,1.285a1.768,1.768,0,0,1-.946.925c-.484.191-1.085.05-1.28.539-.162.431.055.985.935.9,3.05-.311,3.372-4.425,1.836-3.642Z" transform="translate(-528.993 -4862.914)"/><path class="a" d="M553.853,4889.9a7.473,7.473,0,0,0,.206-1.631l-.234.018c-.111.14-.506.239-.468.839A1.08,1.08,0,0,0,553.853,4889.9Z" transform="translate(-534.733 -4868.705)"/><path class="a" d="M528.9,4889.227c-.134-.513.278.138.278-.963,0-.441-.072-.858.1-.941.145.172.078.835.072,1.1-.006.462-.078.646-.445.8Zm-.128-.323c.016.154.005.421.1.506.417-.457.623.188.6-1.787-.005-.578-.412-.6-.423-.056-.011.847.139,1.263-.278,1.336Z" transform="translate(-523.83 -4868.219)"/><path class="a" d="M530.924,4889.857l-.122-1.128c-.022-.2-.006-.248-.084-.368-.078.245-.084.15-.161.313a2.951,2.951,0,0,0-.061,1.027.221.221,0,0,0,.184.2c.022,0,.044,0,.067.01a.7.7,0,0,0,.15,0l.033-.05Z" transform="translate(-524.587 -4868.744)"/><path class="a" d="M551.956,4889.827l.106.09c.022.022.033.172.362.048.084-.385.15-1.157-.261-1.385a2.152,2.152,0,0,1,.15,1.281h-.145c-.011-.4,0-.885-.016-1.253a4.743,4.743,0,0,0-.2,1.219Z" transform="translate(-534.11 -4868.842)"/><path class="a" d="M528.984,4889.345c.373-.158.44-.341.445-.8.006-.267.072-.93-.073-1.1-.172.09-.1.506-.1.941,0,1.1-.412.45-.278.963Z" transform="translate(-523.911 -4868.336)"/><path class="a" d="M555.9,4893.39c-.056-.076.016-.054-.162-.109Z" transform="translate(-535.791 -4870.924)"/></svg>