<svg xmlns="http://www.w3.org/2000/svg" xmlns:xlink="http://www.w3.org/1999/xlink" width="351.856" height="235.264" viewBox="0 0 351.856 235.264"><defs><style>.a{fill:#e6e7e8;}.b{fill:#b9b9b9;}.b,.c,.d,.e,.f,.g,.h,.i,.j,.k,.l{fill-rule:evenodd;}.c{fill:#acacac;}.d,.m,.n{fill:#aaa;}.e{fill:#a9a9a9;}.f{fill:#a8a8a8;}.g{fill:silver;}.h{fill:#bfbfbf;}.i{fill:#f6f6f6;}.j{fill:#eaeaea;}.k{fill:#f1f1f1;}.l{fill:#c1c1c1;}.m{font-size:24px;font-family:basictitlefont, basic title font;}.n{font-size:17px;font-family:SegoeUI, Segoe UI;}.o{filter:url(#a);}</style><filter id="a" x="0" y="0" width="351.856" height="235.264" filterUnits="userSpaceOnUse"><feOffset dx="-3" dy="7" input="SourceAlpha"/><feGaussianBlur stdDeviation="6.5" result="b"/><feFlood flood-opacity="0.161"/><feComposite operator="in" in2="b"/><feComposite in="SourceGraphic"/></filter></defs><g transform="translate(22.5 12.5)"><g class="o" transform="matrix(1, 0, 0, 1, -22.5, -12.5)"><rect class="a" width="312.857" height="196.264" rx="40" transform="translate(22.5 12.5)"/></g><path class="b" d="M14554.851,3094.842c1.185,1.974,1.395,1.525,7.749,3.42,22.211,6.623,45.557-12.518,44.372-32.33l-67.1-.062c1.5,7.366,1.828,11.715,5.146,17.678,1.526,2.745,8.255,11.181,9.833,11.294Z" transform="translate(-14424.816 -2972.152)"/><path class="c" d="M13597.894,937.4c-2.226-.9-10.172,2.627-16.565,4.02-37.069,8.079-76.225-19.255-80.276-59.978a67.631,67.631,0,0,1,66.657-74.65c4.119-.018,15.079,2.02,16.832,1.142-2.282-6.342-39.271-7.4-63.663,14.693-29.248,26.485-30.622,74.578-1.422,102.856,2.06,1.994,3.689,2.65,5.791,4.676,2.928,2.82,3,2.545,6.046,4.358,18.5,11.032,43.786,14.593,63.254,5.748C13597.637,938.856,13596.736,939.828,13597.894,937.4Z" transform="translate(-13416.344 -782.258)"/><path class="d" d="M14331.346,2963.661l67.1.062c1.187,19.812-22.161,38.952-44.371,32.33-6.354-1.894-6.564-1.446-7.75-3.42-7.911-2.722-19.283-15.615-18.465-29.361Zm60.076,25.128,4.543-5.982a37.732,37.732,0,0,0,3.336-6.379c1.89-4.848,3.431-10.464,2.549-16.128l-76.948.03c-2.3,10.734,5.479,23.1,10.654,28.418,15.9,16.336,41.554,14.925,55.866.041Z" transform="translate(-14216.29 -2869.944)"/><path class="e" d="M15585.786,2148.07c-.07.849.925,1.927-3.7,3.761a29.513,29.513,0,0,1-7.061,1.748c3.422-10.417,4.24-12.561,13.81-16.279l1.707-.847c-.265,5.56-1.816,9.074-4.762,11.616Zm-13.176,7.874c14.067.162,21.159-8.853,21.038-22.734C15581.913,2133.589,15571.654,2142.79,15572.61,2155.944Z" transform="translate(-15424.619 -2069.184)"/><path class="f" d="M14859.386,2133.36c6.721,1.99,12.249,7.281,12.747,15.194-6.488-.263-9.146-1.563-10.541-5.107-2.516-2.929-3.944-5.324-3.993-10.747Zm10.145,17.465,5.612,1.147-.068-5.311c-.48-9.715-10.549-16.547-20.692-17.522-.048,5.663.938,10.772,3.648,14.706,2.312,3.357,6.5,6.824,11.5,6.979Z" transform="translate(-14729.314 -2065.243)"/><path class="g" d="M15661.254,2272.469c.691-3.2,2.328-6.026,3.056-10.769-9.569,3.718-10.387,5.861-13.809,16.279a29.544,29.544,0,0,0,7.059-1.748c4.621-1.834,3.626-2.912,3.694-3.761Z" transform="translate(-15500.09 -2193.583)"/><path class="h" d="M15013.8,2271.8c1.4,3.544,4.054,4.844,10.542,5.107-.5-7.912-6.026-13.2-12.747-15.193l2.205,10.087Z" transform="translate(-14881.521 -2193.593)"/><path class="i" d="M14447.562,3083c-1.58-.113-8.309-8.549-9.836-11.294-3.317-5.964-3.645-10.312-5.146-17.678l-3.485-.389C14428.278,3067.386,14439.648,3080.28,14447.562,3083Z" transform="translate(-14317.528 -2960.312)"/><path class="j" d="M15988.3,2246.706c2.947-2.542,4.5-6.056,4.762-11.616l-1.705.847C15990.629,2240.68,15988.992,2243.5,15988.3,2246.706Z" transform="translate(-15827.136 -2167.821)"/><path class="k" d="M14959.456,2251.727l-2.206-10.087-1.788-.66C14955.511,2246.4,14956.94,2248.8,14959.456,2251.727Z" transform="translate(-14827.178 -2173.523)"/><path class="l" d="M15330.3,2683.684c.918,1.964,4,1.495,6.19,1.284a11.506,11.506,0,0,0,.118-2.519l-.764-2.928.066,5.311Z" transform="translate(-15190.084 -2598.102)"/><text class="m" transform="translate(198.141 88.405)"><tspan x="0" y="0">SANTO</tspan></text><text class="n" transform="translate(194.937 105.249)"><tspan x="0" y="0">AÇAI</tspan></text></g></svg>