<svg xmlns="http://www.w3.org/2000/svg" width="41.853" height="44.84" viewBox="0 0 41.853 44.84"><defs><style>.a{fill-rule:evenodd;}</style></defs><path class="a" d="M29.173,20.912a13.879,13.879,0,0,1,2.5.3A11.08,11.08,0,0,1,38.9,26.6a11.864,11.864,0,0,1,1.384,4.221c.024.234,0,.458.012.689a5.25,5.25,0,0,1-.023,1.9,11.191,11.191,0,0,1-19,6.613A10.134,10.134,0,0,1,19.993,38.5c-.2-.3-.371-.546-.548-.853a11.95,11.95,0,0,1-1.383-4.222c-.023-.232,0-.455-.017-.684a2.83,2.83,0,0,1,0-1.236c.018-.228-.006-.452.017-.684a11.039,11.039,0,0,1,.216-1.185,11.2,11.2,0,0,1,10.894-8.723ZM18.926,24.678c-.951-.221-9.521-.088-11.21-.088-1.284,0-1.29,1.487-.176,1.577H17.875a4.061,4.061,0,0,1-.275.688l-.957,3.071c-.168.93.16.707-2.446.707H8.154c-.912,0-1.4-.1-1.4.788a.658.658,0,0,0,.7.7h9.021v1.489H7.453c-.494,0-.7.318-.7.788,0,.91,1.023.7,1.927.7h8.145a11.808,11.808,0,0,0,1.489,3.678H1.586V2.959h26.8V19.248c0,.337-.277.252-.593.283-.194.019-.6.056-.86.1a13.01,13.01,0,0,0-2.81.868A12.764,12.764,0,0,0,20.7,22.684a10.7,10.7,0,0,0-1.772,1.994ZM9.381,1.47l-8.672,0a.6.6,0,0,0-.451.162,1.016,1.016,0,0,0-.248.453V39.741c0,.721,1.186.614,1.488.613H18.4c1.918,0,.767.032,2.677,1.526a12.405,12.405,0,0,0,8.708,2.94A12.6,12.6,0,0,0,41.5,35.17a12.825,12.825,0,0,0-2.06-10.519A13.208,13.208,0,0,0,33.978,20.4a12.913,12.913,0,0,0-2.5-.736c-1.761-.335-1.513.369-1.513-1.727V4.972c0-3.994.509-3.5-2.978-3.5H20.5c.407-.354.438-.208.438-.788a.658.658,0,0,0-.7-.7H9.555a.773.773,0,0,0-.5,1.1c.184.363.094.074.322.385Z" transform="translate(-0.01 0.02)"/><path class="a" d="M123.7,286.563c0,.414.009.963.963.963H142c1.662,0,1.308-1.576.351-1.576H124.488C124.127,285.95,123.7,286.244,123.7,286.563Z" transform="translate(-116.957 -270.36)"/><path class="a" d="M123.7,122.878c0,.469.206.788.7.788h17.253c.892,0,1.272-1.577-.438-1.577h-16.2C124.32,122.09,123.7,122.184,123.7,122.878Z" transform="translate(-116.957 -115.433)"/><path class="a" d="M123.7,342.871c0,.553.184.876,1.138.876h13.574c1.315,0,1.292-1.577.088-1.577H124.488a.715.715,0,0,0-.788.7Z" transform="translate(-116.957 -323.515)"/><path class="a" d="M520.49,411.812v8.758c0,.767.378.963,1.139.963h3.941c1.385,0,1.132-1.576.175-1.576h-3.678c0-1.127.158-8.1-.146-8.611a.786.786,0,0,0-1.43.467Z" transform="translate(-492.116 -388.603)"/><path class="a" d="M123.7,179.021c0,.469.206.788.7.788h9.808a.745.745,0,0,0,0-1.489H124.4A.658.658,0,0,0,123.7,179.021Z" transform="translate(-116.957 -168.598)"/><path class="a" d="M123.7,397.413c0,.527.073.963.963.963,1.111,0,7.921.158,8.436-.146.494-.292.58-1.43-.642-1.43h-7.97c-.361,0-.788.294-.788.613Z" transform="translate(-116.957 -375.167)"/><path class="a" d="M123.7,506.643c0,.4.081.963.613.963h7.619c.873,0,1.325-1.577-.438-1.577h-6.656c-.49,0-1.138.171-1.138.613Z" transform="translate(-116.957 -478.442)"/><path class="a" d="M126.907,234.419h7.882c.667,0,.818-1.489-.175-1.489h-7.531c-1.071,0-.821,1.489-.175,1.489Z" transform="translate(-119.463 -220.231)"/><path class="a" d="M54.62,122.956c0,.852,1.033.7,1.576.7.873,0,1.185-1.577-.438-1.577-.651,0-1.138.213-1.138.876Z" transform="translate(-51.643 -115.424)"/><path class="a" d="M54.62,452.2c0,1.161,2.277.957,2.277.175,0-.585-.077-.963-1.138-.963C55.129,451.41,54.62,451.573,54.62,452.2Z" transform="translate(-51.643 -426.8)"/><path class="a" d="M54.62,342.3c0,1.088,2.277,1.088,2.277,0C56.9,341.174,54.62,341.224,54.62,342.3Z" transform="translate(-51.643 -322.857)"/><path class="a" d="M54.62,562.782c0,.972.964.788,1.576.788a.745.745,0,0,0,0-1.489C55.614,562.082,54.62,561.932,54.62,562.782Z" transform="translate(-51.643 -531.429)"/><path class="a" d="M54.62,233.46c0,.955.87.788,1.576.788a.745.745,0,0,0,0-1.489C55.653,232.759,54.62,232.607,54.62,233.46Z" transform="translate(-51.643 -220.059)"/></svg>