<svg xmlns="http://www.w3.org/2000/svg" width="61.811" height="49.234" viewBox="0 0 61.811 49.234"><defs><style>.a{fill-rule:evenodd;}</style></defs><path class="a" d="M4108.017,2421.458a15.574,15.574,0,0,1,6.5,0l0,10.57c.046,3.26.845,2.707-5.694,2.707-1.338,0-.81-3.639-.81-6.229v-7.041Zm20.586,4.336c0,1.353,1.905,1.7,3.2,2.487,2.337,1.423,4.935,3.214,6.931.327.25-.366.065-.193.329-.481.873-.974,7.2-2.68,8.858-3.338,1.609-.637,5.609-2.576,5.609-.349,0,1.127-3.911,3.028-4.876,3.524-1.86.961-3.539,2-5.426,2.978-.937.489-1.532.913-2.614,1.448-10.738,5.321-8.266,5.134-15.852.232-2.888-1.868-4.711-1.437-8.351-.592v-9.482c.852-.226,2.339-1.213,3.479-1.67,4.489-1.792,4.134-1.977,11.235,1.578,1.113.56,6.409,2.944,6.409,3.886,0,5.88-8.942-3.943-8.942-.542Zm-12.457-5.147c-2.423-1.622-.435-1.082-7.584-1.082a2.453,2.453,0,0,0-2.442,2.435v11.917c0,3.343,4.555,2.711,7.049,2.711,3.567,0,2.569-2.177,3.67-2.828.052-.026,4.264-1.076,5.735-.347,5.209,2.557,6.007,6.564,12.341,3.8l18.534-9.907c3.855-2.267,1.218-5.881-.738-5.881-1.474,0-5.3,1.539-6.871,2.062-2.256.739-4.393,1.738-6.667,2.266-.368-1.577-1.527-2.119-2.885-2.8-1.432-.72-2.546-1.268-3.976-1.984-7.923-3.961-8.265-4.54-16.162-.361Z" transform="translate(-4106.12 -2388.954)"/><path class="a" d="M4148.141,2405.49h-1.9c-4.591,0-9.21-4.643-9.21-9.21v-1.625c0-4.58,4.555-9.211,9.21-9.211,3.512,0,5.5.432,8.067,3.041C4160.836,2395.121,4154.917,2405.49,4148.141,2405.49Zm-13-10.835c0,4.155.872,6.487,3.312,9.148,6.809,7.414,20.524,2.737,20.524-8.336a12.785,12.785,0,0,0-3.2-8.175c-2.125-2.642-5.768-3.742-9.529-3.742C4140.688,2383.551,4135.14,2389.1,4135.14,2394.656Z" transform="translate(-4116.448 -2376.78)"/><path class="a" d="M4147.747,2395.566c0,5.236,5.69,2.06,5.69,4.334a1.676,1.676,0,0,1-1.9,1.894c-2.406,0-1.036-1.65-2.979-2.171-1.974,1.321.654,3.691,1.892,3.793.03,1.423.161,1.618,1.353,1.894,1.456-2.171-.771-.263,1.965-2.37,2.294-1.758,2.106-4.856-.5-5.6a19.05,19.05,0,0,0-2.106-.335c-1.405-.206-1.526.058-1.526-1.45,0-1.075,1.051-1.353,1.9-1.353,2.406,0,1.035,1.649,2.976,2.165,1.731-1.16.006-2.841-1.244-3.632-.066-.04-.281-.15-.348-.2l-.4-.417a1.4,1.4,0,0,1-.085-.188c-.227-.463-.015-.573-.419-.966-1.083-1.063-1.152.933-2.286,1.707a3.309,3.309,0,0,0-1.99,2.886Z" transform="translate(-4120.93 -2379.312)"/><path class="a" d="M4183.879,2411.646c.985-1.469,1.654-1.043.539-2.705-1.327.108-3.788,2.969-3.788,3.523s2.481,3.408,3.794,3.517c1.09-1.333.161-1.384-.541-2.441,1.895,0,3.8,0,5.69-.007,1.562,0,4.6.432,4.6-1.088,0-1.3-2.2-.812-4.6-.812-1.895,0-3.8.007-5.69.007Z" transform="translate(-4132.634 -2385.814)"/><path class="a" d="M4127.114,2388.492c0,2.513-.22,4.677.27,6.771h1.353c.489-2.094.269-4.258.269-6.771A.946.946,0,1,0,4127.114,2388.492Z" transform="translate(-4113.573 -2378.198)"/><path class="a" d="M4170.425,2379.856c0,2.474-.212,4.162.269,6.229,2.152,0,1.625.348,1.625-6.77,0-.98-.684-.811-1.625-.811A3.99,3.99,0,0,0,4170.425,2379.856Z" transform="translate(-4128.985 -2374.982)"/><path class="a" d="M4165.383,2373.344c-.011,2.6-.387,5.373.527,6.737,1.856-.432,1.354-1.475,1.354-5.418a1.571,1.571,0,0,0-.81-1.623Z" transform="translate(-4127.178 -2373.04)"/><path class="a" d="M4132.55,2383.076c0,3.652-.538,5.958.813,5.958s.812-2.305.812-5.958A.814.814,0,1,0,4132.55,2383.076Z" transform="translate(-4115.486 -2376.306)"/><path class="a" d="M4141.017,2399.3c0,1.217.317,1.083,1.625,1.083l1.08-5.148c-1.273-.3-1.408-.282-2.009.968a6.822,6.822,0,0,0-.7,3.091Z" transform="translate(-4118.537 -2380.88)"/><path class="a" d="M4141.86,2405.4a3.921,3.921,0,0,0,.272,1.353C4146.183,2406.751,4141.86,2403,4141.86,2405.4Z" transform="translate(-4118.837 -2384.269)"/><path class="a" d="M4111.574,2438.959c0,.941-.165,1.623.813,1.623s.811-.681.811-1.623C4112.408,2438.779,4112.356,2438.656,4111.574,2438.959Z" transform="translate(-4108.057 -2396.43)"/><path class="a" d="M4191.342,2395.673c-.988-1.469-1.657-1.043-.543-2.712,1.327.11,3.79,2.97,3.79,3.524s-2.482,3.407-3.8,3.517c-1.088-1.333-.159-1.385.542-2.435-1.892,0-3.793-.006-5.687-.006-1.564,0-4.606.432-4.606-1.088,0-1.295,2.2-.811,4.606-.811,1.894.007,3.8.007,5.687.007Z" transform="translate(-4132.778 -2380.129)"/></svg>