<svg xmlns="http://www.w3.org/2000/svg" width="41.214" height="41.21" viewBox="0 0 41.214 41.21"><defs><style>.a{fill:#fff;fill-rule:evenodd;}</style></defs><g transform="translate(-4699.964 -4801.763)"><path class="a" d="M352.731,4309.318c1.007,0,2.9.267,2.9-.724,0-.906-1.389-.645-2.575-.645a9.2,9.2,0,0,1,1.873-5.208,9.845,9.845,0,0,1,11.863-3.218,11.017,11.017,0,0,1,1.52.811,7.273,7.273,0,0,1,.7.508,9.6,9.6,0,0,1,3.683,7.1H357.4c-.508,0-1.012,1.369.566,1.369h15.048c1.35,0,1.075-.658,1.045-1.772a11.015,11.015,0,0,0-1.5-4.621,10.491,10.491,0,0,0-1.288-1.768,5.493,5.493,0,0,0-1.142-1.112,10.837,10.837,0,0,0-6.539-2.638,3.891,3.891,0,0,0-1.375,0,10.516,10.516,0,0,0-6.123,2.245,10.732,10.732,0,0,0-2.289,2.3c-.237.327-.4.6-.6.929a11.141,11.141,0,0,0-1.525,4.595c-.048,1.153-.3,1.849,1.046,1.849Z" transform="translate(4357.697 518.682)"/><path class="a" d="M363.636,4332.844a11.582,11.582,0,0,0,2.986-.632,20.348,20.348,0,0,0,1.278-2.426h.16a24.4,24.4,0,0,0,1.239,2.381,9.429,9.429,0,0,0,3.025.676c-.382.574-2.014,1.758-2.014,2.334,0,1.045.32,1.806.32,2.817a20.846,20.846,0,0,0-2.657-1.253,20.852,20.852,0,0,0-2.657,1.253c0-1.035.319-1.719.319-2.894,0-.412-1.709-1.806-2.013-2.257Zm2.091-1.687a7.056,7.056,0,0,0-1.128.159c-1,.166-3.059.26-3.059.963,0,1.032,2.6,2.687,2.735,3.219l-.358,2.382c-.107.681-.537,1.966.518,1.966.518,0,3.156-1.656,3.543-1.656.474,0,2.836,1.656,3.7,1.656s.411-1.588.353-1.966l-.353-2.382c.136-.532,2.735-2.187,2.735-3.219,0-.354-.421-.513-.712-.576l-3.47-.551a13.008,13.008,0,0,0-.968-1.93c-.411-.829-1.147-2.764-2.067-1.021l-1.476,2.952Z" transform="translate(4352.586 503.123)"/><path class="a" d="M336.065,4337.949Zm0,0a10.492,10.492,0,0,1,.208-1.646c.087-.591.266-1.108-.106-1.515l-1.791-1.91c.484-.012,1.738-.292,2.347-.388.349-.058.474-.065.663-.3a17.546,17.546,0,0,0,1.254-2.451,5.745,5.745,0,0,1,.7,1.151c.789,1.584.528,1.47,2.062,1.724a14.169,14.169,0,0,0,1.67.268c-.407.608-1.341,1.254-1.825,1.877-.5.654.131,2,.131,3.272-.31-.163-2.376-1.229-2.6-1.249-.5-.048-2.1,1.026-2.715,1.17Zm.4-6.763a5.661,5.661,0,0,0-1.128.159l-2.347.393c-.508.106-.712.223-.712.735,0,.446.818,1.1,1.268,1.549a16.355,16.355,0,0,0,1.466,1.429l-.368,2.448c-.131.9-.508,1.979.528,1.979.518,0,3.156-1.654,3.543-1.654.474,0,2.836,1.654,3.7,1.654.319,0,.552-.46.532-.774-.029-.42-.145-.887-.193-1.254a14.045,14.045,0,0,1-.271-2.409c.223-.426,2.672-2.359,2.672-2.968,0-.813-1.055-.793-1.815-.918l-2.367-.369a3.406,3.406,0,0,0-.479-.971l-1-1.9c-.2-.358-.252-.751-.779-.751-.634,0-.852.837-1.258,1.637a13.066,13.066,0,0,0-.992,1.984Z" transform="translate(4367.684 503.089)"/><path class="a" d="M399.915,4337.957Zm0,0c-.5-.116-2.212-1.172-2.657-1.172a21.048,21.048,0,0,0-2.657,1.253c0-1.17.6-2.608.169-3.229s-1.437-1.3-1.859-1.92c.561-.017,2.759-.338,3.064-.722l.987-1.83c.15-.274.15-.421.377-.591a17.262,17.262,0,0,0,1.254,2.449c.257.314.867.344,1.413.436a14.214,14.214,0,0,0,1.6.251,6.9,6.9,0,0,1-.905.945c-1.955,1.956-.784,1.521-.784,4.123Zm-4.908-6.762-2.3.358c-.683.111-1.888.13-1.888.851,0,.784,2.149,2.275,2.643,3a9.056,9.056,0,0,1-.232,2.392c-.058.425-.145.789-.194,1.258a.674.674,0,0,0,.683.838c.518,0,3.156-1.655,3.543-1.655.426,0,2.933,1.655,3.621,1.655,1.05,0,.455-1.877.266-3.165-.063-.433-.15-.887-.184-1.264.315-.212,1.689-1.655,2.154-2.111.315-.312.581-.434.581-.943,0-.721-.968-.7-1.815-.837l-2.367-.368c-.092-.392-1.109-2.206-1.447-2.9-.164-.34-.3-.728-.8-.728s-.566.35-.75.7c-.237.449-1.433,2.62-1.505,2.923Z" transform="translate(4337.478 503.081)"/><path class="a" d="M362.75,4274.4a4.982,4.982,0,0,1,1.428-3.561,5.156,5.156,0,0,1,5.978-1.1,4.858,4.858,0,0,1,1.428,1.065,5.145,5.145,0,1,1-8.833,3.605Zm4.709-6.518h.837a6.526,6.526,0,0,1,5.479,9.259,5.719,5.719,0,0,1-1.35,1.869c-4.134,4.158-11.045.914-11.045-4.61a6.457,6.457,0,0,1,3.7-5.876A6.17,6.17,0,0,1,367.459,4267.881Z" transform="translate(4352.668 533.883)"/><path class="a" d="M369.87,4283.572c0,.541.281.808.91,1.183,2.038,1.225,4.7-.642,3.717-1.543-.552-.507-.968.073-1.2.253-1.341,1.029-2.3-.452-2.788-.452a.713.713,0,0,0-.644.563Z" transform="translate(4348.288 526.078)"/></g></svg>