<svg xmlns="http://www.w3.org/2000/svg" width="44.397" height="23.464" viewBox="0 0 44.397 23.464"><defs><style>.a{fill:#dbdbda;fill-rule:evenodd;}</style></defs><path class="a" d="M332.29,3342.464c0,1.008,1.22,5.954,1.457,7.046.179.851.818,4.4,1.31,4.939a1.873,1.873,0,0,0,1.578.5,5.752,5.752,0,0,1-.486,1.253l-1.6,3.781c-.172.4-.358.844-.511,1.227l-.543,1.279a1.481,1.481,0,0,0,1.489,2.095c.958,0,1.24-.7,1.521-1.425s2.6-5.9,2.639-6.383h4.683l.882,2.069c.275.672.575,1.368.875,2.072.537,1.252,1.182,3.666,2.319,3.666,1.872,0,2.019-1.233,1.412-2.625-.568-1.31-2.5-6.115-2.971-7,.856,0,1.188-.051,1.642-.523l.3-.479a1.5,1.5,0,0,0-.824-1.936,6.652,6.652,0,0,0-1.987-.095h-8.063a10.063,10.063,0,0,1-.332-1.407l-.965-4.324a39.855,39.855,0,0,0-1.016-4.274,1.548,1.548,0,0,0-2.351-.384,1.672,1.672,0,0,0-.454.932Z" transform="translate(-332.29 -3341.134)"/><path class="a" d="M386.875,3351.9c-.933,0-9.552-.084-9.992.07a1.527,1.527,0,0,0-.556,2.5,1.975,1.975,0,0,0,1.61.473l-.837,1.936a61.675,61.675,0,0,0-2.46,6.126,1.5,1.5,0,0,0,2.671,1.016c.268-.337,2.332-5.309,2.671-6.172a11.808,11.808,0,0,1,.473-1.092h4.683c.026.275,1.514,3.744,1.738,4.249.294.67.6,1.379.875,2.07.473,1.181.658,1.489,1.891,1.489a1.433,1.433,0,0,0,1.041-.7c.55-.895-.051-1.7-.421-2.613l-1.6-3.782c-.192-.433-.332-.8-.511-1.226a9.1,9.1,0,0,1-.511-1.316c1.482,0,1.827-.473,2.121-1.961.32-1.636,2.217-9.354,2.217-10.531a1.743,1.743,0,0,0-.409-.9,1.549,1.549,0,0,0-2.364.283,4.671,4.671,0,0,0-.4,1.342c-.223,1.009-.434,1.954-.639,2.919l-.958,4.333a10.819,10.819,0,0,1-.345,1.47Z" transform="translate(-347.582 -3341.118)"/><path class="a" d="M349.8,3349.651a1.509,1.509,0,0,0,.543,1.369,2.177,2.177,0,0,0,1.367.363h7.545v12.753c-1.259,0-2.255.2-2.255,1.649a1.365,1.365,0,0,0,1.386,1.386h4.856c1.636,0,2.357-3.035-.7-3.035h-.262v-12.753h7.635c2.741,0,2.16-3.033.607-3.033H351.094a1.467,1.467,0,0,0-1.3,1.3Z" transform="translate(-338.609 -3343.731)"/></svg>