<svg xmlns="http://www.w3.org/2000/svg" width="41.064" height="23.256" viewBox="0 0 41.064 23.256"><defs><style>.a{fill-rule:evenodd;}</style></defs><g transform="translate(-869.417 -3164.495)"><path class="a" d="M4107.477,2669.225h38.333v5.532c-2.423,0-6.07,3.872-2.933,7.909a4.719,4.719,0,0,0,1.243,1,4.027,4.027,0,0,0,1.694.557v5.532H4107.48v-5.532c2.1,0,4.229-2.5,4.168-4.729a5.992,5.992,0,0,0-.386-1.781,5.092,5.092,0,0,0-.844-1.4,4.766,4.766,0,0,0-2.934-1.558v-5.532Zm-1.366-.72v6.9c0,1.316,2.265-.059,3.639,2.454a2.059,2.059,0,0,1,.315.732,3.384,3.384,0,0,1-2.618,4.234c-.626.127-1.333-.039-1.333.756v6.9a.607.607,0,0,0,.644.643h39.776a.6.6,0,0,0,.64-.643v-6.9c0-.756-.64-.644-1.263-.747a3.4,3.4,0,0,1-1.446-6.054c1.354-1.119,2.709-.242,2.709-1.38v-6.9a.6.6,0,0,0-.64-.639h-39.776a.6.6,0,0,0-.644.639Z" transform="translate(-3236.693 496.635)"/><path class="a" d="M4144.681,2690.509l.964,1,10.986-10.948a2.749,2.749,0,0,0-.442-.484c-.191-.194-.294-.383-.581-.459l-10.928,10.884Z" transform="translate(-3256.595 490.566)"/><path class="a" d="M4161.242,2697.507a1.149,1.149,0,0,1,.444-1.079c1.274-1.132,3,.8,1.825,1.985A1.34,1.34,0,0,1,4161.242,2697.507Zm-1.442-.16a2.757,2.757,0,1,0,2.89-2.647A2.763,2.763,0,0,0,4159.8,2697.347Z" transform="translate(-3264.396 482.786)"/><path class="a" d="M4144.26,2680.48a1.351,1.351,0,0,1,2.271-.988,1.528,1.528,0,0,1,.294.344,1.355,1.355,0,0,1-1.142,1.965,1.291,1.291,0,0,1-1.264-.76,3.6,3.6,0,0,1-.154-.567Zm-1.362-.32a2.693,2.693,0,0,0,.744,2.226,2.763,2.763,0,0,0,4.454-.716,2.669,2.669,0,0,0,.251-1.51,2.76,2.76,0,0,0-4.557-1.747,2.651,2.651,0,0,0-.9,1.747Z" transform="translate(-3255.672 491.555)"/><path class="a" d="M4131.466,2701.887v1.206h1.441c0-1.734.27-1.443-1.205-1.443-.184,0-.242.057-.242.242Z" transform="translate(-3249.772 479.209)"/><path class="a" d="M4131.471,2680.336c0,.357.372.237,1.206.237.377,0,.242-.494.242-1.443h-1.441v1.206Z" transform="translate(-3249.779 490.818)"/><path class="a" d="M4131.471,2691.842h1.444V2690.4h-1.444Z" transform="translate(-3249.779 485.006)"/><path class="a" d="M4131.466,2696.278v1.206h1.441v-1.444H4131.7c-.184,0-.242.059-.242.243Z" transform="translate(-3249.772 482.095)"/><path class="a" d="M4131.471,2685.971c0,.184.059.241.242.241h1.206v-1.442h-1.441v1.206Z" transform="translate(-3249.779 487.91)"/><path class="a" d="M4131.471,2708.827h1.444v-1.366h-1.444Z" transform="translate(-3249.779 476.202)"/><path class="a" d="M4131.471,2674.86h1.444V2673.5h-1.444Z" transform="translate(-3249.779 493.724)"/><path class="a" d="M4111.75,2708.827h1.366v-1.366h-1.366Z" transform="translate(-3239.604 476.202)"/><path class="a" d="M4111.75,2674.86h1.366V2673.5h-1.366Z" transform="translate(-3239.604 493.724)"/><path class="a" d="M4182.5,2708.827h1.365v-1.366H4182.5Z" transform="translate(-3276.11 476.202)"/><path class="a" d="M4182.5,2674.86h1.365V2673.5H4182.5Z" transform="translate(-3276.11 493.724)"/></g></svg>