<svg xmlns="http://www.w3.org/2000/svg" width="60.358" height="31.239" viewBox="0 0 60.358 31.239"><defs><style>.a{fill-rule:evenodd;}</style></defs><path class="a" d="M4108.118,2669.694h56.347v7.431c-3.563,0-8.923,5.2-4.312,10.624a6.858,6.858,0,0,0,1.827,1.345,6.3,6.3,0,0,0,2.49.748v7.43h-56.347v-7.43c3.095,0,6.217-3.355,6.126-6.353a7.4,7.4,0,0,0-.565-2.392,6.768,6.768,0,0,0-1.241-1.88,7.232,7.232,0,0,0-4.313-2.093v-7.431Zm-2.007-.968v9.263c0,1.769,3.329-.078,5.35,3.3a2.658,2.658,0,0,1,.462.982,4.557,4.557,0,0,1-3.849,5.688c-.919.17-1.958-.052-1.958,1.015v9.264a.856.856,0,0,0,.946.864h58.467a.85.85,0,0,0,.939-.864v-9.264c0-1.015-.939-.865-1.856-1a4.908,4.908,0,0,1-3.492-2.3c-1.255-2.1-.656-4.31,1.367-5.832,1.988-1.5,3.981-.325,3.981-1.854v-9.264a.845.845,0,0,0-.939-.858h-58.467a.851.851,0,0,0-.946.858Z" transform="translate(-4106.111 -2667.86)"/><path class="a" d="M4144.682,2692.59l1.417,1.194,16.149-13.04a3.635,3.635,0,0,0-.65-.577,1.812,1.812,0,0,0-.854-.547l-16.062,12.964Z" transform="translate(-4117.24 -2671.068)"/><path class="a" d="M4161.92,2698.826a1.688,1.688,0,0,1,.652-1.586c1.873-1.663,4.407,1.181,2.682,2.918A1.968,1.968,0,0,1,4161.92,2698.826Zm-2.121-.235a4.053,4.053,0,1,0,4.249-3.891A4.062,4.062,0,0,0,4159.8,2698.592Z" transform="translate(-4121.603 -2677.758)"/><path class="a" d="M4144.9,2681.786a1.986,1.986,0,0,1,3.339-1.452,2.233,2.233,0,0,1,.432.505,1.992,1.992,0,0,1-1.678,2.888,1.9,1.9,0,0,1-1.858-1.116,5.271,5.271,0,0,1-.228-.833Zm-2-.471a3.959,3.959,0,0,0,1.095,3.273,4.062,4.062,0,0,0,6.547-1.052,3.928,3.928,0,0,0,.368-2.22c0-2.81-4.264-4.987-6.7-2.567a3.887,3.887,0,0,0-1.323,2.567Z" transform="translate(-4116.725 -2671.492)"/><path class="a" d="M4131.469,2702.008v1.773h2.119c0-2.549.4-2.121-1.772-2.121-.27,0-.355.084-.355.355Z" transform="translate(-4113.423 -2679.814)"/><path class="a" d="M4131.471,2680.9c0,.525.546.348,1.772.348.555,0,.355-.726.355-2.121h-2.118v1.773Z" transform="translate(-4113.429 -2671.851)"/><path class="a" d="M4131.471,2692.52h2.122V2690.4h-2.122Z" transform="translate(-4113.429 -2675.836)"/><path class="a" d="M4131.469,2696.39v1.772h2.119v-2.122h-1.772c-.27,0-.355.086-.355.357Z" transform="translate(-4113.423 -2677.833)"/><path class="a" d="M4131.471,2686.536c0,.269.086.354.355.354h1.771v-2.12h-2.118v1.772Z" transform="translate(-4113.429 -2673.844)"/><path class="a" d="M4131.471,2709.469h2.122v-2.008h-2.122Z" transform="translate(-4113.429 -2682.232)"/><path class="a" d="M4131.471,2675.5h2.122v-2h-2.122Z" transform="translate(-4113.429 -2669.488)"/><path class="a" d="M4111.75,2709.469h2.007v-2.008h-2.007Z" transform="translate(-4107.74 -2682.232)"/><path class="a" d="M4111.75,2675.5h2.007v-2h-2.007Z" transform="translate(-4107.74 -2669.488)"/><path class="a" d="M4182.5,2709.469h2.005v-2.008H4182.5Z" transform="translate(-4128.154 -2682.232)"/><path class="a" d="M4182.5,2675.5h2.005v-2H4182.5Z" transform="translate(-4128.154 -2669.488)"/></svg>