<svg xmlns="http://www.w3.org/2000/svg" width="41.198" height="39.498" viewBox="0 0 41.198 39.498"><defs><style>.a{fill-rule:evenodd;}</style></defs><path class="a" d="M347.27,5695.477h-5.824a3.288,3.288,0,0,0,2.918,1.706,3.434,3.434,0,0,0,2.671-1.3C347.122,5695.78,347.2,5695.557,347.27,5695.477Zm26.214-1.709-5.994-.012-.772.706a3.432,3.432,0,0,0,3.733,2.7A3.381,3.381,0,0,0,373.483,5693.768Zm-25.048-.039c-.657-5.695-7.587-5.6-8.161.016Zm25.814-1.691a4.26,4.26,0,0,0-4.554-3.411l-1.193,3.411h5.753Zm-22.919-5.995-8.835.012-.377,2.144a5.985,5.985,0,0,1,3.191-.368c2.7.49,4.587,2.908,4.855,5.914h2.589l-1.418-7.7Zm1.533-2.819a.712.712,0,0,0-.586-.553c-.088-.054.088-.023-.186-.087a1.677,1.677,0,0,0-.246-.023l-3.246.033.038,1.758,4.275-.026A1.716,1.716,0,0,0,352.864,5683.224Zm1.8.727c-.142,1.639.334,2.05-1.543,2.093l.679,3.848a1.964,1.964,0,0,0,.06.274c.049.13.044.075.11.15a18.3,18.3,0,0,0,1.467-3.038,29.829,29.829,0,0,0,1.346-3.086l-2.118-.23Zm-.175,9.767c.936.1,2.25.021,3.224.021,8.687,0,8.09.76,10.329-5.6.241-.685,1.615-4.3,1.62-4.676h-2.48l-3.766,7.026c-.285.549-.6,1.426-1.2,1.529l-8.014.02Zm-7.6-11.112-9.656,0c.022.235.624,1.642.92,1.71l8.774-.008-.038-1.7Zm.027-3.431-10.274.014.005,1.693,10.28-.006-.005-1.7Zm10.625,11.116a13.808,13.808,0,0,0,.947-1.67l1.856-3.415c.657-1.155,1.708-2.586.624-3.685a6.348,6.348,0,0,0-1.85-.782c-2.934-.986-2.748-.743-2.764-2.432l-4.423.021a8.125,8.125,0,0,0-.235,2.519c.958.15,1.171.02,1.921.544,1.27.889-.706.625,3.8,1.128.723.083,1.484.1,1.511.9.022.6-2.737,6.072-2.923,6.894Zm12.327-8.565c-.077-.8-.372-1.944-.542-2.78-.263-1.276-.175-1.63-1.817-1.47a2.093,2.093,0,0,1-.925,1.765l.739,2.5ZM362.131,5679c-.69.185-.859.171-1.281-.257l-2.556-2.5a11.75,11.75,0,0,0-.219,2.293,28.508,28.508,0,0,1,3.7,1.4,3.533,3.533,0,0,1,1.3,3.647,24.139,24.139,0,0,1-1.724,3.379c-.312.578-.608,1.1-.9,1.65a12.851,12.851,0,0,0-.887,1.688l1.971-.023a10.06,10.06,0,0,0,.69-1.247c.214-.44.438-.778.662-1.219,3.744-7.306,2.841-4.009,2.14-7.82a3.169,3.169,0,0,1-2.9-1Zm1.21-1.183a1.646,1.646,0,0,0,2.124.188c.827-.648-.038-1.363-.969-1.409l-1.155,1.226ZM358,5671.061a5.407,5.407,0,0,1-.777-.842c-.279-.521.027-.829.186-1.2a2.154,2.154,0,0,0-.887-.129c-2.95,0-2.863.055-3.448,3.159a42.253,42.253,0,0,0-.783,4.547l4.209-.015.317-1.836c-.635-.808-2.069-1.782-2.124-2.463a.846.846,0,0,1,1.281-.814c.427.24,5.14,5.211,5.649,5.539a5.363,5.363,0,0,0,1.144-1.155L358,5671.057Zm-3.333-6.427c-.2,3.4,3.629,3.346,3.377-.026Zm4.3-1.785c-.077-1.2-.87-1.678-2.1-1.678-1.27,0-2.091.437-2.162,1.707Zm3.673,1.678-2.857.043a2.38,2.38,0,0,0-.06.9,3.876,3.876,0,0,1-1.007,2.387,2.889,2.889,0,0,1,.728,2.123l4.883,4.917a3.312,3.312,0,0,1,2.047.535c.848.62.706.142,2.31.318,1.856.208,2.1,1.718,2.332,2.869.881,4.4,1.073,3.251.006,6.289a15.054,15.054,0,0,0-.668,1.987c3.635.2,5.972,3.518,5.725,6.042-.06.62-.378.625-.832.848a5.249,5.249,0,0,1-1.325,3.361,5.118,5.118,0,0,1-8.43-1.1,8.407,8.407,0,0,0-.378-.8,50.4,50.4,0,0,1-7.822.206q-4.056,0-8.112,0a5.108,5.108,0,0,1-9.645.005c-1.221-.069-1.122-.882-.963-2.025a7.474,7.474,0,0,1,1.308-3.372,19.222,19.222,0,0,0,.854-4.044c-.8.012-1.609,0-2.409.006-1.6,0-1.3.136-2.512-2.311-.235-.469-.651-1.186-.816-1.64a45.062,45.062,0,0,1-.077-4.784c0-.813.011-1.624.941-1.557.887.062.723.892.8,1.693l10.241.011.022-5.991-1.686,0c-.268,1.143-1.494,1.175-1.757.009l-3.372-.018c-.2.444-.219.821-.848.85s-.794-.355-.942-.85c-.963,0-2.644.292-2.529-.953.1-1.089,1.773-.766,2.792-.766h7.056c3.481,0,3.005-.535,3.005,4.079,0,2.339-.033,4.7.006,7.035l1.281.038a54.987,54.987,0,0,1,1.138-7.428c.214-1.175.389-2.43.657-3.6.383-1.669,1.341-1.927,1.916-2.425a5.315,5.315,0,0,1-.673-1.8v-2.283a3.555,3.555,0,0,1,1.615-3.385,4.951,4.951,0,0,1,4.149-.185,3.423,3.423,0,0,1,1.96,3.077,7.194,7.194,0,0,1,2.2.157.835.835,0,0,1-.257,1.507Z" transform="translate(-334.897 -5659.392)"/></svg>