<svg xmlns="http://www.w3.org/2000/svg" width="46.443" height="36.994" viewBox="0 0 46.443 36.994"><defs><style>.a{fill-rule:evenodd;}</style></defs><g transform="translate(-404.812 -3759.16)"><path class="a" d="M4107.544,2420.54a11.672,11.672,0,0,1,4.883,0l0,7.942c.035,2.45.635,2.033-4.278,2.033-1.006,0-.608-2.734-.608-4.68v-5.291Zm15.468,3.257c0,1.016,1.432,1.277,2.405,1.869,1.757,1.069,3.708,2.415,5.208.246.188-.276.048-.145.247-.362.656-.732,5.412-2.014,6.656-2.508,1.21-.479,4.215-1.937,4.215-.262,0,.847-2.939,2.274-3.664,2.647-1.4.722-2.659,1.5-4.077,2.237-.7.367-1.151.687-1.963,1.089-8.068,4-6.211,3.858-11.912.174-2.17-1.4-3.541-1.08-6.273-.444v-7.125c.639-.169,1.757-.91,2.614-1.255,3.373-1.346,3.106-1.486,8.441,1.186.836.421,4.816,2.212,4.816,2.919,0,4.418-6.719-2.962-6.719-.407Zm-9.36-3.867c-1.821-1.219-.327-.814-5.7-.814a1.843,1.843,0,0,0-1.834,1.83v8.954c0,2.512,3.421,2.037,5.3,2.037,2.68,0,1.93-1.636,2.758-2.125.039-.019,3.2-.808,4.309-.261,3.914,1.922,4.514,4.932,9.273,2.856l13.925-7.445c2.9-1.7.916-4.419-.554-4.419-1.107,0-3.983,1.157-5.162,1.549-1.695.555-3.3,1.306-5.01,1.7-.276-1.185-1.146-1.593-2.167-2.105-1.076-.542-1.913-.953-2.987-1.491-5.953-2.976-6.21-3.412-12.144-.271Z" transform="translate(-3701.309 1363.044)"/><path class="a" d="M4144.908,2400.035h-1.425a7.474,7.474,0,0,1-6.92-6.92v-1.22a7.427,7.427,0,0,1,6.92-6.921c2.639,0,4.136.324,6.062,2.285C4154.446,2392.243,4150,2400.035,4144.908,2400.035Zm-9.769-8.141c0,3.122.655,4.874,2.488,6.874,5.116,5.57,15.422,2.056,15.422-6.264a9.608,9.608,0,0,0-2.406-6.142c-1.6-1.985-4.333-2.812-7.16-2.812C4139.308,2383.55,4135.139,2387.717,4135.139,2391.894Z" transform="translate(-3716.283 1380.698)"/><path class="a" d="M4147.746,2394.348c0,3.934,4.274,1.548,4.274,3.257a1.259,1.259,0,0,1-1.424,1.423c-1.81,0-.778-1.24-2.239-1.631-1.483.992.493,2.773,1.422,2.85.024,1.07.121,1.216,1.017,1.423,1.094-1.631-.58-.2,1.476-1.781,1.724-1.321,1.582-3.649-.373-4.206a14.217,14.217,0,0,0-1.583-.251c-1.056-.155-1.146.043-1.146-1.09,0-.807.789-1.016,1.423-1.016,1.81,0,.778,1.239,2.236,1.626,1.3-.872,0-2.134-.935-2.729-.05-.03-.212-.113-.261-.146l-.3-.313a.911.911,0,0,1-.064-.141c-.171-.348-.011-.43-.315-.726-.813-.8-.866.7-1.717,1.283a2.485,2.485,0,0,0-1.5,2.169Z" transform="translate(-3722.785 1377.025)"/><path class="a" d="M4183.07,2410.973c.741-1.1,1.244-.784.405-2.033-1,.082-2.845,2.231-2.845,2.647s1.862,2.561,2.85,2.643c.819-1,.122-1.04-.406-1.834,1.424,0,2.854,0,4.275-.005,1.173,0,3.461.324,3.461-.817,0-.974-1.65-.611-3.461-.611-1.422,0-2.852.006-4.275.006Z" transform="translate(-3739.756 1367.597)"/><path class="a" d="M4127.1,2388.254a22.71,22.71,0,0,0,.2,5.087h1.016a22.8,22.8,0,0,0,.2-5.087A.711.711,0,1,0,4127.1,2388.254Z" transform="translate(-3712.115 1378.641)"/><path class="a" d="M4170.413,2379.518a19.552,19.552,0,0,0,.2,4.68c1.616,0,1.221.262,1.221-5.086,0-.736-.514-.609-1.221-.609A2.985,2.985,0,0,0,4170.413,2379.518Z" transform="translate(-3734.464 1383.306)"/><path class="a" d="M4165.361,2373.268c-.008,1.95-.291,4.037.4,5.062,1.395-.325,1.017-1.108,1.017-4.071a1.179,1.179,0,0,0-.609-1.219Z" transform="translate(-3731.842 1386.12)"/><path class="a" d="M4132.523,2382.862c0,2.744-.4,4.477.611,4.477s.61-1.732.61-4.477A.612.612,0,1,0,4132.523,2382.862Z" transform="translate(-3714.89 1381.386)"/><path class="a" d="M4141.014,2398.246c0,.915.239.814,1.222.814l.812-3.869c-.958-.222-1.059-.212-1.509.728a5.122,5.122,0,0,0-.528,2.323Z" transform="translate(-3719.311 1374.752)"/><path class="a" d="M4141.86,2405.2a2.947,2.947,0,0,0,.2,1.017C4145.107,2406.216,4141.86,2403.4,4141.86,2405.2Z" transform="translate(-3719.75 1369.837)"/><path class="a" d="M4111.571,2438.913c0,.708-.125,1.219.61,1.219s.61-.512.61-1.219C4112.2,2438.777,4112.158,2438.685,4111.571,2438.913Z" transform="translate(-3704.115 1352.202)"/><path class="a" d="M4188.78,2395c-.743-1.1-1.246-.784-.409-2.038,1,.083,2.848,2.232,2.848,2.648s-1.864,2.56-2.853,2.643c-.818-1-.119-1.041.407-1.83-1.422,0-2.851,0-4.273,0-1.175,0-3.461.324-3.461-.818,0-.973,1.65-.61,3.461-.61,1.422,0,2.851,0,4.273,0Z" transform="translate(-3739.965 1375.841)"/></g></svg>