<svg xmlns="http://www.w3.org/2000/svg" width="44.435" height="44.437" viewBox="0 0 44.435 44.437"><defs><style>.a{fill:#dbdbda;fill-rule:evenodd;}</style></defs><path class="a" d="M2371.876,5500.031a24.691,24.691,0,0,1-2.235,1.186c-.37.228-.753.362-1.172.593a7.4,7.4,0,0,1-1.172.611,12.517,12.517,0,0,1-2.1,1.064,12.185,12.185,0,0,1-2.307,1.169l-2.14,1.146a15,15,0,0,1-1.634.882,9.184,9.184,0,0,1-1.779.858c-.134.167.108,0-.17.158-.194.116-.031.028-.262.1a3.084,3.084,0,0,1-1.925-.3l-2.024-.748a5.713,5.713,0,0,1-1.311-.427c-.339-.086-.741-.238-1.063-.341-.182-.06-.3-.116-.479-.179-.237-.087-.365-.094-.5-.25a3.675,3.675,0,0,1-1.246-.372c-.376-.125-.8-.286-1.153-.417a2.065,2.065,0,0,1-.948-.389,18.9,18.9,0,0,1-2.187-.687c-.669-.116-2.156,0-2.933-.032l0-9.693c1.082-.036,2.224,0,3.315,0a6.18,6.18,0,0,1,2.965.321,10.979,10.979,0,0,1,2.168.818,16.274,16.274,0,0,1,2.271.8,2.781,2.781,0,0,1,.559.167c.024.007.189.068.219.078.273.135.1.044.206.135a4.5,4.5,0,0,1,1.088.347c.7.263,6.382-.123,7.149.188a1.359,1.359,0,0,1,.722,1.914c-.3.832-1.306.77-2.314.777-1.324.022-2.673-.019-4-.007a11.194,11.194,0,0,0-3.759.269c-.4.322-.165-.031-.888.729a2.7,2.7,0,0,0-.564.934l-.074.109-.061.735.456,0h.935l.147-.549a.813.813,0,0,1,.4-.5.71.71,0,0,1,.248-.193.842.842,0,0,1,.267-.1c.912-.1,5.109-.03,6.372-.03,4.434,0,1.847-.534,5.169-1.33l.832-.25a14.493,14.493,0,0,1,2.459-.719,1.732,1.732,0,0,1,.875-.324,15,15,0,0,1,2.46-.715,1.678,1.678,0,0,1,.867-.322c.281-.134.822-.279,1.174-.4a.987.987,0,0,1,1.153.221l.115.17c.317.078.408.741.36,1.021-.14.809-1.9,1.529-2.57,1.8Zm-40.439-8.594v1.113h8.333l-.006,12.5h-8.321l-.006,1.385c1.531,0,3.067.013,4.593,0a17.125,17.125,0,0,0,4.487-.208,2.354,2.354,0,0,1,.414-.35l.28-.827a13.019,13.019,0,0,1,2.94.11c.352.127,2.04.691,2.168.8a1.92,1.92,0,0,1,1.008.4,15.259,15.259,0,0,1,2.4.8c.189.048.3.077.505.14.037.023.183.071.213.084l.242.164a14.992,14.992,0,0,1,2.37.79l2.466.88h1.834a28.12,28.12,0,0,1,3.28-1.666,9.893,9.893,0,0,1,2.264-1.213c.212-.216,1.809-.966,2.222-1.2a14.376,14.376,0,0,1,1.781-.884c.072-.093,2.454-1.344,2.72-1.432a12.641,12.641,0,0,1,2.089-1.068,11.9,11.9,0,0,1,2.308-1.168l.443-.318a1.907,1.907,0,0,0,.814-.664l.323-.376a3.071,3.071,0,0,1,.164-.549,2.9,2.9,0,0,0,.091-.574l-.206-1.114a3.946,3.946,0,0,1-.316-.514,2.227,2.227,0,0,0-.39-.427,2.6,2.6,0,0,0-1.094-.605,1.878,1.878,0,0,0-.886-.074c-.583.2-4.118,1.331-4.423,1.312-.1.071.02.007-.164.1l-.395.134a3.8,3.8,0,0,1-.577.157,13.453,13.453,0,0,1-2.216.636c-.1.093-.019.032-.152.106-.025.012-.086.038-.11.048-.048.019-.212.071-.273.093-.218.064-.382.105-.582.151l-.742.228c.025-.552-.127-.9-.115-1.254-.1-.1,0,.016-.115-.139-.237-.33.183.288-.061-.1a2.968,2.968,0,0,0-1.208-1.221c-1.214-.495-3.256-.305-4.72-.285-.709.005-1.859.053-2.521-.007a11.167,11.167,0,0,1-1.846-.646c-.292-.079-.752-.157-.935-.394a13.427,13.427,0,0,1-2.327-.793c-.292-.081-.747-.161-.929-.4a5.684,5.684,0,0,1-1.513-.478,6.65,6.65,0,0,0-1.925-.074h-3.924a.39.39,0,0,1-.025-.055l-.072-.23a1.543,1.543,0,0,0-.371-.723l-.115-.1-.564-.286c-.006-.032-.037-.022-.055-.036l-8.565.036-.005.286Z" transform="translate(-2331.42 -5464.784)"/><path class="a" d="M2368.165,5456.14c.322.1.237.029.414.3.551,1.368-1.555,1.031-2.708,1.031-.687,0-3.511.147-3.876-.131a.688.688,0,0,1,.256-1.221C2362.62,5456.031,2367.952,5456.067,2368.165,5456.14Zm-3.851-5.922c.474.158.5.344,1.112.286.383-.186.771-.382,1.147-.565a4.006,4.006,0,0,1,1.16-.509c.061-.078,0-.165.268-.158.145.006,1.348.715,1.8.857a2.972,2.972,0,0,1-.565,1.03,10.867,10.867,0,0,1-.863,1.854c-.152.309-.692,1.586-.953,1.7l-4.587,0-.7-1.45-1.026-2.067-.53-1.068c.384-.125,1.635-.9,1.908-.841.092.016,1.749.866,1.821.927Zm-4.294-1.341-.8.395-.128.151a.691.691,0,0,0-.134.632,3.814,3.814,0,0,1,.426,1,9.426,9.426,0,0,1,1.131,2.191l.874,1.7a4.1,4.1,0,0,1-.559.446l-.078.216c-.231.1-.371.578-.414.917a2.261,2.261,0,0,0,.213,1.235l-.71.186c-.152.164-.224.158-.442.245s-.371.145-.579.216c-.26.221-.825.462-1.166.7-.412.285-.752.6-1.122.8a3.423,3.423,0,0,1-.5.525c-.164.174-.34.44-.547.5-.116.279-.048.134-.182.212a8.1,8.1,0,0,1-.741,1.087c-.152.228-.583,1.049-.7,1.149-.115.383-.3.709-.456,1.1-.078.2-.152.346-.213.517l-.146.382c-.074.129-.018.055-.109.147a4.421,4.421,0,0,1-.273,1.112,4.072,4.072,0,0,1-.323,1.246l-.267,2.6-.037.237-.037,1.463-.012,1.188v.757l1.39-.009.11-3.932c.025-.285-.031-.2.1-.34a5.417,5.417,0,0,1,.117-1.361c.012-.08.035-.259.054-.316a.462.462,0,0,1,.037-.116c.073-.167-.007-.048.091-.141a8.166,8.166,0,0,1,.649-2.463,5.988,5.988,0,0,1,1.056-2.118c.079-.767,2.328-2.923,3.073-3.216a6.49,6.49,0,0,1,2.369-1.029,1.809,1.809,0,0,1,.844-.123c.153-.127.08-.08.341-.1,1.488,0,5.618-.175,6.736.15l.741.219a9.823,9.823,0,0,1,3.317,2.089,11.462,11.462,0,0,1,2.265,3.152,9.4,9.4,0,0,1,.844,2.164,19.254,19.254,0,0,1,.825,5.405c0,2.016-.078,4.293.019,6.271l1.36-.016c.1-.632.007-6.447-.035-7.44a22.193,22.193,0,0,1-.206-2.272l-.172-.539c-.085-.646-.649-2.26-.642-2.571-.123-.135.017.116-.141-.2-.03-.059-.072-.19-.1-.267a6.077,6.077,0,0,1-.206-.591l-1.044-1.858c-.139-.237-.087-.078-.117-.3-.254-.134-.212-.151-.321-.43-.213-.1-.449-.507-.632-.721-.066-.052-.007,0-.108-.1a.9.9,0,0,1-.111-.119,1.62,1.62,0,0,1-.195-.254l-.673-.651c-.17-.084-.011.02-.217-.15a1.244,1.244,0,0,1-.231-.22,6.524,6.524,0,0,1-1.039-.738l-2.065-.97a1.032,1.032,0,0,1-.152-.071c-.1-.057-.08-.036-.128-.086l.219-.667a2.356,2.356,0,0,0-.272-1.368,3.98,3.98,0,0,0-.778-.783l.225-.437,1.78-3.552.419-.834c.114-.717-.129-.784-.632-1.031a7.271,7.271,0,0,1-1.07-.561l-1.512-.757h-.408a15.1,15.1,0,0,1-1.449.747c-.25.128-.5.245-.743.369-.364.185-.364.25-.7.014l-.583-.286-1.659-.843h-.407l-2.2,1.116Z" transform="translate(-2339.497 -5447.758)"/><path class="a" d="M2369.528,5477.125a.624.624,0,0,1,.339.351c.28.174.619.485.966.729a11.491,11.491,0,0,0,1.112.587c.48.251,1.779,1.021,1.245,1.792a1.031,1.031,0,0,1-.705.76c-1.032.517-1.859-.328-1.968-1.268l-1.342.014a2.44,2.44,0,0,0,.254,1.225l.17.388c.474.241.292.517,1.355.96l.284.157-.005,1.445,1.367-.009.049-1.467c.673-.392,1.348-.456,1.876-1.772.08-.2.042-.2.182-.353-.067-.455-.018-.739-.121-1.246a7.641,7.641,0,0,0-.589-.837c-.219-.234-.528-.437-.752-.642l-1.683-.917c-.614-.4-1.172-.81-.972-1.49a1.387,1.387,0,0,1,1.524-.989c1.032.151,1.112,1.05,1.227,1.349l1.366.019-.146-1.068c-.3-.239-.625-1.3-1.968-1.592l.013-1.49h-.456l-.923.028v1.467a2.542,2.542,0,0,0-1.786,1.425,2.417,2.417,0,0,0,.078,2.437Z" transform="translate(-2346.228 -5457.182)"/><path class="a" d="M2342,5510.854l-.012-1.4-1.4.006v1.4Z" transform="translate(-2335.02 -5471.98)"/><path class="a" d="M2337.391,5509.789v-.408l-1.378.062L2336,5510.8l1.4.028Z" transform="translate(-2333.219 -5471.952)"/><path class="a" d="M2381.972,5482.31l.007-1.386-1.4-.013.007,1.38Z" transform="translate(-2350.723 -5460.773)"/><path class="a" d="M2364.6,5481.879l.019.433,1.365-.042.013-1.36h-1.4Z" transform="translate(-2344.448 -5460.773)"/></svg>