<svg xmlns="http://www.w3.org/2000/svg" width="46.964" height="45.727" viewBox="0 0 46.964 45.727"><defs><style>.a{fill-rule:evenodd;}</style></defs><path class="a" d="M362.17,3978.442a1.386,1.386,0,0,1,2.716-.556A1.386,1.386,0,0,1,362.17,3978.442Zm17.53-9.608v-.073l-.317-1.2c-.27.056-7.485,3.413-8.315,3.817l-6.228,2.877c-.122.02-1-.169-1.344-.163a8.762,8.762,0,0,0-1.3.2l-7.5-14.159c-.2-.37-2.425-4.5-2.506-4.783a2.129,2.129,0,0,0,.473-1.568,2.654,2.654,0,0,0-1.8-2.35,9.939,9.939,0,0,0-1.952-.034,17.054,17.054,0,0,1-6.3-2c-.108-1.667-.324-2.771-1.29-3.688a3.722,3.722,0,0,0-6.052,2.064c-.054.473.169,3.973.2,4.8.061,1.635.041,3.277.054,4.924.007,1.351-.169,3.364.27,4.559.263.718.635.94.892,1.566s.365,1.306.574,1.934c.189.547.2.332.041.967-.865,3.411-2.743,6.539-3.9,9.787-.426,1.191-1.108,2.711-.236,3.845a2.526,2.526,0,0,0,3.539.443,2.948,2.948,0,0,0,.817-1.641,15.252,15.252,0,0,1,.676-1.835c.513-1.17,1.047-2.249,1.608-3.35.831-1.636,2.722-5.168,2.81-7.188a10.709,10.709,0,0,1,1.682,2.026,19.466,19.466,0,0,1,1.371,2.391,22.091,22.091,0,0,1,1.844,5.625c.169.961.176,2.331.669,3.042,1.189,1.7,4.323,1.386,4.336-.953a19.137,19.137,0,0,0-.459-3.29,25.875,25.875,0,0,0-6.323-12.334,19.441,19.441,0,0,0-1.925-1.838c-1.25-1.026-.973-.506-.973-2.763,0-1.253-.041-2.525-.041-3.775l1.925.614a30.782,30.782,0,0,0,4.215.791,10.683,10.683,0,0,0,2.283-.189,12.354,12.354,0,0,1,.615,1.161c2.229,4.3,4.459,8.782,6.661,13.091l1.81,3.567a11.746,11.746,0,0,1,.615,1.242,4.621,4.621,0,0,0-1.27,1.906,4.087,4.087,0,1,0,7.012-1.351c-.135-.164-.3-.237-.385-.447,1.074-.553,2.263-1.067,3.344-1.56C372.918,3972.031,376.423,3970.294,379.7,3968.834Z" transform="translate(-332.736 -3936.531)"/><path class="a" d="M381.51,3953.89a7.8,7.8,0,0,0,.48,1.055l3.513,7.246c.946,2,2.087,4.223,2.992,6.2.311.682.716,1.386,1,2.068l4.837-2.319a7.168,7.168,0,0,0-.466-1.039c-.412-.926-1.047-2.13-1.507-3.092l-4-8.277c-.311-.641-1.8-3.837-2.026-4.133-.257.067-2.013.946-2.4,1.14l-2.412,1.149Z" transform="translate(-348.563 -3938.739)"/><path class="a" d="M372.26,3974.02c.115.432,3.526,7.132,3.688,7.7.284-.054,9.065-4.323,9.72-4.669-.095-.309-1.689-3.518-1.865-3.876-.236-.474-1.736-3.68-1.884-3.845-.338.116-.865.415-1.2.569-.412.195-.79.391-1.2.573-.817.373-1.608.784-2.425,1.183l-4.837,2.366Z" transform="translate(-345.561 -3944.491)"/><path class="a" d="M365.937,3960.953l3.715,7.722,8.464-4.09a10.341,10.341,0,0,0,1.216-.606,7.163,7.163,0,0,0-.446-.959l-3.276-6.75-9.68,4.683Z" transform="translate(-343.507 -3940.254)"/><path class="a" d="M339.858,3932.6a3.564,3.564,0,1,0,4.04,2.971A3.557,3.557,0,0,0,339.858,3932.6Z" transform="translate(-334.052 -3932.56)"/><path class="a" d="M376.3,3993.813a1.386,1.386,0,0,0,2.716-.553A1.386,1.386,0,0,0,376.3,3993.813Z" transform="translate(-346.862 -3951.905)"/></svg>