<svg xmlns="http://www.w3.org/2000/svg" width="43.304" height="35.855" viewBox="0 0 43.304 35.855"><defs><style>.a{fill:#fff;fill-rule:evenodd;}</style></defs><g transform="translate(0)"><path class="a" d="M361.965,2772.879h9.906a3.154,3.154,0,0,0,1.408-.46,3.315,3.315,0,0,0,.872-4.849,3.8,3.8,0,0,0-1.489-1.078,20.138,20.138,0,0,0-5.04-12.192,19.829,19.829,0,0,0-4.81-3.864,18.8,18.8,0,0,0-6.386-2.278c0-1.689.15-2.139-.567-3.242a3.286,3.286,0,0,0-5.371,0c-.71,1.1-.561,1.553-.561,3.242a18.836,18.836,0,0,0-6.3,2.229,19.7,19.7,0,0,0-8.268,9.09,20.367,20.367,0,0,0-1.663,7.017c-1.5.8-2.168,1.414-2.168,3.394a3.231,3.231,0,0,0,2.934,2.984h27.5Zm-28.273-3.258a1.255,1.255,0,0,1,1.215-1.091h36.528a1.09,1.09,0,1,1,0,2.174H334.907a1.25,1.25,0,0,1-1.215-1.089Zm19.476-19.558a17.328,17.328,0,0,1,15.42,9.645,15.789,15.789,0,0,1,1.757,6.654h-34.36c0-5.133,3.364-10.5,7.576-13.314A17.759,17.759,0,0,1,353.168,2750.063Zm-1.078-3.122a1.085,1.085,0,1,1,2.162,0v.953H352.09Z" transform="translate(-331.53 -2737.023)"/><path class="a" d="M343.68,2766.871a13.427,13.427,0,0,0,2.162.816c.4-1.743,2.791-4.479,4.355-5.544a12.671,12.671,0,0,1,5.233-2.213,18.19,18.19,0,0,1,2.318-.255V2757.5a14.871,14.871,0,0,0-11.95,5.8A18.867,18.867,0,0,0,343.68,2766.871Z" transform="translate(-336.111 -2742.292)"/><path class="a" d="M370.56,2740.082l1.483,1.557,3.115-3.047-1.558-1.632Z" transform="translate(-346.243 -2734.55)"/><path class="a" d="M354.59,2738.555l3.047,3.122,1.551-1.495-3.04-3.122Z" transform="translate(-340.223 -2734.588)"/><path class="a" d="M364.53,2737.433h2.162v-4.342H364.53Z" transform="translate(-343.97 -2733.091)"/><path class="a" d="M350.63,2749.214h4.33v-2.174h-4.33Z" transform="translate(-338.731 -2738.349)"/><path class="a" d="M374.95,2749.214h4.33v-2.174h-4.33Z" transform="translate(-347.899 -2738.349)"/></g></svg>