<svg xmlns="http://www.w3.org/2000/svg" width="29.005" height="48.78" viewBox="0 0 29.005 48.78"><defs><style>.a{fill:#dbdbda;fill-rule:evenodd;}</style></defs><path class="a" d="M4127.542,3588.83c.154-.569.669-.727.817-1.287.416.114.366.218.682.485.257.213.451.386.705.583l3.495,2.931c.37.316.48.192.607.673-.416.114-.367.218-.683.486-.708.583-4.22,3.683-4.806,3.835-.387-.57-.7-.748-.817-1.168.421-.634,3.306-2.625,3.736-3.273-.325-.484-3.325-2.657-3.736-3.271Zm-14.714,3.153a34.952,34.952,0,0,0,3.856,3.152,2.878,2.878,0,0,1-.937,1.4l-2.7-2.2a25.944,25.944,0,0,1-2.671-2.351c.872-.584,4.133-3.608,5.369-4.44a6.242,6.242,0,0,1,.937,1.168,4.487,4.487,0,0,1-.907.846c-.312.284-.629.551-.95.807l-2,1.619Zm7.939,6.193c-.724-.061-1.094-.452-1.868-.471l4.556-13.546c.772.018,1.144.4,1.871.47-.4.837-4.522,13.18-4.552,13.548Zm-11.8-12.618V3597.7a2.843,2.843,0,0,0,.739,1.95c.366.366,4.586,2.718,5.211,3.079,1.049.6,6.316,3.851,7.132,3.851a4.237,4.237,0,0,0,1.945-.742c.323-.178.487-.288.807-.48s.568-.317.89-.51l8.571-4.974a2.249,2.249,0,0,0,.981-1.822v-12.731c0-1.39-1.44-2.073-2.568-2.682l-2.52-1.454c-.332-.2-.571-.317-.891-.51-.584-.352-1.124-.625-1.708-.975-.974-.589-4.549-2.781-5.276-2.781-1.158,0-2.737,1.114-3.763,1.733l-8.643,5.023a2.563,2.563,0,0,0-.911,1.891Z" transform="translate(-4107.56 -3557.804)"/><path class="a" d="M4106.12,3552.311a14.344,14.344,0,0,0,1.911,7.7c.252.43.865,1.633,1.367,1.633a.7.7,0,0,0,.7-.629c0-.307-.411-.821-.558-1.045a7.217,7.217,0,0,0,1.237-.713.642.642,0,0,0-.469-1.1c-.4,0-.966.58-1.461.7l-.5-1.174a12.778,12.778,0,0,1-.9-4.257c.8,0,1.882.192,1.882-.629s-1.139-.628-1.882-.628a12.151,12.151,0,0,1,1.139-4.781c.1-.218.153-.387.256-.579.694.158,1.09.885,1.717.608.329-.149.723-.741-.157-1.257a5.484,5.484,0,0,0-.856-.466,9.612,9.612,0,0,1,1.756-2.213,9.509,9.509,0,0,1,2.212-1.756c.025.109.544,1.39,1.115,1.39a.651.651,0,0,0,.6-.949,6.45,6.45,0,0,1-.6-1.139,13.667,13.667,0,0,1,5.36-1.392c0,.8-.193,1.882.628,1.882s.628-1.079.628-1.882a11.371,11.371,0,0,1,2.9.446c.94.267,2.36.92,2.463.946a6.039,6.039,0,0,1-.6,1.148.644.644,0,0,0,.6.94c.569,0,1.089-1.281,1.114-1.39a12.555,12.555,0,0,1,3.969,3.969c-.137.034-1.39.6-1.39,1.115a.651.651,0,0,0,.947.6,8.568,8.568,0,0,1,1.143-.6c.09.178.129.325.233.534a6.043,6.043,0,0,1,.258.578,12.109,12.109,0,0,1,.906,4.248c-.586,0-1.4-.1-1.653.153a.624.624,0,0,0,.4,1.1h1.252a14.436,14.436,0,0,1-1.393,5.43c-.454-.109-1.074-.7-1.459-.7a.637.637,0,0,0-.5,1.059,1.774,1.774,0,0,0,.588.391,2.57,2.57,0,0,0,.683.362,3.63,3.63,0,0,0-.561.974.7.7,0,0,0,.629.7c.574,0,1.035-.974,1.381-1.543a14.514,14.514,0,0,0-.681-15.657,14.713,14.713,0,0,0-3.525-3.509,14.456,14.456,0,0,0-16.585-.029,17.031,17.031,0,0,0-2.351,2.033c-.381.494-.624.688-1.185,1.459a14.523,14.523,0,0,0-2.673,7.911Z" transform="translate(-4106.12 -3538.297)"/><path class="a" d="M4122.631,3585.372h11.281v1.184h-11.281Zm-1.321-.485v2.3a.664.664,0,0,0,.627.7h12.671a.668.668,0,0,0,.629-.7v-2.3a.755.755,0,0,0-.837-.837h-12.253A.755.755,0,0,0,4121.311,3584.887Z" transform="translate(-4113.792 -3561.404)"/><path class="a" d="M4130.3,3562.192a1.867,1.867,0,1,1,1.882,1.88A1.9,1.9,0,0,1,4130.3,3562.192Zm2.159-3.133h-.56a3.177,3.177,0,0,0-1.971,5.38,3.178,3.178,0,0,0,5.316-1.48,4.045,4.045,0,0,0,.069-.624c.04-.281.11-.247.286-.409l1.545-1.377a3.1,3.1,0,0,0,.372-.327l1.533-1.32a4.427,4.427,0,0,1,.406-.361,3.454,3.454,0,0,0,.357-.337l1.2-1.024c-.108-.169-.083-.074-.138-.277l-6.256,2.376c-.668.242-.595.341-1.03.109a2.341,2.341,0,0,0-1.137-.327Z" transform="translate(-4117.696 -3547.692)"/></svg>