<svg xmlns="http://www.w3.org/2000/svg" width="48.002" height="40.717" viewBox="0 0 48.002 40.717"><defs><style>.a{fill:#dbdbda;fill-rule:evenodd;}</style></defs><path class="a" d="M385.838,5117.812l-43.327-.125c-.9-1.71-.328-29.394-.246-30.053l43.716-.192c.52,2.211.2,21.534.213,26.763.005,1.486.192,2.464-.345,3.608Zm-43.426-36.467,43.536.11-.006,4.059h-43.7l.17-4.163Zm-2.216.673v34.868c0,3.965,3.4,2.91,9.483,2.91,6.752,0,35.464.614,37.927-.6.985-3.076.432-31.1.438-37.178.005-2.7-1.083-2.763-3.5-2.763l-39.847-.005c-2.944,0-4.5-.382-4.5,2.769Z" transform="translate(-340.19 -5079.235)"/><path class="a" d="M377.993,5121.906c-.449-3.146,3.688-3.031,4.022-.711a2.02,2.02,0,0,1-1.554,2.319,2.094,2.094,0,0,1-2.468-1.606Zm4.575-4.109c-3.086-.311-7.141-.646-6.594,4.421.241,2.218.777,1.116-.684,2.749l1.3,1.362c1.707-1.291.186-.975,2.534-.784,4.252.347,5.8-2.275,4.547-6.271a43.448,43.448,0,0,0,3.688-3.551c1.74-1.766,3.146-2.664,3.65-4.36l-1.138-.723c-1,.352-6.692,6.343-7.294,7.152Z" transform="translate(-356.083 -5093.454)"/><path class="a" d="M360.532,5120.386c1.943-1.609-.383-7.546,7.026-11.234a11.691,11.691,0,0,1,7.562-.947c1.182.257,2.676,1.216,3.513,1.233,1.937.038,1.467-1.433.153-2.173-6.523-3.655-17.779-.24-19.491,10.08C358.951,5119.436,358.83,5120.146,360.532,5120.386Z" transform="translate(-348.745 -5091.283)"/><path class="a" d="M402.15,5117.6c-.58,1.461.744,2.748,1.1,4.41.553,2.568-.427,3.729,2.2,3.541.449-2.609-.493-6.721-2.058-8.125Z" transform="translate(-368.18 -5096.524)"/><path class="a" d="M362.93,5087.094l2.156.011-.055-2.145-2.025.023Z" transform="translate(-350.487 -5081.827)"/><path class="a" d="M355.814,5087.053l1.707.039-.022-2.151-2.057.045a7.319,7.319,0,0,0,.005,1.148A1.5,1.5,0,0,0,355.814,5087.053Z" transform="translate(-347.086 -5081.818)"/><path class="a" d="M348.15,5087.1l1.767.039-.038-1.708-2.069-.356Z" transform="translate(-343.64 -5081.877)"/></svg>