<svg xmlns="http://www.w3.org/2000/svg" width="52.306" height="43.331" viewBox="0 0 52.306 43.331"><defs><style>.a{fill:#000000;fill-rule:evenodd;}</style></defs><path class="a" d="M372.186,2453h17.179l.025,3.883H372.156Zm2.684-18.186a9.663,9.663,0,0,0-1.8-.864,6.786,6.786,0,0,0-7.624,2.421c-1.422,1.94.18,2.1.589,1.507a5.243,5.243,0,0,1,1.941-2.13,5.643,5.643,0,0,1,6.87.723c.868.514,1.078-.813,1.267-1.221a4.822,4.822,0,0,1,.509-.848,5.188,5.188,0,0,1,8.687.563c.524.953.4,1.582,1.073,1.6.394.01.614-.339.848-.519a5.352,5.352,0,0,1,.828-.524,5.5,5.5,0,0,1,7.324,2.075,5.07,5.07,0,0,1-2.3,7.07c-2.8,1.312-3.7-.374-3.692,1.657,0,1.791.02,3.593,0,5.379h-3.423c-.005-.753,0-1.492,0-2.231,0-.7.154-1.67-.669-1.647-.768.021-.629.889-.629,1.6,0,.758.005,1.527,0,2.285h-3.233v-2.285c0-.664.145-1.593-.643-1.593s-.644.929-.644,1.593c0,.763.005,1.522,0,2.285h-3.233v-2.285c0-.709.145-1.573-.629-1.6-.808-.02-.669.9-.669,1.6,0,.753.005,1.512,0,2.265l-3.428.02v-5.214c0-.557.055-1.122-.469-1.257-.693-.175-2.854.479-4.985-1.951a6.789,6.789,0,0,1-.7-1.043c-.509-.814-2.315-.04-.01,2.186a6.38,6.38,0,0,0,2.016,1.456,7.212,7.212,0,0,0,2.854.664c-.065,3.558,0,7.185,0,10.748,0,1.127.818.877,1.806.877h16.126c1.008,0,1.861.265,1.861-.877,0-3.568.06-7.19,0-10.748a7.111,7.111,0,0,0,3.108-.788,6.39,6.39,0,0,0,3.173-7.844,6.764,6.764,0,0,0-8.941-3.792c-.5.2-.908.5-1.317.683-.13-.165-.3-.553-.429-.753a7.045,7.045,0,0,0-.5-.7,6.469,6.469,0,0,0-9.949-.03,12.383,12.383,0,0,0-.958,1.482Z" transform="translate(-345.044 -2414.865)"/><path class="a" d="M326.976,2401.833c0-.528.115-1.232.614-1.232H365.3c.5,0,.614.7.614,1.232v7.889H326.971v-7.889Zm-1.846-.718v31.873c0,1.173,1.4.923,2.565.923h24.389c-.115-.439-.778-1.333-.923-1.946H326.976v-20.292h38.943v7.075c0,.454,1.686.808,1.846.818v-17.627a2.9,2.9,0,0,0-.639-2.335,2.558,2.558,0,0,0-2.026-.943H327.595a2.712,2.712,0,0,0-2.46,2.46Z" transform="translate(-325.13 -2398.66)"/><path class="a" d="M358.506,2407.986h18.446v1.741H358.506Zm-1.946-1.641v5.023c0,.236.07.305.31.305H378.9v-5.634H356.87C356.635,2406.04,356.56,2406.11,356.56,2406.345Z" transform="translate(-340.878 -2402.357)"/><path class="a" d="M332.53,2409.736a1.879,1.879,0,0,0,3.592.822,1.9,1.9,0,0,0-1.642-2.668,1.874,1.874,0,0,0-1.946,1.846Z" transform="translate(-328.838 -2403.285)"/><path class="a" d="M343.62,2409.741c0,2.53,3.792,2.521,3.792.1a1.983,1.983,0,0,0-1.846-1.945,2.01,2.01,0,0,0-1.946,1.847Z" transform="translate(-334.394 -2403.29)"/></svg>