<svg xmlns="http://www.w3.org/2000/svg" width="49.514" height="41.278" viewBox="0 0 49.514 41.278"><defs><style>.a{fill:#dbdbda;fill-rule:evenodd;}</style></defs><path class="a" d="M2331.44,5149.381v2.1c1.64,0,15.13.442,16.68-.445-.114-3.106.223-1.008-2-1.867,1.122-1.226,2.385-2.03,3.6-3.231.643-.646.923-1.169,1.593-1.846,1.53-1.548,3.985-4.023,6.158-4.076,1.3-.029,6.255-.12,7.25.063,1.627.313,11.86,11.6,14.052,13.487-3.118,2.944-22.092,22.479-23.571,23.213-1.2-1.107-2.053-2.4-3.476-3.091l-1.1,1.133,4.068,4.344c2.507-.133,4.54-2.651,6.734-5.068l18.2-18.21c3.386-2.856-.28-4.935-4.413-9.144-9.6-9.78-6.9-8.8-15.02-8.811-7.46,0-3.769-.892-10.866,5.291-1.263,1.1-2.823,2.857-4.073,3.975-2.181,1.942-1.7,2.212-5.753,2.177-2.684-.023-5.373,0-8.058,0Z" transform="translate(-2331.44 -5137.889)"/><path class="a" d="M2345.717,5178.229a16.335,16.335,0,0,1-2.9.108l-2.66.417-.038,1.663,14.671.044-.089-1.707-1.16-.383c-5.554-.76-2.092,2.369-8.73-4.293-2.352-2.357-5.043-4.795-7.172-7.173,1.256-2.006,4.214-2.856,5.138-5.438l-1.07-1.038c-1.983.75-2.768,2.485-4.443,3.931-2.609,2.246-2.482,3.12-.039,5.427C2340.082,5172.485,2342.886,5175.833,2345.717,5178.229Z" transform="translate(-2332.857 -5146.06)"/><path class="a" d="M2364.75,5161.255c1.263,1.632,7.995,8.481,9.468,9.226l1.109-1.059c-.861-1.712-8.13-8.79-9.2-9.473Z" transform="translate(-2343.51 -5145.885)"/><path class="a" d="M2369.65,5156.43l9.308,9.245,1.251-1.047c-.715-1.842-3.035-3.441-4.42-4.877a46.739,46.739,0,0,0-4.813-4.66l-1.32,1.34Z" transform="translate(-2345.287 -5144.124)"/><path class="a" d="M2371.1,5144.963l3.723,3.724,3.9-3.569c-.6-1.1-.5-1-1.567-1.588a21.345,21.345,0,0,0-2.213,2.1,8.108,8.108,0,0,0-2.3-2.017Z" transform="translate(-2345.812 -5139.932)"/><path class="a" d="M2342.83,5140.042l3.087.04,2.684-.006,2.575-.083v-1.881l-8.3-.14Z" transform="translate(-2335.567 -5137.919)"/><path class="a" d="M2359.867,5166.091l4.68,5.152,1.671-1.244c-.407-1.161-1.313-1.785-2.232-2.709a13.182,13.182,0,0,0-2.773-2.519l-1.352,1.325Z" transform="translate(-2341.741 -5147.632)"/><path class="a" d="M2336.34,5140l2.123-.013-.032-1.816-2.072-.186Z" transform="translate(-2333.217 -5137.921)"/></svg>