<svg xmlns="http://www.w3.org/2000/svg" width="44.663" height="44.909" viewBox="0 0 44.663 44.909"><defs><style>.a{fill-rule:evenodd;}</style></defs><path class="a" d="M4147.885,3271.613a4.572,4.572,0,1,1-1.734,8.121A4.526,4.526,0,0,1,4147.885,3271.613Zm-6.527-3.164a4.607,4.607,0,1,1-4.593-4.567,4.595,4.595,0,0,1,4.593,4.567Zm7.035-4.354a1.112,1.112,0,0,1,1.269,1.768l-6.228,7.366c-.659.867-5.852,7.051-6.195,7.2a1.132,1.132,0,0,1-1.31-1.781l10.618-12.6c.6-.651,1.255-1.685,1.851-1.954Zm12.682-3.479a2.929,2.929,0,0,0-2.431-3.558c-1.071-.159-1.819.051-2.731-.395a3.132,3.132,0,0,1-1.417-1.6,8.07,8.07,0,0,0-.875-2.236c-2.317-2.777-4.415.442-6.773-.4-1.72-.619-1.724-2.228-3.581-2.558-2.389-.428-3.119,1.5-3.916,2.1-2,1.515-3.457.144-4.608-.1a3.118,3.118,0,0,0-2.456.5c-1.471,1.1-1.006,2.88-2.158,3.982a3.235,3.235,0,0,1-2.14.883c-1.2.094-1.512-.042-2.457.563a2.713,2.713,0,0,0-1.228,1.795c-.4,1.81,1.164,2.866-.572,4.809-.892,1-2.6.963-3.145,2.9-.585,2.124,1.233,2.84,1.632,4.366.558,2.149-1.133,2.8-1.543,4.3-.563,2.046.833,3.055,2.251,3.776,1.989,1.008,1.864,2.382,1.6,4.116a2.917,2.917,0,0,0,2.51,3.585,7.353,7.353,0,0,1,2.689.415c2.314,1.191,1.078,4.558,4.208,4.954,1.954.247,2.813-1.471,4.87-.717,1.6.586,1.679,2.167,3.6,2.553a3.03,3.03,0,0,0,3.11-1.307c2.846-3.72,4.911.828,7.776-1.185,1.6-1.125.893-2.675,2.168-3.973a3.032,3.032,0,0,1,2.087-.892,4.584,4.584,0,0,0,2.522-.536c2.026-1.363,1.042-3.5,1-4.423-.144-3.25,3.25-2.567,3.949-5.083.6-2.172-1.2-2.88-1.609-4.362-.586-2.126,1.064-2.8,1.518-4.312.589-1.958-.717-3.042-2.205-3.79a3.173,3.173,0,0,1-1.546-1.472,4.056,4.056,0,0,1-.092-2.691Z" transform="translate(-4120.473 -3249.808)"/></svg>