<svg xmlns="http://www.w3.org/2000/svg" width="26.379" height="33.645" viewBox="0 0 26.379 33.645"><defs><style>.a{fill-rule:evenodd;}</style></defs><g transform="translate(-450.748 -1922.916)"><path class="a" d="M325.519,3614.9h24.491v31.763H325.519Zm-1.079,32.571h26.379V3613.83H324.44Z" transform="translate(126.308 -1690.915)"/><path class="a" d="M347.244,3630.488c.261.981.286.565.808,1.345-.1.146-2.333,2.963-2.691,2.963-.653,0-2.56-1.985-3.175-2.475-.3-.24-.818-.546-1.128-.755a17.709,17.709,0,0,0-3.233,3.5c-.75-.5-1.379-1.092-2.105-1.663l-2.2-1.569a9.149,9.149,0,0,1-1.549,1.95,4.419,4.419,0,0,0-1.409,2.086l.775.576a4.543,4.543,0,0,0,1.273-1.22c.5-.687.789-.919,1.186-1.511.75.506,1.384,1.1,2.105,1.666l2.2,1.568a14.782,14.782,0,0,1,3.228-3.5c.048.044.126.044.145.125l4.162,3.374,3.5-4.308c1,.267.349.272,1.346.539v-3.23c-1.346.03-1.888.509-3.233.539Z" transform="translate(123.149 -1699.232)"/><path class="a" d="M360.777,3654.891l-.8-1.084c-.508-.89-.01-.479-.813-1.069a2.961,2.961,0,1,0,1.616-.537v2.691Z" transform="translate(109.08 -1710.713)"/><path class="a" d="M331.11,3671.9h9.961v-1.346H331.11Z" transform="translate(122.866 -1720.18)"/><path class="a" d="M331.11,3676.341h9.961V3675H331.11Z" transform="translate(122.866 -1722.477)"/><path class="a" d="M347.633,3655.894c0,.658-.6,1.075.537,1.075h1.346v-7h-1.883v5.92Z" transform="translate(114.421 -1709.561)"/><path class="a" d="M336.68,3658.4h1.883v-5.655H336.68Z" transform="translate(119.992 -1710.996)"/><path class="a" d="M341.12,3624.9h6.191v-1.618H341.12C341.367,3624.33,341.367,3623.841,341.12,3624.9Z" transform="translate(117.701 -1695.79)"/><path class="a" d="M357.25,3671.9h7.27v-1.346h-7.27Z" transform="translate(109.378 -1720.18)"/><path class="a" d="M357.25,3676.341h7.27V3675h-7.27Z" transform="translate(109.378 -1722.477)"/><path class="a" d="M342.23,3659.549h1.888v-4.579H342.23Z" transform="translate(117.128 -1712.143)"/><path class="a" d="M331.11,3623.752h2.962v-2.692H331.11Z" transform="translate(122.866 -1694.645)"/><path class="a" d="M331.1,3657.455v2.962h1.883v-3.767h-1.079c-.62,0-.808.189-.808.809Z" transform="translate(122.871 -1713.009)"/><path class="a" d="M341.12,3621.863h6.191v-.8H341.12Z" transform="translate(117.701 -1694.645)"/></g></svg>