<svg xmlns="http://www.w3.org/2000/svg" width="36.302" height="36.25" viewBox="0 0 36.302 36.25"><defs><style>.a{fill-rule:evenodd;}</style></defs><path class="a" d="M4114.518,2984.808c-.017-.671.055-5.239-.055-5.6-.559-1.849-2.675-.559-4.128-1.417a2.736,2.736,0,0,1-1.384-2.343c-.083-4.937-.022-9.945,0-14.887,0-1.168-.192-2.486.411-3.382a2.737,2.737,0,0,1,2.422-1.308h22.223a17.931,17.931,0,0,1,3.655.138,2.778,2.778,0,0,1,1.819,1.9c.213.8.088,13.64.093,14.8a16.356,16.356,0,0,1-.147,3.565c-.83,2.393-3.27,1.877-5.624,1.882l-11.114.007c-.466,0-.362.026-.642.274-.158.142-.291.236-.483.406l-3.993,3.415c-.606.455-2.585,2.273-3.046,2.538Zm-2.834-3.845c.205,1.143-.136,5.716.029,7.045a1.391,1.391,0,0,0,2.082,1.116,7.13,7.13,0,0,0,.971-.808l5.26-4.48c.191-.143.3-.27.483-.412l2.871-2.461h10.9a24.694,24.694,0,0,0,3.559-.1,5.641,5.641,0,0,0,4.053-3.219c.734-1.625.481-4.771.481-6.782V2963.6c0-1.9.215-5.321-.355-6.914a5.669,5.669,0,0,0-3.845-3.426c-1.021-.286-5.792-.16-7.187-.16h-18.174a6.776,6.776,0,0,0-3.22.43,5.513,5.513,0,0,0-3.327,3.942,70.48,70.48,0,0,0-.126,7.16v10.906a5.6,5.6,0,0,0,5.54,5.441Z" transform="translate(-4106.113 -2953.069)"/><path class="a" d="M4149.553,3015.706a1.4,1.4,0,0,0-.945-1.718c-.4-.131-12.629-.094-13.866-.066-1.822.043-4.233-.406-4.567.978a1.37,1.37,0,0,0,.984,1.784c.576.109,14.461.028,16.686.05C4148.739,3016.744,4149.343,3016.437,4149.553,3015.706Z" transform="translate(-4116.937 -2980.491)"/><path class="a" d="M4152.876,2972.729a2.809,2.809,0,1,0,3.284,2.2A2.844,2.844,0,0,0,4152.876,2972.729Z" transform="translate(-4126.183 -2961.906)"/><path class="a" d="M4136.29,2972.753a2.809,2.809,0,1,0,3.316,2.229,2.8,2.8,0,0,0-3.316-2.224Z" transform="translate(-4118.711 -2961.918)"/><path class="a" d="M4119.7,2972.78a2.8,2.8,0,1,0,3.35,2.049A2.8,2.8,0,0,0,4119.7,2972.78Z" transform="translate(-4111.26 -2961.918)"/><path class="a" d="M4122.842,2988.6l.009-1.006c0-.384.025-.213.14-.3a7.519,7.519,0,0,0-.059,1.3c.155-.16.155-.024.132-.588a1.785,1.785,0,0,0-.074-.67c.14-.088.045-.012.152-.108,0,0,.345-.4.4-.215.033.115.147.054.2.028-.07-.17.129-.17-.5-.148.21-.121.178-.021.281-.209-.8.066-.872,1-.812,1.592.03.27.066.226.126.313Z" transform="translate(-4113.587 -2968.229)"/><path class="a" d="M4153.875,2988.679c-.147-.527-.124-.247-.021-.769-.263.093-.267.051-.275.375s.019.3.3.389Z" transform="translate(-4127.515 -2968.779)"/></svg>