<svg xmlns="http://www.w3.org/2000/svg" width="44.642" height="45.611" viewBox="0 0 44.642 45.611"><defs><style>.a{fill-rule:evenodd;}</style></defs><path class="a" d="M370,3036.041a23.422,23.422,0,0,1-.424,3.257,2.437,2.437,0,0,1-.045.861,6.938,6.938,0,0,1-.251,1.913,3.832,3.832,0,0,1-.064,1.055,6.109,6.109,0,0,1-.225,1.658c.1.738-.584,5.117-.63,6.492a8.172,8.172,0,0,1,1.053.8,8.9,8.9,0,0,0,1.015.747l.752-9.8c.038-.206-.006-.086.077-.234a1.212,1.212,0,0,1-.013-.57l.7.032-.064.771c-.083,1.444-1.028,14.731-1.162,14.949a3.01,3.01,0,0,1-.026.849l-.109,1.547-.013.5a7.168,7.168,0,0,0,1.9.059l.09.8a18.4,18.4,0,0,1,.244,2.78,8.225,8.225,0,0,1,.218,1.593,3.166,3.166,0,0,1,.058.951,6.688,6.688,0,0,1,.25,1.914,2.069,2.069,0,0,1,.039.746,9.547,9.547,0,0,1,.263,2.055l.077.673.18.034,1.83.058c-.084-.655-.019-4.831-.013-5.864l.019-4.375c0-.32-.116-1.1.1-1.341l.752-.032v.816l-.007,1.4v2.9l-.006,1.363.006,5.04.186.013h1.574l.135-.713.18-1.414c.064-.245.007-.076.064-.167a4.7,4.7,0,0,1,.1-1.3l.148-1.218a.868.868,0,0,1,.038-.188c.045-.167.019-.089.071-.181a4.12,4.12,0,0,1,.09-1.271c.039-.306.077-.622.116-.917a2.278,2.278,0,0,1,.154-.811,13.179,13.179,0,0,1,.251-2.483l.1-.874,1.419-.014h.591l.02-.507a6.307,6.307,0,0,1-.231-1.688,2.945,2.945,0,0,1-.058-.946,6.825,6.825,0,0,1-.257-1.764l-1.143-10.116-.167-1.375-.16-1.489-.09-.817.726.007-.019.431c.129.211.09.32.167,1,.038.346.083.688.109,1.021a3.427,3.427,0,0,1,.077,1.136l.462,3.586c.135,1.175.257,2.349.4,3.525.148-.078,2.01-1.688,2.042-1.773.167-.391-.424-2.665-.36-3.345a7.028,7.028,0,0,1-.308-1.907l-.392-2.826a14.012,14.012,0,0,1-.3-2.423,6.66,6.66,0,0,1-.315-1.92,3.184,3.184,0,0,1-.122-1.194,9.478,9.478,0,0,1-.3-1.74l-.148-.88-.219-.02-10.173-.007-.925.007-.109,1.155Z" transform="translate(-345.189 -3026.919)"/><path class="a" d="M350.579,3042.35a4.2,4.2,0,0,1,.193,1.387l-.674-.007-.116-1.388-.122-1.458.6.032A3.41,3.41,0,0,1,350.579,3042.35Zm-8.741.242-.058,1.137-.661.007a8.378,8.378,0,0,1,.186-2.16v-.667l.616.013-.083,1.663Zm-1.606-8.624-.135,1.437a6.165,6.165,0,0,1-.206,1.689,3.963,3.963,0,0,1-.051,1.1,26.97,26.97,0,0,1-.366,3.4,1.324,1.324,0,0,1,0,.615l-.128,1.53-1.214.006H332.4c-.167.058-.109.012-.109.256v1.439c0,.18-.058.288.09.346l1.612-.007-.006,3.963v19.71l26.1.027-.006-.687c-.148-.205-.052-.54-.173-.809l-.36-.021H336.629l-1.008,0c-.2-.141-.071.09-.129-.276-.006-.026,0-.309,0-.359.007-.245.007-.483.007-.72v-20.783l1.195-.006H355.55l.193-1.825-.007-.205h-1.843l-1.207-.014-.141-1.231a13.94,13.94,0,0,1-.263-2.519c-.109-.161-.083-.173-.115-.418-.019-.147-.032-.3-.051-.449-.039-.289-.071-.553-.1-.847a3.921,3.921,0,0,1-.09-1.15,6.011,6.011,0,0,1-.263-1.716,3.5,3.5,0,0,1-.1-1.25l-.18-.8H341l-.687.005-.064.622Z" transform="translate(-332.283 -3026.385)"/><path class="a" d="M389.408,3051.26l.058.27h1.946l.976.018v22.133h-7.007c-.289.168-.038.334-.244.622a2.227,2.227,0,0,1-.077.875H393.9v-23.642l1.908-.038-.02-2H389.17l.231,1.76Z" transform="translate(-351.163 -3032.149)"/><path class="a" d="M374.89,3026.193a3.025,3.025,0,0,0,.437,1.473,2.9,2.9,0,0,0,.43.565l.443.443c.218.076.122-.005.263.187.283.037.777.282,1.285.365a5.139,5.139,0,0,0,1.5-.185c.084-.1.527-.291.668-.393a3.219,3.219,0,0,0,.038-5.17,3.172,3.172,0,0,0-5.055,2.716Z" transform="translate(-347.524 -3022.619)"/><path class="a" d="M348.876,3024.4l-.116.8a3.436,3.436,0,0,0,.572,2.074c.135.046.141.11.263.244.058.058.077.083.135.143a.457.457,0,0,1,.077.1,5.54,5.54,0,0,0,1.1.532c.038.014.212.051.231.058l.225.09a10.338,10.338,0,0,0,1.413-.238,2.976,2.976,0,0,0-1.612-5.7,3.184,3.184,0,0,0-1.387.693,3.325,3.325,0,0,0-.507.565,4.2,4.2,0,0,1-.385.644Z" transform="translate(-338.177 -3022.485)"/></svg>