<svg xmlns="http://www.w3.org/2000/svg" xmlns:xlink="http://www.w3.org/1999/xlink" width="2007.474" height="555.377" viewBox="0 0 2007.474 555.377"><defs><style>.a{fill:#fff;}.b{filter:url(#a);}</style><filter id="a" x="0" y="0" width="2007.474" height="555.377" filterUnits="userSpaceOnUse"><feOffset dy="-7" input="SourceAlpha"/><feGaussianBlur stdDeviation="4.5" result="b"/><feFlood flood-opacity="0.031"/><feComposite operator="in" in2="b"/><feComposite in="SourceGraphic"/></filter></defs><g class="b" transform="matrix(1, 0, 0, 1, 0, 0)"><path class="a" d="M0,10.177s12.828,9.251,26.366,9.251S54.15,10.177,54.15,10.177,65.558,3.856,77.524,3.856s24.491,6.321,24.491,6.321,10.657,7.027,23.14,7.027,26.794-7.027,26.794-7.027S167.1,0,178.519,0c9.105,0,13.878,10.176,21.959,10.176,5.289,0,11.875,7.027,19.718,7.027,12.905,0,26.926-7.027,26.926-7.027S259.4,1.483,270.694,1.483s21.61,8.693,21.61,8.693,11.6,8.658,22.493,8.658,21.061-8.658,21.061-8.658S347.508,2.67,358.678,2.67s21.86,7.507,21.86,7.507,9.632,8.658,20.479,8.658,22.907-8.658,22.907-8.658S434.261,2.67,444.678,2.67s20.916,7.507,20.916,7.507,7.983,6.433,17.894,6.433,21.748-6.433,21.748-6.433,10.208-6.024,20.149-6.024S545,10.177,545,10.177s9.408,9.263,20.93,9.263,25.158-9.263,25.158-9.263S601.4,3.662,611.709,3.662s20.62,6.515,20.62,6.515,9.278,6.415,19.319,6.415S672.5,10.177,672.5,10.177s10.8-6.515,21.583-6.515,21.542,6.515,21.542,6.515,8.516,7.323,19.473,7.323,24.356-7.323,24.356-7.323,9.756-6.515,19.306-6.515,18.893,6.515,18.893,6.515,8.534,6.415,18.153,6.415,20.323-6.415,20.323-6.415,10.679-7.8,19.37-7.8,15.391,7.8,15.391,7.8,6.73,8.51,15.922,8.51,14.995-4,20.845-8.51C913.709,7.415,921.786,0,928.925,0c11.4,0,20.415,10.177,20.415,10.177s5.757,10.141,14.867,10.141S985.78,10.177,985.78,10.177s12.075-7.8,21.426-7.8,15.976,7.8,15.976,7.8,9.446,8.51,19.085,8.51,19.472-8.51,19.472-8.51,7.674-8.99,16.692-8.99,19.379,8.99,19.379,8.99,7.647,8.51,16.785,8.51,19.769-8.51,19.769-8.51,9.075-8.99,18.159-8.99,18.174,8.99,18.174,8.99,7.941,8.51,16.005,8.51,16.254-8.51,16.254-8.51,11.189-8.99,21.453-8.99,19.605,8.99,19.605,8.99,12.536,10.586,24.056,10.586S1290.1,10.177,1290.1,10.177s10.659-7.952,22.3-7.952,24.257,7.952,24.257,7.952,9.211,7.471,21.389,7.471,27.323-7.471,27.323-7.471,10.857-6.321,23.394-6.321,26.754,6.321,26.754,6.321,13.011,7.471,23.964,7.471,19.849-7.471,19.849-7.471,9.041-8.9,19.859-8.9,23.414,8.9,23.414,8.9,10.985,9.878,22.591,9.878,23.834-9.878,23.834-9.878,9.206-7.211,19.893-7.211,22.854,7.211,22.854,7.211,13.045,9.251,24.115,9.251,20.166-9.251,20.166-9.251,11.966-8.1,23.275-8.1,21.96,8.1,21.96,8.1,11.323,9.251,22.142,9.251,21.134-9.251,21.134-9.251,11.017-8.1,22.307-8.1,22.851,8.1,22.851,8.1,11.282,10.586,23.016,10.586,23.918-10.586,23.918-10.586S1844.49.3,1855.519.3s25.252,9.88,25.252,9.88S1891.9,21.5,1902.488,21.5s20.638-11.327,20.638-11.327,9.993-9.88,20.6-9.88,21.822,9.88,21.822,9.88l14.929,518.2H0Z" transform="translate(13.5 20.5)"/></g></svg>