<svg xmlns="http://www.w3.org/2000/svg" width="32.933" height="35.688" viewBox="0 0 32.933 35.688"><defs><style>.a{fill:#410546;}.a,.b{fill-rule:evenodd;}.b{fill:none;}</style></defs><g transform="translate(-75.162 -74.907)"><g transform="translate(75.162 74.907)"><path class="a" d="M551,8.619l.044-.11c-2.24-.894-9.446,1.755-10.782,4.194-5.032.563,1.413-13.773,13.154-12.636a4.445,4.445,0,1,1-2.428,8.553Z" transform="translate(-538.535 -0.002)"/></g><g transform="translate(88.233 87.569)"><path class="a" d="M564.009,21.391c-8.63-5.3-6.07-2.98-13.629-5.937,4.745-5.9,10.418-3.962,17.193-2.218a4.45,4.45,0,1,1-3.564,8.155Z" transform="translate(-550.38 -11.475)"/></g><path class="b" d="M565.786,17.041c-5.738-2.505-9.226-3.995-15.406-1.865" transform="translate(-462.146 76.371)"/><g transform="translate(82.263 100.182)"><path class="a" d="M556.315,32.821c-7.835-5.54-4.028-2.439-11.345-9.413,10.55-.618,5.408-1.148,15.428,1.512a4.447,4.447,0,0,1-4.083,7.9Z" transform="translate(-544.97 -22.905)"/></g><path class="b" d="M558.356,28.823A86.431,86.431,0,0,0,544.97,23.36" transform="translate(-462.707 77.324)"/></g></svg>