<svg xmlns="http://www.w3.org/2000/svg" xmlns:xlink="http://www.w3.org/1999/xlink" width="21.073" height="18.707" viewBox="0 0 21.073 18.707"><defs><style>.a{fill:#e91c2b;}.a,.b,.c{fill-rule:evenodd;}.b{fill:#fff;}.c{fill:none;stroke:#e91c2b;stroke-width:2px;}.d{filter:url(#a);}</style><filter id="a" x="0" y="0" width="21.073" height="18.707" filterUnits="userSpaceOnUse"><feOffset dy="2" input="SourceAlpha"/><feGaussianBlur stdDeviation="2.5" result="b"/><feFlood flood-opacity="0.31" result="c"/><feComposite operator="out" in="SourceGraphic" in2="b"/><feComposite operator="in" in="c"/><feComposite operator="in" in2="SourceGraphic"/></filter></defs><g data-type="innerShadowGroup"><path class="a" d="M6.282,13.42c.6.375,1.877,1.348,2.523,1.02A18.13,18.13,0,0,0,15.444,9.1c.983-1.4,2.064-3.985,1.112-6.144a4.689,4.689,0,0,0-1.4-2A4.067,4.067,0,0,0,12.6.027C9.63-.012,9.285,1.767,8.449,2.745l-.265-.379A3.969,3.969,0,0,0,5.369.091a4.311,4.311,0,0,0-4.2,1.429c-1.784,2-1.359,5.219.162,7.419A25.465,25.465,0,0,0,6.282,13.42Z" transform="translate(1.332 3.192) rotate(-7)"/><g class="d" transform="matrix(1, 0, 0, 1, 0, 0)"><path class="b" d="M6.282,13.42c.6.375,1.877,1.348,2.523,1.02A18.13,18.13,0,0,0,15.444,9.1c.983-1.4,2.064-3.985,1.112-6.144a4.689,4.689,0,0,0-1.4-2A4.067,4.067,0,0,0,12.6.027C9.63-.012,9.285,1.767,8.449,2.745l-.265-.379A3.969,3.969,0,0,0,5.369.091a4.311,4.311,0,0,0-4.2,1.429c-1.784,2-1.359,5.219.162,7.419A25.465,25.465,0,0,0,6.282,13.42Z" transform="translate(1.33 3.19) rotate(-7)"/></g><path class="c" d="M6.282,13.42c.6.375,1.877,1.348,2.523,1.02A18.13,18.13,0,0,0,15.444,9.1c.983-1.4,2.064-3.985,1.112-6.144a4.689,4.689,0,0,0-1.4-2A4.067,4.067,0,0,0,12.6.027C9.63-.012,9.285,1.767,8.449,2.745l-.265-.379A3.969,3.969,0,0,0,5.369.091a4.311,4.311,0,0,0-4.2,1.429c-1.784,2-1.359,5.219.162,7.419A25.465,25.465,0,0,0,6.282,13.42Z" transform="translate(1.332 3.192) rotate(-7)"/></g></svg>