<svg xmlns="http://www.w3.org/2000/svg" width="345.529" height="176.125" viewBox="0 0 345.529 176.125"><defs><style>.a,.c{fill:#d4d4d4;}.a,.b{fill-rule:evenodd;}.b{fill:none;}.c{stroke:#ccc;stroke-linecap:round;stroke-linejoin:round;stroke-miterlimit:14.336;stroke-width:2px;}</style></defs><g transform="translate(1)"><path class="a" d="M479.909,87.4a26.406,26.406,0,0,1-7.033-.963,23.677,23.677,0,0,1-6.625-2.986,24.763,24.763,0,0,1-8.5-9.154A25.417,25.417,0,0,1,454.72,62.01h17.1a7.439,7.439,0,0,0,1.316,4.7,9.411,9.411,0,0,0,2.328,2.273,7.634,7.634,0,0,0,3.943,1.316,8.909,8.909,0,0,0,4.144-.811,6.715,6.715,0,0,0,2.273-1.518,8.251,8.251,0,0,0,1.316-1.774,4.955,4.955,0,0,0,.555-1.664,11.126,11.126,0,0,0,.1-1.316,11.318,11.318,0,0,0-.1-1.316,5.354,5.354,0,0,0-.555-1.719,6.888,6.888,0,0,0-1.316-1.774,8.694,8.694,0,0,0-2.273-1.566,22.168,22.168,0,0,0-2.377-.908c-.841-.274-1.737-.573-2.682-.908-1.688-.542-3.443-1.146-5.26-1.822a29.471,29.471,0,0,1-5.461-2.73,21.4,21.4,0,0,1-5.967-5.564,22.044,22.044,0,0,1-4.2-15.121,20.89,20.89,0,0,1,2.273-7.838,22.234,22.234,0,0,1,4.553-5.967,21.6,21.6,0,0,1,13.25-5.765,23.649,23.649,0,0,1,7.789.707,22.424,22.424,0,0,1,6.942,2.883,21.783,21.783,0,0,1,5.375,4.754,20.073,20.073,0,0,1,3.474,6.223,21.376,21.376,0,0,1,1.213,7.179h-17.01a3.494,3.494,0,0,0-1.469-3.236,10.124,10.124,0,0,0-2.578-1.213,6.55,6.55,0,0,1-.963-.152,4.774,4.774,0,0,0-1.719,0,6,6,0,0,0-1.975.707,3.92,3.92,0,0,0-1.615,1.767,4.562,4.562,0,0,0-.3,3.389,4.823,4.823,0,0,0,2.023,2.779,22.284,22.284,0,0,0,3.133,1.469q1.719.658,3.638,1.268,1.719.5,3.492,1.115c1.176.4,2.359.878,3.571,1.414a23.815,23.815,0,0,1,14.176,21.953,23.5,23.5,0,0,1-3.779,12.951,25.083,25.083,0,0,1-15.742,10.672,27.218,27.218,0,0,1-5.461.555Z" transform="translate(-179.46 -3.967)"/><path class="a" d="M415.23,12.92h17.089V46.909H415.23Z" transform="translate(-164.037 -5.047)"/><path class="a" d="M339.383,12.19a38.154,38.154,0,0,1,6,.811c.3,3.894,3.23,6.948,6.8,6.948l.268-.006c.006,4.638,1.249,7.7,3.529,7.7,1.14,0,2.4-.762,3.657-2.1,1.341,2.95,3.151,4.76,5.156,4.76a4.608,4.608,0,0,0,3.456-1.944,39.191,39.191,0,0,1,3.968,7.289A36.722,36.722,0,0,1,375,49.915a35.894,35.894,0,0,1-2.73,14.011A36.614,36.614,0,0,1,364.73,75.4a37.209,37.209,0,0,1-11.275,7.941,38.126,38.126,0,0,1-14.06,3.389H322.3V12.08h17.1v.1Zm-1.511,50.091-.012-.006h0Zm-.018-.024c-.018-.39-.012-1.121.012-2.06Zm-.689-16.809,15.614,2.834-.152.835-15.614-2.834Zm2.407-.573-.835-.152c.549-3.023,4.364-4.967,7.429-4.412s5.948,3.73,5.4,6.741l-11.013-2a4.489,4.489,0,0,1,4.979-2.84,1.019,1.019,0,0,0,.914-.262c-.043-.865-.439-.908-1.8-.841a5.946,5.946,0,0,0-2.182.549,5.158,5.158,0,0,0-2.889,3.224Zm9.989-4.236a11.126,11.126,0,0,0-3.218-1.3c-3.815-.695-7.947,1.743-8.581,5.211-1.773-.323-1.5-.463-1.938,1.956-.128.713.725.707,1.432.835-.207,1.323-.433,15.431-.414,15.767L347.3,65a18.747,18.747,0,0,0,1.249-3.651c.335-1.2.768-2.48,1.182-3.748l1.719-5.619a15.744,15.744,0,0,0,.585-1.969c1.774.323,1.5.463,1.938-1.95.128-.713-.725-.707-1.432-.835.6-3.3-2.145-5.644-2.1-5.857a13.371,13.371,0,0,1,.847-2.121,4.98,4.98,0,0,0,.658-2.212l-.695-.128a9.065,9.065,0,0,0-.841,1.774c-.3.707-.567,1.31-.841,1.95Z" transform="translate(-127.744 -4.719)"/><path class="a" d="M53.767,30.7H26.055V41.921H48v17.1H26.055V87.844H8.96V13.6H53.767Z" transform="translate(-5.37 -5.313)"/><g transform="translate(326.342 0)"><path class="a" d="M545.419,4.761l.024-.061c-1.237-.494-5.217.969-5.954,2.316-2.779.311.78-7.606,7.265-6.978a2.455,2.455,0,1,1-1.341,4.723Z" transform="translate(-538.536 -0.002)"/></g><path class="b" d="M546.555,3.885c-2.523-.713-8.02,3.194-6.594,4.62" transform="translate(-212.66 -1.485)"/><g transform="translate(333.561 6.993)"><path class="a" d="M557.907,16.951c-4.766-2.925-3.352-1.646-7.527-3.279,2.62-3.261,5.753-2.188,9.5-1.225a2.458,2.458,0,1,1-1.968,4.5Z" transform="translate(-550.38 -11.475)"/></g><path class="b" d="M558.888,15.749c-3.169-1.383-5.095-2.206-8.508-1.03" transform="translate(-216.82 -5.53)"/><g transform="translate(330.263 13.958)"><path class="a" d="M551.235,28.381c-4.327-3.059-2.224-1.347-6.265-5.2,5.826-.341,2.986-.634,8.52.835a2.456,2.456,0,0,1-2.255,4.364Z" transform="translate(-544.97 -22.905)"/></g><path class="b" d="M552.363,26.377a47.738,47.738,0,0,0-7.393-3.017" transform="translate(-214.707 -9.124)"/><path class="c" d="M21.366,217.422a.486.486,0,0,0-.39.28L3.113,259.377a.594.594,0,0,0-.043.189.45.45,0,0,0,.445.457.511.511,0,0,0,.421-.286l17.449-40.73,10.641,24.817-6.68,15.559a.53.53,0,0,0-.043.177.45.45,0,0,0,.457.445.5.5,0,0,0,.414-.268l6.344-14.779,6.344,14.779a.5.5,0,0,0,.421.286.447.447,0,0,0,.445-.445.791.791,0,0,0-.043-.2l-6.68-15.559L43.647,219,61.1,259.73a.5.5,0,0,0,.414.268.45.45,0,0,0,.457-.445.623.623,0,0,0-.043-.177L44.062,217.7a.476.476,0,0,0-.414-.28h-.024a.486.486,0,0,0-.39.28L32.519,242.684,21.8,217.7a.49.49,0,0,0-.408-.28h-.024Zm72.933,0a.524.524,0,0,0-.4.28L76.028,259.377a.594.594,0,0,0-.043.189.45.45,0,0,0,.445.457.511.511,0,0,0,.421-.286l17.461-40.73,17.461,40.73a.5.5,0,0,0,.421.286.45.45,0,0,0,.445-.457.825.825,0,0,0-.043-.189L94.726,217.7a.476.476,0,0,0-.414-.28H94.3Zm53.6,0a21.3,21.3,0,1,0,0,42.6,21.25,21.25,0,0,0,15.212-6.088.568.568,0,0,0,.134-.323.45.45,0,0,0-.457-.445.568.568,0,0,0-.311.134,20.345,20.345,0,0,1-14.578,5.832c-11.7,0-20.411-8.715-20.411-20.411s8.715-20.411,20.411-20.411a20.345,20.345,0,0,1,14.578,5.833.568.568,0,0,0,.311.134.45.45,0,0,0,.457-.445.568.568,0,0,0-.134-.323,21.275,21.275,0,0,0-15.212-6.088Zm33.764-.012a.464.464,0,0,0-.445.445v41.723a.445.445,0,1,0,.89,0V239.167H211V259.59a.445.445,0,1,0,.89,0V217.855a.447.447,0,0,0-.445-.445h0a.464.464,0,0,0-.445.445v20.423H182.1V217.855a.447.447,0,0,0-.445-.445Zm48.9.457v41.711a.447.447,0,0,0,.445.445h0a.447.447,0,0,0,.445-.445V217.867h0a.447.447,0,0,0-.445-.445h0a.447.447,0,0,0-.445.445Zm49.8-.445a.447.447,0,0,0-.445.445h0v40.315l-28.98-40.571a.526.526,0,0,0-.366-.189.447.447,0,0,0-.445.445h0v41.711h0a.445.445,0,1,0,.89,0h0V219.269l28.98,40.565a.5.5,0,0,0,.366.189.447.447,0,0,0,.445-.445V217.867h0a.447.447,0,0,0-.445-.445h0Zm19.551,0a.433.433,0,1,0,0,.865h29.79a.433.433,0,1,0,0-.865Zm0,20.831a.433.433,0,1,0,0,.865h26.81a.433.433,0,1,0,0-.865Zm0,20.9h0a.433.433,0,1,0,0,.865h29.79a.433.433,0,1,0,0-.865H299.9Z" transform="translate(-3.07 -84.91)"/><path class="a" d="M14.742,158.52c13.542,3.163,20.216,15.468,34.849,20.1,20.173,5.637,31.363-1.877,46.654-13.268,34.964-26.06,60.653,36.75,94.715,11.372,52.675-36.317,39.95-7.3,74.658,3.8,36.829,11.781,40.931-19.5,68.277-19.253l-.043-11.1c-3.736.39-6.911.311-10.544,1.146a33.517,33.517,0,0,0-10.568,4.175c-56.673,38.194-42.241-1.932-83.922-6.131-34.349-3.462-45.228,38.938-79.741,13.03-12.055-9.05-18.466-15.1-34.763-14.481-16.157.609-23.318,8.02-36.287,17.248-28.565,16.8-38.572-17.168-70.514-18.466l-.1,10.891,7.326.939Z" transform="translate(-4.765 -57.29)"/><path class="a" d="M117.727,8.5c22.964,0,41.577,18.326,41.577,40.937S140.685,90.38,117.727,90.38,76.15,72.048,76.15,49.437,94.769,8.5,117.727,8.5ZM90.96,48.852A1.9,1.9,0,0,0,93.215,50.3L142.593,41a1.841,1.841,0,1,0-.792-3.584L92.648,46.67a1.966,1.966,0,0,0-1.688,2.188Zm24.293,22.391c7-1.316,15.565-2.682,22.263-4.54a17.839,17.839,0,0,0,5.211-2.432,8.453,8.453,0,0,0,3.45-7.959c-.037-.3-.122-.6-.158-.89-.043-.36.024-.427-.043-.817l-23.9,4.5a39.746,39.746,0,0,0-12.6,4.461,15.022,15.022,0,0,0-1.932,1.335c-.3.268-.561.445-.823.719s-.494.561-.756.859a4.433,4.433,0,0,0-.64.841,5.581,5.581,0,0,1-.542,1.006c-.433-1.566-4.5-5.107-5.253-4.967-5.485,1.036-4.486.475-4.144,2.182a8.3,8.3,0,0,0,6.661,6.5c3.663.719,8.5.1,13.213-.786ZM91.21,56.391c.427,2.267.548,4.632,2.834,5.772a4.709,4.709,0,0,0,2.877.549l1.6-.341a8.63,8.63,0,0,1,.932-.079l1.323-.341a8.627,8.627,0,0,1,.932-.079l1.323-.341a8.627,8.627,0,0,1,.932-.079l1.323-.341a8.661,8.661,0,0,1,.926-.079l1.329-.341a8.669,8.669,0,0,1,.926-.079l1.323-.341a8.669,8.669,0,0,1,.926-.079l1.329-.341a8.662,8.662,0,0,1,.926-.079l1.323-.341a8.627,8.627,0,0,1,.932-.079l1.322-.341a8.627,8.627,0,0,1,.932-.079l1.323-.341a8.632,8.632,0,0,1,.932-.079l1.323-.341a8.632,8.632,0,0,1,.932-.079l1.323-.341a8.631,8.631,0,0,1,.932-.079l1.323-.341a8.659,8.659,0,0,1,.926-.079l1.323-.341a8.66,8.66,0,0,1,.926-.079l1.329-.341A8.665,8.665,0,0,1,131,56.4l1.329-.341a8.669,8.669,0,0,1,.926-.079l1.323-.341a8.665,8.665,0,0,1,.926-.079l1.323-.341a8.624,8.624,0,0,1,.932-.079l1.323-.341a8.626,8.626,0,0,1,.932-.079l1.323-.341a9.615,9.615,0,0,0,1.2-.152c1.262-.4,2.029-.213,3.291-1.487,2.084-2.1,1.274-4.278.774-6.936a5.06,5.06,0,0,0-2.267-2.864c-1.81-.951-3.529-.481-5.637-.085-.408.079-1.255,1.993-2.072,2.907-.3.335-.506.591-.786.932-2.243,2.755-5.485,5.156-8.983,2.858-1.1-.719-3.23-2.578-4.272-2.377-2.871.542-1.737,1.493-3.395,1.8a3.294,3.294,0,0,1-1.969-.707c-.341-.238-.536-.286-.841-.494-.744-.494-.542-.616-.9-.549L95.86,50.924a5.608,5.608,0,0,0-3.645,1.834,4.775,4.775,0,0,0-1.03,3.718Zm25.951-18.43c-.152-.8,2.572-1.213,2.706-.512C120.006,38.193,117.3,38.7,117.16,37.961ZM97.329,40.527c.859-.384,2.45-.506,2.895.506C99.34,41.685,97.633,41.471,97.329,40.527Zm29.778-6.777c2.042-.9,3.547.5,2.578.683a3.41,3.41,0,0,1-1.786.024.962.962,0,0,1-.8-.707Zm-18.832,4.132a.673.673,0,0,1-.744-.207c.061-.823,1.432-1.347,2.56-1.3.152.932-1.03,1.359-1.816,1.511Zm24.055-8.033c.067-.89,1.981-1.329,2.779-.756C134.792,30.117,132.835,30.318,132.33,29.849Zm-16.809,1.883a1.843,1.843,0,0,1,1.554.177c-.067.9-2.036,1.073-2.779.756C114.338,32.061,114.8,31.866,115.521,31.732Zm-12.293,2.9c-2.017.384-1.146-1.444,1.5-1.335.091.567-.049.64-.445.878A4.926,4.926,0,0,1,103.228,34.633ZM120.7,28.191c-.1-.993,1.725-1.627,2.535-1.414.067.622-.39.89-.908,1.152A2.015,2.015,0,0,1,120.7,28.191Zm-12.6.037a2.381,2.381,0,0,1,2.816-.53c-.073.969-2.249.951-2.389.914-.469-.128-.232-.134-.427-.378ZM91.9,45.756l50.28-9.471c.433-.079.207-.286.085-.823-.829-3.584-4.077-7-7.094-8.612C128.533,23.3,121.384,22.578,113.833,24c-6.655,1.255-13.835,4.577-18.265,9.727A17.972,17.972,0,0,0,92.1,39.613a12.091,12.091,0,0,0-.579,5.5c.037.347-.073.725.372.64Z" transform="translate(-31.611 -3.321)"/><g transform="translate(123.245 12.329)"><path class="a" d="M207.009,53.665c3.638-.36,6.064,5.15,10.568,6.436a9.6,9.6,0,0,0,9.532-2.676,18.569,18.569,0,0,1,2.249-2.084,14.6,14.6,0,0,0,.542,4.419,11.88,11.88,0,0,0,21.27,2.895,13.076,13.076,0,0,0,.872-1.615c.926-2.072.055-1.237,1.487-2.243,2.883-2.023,4.217-5.156,8.52-5.217,6.576-.091,6.893,6.3,13.182,6.789a30,30,0,0,1-1.566,6.923,34.309,34.309,0,0,1-64.517,1.048A34.982,34.982,0,0,1,207.009,53.665Zm32.9-7.63a9.119,9.119,0,1,1-.006,0Zm-10.1-15.291c3.212-.232,4.7-.841,6.454-2.529,1.95-1.871,2.352-3.724,2.639-6.247a34.451,34.451,0,0,1,15.681,2.621,34.545,34.545,0,0,1,18.29,18.4c2.121,5.071,2.755,9.575,2.547,15.687a6.172,6.172,0,0,1-3.193-1.091,15.43,15.43,0,0,1-2.292-1.975,11.659,11.659,0,0,0-5.15-3.389,9.556,9.556,0,0,0-7.1.872c-2.121,1.243-3.73,3.462-4.607,3.9-.207-3.1-.165-4.894-2.243-7.783-5.7-7.953-17.942-5.723-20.855,3.1-.427,1.292-.274.475-1.871,1.853-2.322,2-4.016,4.565-7.813,4.6a7.729,7.729,0,0,1-3.955-.987c-3-1.774-4.48-5.436-9.148-5.8l.079-.707c.555-.043,1.56.2,2.365.177a8.777,8.777,0,0,0,8.459-9.27,15.591,15.591,0,0,0,2.621.646,8.96,8.96,0,0,0,2.895-.158,8.822,8.822,0,0,0,6.576-6.405A9.062,9.062,0,0,0,229.815,30.743Zm-2.3-.823a9.079,9.079,0,0,1,1.243,3.358,7.136,7.136,0,0,1-9.867,7.374c-.622-.262-.975-.585-1.475-.835a.8.8,0,0,0-1.225.841,17.615,17.615,0,0,1,.274,2.048,7.148,7.148,0,0,1-8.746,6.893c-1.8-.421-1.828-.536-2.151,2.011a36.185,36.185,0,0,0,2.95,19.49,35.948,35.948,0,1,0,55.808-42.473,35.967,35.967,0,0,0-26.079-8.276c-.878.067-1.048.372-1.006,1.3a7.154,7.154,0,0,1-6.448,7.393c-1.469.134-3.626-.719-3.267.872Z" transform="translate(-205.292 -20.231)"/><path class="a" d="M218.51,104.215c-.561.262-.585.811-.244,1.365a35.235,35.235,0,0,0,3.724,5.071l1.444,1.487a31.789,31.789,0,0,0,7.947,5.735c.536.28,2.243,1.286,2.895.975a.851.851,0,0,0,.189-1.3l-3.87-1.987a31.452,31.452,0,0,1-10.818-10.684c-.232-.4-.542-1-1.268-.658Z" transform="translate(-210.272 -52.991)"/><path class="a" d="M262.3,120.188c-.957.414-2.1,1.091-3.029,1.621-.457.262-1.182.506-1.316,1-.2.737.42,1.243,1.152.981.3-.11,1.158-.628,1.5-.823.75-.421,2.669-1.292,2.8-1.834A.786.786,0,0,0,262.3,120.188Z" transform="translate(-225.845 -59.237)"/><path class="a" d="M304.991,96.794c-1.012.475-1.944,1.054-2.95,1.6-.482.262-1.207.481-1.329,1.018a.818.818,0,0,0,1.164.951c.378-.152,1.06-.567,1.438-.78.695-.4,2.688-1.335,2.834-1.81a.8.8,0,0,0-1.164-.981Z" transform="translate(-242.548 -50.092)"/><path class="a" d="M228.03,71.586c-1.006.475-1.95,1.06-2.95,1.6-.469.256-1.213.518-1.329,1.012a.824.824,0,0,0,1.17.963c.408-.171,1.03-.561,1.438-.786.53-.28,2.688-1.335,2.834-1.81a.8.8,0,0,0-1.158-.981Z" transform="translate(-212.491 -40.248)"/><path class="a" d="M303.231,57.165c-1.018.457-2.017,1.1-3.017,1.627-.494.256-1.195.518-1.31,1.012a.82.82,0,0,0,1.146.963l2.986-1.639c.39-.207,1.2-.512,1.328-.993A.8.8,0,0,0,303.231,57.165Z" transform="translate(-241.841 -34.622)"/><path class="a" d="M216.244,85.748a27.813,27.813,0,0,0-2.694,1.511c-.439.25-1.006.451-1.091.957a.809.809,0,0,0,1.1.932c.36-.1,2.212-1.255,2.669-1.518.433-.244.993-.457,1.06-.975a.8.8,0,0,0-1.048-.9Z" transform="translate(-208.085 -45.805)"/><path class="a" d="M285.6,111.4c-.488.256-.421.481-.64,1.255-.128.463-.8,2.81-.78,3.1a.8.8,0,0,0,1.176.683c.634-.262.829-1.993,1.048-2.779a8.287,8.287,0,0,0,.372-1.621.768.768,0,0,0-1.17-.634Z" transform="translate(-236.101 -55.798)"/><path class="a" d="M239.667,59.636c-.475.25-.427.53-.628,1.255-.146.524-.274,1.03-.414,1.542a8.463,8.463,0,0,0-.366,1.56.811.811,0,0,0,1.17.683c.616-.256,1.432-4.248,1.42-4.406a.775.775,0,0,0-1.188-.634Z" transform="translate(-218.167 -35.575)"/><path class="a" d="M242.879,107.788c-.548.274-.518.64-.689,1.292a24.163,24.163,0,0,0-.762,3.133.818.818,0,0,0,1.152.634c.549-.232.829-1.944,1.073-2.834a6.73,6.73,0,0,0,.36-1.6A.753.753,0,0,0,242.879,107.788Z" transform="translate(-219.404 -54.388)"/><path class="a" d="M269.5,31.967c-.414.232-.482.555-.847,1.225-.256.475-.488.859-.731,1.31a4.846,4.846,0,0,0-.64,1.377.817.817,0,0,0,1.237.737,19.574,19.574,0,0,0,2.188-3.943.785.785,0,0,0-1.213-.7Z" transform="translate(-229.501 -24.77)"/><path class="a" d="M273.56,47.415c-.567.207-.561.6-.737,1.255l-.792,3.12a.8.8,0,0,0,1.109.756c.579-.189.859-1.889,1.109-2.816a8.922,8.922,0,0,0,.372-1.578.781.781,0,0,0-1.067-.737Z" transform="translate(-231.356 -30.826)"/><path class="a" d="M282.9,59.688a.819.819,0,0,0-.433,1.323c.085.11,3.541,1.908,4.175,1.67a.856.856,0,0,0,.329-1.286,4.687,4.687,0,0,0-1.286-.664c-.549-.25-2.237-1.207-2.779-1.042Z" transform="translate(-235.356 -35.633)"/><path class="a" d="M251.75,49.048a.8.8,0,0,0-.353,1.243c.244.335.926.53,1.335.713.542.25,2.3,1.213,2.84,1.006a.84.84,0,0,0,.347-1.255,4.8,4.8,0,0,0-1.329-.719c-.506-.238-2.322-1.231-2.84-.981Z" transform="translate(-223.229 -31.472)"/><path class="a" d="M286.413,89.53a.82.82,0,0,0-.347,1.274c.2.256,3.584,1.865,4.157,1.694a.833.833,0,0,0,.293-1.347,24.157,24.157,0,0,0-2.651-1.255C287.425,89.7,286.919,89.317,286.413,89.53Z" transform="translate(-236.768 -47.271)"/><path class="a" d="M285.024,42.78a.633.633,0,0,0-.445.567c-.146.89.676.993,1.524,1.39.573.268,2.261,1.231,2.865.957a.86.86,0,0,0,.189-1.347c-.006-.006-3.486-1.883-4.126-1.56Z" transform="translate(-236.251 -29.025)"/><path class="a" d="M263.433,104.878a.791.791,0,0,0-.25,1.316c.1.1,3.516,1.9,4.126,1.621a.845.845,0,0,0,.268-1.3C267.437,106.366,263.982,104.58,263.433,104.878Z" transform="translate(-227.799 -53.276)"/><path class="a" d="M233.243,98.131a.842.842,0,0,0-.207,1.329l2.657,1.249c.408.183,1.006.579,1.5.329a.852.852,0,0,0,.2-1.323c-.049-.049-3.529-1.92-4.15-1.591Z" transform="translate(-216.033 -50.637)"/><path class="a" d="M215.511,98.169c-.762.317-.573.829-.232,1.6.238.542.512,1.243,1.335.884.622-.268.433-1,.165-1.591-.256-.561-.475-1.231-1.274-.9Z" transform="translate(-209.076 -50.631)"/></g></g></svg>