<svg xmlns="http://www.w3.org/2000/svg" width="153.24" height="78.384" viewBox="0 0 153.24 78.384"><defs><style>.a,.c{fill:#fefefe;}.a,.b{fill-rule:evenodd;}.b{fill:none;}.c{stroke:#fafafa;stroke-linecap:round;stroke-linejoin:round;stroke-miterlimit:14.336;stroke-width:2px;}</style></defs><g transform="translate(-2.07 -0.002)"><path class="a" d="M465.85,44.288a11.669,11.669,0,0,1-3.108-.425,10.463,10.463,0,0,1-2.927-1.32,10.943,10.943,0,0,1-3.754-4.045,11.231,11.231,0,0,1-1.341-5.429h7.554a3.287,3.287,0,0,0,.582,2.079,4.158,4.158,0,0,0,1.029,1,3.374,3.374,0,0,0,1.742.582,3.936,3.936,0,0,0,1.831-.358,2.967,2.967,0,0,0,1-.671,3.647,3.647,0,0,0,.582-.784,2.189,2.189,0,0,0,.245-.735,4.917,4.917,0,0,0,.046-.582,5,5,0,0,0-.046-.582,2.366,2.366,0,0,0-.245-.759,3.044,3.044,0,0,0-.582-.784,3.842,3.842,0,0,0-1-.692,9.792,9.792,0,0,0-1.05-.4c-.372-.121-.768-.253-1.185-.4-.746-.24-1.522-.506-2.324-.805a13.022,13.022,0,0,1-2.413-1.206,9.455,9.455,0,0,1-2.636-2.459,9.741,9.741,0,0,1-1.856-6.681,9.231,9.231,0,0,1,1-3.463,9.824,9.824,0,0,1,2.012-2.636,9.545,9.545,0,0,1,5.855-2.548,10.45,10.45,0,0,1,3.442.312,9.909,9.909,0,0,1,3.067,1.274,9.625,9.625,0,0,1,2.375,2.1,8.869,8.869,0,0,1,1.535,2.75,9.445,9.445,0,0,1,.536,3.172H468.3a1.544,1.544,0,0,0-.649-1.43,4.474,4.474,0,0,0-1.139-.536,2.894,2.894,0,0,1-.426-.067,2.109,2.109,0,0,0-.759,0,2.65,2.65,0,0,0-.873.312,1.732,1.732,0,0,0-.714.781,2.016,2.016,0,0,0-.135,1.5,2.131,2.131,0,0,0,.894,1.228,9.846,9.846,0,0,0,1.384.649q.759.291,1.608.56.759.222,1.543.493c.52.178,1.042.388,1.578.625a10.523,10.523,0,0,1,6.264,9.7,10.383,10.383,0,0,1-1.67,5.723,11.083,11.083,0,0,1-6.956,4.716,12.027,12.027,0,0,1-2.413.245Z" transform="translate(-330.019 -7.419)"/><path class="a" d="M415.23,12.92h7.551V27.939H415.23Z" transform="translate(-301.164 -9.439)"/><path class="a" d="M329.849,12.128a16.859,16.859,0,0,1,2.653.358,3.169,3.169,0,0,0,3.005,3.07l.119,0c0,2.049.552,3.4,1.559,3.4a2.434,2.434,0,0,0,1.616-.926c.592,1.3,1.392,2.1,2.278,2.1a2.036,2.036,0,0,0,1.527-.859,17.316,17.316,0,0,1,1.753,3.221,16.226,16.226,0,0,1,1.228,6.3,15.861,15.861,0,0,1-1.206,6.191,16.178,16.178,0,0,1-3.331,5.071,16.442,16.442,0,0,1-4.982,3.509,16.847,16.847,0,0,1-6.213,1.5H322.3V12.08h7.554v.046Zm-.668,22.134-.005,0h0Zm-.008-.011c-.008-.172-.005-.5.005-.91Zm-.3-7.427,6.9,1.252-.067.369-6.9-1.252Zm1.064-.253-.369-.067a2.909,2.909,0,0,1,5.669,1.029l-4.866-.883a1.984,1.984,0,0,1,2.2-1.255.45.45,0,0,0,.4-.116c-.019-.382-.194-.4-.8-.372a2.628,2.628,0,0,0-.964.242,2.279,2.279,0,0,0-1.277,1.425Zm4.414-1.872a4.916,4.916,0,0,0-1.422-.576,3.278,3.278,0,0,0-3.792,2.3c-.784-.143-.662-.2-.856.864-.057.315.32.312.633.369-.092.584-.191,6.819-.183,6.967l4.621.84a8.283,8.283,0,0,0,.552-1.613c.148-.531.339-1.1.522-1.656l.759-2.483a6.951,6.951,0,0,0,.259-.87c.784.143.663.2.856-.862.057-.315-.32-.312-.633-.369a3.4,3.4,0,0,0-.929-2.588,5.91,5.91,0,0,1,.374-.937,2.2,2.2,0,0,0,.291-.978l-.307-.057a4.005,4.005,0,0,0-.372.784c-.132.312-.25.579-.372.862Z" transform="translate(-233.26 -8.825)"/><path class="a" d="M28.759,21.154H16.514v4.961h9.7v7.554h-9.7V46.407H8.96V13.6h19.8Z" transform="translate(-4.304 -9.936)"/><g transform="translate(147.273 0.002)"><path class="a" d="M541.577,2.1l.011-.027A3.326,3.326,0,0,0,538.957,3.1c-1.228.137.345-3.361,3.21-3.084a1.085,1.085,0,1,1-.592,2.087Z" transform="translate(-538.536 -0.002)"/></g><path class="b" d="M542.745,3.837c-1.115-.315-3.544,1.411-2.914,2.041" transform="translate(-392.134 -2.774)"/><g transform="translate(150.463 3.092)"><path class="a" d="M553.706,13.895c-2.106-1.293-1.481-.727-3.326-1.449,1.158-1.441,2.542-.967,4.2-.541a1.086,1.086,0,1,1-.87,1.99Z" transform="translate(-550.38 -11.475)"/></g><path class="b" d="M554.139,14.86c-1.4-.611-2.251-.975-3.759-.455" transform="translate(-399.917 -10.342)"/><g transform="translate(149.006 6.17)"><path class="a" d="M547.738,25.325a12.373,12.373,0,0,1-2.768-2.3c2.575-.151,1.32-.28,3.765.369a1.085,1.085,0,0,1-1,1.928Z" transform="translate(-544.97 -22.905)"/></g><path class="b" d="M548.237,24.693a21.1,21.1,0,0,0-3.267-1.333" transform="translate(-395.964 -17.068)"/><path class="c" d="M11.155,217.415a.215.215,0,0,0-.172.124L3.089,235.954a.262.262,0,0,0-.019.083.2.2,0,0,0,.2.2.226.226,0,0,0,.186-.127l7.71-18,4.7,10.966-2.952,6.875a.234.234,0,0,0-.019.078.2.2,0,0,0,.2.2.222.222,0,0,0,.183-.118l2.8-6.531,2.8,6.531a.221.221,0,0,0,.186.127.2.2,0,0,0,.2-.2.349.349,0,0,0-.019-.089L16.3,229.079,21,218.113l7.71,18a.222.222,0,0,0,.183.118.2.2,0,0,0,.2-.2.275.275,0,0,0-.019-.078l-7.893-18.415a.21.21,0,0,0-.183-.124h-.011a.215.215,0,0,0-.172.124l-4.734,11.039-4.734-11.039a.217.217,0,0,0-.18-.124h-.011Zm32.228,0a.232.232,0,0,0-.178.124l-7.9,18.415a.262.262,0,0,0-.019.083.2.2,0,0,0,.2.2.226.226,0,0,0,.186-.127l7.716-18,7.716,18a.221.221,0,0,0,.186.127.2.2,0,0,0,.2-.2.364.364,0,0,0-.019-.083l-7.9-18.415a.21.21,0,0,0-.183-.124h-.005Zm23.683,0a9.412,9.412,0,1,0,0,18.824,9.39,9.39,0,0,0,6.722-2.69.251.251,0,0,0,.059-.143.2.2,0,0,0-.2-.2.251.251,0,0,0-.137.059,8.99,8.99,0,0,1-6.442,2.577,9.019,9.019,0,0,1,0-18.038,8.99,8.99,0,0,1,6.442,2.577.251.251,0,0,0,.137.059.2.2,0,0,0,.2-.2.251.251,0,0,0-.059-.143,9.4,9.4,0,0,0-6.722-2.69Zm14.919-.005a.205.205,0,0,0-.2.2v18.437a.2.2,0,1,0,.393,0v-9.019h12.77v9.024a.2.2,0,1,0,.393,0V217.607a.2.2,0,0,0-.2-.2h0a.205.205,0,0,0-.2.2v9.024H82.181v-9.024a.2.2,0,0,0-.2-.2Zm21.606.2v18.431a.2.2,0,0,0,.2.2h0a.2.2,0,0,0,.2-.2V217.612h0a.2.2,0,0,0-.2-.2h0a.2.2,0,0,0-.2.2Zm22-.2a.2.2,0,0,0-.2.2h0v17.814L112.593,217.5a.232.232,0,0,0-.162-.083.2.2,0,0,0-.2.2h0v18.431h0a.2.2,0,0,0,.393,0h0V218.231l12.805,17.925a.223.223,0,0,0,.162.083.2.2,0,0,0,.2-.2V217.612h0a.2.2,0,0,0-.2-.2h0Zm8.639,0a.191.191,0,1,0,0,.382H147.4a.191.191,0,1,0,0-.382Zm0,9.2a.191.191,0,1,0,0,.382h11.847a.191.191,0,1,0,0-.382Zm0,9.234h0a.191.191,0,1,0,0,.382H147.4a.191.191,0,1,0,0-.382H134.235Z" transform="translate(0 -158.859)"/><path class="a" d="M10.65,151.917c5.984,1.4,8.933,6.835,15.4,8.882,8.914,2.491,13.858-.829,20.615-5.863,15.45-11.515,26.8,16.239,41.853,5.025,23.276-16.048,17.653-3.226,32.99,1.678,16.274,5.206,18.086-8.618,30.17-8.507l-.019-4.9a36.569,36.569,0,0,0-4.659.506,14.811,14.811,0,0,0-4.67,1.845c-25.043,16.877-18.665-.854-37.083-2.709-15.178-1.53-19.985,17.206-35.236,5.758-5.327-4-8.16-6.671-15.361-6.4-7.139.269-10.3,3.544-16.034,7.621-12.622,7.422-17.044-7.586-31.158-8.16L7.41,151.5l3.237.415Z" transform="translate(-3.171 -107.184)"/><path class="a" d="M94.522,8.5a18.231,18.231,0,0,1,18.372,18.089,18.374,18.374,0,0,1-36.744,0A18.233,18.233,0,0,1,94.522,8.5ZM82.694,26.331a.838.838,0,0,0,1,.638l21.819-4.11a.813.813,0,1,0-.35-1.584L83.44,25.367a.869.869,0,0,0-.746.967Zm10.734,9.894c3.094-.582,6.878-1.185,9.838-2.006a7.883,7.883,0,0,0,2.3-1.075,3.735,3.735,0,0,0,1.524-3.517c-.016-.132-.054-.264-.07-.393-.019-.159.011-.189-.019-.361L96.442,30.86a17.563,17.563,0,0,0-5.567,1.971,6.637,6.637,0,0,0-.854.59c-.132.118-.248.2-.364.318s-.218.248-.334.38a1.959,1.959,0,0,0-.283.372,2.466,2.466,0,0,1-.24.444A5.34,5.34,0,0,0,86.48,32.74c-2.424.458-1.982.21-1.831.964a3.669,3.669,0,0,0,2.943,2.873,16.843,16.843,0,0,0,5.839-.347ZM82.8,29.662c.189,1,.242,2.047,1.252,2.55a2.081,2.081,0,0,0,1.271.242l.708-.151a3.811,3.811,0,0,1,.412-.035l.584-.151a3.811,3.811,0,0,1,.412-.035l.584-.151a3.813,3.813,0,0,1,.412-.035l.584-.151a3.828,3.828,0,0,1,.409-.035l.587-.151a3.83,3.83,0,0,1,.409-.035l.584-.151a3.829,3.829,0,0,1,.409-.035l.587-.151a3.827,3.827,0,0,1,.409-.035L93.006,31a3.813,3.813,0,0,1,.412-.035L94,30.817a3.813,3.813,0,0,1,.412-.035L95,30.631a3.813,3.813,0,0,1,.412-.035L96,30.446a3.814,3.814,0,0,1,.412-.035l.584-.151a3.813,3.813,0,0,1,.412-.035l.584-.151a3.827,3.827,0,0,1,.409-.035l.584-.151a3.828,3.828,0,0,1,.409-.035l.587-.151a3.828,3.828,0,0,1,.409-.035l.587-.151a3.829,3.829,0,0,1,.409-.035l.584-.151a3.829,3.829,0,0,1,.409-.035l.584-.151a3.811,3.811,0,0,1,.412-.035l.584-.151a3.812,3.812,0,0,1,.412-.035l.584-.151a4.249,4.249,0,0,0,.531-.067c.557-.178.9-.094,1.454-.657.921-.929.563-1.891.342-3.065a2.236,2.236,0,0,0-1-1.266,3.573,3.573,0,0,0-2.491-.038c-.18.035-.555.881-.916,1.285-.132.148-.224.261-.347.412-.991,1.217-2.424,2.278-3.97,1.263-.485-.318-1.427-1.139-1.888-1.05-1.268.24-.768.66-1.5.8a1.455,1.455,0,0,1-.87-.312c-.151-.105-.237-.127-.372-.218-.329-.218-.24-.272-.4-.242l-8.669,1.632a2.478,2.478,0,0,0-1.61.811,2.11,2.11,0,0,0-.455,1.643Zm11.467-8.144c-.067-.353,1.136-.536,1.2-.226C95.529,21.62,94.333,21.844,94.271,21.518Zm-8.763,1.134c.38-.17,1.083-.224,1.279.224C86.4,23.164,85.643,23.069,85.508,22.652Zm13.158-2.995c.9-.4,1.567.221,1.139.3a1.507,1.507,0,0,1-.789.011.425.425,0,0,1-.353-.312Zm-8.321,1.826a.3.3,0,0,1-.329-.092c.027-.364.633-.6,1.131-.574.067.412-.455.6-.8.668Zm10.629-3.549c.03-.393.875-.587,1.228-.334C102.062,18.052,101.2,18.141,100.974,17.934Zm-7.427.832a.814.814,0,0,1,.687.078c-.03.4-.9.474-1.228.334C93.025,18.911,93.229,18.825,93.547,18.766Zm-5.432,1.282c-.891.17-.506-.638.662-.59.04.25-.022.283-.2.388A2.177,2.177,0,0,1,88.115,20.048ZM95.833,17.2c-.046-.439.762-.719,1.12-.625.03.275-.172.393-.4.509A.891.891,0,0,1,95.833,17.2Zm-5.569.016a1.052,1.052,0,0,1,1.244-.234c-.032.428-.994.42-1.056.4-.207-.057-.1-.059-.189-.167Zm-7.155,7.745,22.218-4.185c.191-.035.092-.127.038-.364a6.479,6.479,0,0,0-3.135-3.805,13.932,13.932,0,0,0-9.428-1.26,14.441,14.441,0,0,0-8.071,4.3,7.941,7.941,0,0,0-1.532,2.6,5.343,5.343,0,0,0-.256,2.432c.016.153-.032.32.164.283Z" transform="translate(-53.399 -6.21)"/><g transform="translate(57.529 5.45)"><path class="a" d="M206.051,35c1.608-.159,2.68,2.276,4.67,2.844a4.241,4.241,0,0,0,4.212-1.182,8.205,8.205,0,0,1,.994-.921,6.454,6.454,0,0,0,.24,1.952,5.249,5.249,0,0,0,9.4,1.279,5.78,5.78,0,0,0,.385-.714c.409-.916.024-.547.657-.991,1.274-.894,1.864-2.278,3.765-2.305,2.906-.04,3.046,2.785,5.825,3a13.257,13.257,0,0,1-.692,3.059A15.16,15.16,0,0,1,207,41.489,15.458,15.458,0,0,1,206.051,35Zm14.54-3.372a4.516,4.516,0,1,1-3.9,5.068,4.515,4.515,0,0,1,3.9-5.068Zm-4.462-6.757a3.879,3.879,0,0,0,2.852-1.118A3.94,3.94,0,0,0,220.146,21a15.223,15.223,0,0,1,6.929,1.158,15.264,15.264,0,0,1,8.082,8.13,15.282,15.282,0,0,1,1.126,6.932,2.727,2.727,0,0,1-1.411-.482,6.818,6.818,0,0,1-1.013-.873,5.152,5.152,0,0,0-2.276-1.5,4.223,4.223,0,0,0-3.137.385c-.937.549-1.648,1.53-2.036,1.724a5.353,5.353,0,0,0-.991-3.439,5.259,5.259,0,0,0-9.216,1.371c-.189.571-.121.21-.827.819-1.026.883-1.775,2.017-3.452,2.031a3.416,3.416,0,0,1-1.748-.436c-1.325-.784-1.979-2.4-4.042-2.564l.035-.312c.245-.019.689.089,1.045.078a3.878,3.878,0,0,0,3.738-4.1,6.889,6.889,0,0,0,1.158.285,3.959,3.959,0,0,0,1.279-.07,3.9,3.9,0,0,0,2.906-2.83A4,4,0,0,0,216.128,24.876Zm-1.015-.364A4.011,4.011,0,0,1,215.662,26a3.153,3.153,0,0,1-4.36,3.259c-.275-.116-.431-.259-.652-.369a.354.354,0,0,0-.541.372,7.783,7.783,0,0,1,.121.9,3.159,3.159,0,0,1-3.865,3.046c-.8-.186-.808-.237-.951.889a15.989,15.989,0,0,0,1.3,8.612,15.885,15.885,0,1,0,24.66-18.768,15.893,15.893,0,0,0-11.524-3.657c-.388.03-.463.164-.444.576a3.161,3.161,0,0,1-2.849,3.267c-.649.059-1.6-.318-1.443.385Z" transform="translate(-205.292 -20.231)"/><path class="a" d="M218.249,104.158c-.248.116-.259.358-.108.6A15.569,15.569,0,0,0,219.787,107l.638.657a14.047,14.047,0,0,0,3.512,2.534c.237.124.991.568,1.279.431a.376.376,0,0,0,.083-.576l-1.71-.878a13.9,13.9,0,0,1-4.78-4.721c-.1-.178-.24-.442-.56-.291Z" transform="translate(-214.609 -81.524)"/><path class="a" d="M259.854,120.143c-.423.183-.926.482-1.338.716-.2.116-.522.224-.582.442-.089.326.186.549.509.434.132-.048.512-.277.662-.364.331-.186,1.18-.571,1.239-.811A.347.347,0,0,0,259.854,120.143Z" transform="translate(-243.745 -93.21)"/><path class="a" d="M302.589,96.736c-.447.21-.859.466-1.3.708-.213.116-.533.213-.587.45a.362.362,0,0,0,.514.42c.167-.067.469-.25.636-.345.307-.175,1.188-.59,1.252-.8a.353.353,0,0,0-.514-.434Z" transform="translate(-274.997 -76.099)"/><path class="a" d="M225.627,71.53c-.444.21-.862.469-1.3.708-.207.113-.536.229-.587.447a.364.364,0,0,0,.517.425c.18-.075.455-.248.636-.347.234-.124,1.188-.59,1.252-.8a.354.354,0,0,0-.512-.434Z" transform="translate(-218.76 -57.683)"/><path class="a" d="M300.8,57.118c-.45.2-.891.487-1.333.719-.218.113-.528.229-.579.447a.362.362,0,0,0,.506.425l1.32-.724c.172-.092.531-.226.587-.439A.355.355,0,0,0,300.8,57.118Z" transform="translate(-273.675 -47.156)"/><path class="a" d="M214.123,85.729a12.29,12.29,0,0,0-1.19.668c-.194.11-.444.2-.482.423a.358.358,0,0,0,.487.412c.159-.046.978-.555,1.18-.671s.439-.2.469-.431a.355.355,0,0,0-.463-.4Z" transform="translate(-210.518 -68.079)"/><path class="a" d="M284.807,111.347c-.215.113-.186.213-.283.555-.057.2-.353,1.241-.345,1.371a.353.353,0,0,0,.52.3c.28-.116.366-.881.463-1.228a3.662,3.662,0,0,0,.164-.716.339.339,0,0,0-.517-.28Z" transform="translate(-262.935 -86.776)"/><path class="a" d="M238.881,59.572c-.21.11-.189.234-.277.555-.065.232-.121.455-.183.681a3.741,3.741,0,0,0-.162.689.358.358,0,0,0,.517.3c.272-.113.633-1.877.627-1.947a.342.342,0,0,0-.525-.28Z" transform="translate(-229.381 -48.94)"/><path class="a" d="M242.068,107.733c-.242.121-.229.283-.3.571a10.676,10.676,0,0,0-.337,1.384.361.361,0,0,0,.509.28c.242-.1.366-.859.474-1.252a2.974,2.974,0,0,0,.159-.708A.333.333,0,0,0,242.068,107.733Z" transform="translate(-231.695 -84.137)"/><path class="a" d="M268.26,31.9c-.183.1-.213.245-.374.541-.113.21-.215.38-.323.579a2.142,2.142,0,0,0-.283.609.361.361,0,0,0,.547.326,8.649,8.649,0,0,0,.967-1.742.347.347,0,0,0-.536-.31Z" transform="translate(-250.586 -28.724)"/><path class="a" d="M272.706,47.385c-.25.092-.248.267-.326.555l-.35,1.379a.353.353,0,0,0,.49.334c.256-.083.38-.835.49-1.244a3.943,3.943,0,0,0,.164-.7.345.345,0,0,0-.471-.326Z" transform="translate(-254.057 -40.054)"/><path class="a" d="M282.549,59.677a.362.362,0,0,0-.191.584A5.68,5.68,0,0,0,284.2,61a.378.378,0,0,0,.145-.568,2.071,2.071,0,0,0-.568-.294c-.242-.11-.988-.533-1.228-.461Z" transform="translate(-261.541 -49.048)"/><path class="a" d="M251.454,49.029a.352.352,0,0,0-.156.549c.108.148.409.234.59.315.24.11,1.018.536,1.255.444a.371.371,0,0,0,.154-.555,2.119,2.119,0,0,0-.587-.318c-.224-.105-1.026-.544-1.255-.434Z" transform="translate(-238.852 -41.263)"/><path class="a" d="M286.12,89.495a.362.362,0,0,0-.154.563,5.558,5.558,0,0,0,1.837.749.368.368,0,0,0,.129-.6,10.676,10.676,0,0,0-1.172-.555C286.567,89.57,286.343,89.4,286.12,89.495Z" transform="translate(-264.183 -70.821)"/><path class="a" d="M284.766,42.763a.28.28,0,0,0-.2.25c-.065.393.3.439.673.614.253.118,1,.544,1.266.423a.38.38,0,0,0,.083-.6s-1.54-.832-1.823-.689Z" transform="translate(-263.214 -36.684)"/><path class="a" d="M263.148,104.86a.35.35,0,0,0-.11.582c.046.046,1.554.838,1.823.716a.374.374,0,0,0,.118-.576C264.917,105.517,263.39,104.728,263.148,104.86Z" transform="translate(-247.402 -82.058)"/><path class="a" d="M232.993,98.106a.372.372,0,0,0-.092.587l1.174.552c.18.081.444.256.662.145a.376.376,0,0,0,.089-.584c-.022-.022-1.559-.848-1.834-.7Z" transform="translate(-225.389 -77.119)"/><path class="a" d="M215.215,98.115c-.337.14-.253.366-.1.706.105.24.226.549.59.39.275-.118.191-.442.073-.7s-.21-.544-.563-.4Z" transform="translate(-212.372 -77.109)"/></g></g></svg>