<svg xmlns="http://www.w3.org/2000/svg" xmlns:xlink="http://www.w3.org/1999/xlink" width="995.708" height="105.534" viewBox="0 0 995.708 105.534"><defs><style>.a{fill:#f9f9f9;stroke:#fff;}.b{fill:#fefefe;}.aa,.ab,.ac,.ad,.ae,.af,.ag,.ah,.ai,.aj,.b,.c,.d,.e,.f,.g,.h,.i,.j,.k,.l,.m,.n,.o,.p,.q,.r,.s,.t,.u,.v,.w,.x,.y,.z{fill-rule:evenodd;}.c{fill:#1a1f71;}.d{fill:#f7b600;}.e{fill:#fafafc;}.f{fill:#363981;}.g{fill:#232877;}.h{fill:#45498c;}.i{fill:#42468a;}.j{fill:#3f4288;}.k{fill:#fdfdfd;}.l{fill:#252a78;}.m{fill:#282e7a;}.n{fill:#7e81af;}.o{fill:#f2f3f7;}.p{fill:#0099df;}.q{fill:#d32011;}.r{fill:#6c6bbc;}.s{fill:#110f0d;}.t{fill:#e9001b;}.u{fill:#f79f1a;}.v{fill:#ff5e01;}.x{fill:#231e20;}.y{fill:#38a7e4;}.z{fill:#fbc707;}.aa{fill:#ef311e;}.ab{fill:#221e20;}.ac{fill:#ee3120;}.ad{fill:#fac607;}.ae{fill:#b3131b;}.af{fill:#f8f8f8;}.ag{fill:#010101;}.ah{fill:#656565;}.ai{fill:#00bdae;}.aj{fill:#94969a;}.ak{stroke:none;}.al{fill:none;}.am{filter:url(#m);}.an{filter:url(#k);}.ao{filter:url(#i);}.ap{filter:url(#g);}.aq{filter:url(#e);}.ar{filter:url(#c);}.as{filter:url(#a);}</style><filter id="a" x="0" y="0" width="138.174" height="105.534" filterUnits="userSpaceOnUse"><feOffset dx="-4" dy="4" input="SourceAlpha"/><feGaussianBlur stdDeviation="3" result="b"/><feFlood flood-opacity="0.161"/><feComposite operator="in" in2="b"/><feComposite in="SourceGraphic"/></filter><filter id="c" x="264.085" y="0" width="136.69" height="105.534" filterUnits="userSpaceOnUse"><feOffset dx="-4" dy="4" input="SourceAlpha"/><feGaussianBlur stdDeviation="3" result="d"/><feFlood flood-opacity="0.161"/><feComposite operator="in" in2="d"/><feComposite in="SourceGraphic"/></filter><filter id="e" x="132.042" y="0" width="138.174" height="105.534" filterUnits="userSpaceOnUse"><feOffset dx="-4" dy="4" input="SourceAlpha"/><feGaussianBlur stdDeviation="3" result="f"/><feFlood flood-opacity="0.161"/><feComposite operator="in" in2="f"/><feComposite in="SourceGraphic"/></filter><filter id="g" x="396.128" y="0" width="138.174" height="105.534" filterUnits="userSpaceOnUse"><feOffset dx="-4" dy="4" input="SourceAlpha"/><feGaussianBlur stdDeviation="3" result="h"/><feFlood flood-opacity="0.161"/><feComposite operator="in" in2="h"/><feComposite in="SourceGraphic"/></filter><filter id="i" x="529.653" y="0" width="138.174" height="105.534" filterUnits="userSpaceOnUse"><feOffset dx="-4" dy="4" input="SourceAlpha"/><feGaussianBlur stdDeviation="3" result="j"/><feFlood flood-opacity="0.161"/><feComposite operator="in" in2="j"/><feComposite in="SourceGraphic"/></filter><filter id="k" x="661.696" y="0" width="169.33" height="105.534" filterUnits="userSpaceOnUse"><feOffset dx="-4" dy="4" input="SourceAlpha"/><feGaussianBlur stdDeviation="3" result="l"/><feFlood flood-opacity="0.161"/><feComposite operator="in" in2="l"/><feComposite in="SourceGraphic"/></filter><filter id="m" x="824.895" y="0" width="170.813" height="105.534" filterUnits="userSpaceOnUse"><feOffset dx="-4" dy="4" input="SourceAlpha"/><feGaussianBlur stdDeviation="3" result="n"/><feFlood flood-opacity="0.161"/><feComposite operator="in" in2="n"/><feComposite in="SourceGraphic"/></filter></defs><g transform="translate(13 5)"><g transform="translate(0 0)"><g class="as" transform="matrix(1, 0, 0, 1, -13, -5)"><g class="a" transform="translate(13 5)"><rect class="ak" width="120.174" height="87.534" rx="17"/><rect class="al" x="0.5" y="0.5" width="119.174" height="86.534" rx="16.5"/></g></g><path class="b" d="M36.185,38.807a5.115,5.115,0,0,1-.352-2.648c.006-2.267-.344-1.626.839-2.4C36.672,35.261,37.064,37.641,36.185,38.807Zm16.008.019c-3.683.312-3.6-3.223-.435-3.444C53.364,36.628,53.268,37.216,52.193,38.826Zm-13.562-3.14c1.825-1.22,2,.91,2.014.941l-.816.4c-.116.061-.257.107-.377.175-1.2.683-1.154,1.113-1.793,1.119-.629-3.536.54-2.486.973-2.634Zm15.238-.248c2.776-.084,3.067.163,2.915,3.441-1.317-1.477.048-1.461-1.362-2.941-1.515,1.188-.937,3.636-1.275,2.658-.02-.064-.137.192-.254.283l-.025-3.441Zm-6.39,3.422c-.3-4.012.245-3.191,1.542-3.516Zm-6.061-.113c-.3-1.932.127-4.5,2.372-3.036-1.808.827-.813-.4-1.813,1.373.445,1.144.284.757,1.379,1.421.058.035.241.254.283.17s.191.111.269.286l-2.489-.212Zm5.166.03c-1.795.111-1.3.595-1.656-1.715-.128-.832-.4-1.8.219-2.056C47.916,33.864,44.629,36.464,46.583,38.777Zm-13.833.068c-1.027-.924-.718-2.915-.485-4.867l.733.813.071,1.26,1.74.038c-.559.427.424.541-1.832.557.139,2.17-.326,1.7,1.987,1.7l-2.212.5Zm8.439-7.066c.843-3.27,3.035-7.639,4.4-10.94,2.495-6.034.927-6.741,8.088-6.733l3.565,17.708-4.106-.287c-.856-2.673.741-2.413-6.45-2.381l-.72,2.641-4.776-.01Zm-4.85-4.1c.064-3.852-2.219-2.254-4.918-5.072-2.241-2.34-1.685-9.1,7.014-8.8,4.186.141,4,.783,2.859,4.4-2.811-.668-4.176-1.494-6.273.554.872,3.059,8.744,3.423,5.619,9.951-1.759,3.677-7.72,3.547-12.336,2.5l1.015-3.741c2.943.644,4.1,1.333,7.021.211ZM24.36,14.144l4.62-.035L25.252,31.787l-4.577-.019ZM10.995,31.786c-1.25-.9-.878-.79-1.337-2.531-.25-.946-.384-1.621-.625-2.57-.492-1.936-.956-3.611-1.428-5.466C5.44,12.733,4.444,17.426,1.214,14.1c7.117,0,9.291-1.243,10.146,2.947.475,2.323.973,7.02,1.847,8.61,4.56-12.9,3.755-11.764,9.269-11.468l-7.147,17.6H10.995ZM0,1.271H67.9l-.092,6.785-1.852,0H0V41.408H65.96l1.842,0-.012,6.754H0V49.45H69.165V-.02H0V1.269Z" transform="translate(25.445 18.668)"/><path class="c" d="M0,15.713H65.958l1.852,0L67.9,8.931H0Z" transform="translate(25.445 11.011)"/><path class="d" d="M0,293.656H67.79L67.8,286.9l-1.844,0H0Z" transform="translate(25.445 -226.826)"/><path class="c" d="M294.645,103.4l1.041,5.821-3.481-.074,2.442-5.748Zm-9.393,12.1,4.776.01.72-2.641c7.19-.032,5.595-.29,6.45,2.381l4.106.287L297.739,97.83c-7.161-.009-5.593.7-8.088,6.733-1.366,3.3-3.558,7.67-4.4,10.94Z" transform="translate(-218.62 -65.053)"/><path class="c" d="M18.18,114.437h4.334l7.147-17.6c-5.514-.3-4.71-1.428-9.269,11.468-.874-1.591-1.372-6.288-1.847-8.609-.856-4.19-3.029-2.947-10.146-2.947,3.23,3.328,4.226-1.366,6.39,7.121.472,1.855.936,3.53,1.428,5.466.241.949.375,1.624.625,2.57.459,1.741.087,1.632,1.337,2.531Z" transform="translate(18.258 -63.981)"/><path class="c" d="M204.046,109.57c-2.919,1.123-4.08.435-7.021-.211L196.01,113.1c4.616,1.048,10.577,1.178,12.336-2.5,3.124-6.527-4.747-6.891-5.619-9.951,2.1-2.049,3.462-1.221,6.273-.554,1.141-3.618,1.327-4.258-2.859-4.4-8.7-.295-9.253,6.461-7.014,8.8,2.7,2.818,4.983,1.22,4.918,5.072Z" transform="translate(-142.264 -63.219)"/><path class="c" d="M143.19,115.509l4.577.017,3.728-17.677-4.62.035Z" transform="translate(-97.071 -65.071)"/><path class="e" d="M333.42,142.168l3.481.074-1.041-5.821Z" transform="translate(-259.835 -98.072)"/><path class="f" d="M344.1,245.641c1.237,1.158,1.653,2.04-.52,2.509C342.767,246.5,342.91,246.516,344.1,245.641Zm.892,2.983c1.076-1.61,1.172-2.2-.435-3.444C341.4,245.4,341.306,248.935,344.991,248.624Z" transform="translate(-267.351 -191.129)"/><path class="g" d="M373.1,245.487l.025,3.441c.117-.091.234-.346.254-.283.338.977-.24-1.47,1.275-2.658,1.408,1.48.045,1.464,1.362,2.941C376.167,245.65,375.876,245.4,373.1,245.487Z" transform="translate(-293.786 -191.382)"/><path class="h" d="M260.717,245.048c.592.24.712-.052.869.593.283,1.143.212.085-.566.491C260.51,245.5,260.171,246.988,260.717,245.048Zm0,0c-.433.146-1.6-.9-.973,2.634.64-.006.593-.436,1.793-1.119.12-.068.261-.114.377-.175l.816-.4c-.017-.03-.189-2.161-2.014-.941Z" transform="translate(-196.64 -190.694)"/><path class="i" d="M311.792,244.7c-1.953-2.313,1.333-4.913-1.437-3.771-.624.257-.348,1.223-.219,2.056C310.493,245.3,310,244.817,311.792,244.7Z" transform="translate(-239.765 -187.258)"/><path class="j" d="M286.348,247.923l2.489.212c-.078-.173-.227-.371-.269-.286s-.225-.134-.283-.17c-1.1-.664-.934-.277-1.379-1.421,1-1.769.006-.547,1.814-1.373-2.247-1.461-2.671,1.1-2.372,3.036Z" transform="translate(-219.487 -190.508)"/><path class="i" d="M248.272,238.979c.879-1.167.487-3.546.487-5.049-1.182.775-.833.134-.839,2.4A5.114,5.114,0,0,0,248.272,238.979Z" transform="translate(-186.642 -181.503)"/><path class="k" d="M349.214,248.37c-1.188.875-1.331.862-.52,2.509C350.867,250.41,350.451,249.528,349.214,248.37Z" transform="translate(-272.467 -193.859)"/><path class="l" d="M225.667,241.579l2.212-.5c-2.313,0-1.848.474-1.987-1.7,2.257-.017,1.273-.131,1.832-.557l-1.74-.038-.071-1.26c-.5-.411.043-1.174-.341.114a8.985,8.985,0,0,0-.1,1.181A18.07,18.07,0,0,0,225.667,241.579Z" transform="translate(-167.473 -184.064)"/><path class="m" d="M328.36,248.426l1.542-3.516C328.605,245.235,328.058,244.413,328.36,248.426Z" transform="translate(-255.436 -190.898)"/><path class="n" d="M222.562,240.327a17.89,17.89,0,0,1-.192-2.759,9.506,9.506,0,0,1,.1-1.181c.384-1.288-.162-.526.341-.114l-.733-.813c-.232,1.952-.541,3.943.485,4.867Z" transform="translate(-164.368 -182.813)"/><path class="o" d="M265.909,247.28c-.546,1.94-.206.456.3,1.084.78-.406.849.653.566-.491C266.619,247.229,266.5,247.52,265.909,247.28Z" transform="translate(-201.832 -192.926)"/></g><g transform="translate(264.085 0)"><g class="ar" transform="matrix(1, 0, 0, 1, -277.08, -5)"><g class="a" transform="translate(277.08 5)"><rect class="ak" width="118.69" height="87.534" rx="17"/><rect class="al" x="0.5" y="0.5" width="117.69" height="86.534" rx="16.5"/></g></g><path class="p" d="M935.25,92.143v.419c3.559,1.844,7.525,8.744,7.463,15.407-.061,6.415-4,13.272-7.463,14.98v.4c6.669,4.32,14.1,5.777,21.272,1.91,23.459-12.648,4.129-49.569-21.272-33.117Z" transform="translate(-875.591 -64.72)"/><path class="q" d="M747.75,123.469v-.4c-3.538-1.815-7.488-8.789-7.42-15.423.068-6.473,4.011-13.123,7.42-14.962v-.419c-6.643-4.606-14.482-5.526-21.227-1.91a19.407,19.407,0,0,0-10.413,17.29,19.125,19.125,0,0,0,10.133,17.58c6.551,3.767,14.777,2.915,21.509-1.751Z" transform="translate(-688.091 -64.839)"/><path class="r" d="M891.275,150.007c3.467-1.708,7.4-8.563,7.463-14.98.062-6.663-3.906-13.562-7.463-15.407-3.409,1.839-7.352,8.49-7.42,14.962-.068,6.636,3.883,13.608,7.42,15.423Z" transform="translate(-831.615 -91.779)"/><path class="s" d="M786.1,392.37c0,4.375-.312,3.96,1.318,4.4,0-2.535-.308-3.843,1.758-4.4,1.1,2.3-.527,3.044,1.318,4.4,2.592-1.9-1.246-4.073,2.636-4.4,0,2.384-.523,3.367.879,4.4.957-.667.879.242.879-2.636,0-4.659-3.559-2.443-4.8-2.717-.048-.01.072-.092-.95-.248l-1.365-.055c-1.787.121-1.672.212-1.672,1.26Z" transform="translate(-747.954 -324.071)"/><path class="s" d="M852.372,393.805c0-2.294-.153-.562.44-1.759C858.42,392.514,852.372,397.795,852.372,393.805Zm0,2.2c.794.5,2.135.289,3.956.44V390.73c-1.77.147-6.3-.562-5.559,3.352,0,.016.508,1.116.557,1.174.663.79.022.377,1.047.749Z" transform="translate(-803.239 -323.745)"/><path class="s" d="M899.795,392.543h-2.2C898.612,391.159,898.779,391.159,899.795,392.543Zm-3.955.44c0,2.5,1.373,3.077,3.516,3.077,1.328,0,1.216-.518,1.32-1.759-2.56.614-2.069.937-3.077-.44h3.517c0-5.57-5.274-3.649-5.274-.878Z" transform="translate(-841.871 -323.363)"/><path class="s" d="M1043.719,393.788c0-2.525,2.636-2.525,2.636,0A1.32,1.32,0,1,1,1043.719,393.788Zm-1.759-.44c0,1.3,1.167,2.192,1.759,3.077,1.621,0,2.352.2,3.3-.657,1.885-1.712,1.114-5.058-2.421-5.058-1.151,0-2.636,1.943-2.636,2.636Z" transform="translate(-966.894 -323.728)"/><path class="s" d="M938.45,392.086c1.765,3.334,1.821.322,3.517,2.637-2.905,0-2.931-1.312-3.517.879,2.358.549,2.336.882,4.835-.44,0-2.171-.082-2.636-3.077-2.636v-.879c3.13.069,1.87,1.4,3.077-.879C940.6,390.142,939.729,389.669,938.45,392.086Z" transform="translate(-878.329 -323.345)"/><path class="s" d="M978.02,382.9v1.318c1.484.6.533.167.925,2.592.257,1.584.631,1.8,2.151,1.8,1.68,0,.16.134,1.32-.44-.682-2.554-.077-.338-2.2-1.32v-2.636h1.757V382.9h-1.757v-1.32H978.9C978.717,383.731,979.359,382.5,978.02,382.9Z" transform="translate(-912.186 -315.917)"/><path class="s" d="M1017.61,396.433h1.318v-3.956c1.883-.9,1.65.289,2.2-1.757h-3.516Z" transform="translate(-946.06 -323.737)"/></g><g transform="translate(132.042 0)"><g class="aq" transform="matrix(1, 0, 0, 1, -145.04, -5)"><g class="a" transform="translate(145.04 5)"><rect class="ak" width="120.174" height="87.534" rx="17"/><rect class="al" x="0.5" y="0.5" width="119.174" height="86.534" rx="16.5"/></g></g><path class="t" d="M1274.8,123.042l-.076-.435c-2.057-2.313-3.575-3.136-5.212-6.255a19.6,19.6,0,0,1-2.3-9.141,19,19,0,0,1,7.59-15.358v-.465c-9.983-5.3-16.446-5.82-25.671,1.273-3.666,2.818-6.427,8.819-6.427,14.554,0,14.183,14.686,23.309,27.222,18.221,1.695-.689,3.532-2.036,4.877-2.4Z" transform="translate(-1214.91 -64.097)"/><path class="u" d="M1464.574,91.479v.465c3.96,1.4,7.8,9.47,7.782,15.364-.019,6.588-4.036,13.514-7.856,15.391l.076.435c2.617.7,3.139,2.645,10,3.686,14.9,2.257,28.663-15.46,19.008-30.133a17.013,17.013,0,0,0-3.091-3.752c-6.078-4.8-12.728-7.267-21.1-3.907-2.991,1.2-3.338,2.059-4.821,2.453Z" transform="translate(-1404.686 -64.188)"/><path class="v" d="M1419.956,149.155c3.821-1.877,7.837-8.8,7.856-15.391.016-5.894-3.822-13.957-7.782-15.364a19.011,19.011,0,0,0-7.59,15.358,19.607,19.607,0,0,0,2.3,9.141c1.636,3.119,3.155,3.943,5.212,6.255Z" transform="translate(-1360.143 -90.645)"/><path class="w" d="M1264.854,389.174h-1.284v5.133h1.711c0-1.66-.535-3.891.917-4.069,1.535-.189,1.222,2.313,1.222,4.069h1.284c0-3.1-.792-3.784,2.138-3.849v3.849h1.284V389.6c-2.639-1.266-2.209-.42-3.565-.281-1.773.18.484.024-1.691-.292C1265.521,388.831,1266.7,389.174,1264.854,389.174Z" transform="translate(-1232.767 -322.102)"/><path class="w" d="M1629.3,380.6a1.5,1.5,0,1,1,2.993,0c0,1.143-.617,1.265-1.283,1.711-.969-.258-1.711-.41-1.711-1.711Zm2.993-2.138c-1.789-.946-1.9-.938-3.849,0-1.4,5.992.8,4.705,5.133,4.705V375.9H1632.3Z" transform="translate(-1544.603 -310.967)"/><path class="w" d="M1330.462,392.854c0-2.654-.088-2.566,2.566-2.566C1333.664,393.024,1333.187,393.489,1330.462,392.854Zm-1.712-1.284a3.233,3.233,0,0,0,1.979,2.73c1.022.349,2.169-.165,4.009-.165V389c-1.841,0-2.986-.514-4.009-.165a3.233,3.233,0,0,0-1.979,2.73Z" transform="translate(-1288.536 -321.933)"/><path class="w" d="M1555.184,392.392a1.5,1.5,0,1,1,2.995,0c0,1.143-.618,1.265-1.284,1.711-.97-.259-1.712-.41-1.712-1.711Zm-1.284,0c0,3.9,2.676,2.566,5.561,2.566v-5.133c-2.284.189-5.561-1.362-5.561,2.566Z" transform="translate(-1481.178 -322.755)"/><path class="w" d="M1448.961,391.991h2.138v.856h-2.138Zm-1.711,1.284c0,3.231,3.418,4.051,5.133,1.711-2.329-1.077-2.69,1.455-3.422-1.284h3.851c-.715-3.067-.928-2.993-3.422-2.993-1.215,0-2.139,1.477-2.139,2.566Z" transform="translate(-1389.927 -323.638)"/><path class="w" d="M1376.15,390.232c0,1.642,1.717,2.1,3.421,2.138-1.187,2.111-1.184-.179-3.421.855,1.513,2.066,3.045,1.307,4.705.429v-2.138c-2-.962-1.776.378-2.994-1.284,1.487-.615.9.575,2.994-.429C1379.263,387.631,1376.15,388.979,1376.15,390.232Z" transform="translate(-1329.093 -321.879)"/><path class="w" d="M1515.39,392.148c0,4.017,5.02,2.576,5.134,2.566-.786-2.944.708-.322-3.422-1.284,0-4.274,1.262-1.766,2.894-2.548,2.234-1.073-4.6-3.283-4.6,1.265Z" transform="translate(-1448.229 -322.51)"/><path class="w" d="M1412.983,380.554H1411.7c.81,3.029.847-.661,1.283,2.994.345,2.9,1.4,3.14,3.422,2.137-.662-2.483-.073-.328-2.136-1.284v-2.566c2.021-.045,1.679.435,2.136-1.283h-2.136V378.84h-1.285v1.712Z" transform="translate(-1359.51 -313.482)"/><path class="w" d="M1491.69,387.634v5.133h1.286v-3.849c.708-.15,3-.178,1.835-1.289C1493.421,386.307,1496.059,388,1491.69,387.634Z" transform="translate(-1427.95 -320.563)"/><path class="w" d="M1601.3,387.7v5.133h1.283v-3.849c.71-.15,3-.178,1.836-1.289-1.094-1.038.215-.182-1.191.064Z" transform="translate(-1521.735 -320.633)"/><path class="w" d="M1675.36,421.676c1.613.746.814.8,1.713-.427C1676.4,420.933,1675.56,420.5,1675.36,421.676Z" transform="translate(-1585.102 -349.473)"/><path class="u" d="M1677.072,289.98h-1.713l.856.953c.422.107-.091.549.512-.061S1676.851,290.809,1677.072,289.98Z" transform="translate(-1585.102 -237.453)"/></g><g transform="translate(396.128 0)"><g class="ap" transform="matrix(1, 0, 0, 1, -409.13, -5)"><g class="a" transform="translate(409.13 5)"><rect class="ak" width="120.174" height="87.534" rx="17"/><rect class="al" x="0.5" y="0.5" width="119.174" height="86.534" rx="16.5"/></g></g><path class="x" d="M3152.03,232.137l-.045-.682a5.485,5.485,0,0,1,1.714-4.1c1.52-1.537,4.711-2.283,6.746-1,.429.27,1.513,1.038,1.626,1.464-.235.054-1.546.657-1.882.8l-8.159,3.518Zm-5.09-.092a11.4,11.4,0,0,0,1.682,5.907,2.2,2.2,0,0,0,.623-.241l6.3-2.744c.226-.1.416-.167.636-.272l8.193-3.574c.226-.1.413-.168.637-.272l2.529-1.105c.424-.2.86-.35,1.258-.56-.223-.466-.355-.985-.7-1.665a16.468,16.468,0,0,0-.858-1.55,14.423,14.423,0,0,0-1.3-1.657c-.111-.108-.186-.185-.3-.3-.128-.128-.191-.16-.318-.272a11.733,11.733,0,0,0-7.44-2.782,10.886,10.886,0,0,0-7.029,2.558,11.693,11.693,0,0,0-3.921,8.528Z" transform="translate(-3097.348 -183.469)"/><path class="y" d="M2763.48,187.333v.093a16.89,16.89,0,0,0,.606,5.163c.186.638.352,1.234.587,1.82a19.034,19.034,0,0,0,3.429,5.612c.129.129.166.213.295.343l.908.909a4.242,4.242,0,0,0,.353.283c.073-.053.213-.234.308-.328l4.69-5.351c-.176-.047-.585-.518-.739-.669-.136-.137-.205-.241-.34-.386-.111-.12-.226-.273-.324-.4a11.277,11.277,0,0,1-1.887-3.837,10.661,10.661,0,0,1,.776-7.486,8.463,8.463,0,0,1,.5-.913,10.005,10.005,0,0,1,1.1-1.448,3.55,3.55,0,0,1,.922-.9l-.6-.716c-.614-.613-1.941-2.264-2.5-2.815-.139-.138-.182-.229-.316-.364s-.185-.232-.318-.364l-1.262-1.419a16.753,16.753,0,0,0-2.344,2.473,18.221,18.221,0,0,0-3.836,10.7Z" transform="translate(-2754.827 -141.666)"/><path class="z" d="M2895.2,133.431c-1.209,0-1,.091-1-.455l-4.953-.045a7.446,7.446,0,0,1-1.546-.045,7.435,7.435,0,0,1-.023-1.681c-.194,0-.227-.037-.412-.045h-.669a17.313,17.313,0,0,0-5.266.672,6.279,6.279,0,0,1-.808.237l2.368,7.177a13.6,13.6,0,0,1,2.361-.5,11.947,11.947,0,0,1,2.73.081,10.651,10.651,0,0,1,4.174,1.6,10.1,10.1,0,0,1,1.214.921c.139.135.242.191.386.34.259.263.453.483.7.751l.64.815a10.634,10.634,0,0,1,1.034,1.829,10.79,10.79,0,0,1,.7,2.207,4.519,4.519,0,0,0,.927-.163l6.479-1.337a18.986,18.986,0,0,0-.9-3.051c-.135-.334-.284-.645-.41-.953a8.995,8.995,0,0,0-.43-.888l-.494-.869a21.112,21.112,0,0,0-1.665-2.333,16.185,16.185,0,0,0-1.624-1.693l-1.074-.925a8.993,8.993,0,0,0-.781-.583l-1.21-.788c-.153-.091-.29-.159-.452-.274Z" transform="translate(-2859.371 -103.257)"/><path class="aa" d="M2904.01,345.73l-8,.027c-.069.069-.33.613-.423.768a10.863,10.863,0,0,1-1.61,2.116,10.7,10.7,0,0,1-4.628,2.777,10.977,10.977,0,0,1-5.471.165c-.344-.083-.656-.193-1-.273-.067.287-.191.6-.29.893l-.909,2.681c-.2.612-.385,1.159-.591,1.772a17.492,17.492,0,0,0-.573,1.835l1.863.5a16.126,16.126,0,0,0,3.1.409h1.381a19.117,19.117,0,0,0,5.874-1.142,18.775,18.775,0,0,0,5.258-3.058,21.163,21.163,0,0,0,2.1-2.038l.81-1.007a18.962,18.962,0,0,0,1.823-2.949,14.936,14.936,0,0,0,.714-1.648c.109-.309.2-.564.306-.874a7.421,7.421,0,0,0,.267-.951Z" transform="translate(-2859.371 -294.919)"/><path class="ab" d="M3372.919,198.408a4.726,4.726,0,0,0,.645,2.262,4.1,4.1,0,0,0,1.042,1.139,3.966,3.966,0,0,0,.433.294c.323.178,3.82,1.645,4.106,1.711l1.862-4.407-2.933-1.2c-.152-.059-.384-.1-.384-.253V176.69h-4.771v21.719Z" transform="translate(-3299.202 -143.926)"/><path class="ab" d="M3453.768,264.088a2.8,2.8,0,0,1,.4-.466l1.685-1.9c.243-.305,1.074-1.142,1.279-1.448l-1.408-1.862a4.593,4.593,0,0,1-.244-.574,5.933,5.933,0,0,1,.245-4.789,6.091,6.091,0,0,1,.993-1.46,1.431,1.431,0,0,1,.461-.4c-.207-.306-1.916-2.175-2.353-2.647l-1.056-1.215a11.225,11.225,0,0,0-1.473,1.57,11.085,11.085,0,0,0-2.233,5.355,5.194,5.194,0,0,0-.066.707c0,.321-.044.433-.046.727l.1,1.4a11.048,11.048,0,0,0,2.219,5.415,10.074,10.074,0,0,0,1.5,1.591Z" transform="translate(-3368.009 -207.015)"/><path class="x" d="M3521.459,221.918l1.629,4.864a7.2,7.2,0,0,1,2.279-.274,6.081,6.081,0,0,1,3.67,1.51,5.989,5.989,0,0,1,1.174,1.417,5.574,5.574,0,0,1,.7,1.89,7.319,7.319,0,0,0,1.268-.231l2.494-.505c.4-.1.867-.167,1.281-.264a11.138,11.138,0,0,0-1.325-3.49,13.348,13.348,0,0,0-1-1.41,11.219,11.219,0,0,0-10.679-3.875l-1.1.264a1.581,1.581,0,0,1-.392.107Z" transform="translate(-3431.885 -183.838)"/><path class="x" d="M3525.05,342.376a8.529,8.529,0,0,1-2-.318c-.026.322-1.572,4.643-1.591,4.862l1.181.318a11.2,11.2,0,0,0,11.486-4.462,10.813,10.813,0,0,0,1.827-4.217c-.816-.189-1.644-.329-2.488-.51-.384-.082-.836-.177-1.241-.257a8.092,8.092,0,0,0-1.315-.232,5.672,5.672,0,0,1-1.442,2.828,5.391,5.391,0,0,1-.874.808,6.348,6.348,0,0,1-3.544,1.181Z" transform="translate(-3431.885 -287.621)"/><path class="ab" d="M3199.125,360.852a4.747,4.747,0,0,1-2.227-.363,5.052,5.052,0,0,1-.656-.345l-.616-.427a8.658,8.658,0,0,0-.692.99l-2.034,3.053.581.374a6.824,6.824,0,0,0,.615.338,10.8,10.8,0,0,0,10.739-.362,8.525,8.525,0,0,0,1.039-.688c.169-.127.333-.242.484-.379a9.285,9.285,0,0,0,1.988-2.327l-3.081-2.054a12.38,12.38,0,0,0-1.053-.673,4.783,4.783,0,0,1-.875,1.079,6.86,6.86,0,0,1-4.214,1.783Z" transform="translate(-3138.402 -305.87)"/><path class="ac" d="M3025.639,325.16l8-.027a6.8,6.8,0,0,0,.227-.963l-5.547-1.132c-.344-.07-1.609-.362-1.859-.368a10.974,10.974,0,0,1-.565,1.891c-.091.216-.178.389-.254.6Z" transform="translate(-2988.998 -274.321)"/><path class="ad" d="M2954.758,133.806l-1.624-.785a18.269,18.269,0,0,0-4.795-1.337,8.337,8.337,0,0,0-1.1-.1,7.535,7.535,0,0,0,.021,1.681,7.452,7.452,0,0,0,1.546.045l4.952.045c0,.546-.208.455,1,.455Z" transform="translate(-2918.934 -103.632)"/></g><g transform="translate(529.653 0)"><g class="ao" transform="matrix(1, 0, 0, 1, -542.65, -5)"><g class="a" transform="translate(542.65 5)"><rect class="ak" width="120.174" height="87.534" rx="17"/><rect class="al" x="0.5" y="0.5" width="119.174" height="86.534" rx="16.5"/></g></g><path class="ae" d="M1882.547,133.191c0,1.419,1,1.662,2.461,1.676,2.657.025,2.706-1.159,2.874.787-3.61.081-6.976,2.049-6.976-3.694,0-6.443,8.209-6.472,8.209-3.694v2.463h-6.567v2.462ZM1869,135.653h-1.643c0-3.147,1.231-5.532,1.231-9.03h1.641C1870.163,129.8,1869,132,1869,135.653Zm22.573,0h-1.642a82.013,82.013,0,0,1,1.642-9.03h1.23v1.231c1.739-1.165.458-1.231,3.284-1.231v1.231c-2.806,0-3.111.124-3.721,2.435a20.8,20.8,0,0,0-.793,5.362Zm24.215-7.8c1.739-1.165.458-1.231,3.283-1.231v1.231c-2.776,0-3.078.125-3.77,2.386a17.889,17.889,0,0,0-.745,5.411h-1.641c0-3.147,1.231-5.532,1.231-9.03h1.642v1.231Zm-10.671,0c.848-1.6.119-1.286,2.848-1.286a12.151,12.151,0,0,1,3.72.465c0,3.753-.822,5.375-.822,8.618-1.914-.043-1.548.268-1.23-1.23-2.973,1.989-6.156,2.335-6.156,0,0-4.118,1.658-4.514,6.566-4.514,0-3.484-.657-2.5-4.925-2.052Zm-7.8,3.283c0,2.512-.372,3.588,2.076,3.7,2.169.1,2.263-1.192,2.44.816-3.828.085-6.156,1.955-6.156-3.694,0-6.144,4.709-5.335,7.387-5.335v1.231c-2.691-.627-5.747-.768-5.747,3.283Zm-22.982-3.694c1.535-1.336,3.038-.849,4.925-.41,1.99,4.15-.564,9.03-4.1,9.03-1.491,0-1.441-.487-2.873-.821a14.576,14.576,0,0,1-.3,2.984c-.293,1.732.044,1.791-1.754,1.94,0-4.349,2.052-9.12,2.052-13.544C1873.609,126.654,1873.309,126.749,1874.339,127.445Zm51.713,8.209h-1.23v-1.23c-1.142.765-1.418,1.642-3.284,1.642-4.8,0-3.347-6.029-1.553-8.12,1.51-1.762,3.087-1.321,6.067-1.321.15-1.807.411-1,.411-4.1h1.641C1928.1,124.88,1926.349,132.085,1926.052,135.654Zm-56.637-10.671a2.655,2.655,0,0,1-.411-1.642c1.089-.523.439-.375,2.051-.41-.144,1.736-.219,1.631-1.641,2.052Zm-11.081,3.283h6.156a25.6,25.6,0,0,1,.82-5.335h1.642c0,3.923-1.721,8.753-2.052,12.723h-2.052a40.58,40.58,0,0,0,1.231-6.566h-6.156c-.485,2.083-.745,4.482-1.231,6.566h-1.641c0-2.6,1.777-9.42,2.052-12.723h2.052A13.959,13.959,0,0,0,1858.334,128.266Zm-11.493,21.753h71.824c11.738,0,10.7-5.658,12.751-15.566l4.9-23.424h-64.026c-19.892,0-17.373-2.616-22.882,25.138-.542,2.735-2.566,11.773-2.566,13.852Z" transform="translate(-1833.674 -81.986)"/><path class="ae" d="M2075.555,255.874c0,4.172-1.988,4.536.822,6.978,2.457-.572,3.107-.965,3.614-3.386,1.467-7.023-4.038-3.711-4.436-3.593Z" transform="translate(-2035.711 -209.595)"/><path class="ae" d="M2490.3,262.928c2.217,0,2.8.022,3.61-3.374.92-3.845.84-4.014-1.968-4.014C2489.109,255.54,2487.361,262.928,2490.3,262.928Z" transform="translate(-2402.433 -210.082)"/><path class="ae" d="M2358.035,285.53c0,2.877-.22,2.873,2.052,2.873,1.752,0,2.462-2.129,2.462-4.1-2.992,0-2.444-.156-4.514,1.23Z" transform="translate(-2286.589 -235.558)"/><path class="ae" d="M2163.67,257.443c1.345,0,4.925.5,4.925-.821C2168.594,254.556,2164.509,253.842,2163.67,257.443Z" transform="translate(-2114.385 -209.522)"/></g><g transform="translate(661.696 0)"><g class="an" transform="matrix(1, 0, 0, 1, -674.7, -5)"><g class="a" transform="translate(674.7 5)"><rect class="ak" width="151.33" height="87.534" rx="17"/><rect class="al" x="0.5" y="0.5" width="150.33" height="86.534" rx="16.5"/></g></g><g transform="translate(18.551 7.28)"><path class="af" d="M3386.431,46.59l1.966,0V59.7l7.307,0,.012,1.7c-.632.2-7.689-.085-9.285.07V46.589Zm67.247-43.011V69.093c-.183.376-.242.9-.478,1.353-.982,1.893-2.449,1.906-3.206,2.227H3343.078c-.751-.368-2.155-.36-3.148-2.318a13.584,13.584,0,0,1-.43-1.364V3.578c.324-.654.364-2.135,2.225-3.1.467-.242.992-.3,1.353-.478H3450c.758.32,2.224.333,3.205,2.226C3453.436,2.681,3453.495,3.2,3453.678,3.579Zm-13.614,51.694a7.268,7.268,0,0,1-2.484,4.865,7.417,7.417,0,0,1-5.758,1.483c-3.918-.609-6.458-4.258-5.856-8.9.518-3.992,3.675-7.036,8.273-6.314,4.023.631,6.4,4.233,5.825,8.861Zm-71.057-.629a8.168,8.168,0,0,1,1.583-5.733,6.575,6.575,0,0,1,4.833-2.573c4.547-.3,7.527,2.726,7.771,7.048.256,4.562-2.25,7.972-6.465,8.294-4.456.34-7.537-2.83-7.721-7.036Zm-5.574-1.118.918.443a3.558,3.558,0,0,1,1.708,2.412,4.39,4.39,0,0,1-1.338,3.987,6.727,6.727,0,0,1-4.329,1.082c-1.691,0-3.835.117-5.468-.011l-.025-14.817a44.877,44.877,0,0,1,4.795-.034c1.593,0,2.958,0,4.124.787a3.6,3.6,0,0,1,.941,5,3.663,3.663,0,0,1-1.19,1.054,1.28,1.28,0,0,0-.135.1Zm48.89-6.919,11.78-.018v1.787l-4.913-.031,0,13.105h-1.965V48.344h-4.886l-.013-1.736Zm-11.49,6.287h8.212l.008,1.743h-8.218V59.7h9.095l.032,1.774-11.092-.02V46.589H3409.6l0,1.755h-8.772l0,4.551Zm36.752-40.465,1.024.009c-.149.545-.046,17.375-.046,19.5,0,.967.063,5.943-.026,6.451l-.9.012c-.137-.412-.048-24.839-.048-25.968Zm-1.564.023.977-.026c0,1.115.082,25.574-.047,25.97l-.9,0-.025-25.94Zm-6.036,25.953-.026-25.975.978.012V38.381l-.951.025Zm-12.891-25.941.978-.04V38.432l-.957-.043Zm-2.334-.033,1.678,0,.068,6.438c0,1.41.081,19.037-.037,19.53l-1.743.019c-.126-.572-.028-21.945-.036-25.209a1.64,1.64,0,0,1,.07-.776Zm-3.817.032,2.153-.035c0,1.147.087,25.541-.044,25.969l-2.086,0-.022-25.932Zm-14.708,25.97-.027-26,.977.012v26a2.023,2.023,0,0,0-.95-.009Zm-1.62-26,.978.007V38.445a3.351,3.351,0,0,0-.931-.049c-.133-.417-.045-24.831-.045-25.965Zm-5.923,0,1.678,0a1.418,1.418,0,0,1,.07.707c-.016,3.277.09,24.706-.037,25.258l-1.743.021c-.125-.545-.03-21.966-.037-25.209a1.67,1.67,0,0,1,.069-.778Zm-1.835,0,.977.008V38.387l-.93.012c-.136-.412-.046-24.839-.046-25.968Zm-4.723,0,1.678-.007c.008.016.021.022.023.049.132,1.516.042,4.854.042,6.392,0,1.4.081,19.052-.04,19.532l-1.743.017c-.123-.583-.026-21.934-.033-25.208a1.593,1.593,0,0,1,.071-.774Zm-1.617,25.972-.024-25.975.979.01V38.384l-.953.021Zm-12.6-25.975.978.009V38.385l-.928.013c-.146-.468-.05-24.794-.05-25.968Zm-4.5.02,3.521-.018V38.384l-3.493.012-.027-25.946Zm-1.957,0,.978-.021v19.5c0,1,.119,5.9-.046,6.461l-.9,0Zm72.018-.018h.978V38.38l-.941.021c-.132-.784-.037-25.248-.037-25.968Zm-8.021.008.272-.014,2.376,0,.287,0V38.413l-2.935-.019V12.442Zm-5.749-.009,2.936,0v25.95l-2.936.018V12.433Zm-12.342.015.264-.021,2.475,0V38.415l-2.739-.022V12.449Zm-2.605-.015.284,0h.418l.275.008V38.384l-.978.013V12.432Zm-4.973,0,.976.007V38.371l-.976.035Zm-1.79.013.269-.016.419,0,.289,0v25.98l-.979-.024V12.444Zm-4.973-.01.978,0V38.388l-.942.013-.036-25.968Zm-15.114,0,1.76,0v25.95l-1.714.019c-.147-.729-.045-25.306-.045-25.97Zm-5.368,0,2.737,0V38.41l-2.737-.013Zm-2.791,0,1.759,0V38.414l-1.759-.016V12.435Zm-11.62,0h1.5l.259.01V38.378l-.268.022-1.493,0,0-25.967Zm-2.543.019.263-.023.716,0V38.4l-.978-.009V12.449Zm-1.956,0,.261-.024.717,0V38.4l-.978-.009V12.451Z" transform="translate(-3339.499 0)"/><path class="af" d="M5048.468,934.693a5.129,5.129,0,0,0,5.861,5.126c3.054-.427,4.6-3.3,4.272-6.8-.289-3.124-2.367-5.6-5.851-5.1a4.945,4.945,0,0,0-2.021.774c-1.952,1.3-2.372,3.594-2.261,6.005Z" transform="translate(-4960.023 -879.839)"/><path class="af" d="M3953.244,927.9a4.643,4.643,0,0,0-3.541,2.007c-.948,1.407-1.07,2.548-1.058,4.528.021,3.2,2.315,5.743,5.652,5.428,3.448-.324,4.636-3.481,4.5-6.511C3958.657,930.148,3956.647,927.578,3953.244,927.9Z" transform="translate(-3917.125 -879.861)"/><path class="ag" d="M3801.717,266.214l3.493-.012V240.25l-3.521.018Z" transform="translate(-3777.774 -227.819)"/><path class="ag" d="M3639.078,912.546v-5.125c2.8,0,7.182-.7,7.216,2.516a2.41,2.41,0,0,1-2.327,2.557,46.533,46.533,0,0,1-4.892.052Zm0-6.865,0-4.49a40.594,40.594,0,0,1,4.386.058c1.347.167,2.184.712,2.205,2.189C3645.712,906.348,3641.771,905.681,3639.08,905.681Zm6.564.692a1.314,1.314,0,0,1,.136-.1,3.643,3.643,0,0,0,1.188-1.054,3.6,3.6,0,0,0-.94-5c-1.166-.784-2.531-.786-4.125-.786a45.177,45.177,0,0,0-4.795.034l.026,14.817c1.634.128,3.778.009,5.469.011a6.732,6.732,0,0,0,4.328-1.082,4.392,4.392,0,0,0,1.338-3.987,3.565,3.565,0,0,0-1.708-2.412l-.918-.443Z" transform="translate(-3621.709 -852.848)"/><path class="ag" d="M5010.921,903.452c-.109-2.411.309-4.7,2.262-6.005a4.936,4.936,0,0,1,2.021-.773c3.486-.5,5.562,1.979,5.854,5.1.323,3.5-1.221,6.374-4.275,6.8a5.131,5.131,0,0,1-5.863-5.126Zm12.122.419c.574-4.628-1.8-8.229-5.825-8.861-4.6-.722-7.755,2.322-8.272,6.314-.6,4.637,1.938,8.286,5.854,8.9a7.42,7.42,0,0,0,5.759-1.484A7.264,7.264,0,0,0,5023.042,903.871Z" transform="translate(-4922.478 -848.598)"/><path class="ag" d="M3916.1,896.846c3.4-.322,5.414,2.248,5.556,5.452.135,3.031-1.053,6.187-4.5,6.512-3.337.315-5.632-2.231-5.652-5.429-.012-1.979.109-3.121,1.058-4.528a4.646,4.646,0,0,1,3.54-2.007Zm-6.609,6.6c.184,4.205,3.265,7.376,7.72,7.036,4.215-.323,6.723-3.732,6.466-8.294-.244-4.322-3.224-7.344-7.771-7.048a6.577,6.577,0,0,0-4.833,2.573A8.168,8.168,0,0,0,3909.494,903.45Z" transform="translate(-3879.986 -848.807)"/><path class="ag" d="M5000.689,266.126l2.936.019V240.165l-.289,0-2.374,0-.272.014Z" transform="translate(-4914.733 -227.733)"/><path class="ag" d="M4889.6,266.207l2.936-.018V240.24H4889.6Z" transform="translate(-4809.391 -227.809)"/><path class="ag" d="M4488.789,902.144h8.773l0-1.754h-10.738v14.862l11.094.02-.032-1.774h-9.094v-5.058h8.219L4497,906.7h-8.211Z" transform="translate(-4427.453 -853.8)"/><path class="ag" d="M4651.079,266.106l2.738.022V240.144l-2.475,0-.264.021Z" transform="translate(-4583.213 -227.714)"/><path class="ag" d="M3978.07,266.187l2.738.013V240.22l-2.738,0Z" transform="translate(-3945.028 -227.79)"/><path class="ag" d="M4720.231,266.117l2.087,0c.131-.428.044-24.822.044-25.969l-2.153.035Z" transform="translate(-4648.766 -227.724)"/><path class="ag" d="M4746.912,902.144h4.887v13.107h1.965l0-13.105,4.911.031,0-1.787-11.78.018Z" transform="translate(-4674.075 -853.8)"/><path class="ag" d="M4081.2,240.2c0,.664-.1,25.242.046,25.97l1.715-.019V240.2l-1.761,0Z" transform="translate(-4042.785 -227.771)"/><path class="ag" d="M3699.56,266.177l1.494,0,.268-.021V240.22l-.259-.01h-1.5Z" transform="translate(-3680.929 -227.781)"/><path class="ag" d="M3924.139,266.177l1.76.017V240.21l-1.76,0Z" transform="translate(-3893.887 -227.781)"/><path class="ag" d="M4291.849,240.192l-1.679,0V266.1h1.679Z" transform="translate(-4240.978 -227.762)"/><path class="ag" d="M4165.108,240.14l-1.679.007v25.91h1.679Z" transform="translate(-4120.797 -227.714)"/><path class="ag" d="M4795.656,240.19l-1.676,0V266.1h1.676Z" transform="translate(-4718.719 -227.762)"/><path class="ag" d="M4246.49,915.271c1.595-.156,8.653.131,9.285-.07l-.012-1.7-7.308,0v-13.1l-1.966,0v14.882Z" transform="translate(-4199.558 -853.8)"/><path class="af" d="M3675.15,1058.62a46.559,46.559,0,0,0,4.891-.052,2.41,2.41,0,0,0,2.327-2.557c-.033-3.22-4.415-2.516-7.217-2.516v5.125Z" transform="translate(-3657.782 -998.922)"/><path class="af" d="M3675.153,938.213c2.691,0,6.631.667,6.588-2.243-.021-1.477-.859-2.023-2.206-2.189a40.548,40.548,0,0,0-4.385-.058Z" transform="translate(-3657.782 -885.379)"/><path class="ag" d="M5155.119,240.29c0,.72-.094,25.183.037,25.968l.94-.021V240.29h-.978Z" transform="translate(-5061.142 -227.856)"/><path class="ag" d="M3888.1,240.21c0,1.174-.1,25.5.049,25.968l.928-.013V240.219Z" transform="translate(-3859.683 -227.781)"/><path class="ag" d="M4254.182,240.2c0,1.128-.089,25.556.047,25.968l.929-.012V240.208l-.977-.008Z" transform="translate(-4206.826 -227.771)"/><path class="ag" d="M4404.146,240.23c0,1.134-.087,25.548.045,25.965a3.355,3.355,0,0,1,.932.049V240.237l-.977-.007Z" transform="translate(-4349.03 -227.8)"/><path class="ag" d="M5234.6,240.21c0,1.128-.088,25.556.048,25.968l.905-.012c.088-.509.023-5.484.023-6.451,0-2.12-.1-18.951.047-19.5Z" transform="translate(-5136.516 -227.781)"/><path class="ag" d="M5204.885,266.107l.906,0c.129-.4.047-24.855.047-25.97l-.979.026Z" transform="translate(-5108.339 -227.714)"/><path class="ag" d="M3650.439,266.1l.979.009V240.144l-.716,0-.262.023Z" transform="translate(-3634.35 -227.714)"/><path class="ag" d="M4470.019,266.121l.978.024v-25.98l-.289,0-.42,0-.269.016Z" transform="translate(-4411.521 -227.733)"/><path class="ag" d="M3612.64,266.091l.977.009V240.134l-.718,0-.26.024Z" transform="translate(-3598.507 -227.705)"/><path class="ag" d="M4600.729,266.167l.977-.013V240.208l-.273-.008h-.419l-.284,0Z" transform="translate(-4535.468 -227.771)"/><path class="ag" d="M4504.6,266.185l.979-.035V240.217l-.979-.007Z" transform="translate(-4444.313 -227.781)"/><path class="ag" d="M3763.917,266.192l.9,0c.165-.559.046-5.465.046-6.461v-19.5l-.978.021Z" transform="translate(-3741.93 -227.8)"/><path class="ag" d="M4839.1,266.074l.957.044V240.11l-.978.039Z" transform="translate(-4761.486 -227.686)"/><path class="ag" d="M4132.7,266.164V240.22l-.979-.01.025,25.975Z" transform="translate(-4090.727 -227.781)"/><path class="ag" d="M4435.457,266.222a2.023,2.023,0,0,1,.951.009v-26l-.979-.012.027,26Z" transform="translate(-4378.723 -227.79)"/><path class="ag" d="M5088.687,266.161V240.222l-.979-.012.026,25.975Z" transform="translate(-4997.251 -227.781)"/><path class="ag" d="M4373.955,266.209l.943-.013V240.24l-.978,0Z" transform="translate(-4320.396 -227.809)"/><path class="ah" d="M4163.256,240.131l0,25.916h-1.677v-25.91a1.575,1.575,0,0,0-.072.774c.008,3.274-.09,24.625.034,25.208l1.743-.017c.118-.48.039-18.134.039-19.532,0-1.539.09-4.876-.042-6.392,0-.027-.014-.033-.023-.049Z" transform="translate(-4118.943 -227.705)"/><path class="ah" d="M4290.085,240.192V266.1h-1.679V240.19a1.676,1.676,0,0,0-.068.778c.008,3.243-.088,24.664.037,25.209l1.744-.021c.127-.552.021-21.981.036-25.258a1.4,1.4,0,0,0-.07-.707Z" transform="translate(-4239.215 -227.762)"/><path class="ah" d="M4793.832,240.181v25.914h-1.677V240.183a1.628,1.628,0,0,0-.072.776c.009,3.264-.089,24.636.037,25.209l1.743-.019c.116-.493.036-18.12.036-19.53l-.068-6.438Z" transform="translate(-4716.895 -227.752)"/></g></g><g transform="translate(824.895 0)"><g class="am" transform="matrix(1, 0, 0, 1, -837.89, -5)"><g class="a" transform="translate(837.89 5)"><rect class="ak" width="152.813" height="87.534" rx="17"/><rect class="al" x="0.5" y="0.5" width="151.813" height="86.534" rx="16.5"/></g></g><g transform="translate(16.164 25.378)"><path class="ai" d="M0,511.266c0,2.664.513,3.352,2.385,5.224l3.291,3.351c2.929-.682,3.011,1.156,6.25-2.083,1.034-1.034,4.466-4.754,5.429-5.08a2.6,2.6,0,0,1,1.67-.029,6.379,6.379,0,0,1,2.321,1.909c1.378,1.379,2.8,2.949,4.227,4.227,1.329,1.192,2.455.852,4.146.944.888.048.347.3,1.832-1.185,1.055-1.055,3.436-3.156,3.994-4.46,2.294-5.362-3.448-7.761-5.232-10.425-1.488.346-2.741-.212-4.06.529-1.411.793-5.833,6.257-7.228,6.664-1.53.447-2.308-.317-3.114-1.125-.977-.979-5-5.254-5.935-5.659a10.287,10.287,0,0,0-4.059-.41c-.367,0-3.029,2.848-3.472,3.291C1.418,507.976,0,509.279,0,511.266Z" transform="translate(0 -491.069)"/><path class="ai" d="M184.011,775.006l4.619,4.68c2.428,2.428,3.108,3.774,6.612,3.774,2.466,0,4.318-2.446,5.646-3.774l3.5-3.5c.388-.388.968-.74,1.117-1.3-3.072,0-3.455-.5-5.827-2.868-.332-.332-4.05-4.257-4.438-4.257-1.173,0-1.5.719-2.808,2.023l-2.295,2.295c-1.912,1.912-2.325,2.929-6.129,2.929Z" transform="translate(-176.765 -744.785)"/><path class="ai" d="M184.03,258.646c4.234,0,4.889,1.567,8.363,5.042.348.348,2.039,2.2,2.385,2.2.973,0,.716-.052,1.661-1l3.261-3.261c1.628-1.628,2.592-2.989,5.827-2.989L198.3,251.38a5.362,5.362,0,0,0-5.509-.881,5.731,5.731,0,0,0-1.536.88l-7.226,7.267Z" transform="translate(-176.784 -247.506)"/><path class="aj" d="M1113.42,334.394v22.1a1.029,1.029,0,1,0,2.055,0c.11-1.353,0-14.22,0-15.944,0-2.79-.37-6.568.461-8.6.8-1.953,3.083-3.842,5.215-3.842H1129a6.24,6.24,0,0,1,3.929,1.868,5.957,5.957,0,0,1,1.747,4.05v5.676c0,2.73-2.785,5.655-5.8,5.8-2.153.1-6.223.009-8.7,0-1.273-.005-2.053-.043-2.053,1.088a.986.986,0,0,0,1.087.966h8.937a8.679,8.679,0,0,0,7.767-4.794c1.164-2.655.808-5.219.808-8.491a8.358,8.358,0,0,0-7.971-8.213h-7.246a8.259,8.259,0,0,0-4.591,1.569,9.7,9.7,0,0,0-1.12.933,9.4,9.4,0,0,0-1.641,2.465,8.665,8.665,0,0,0-.74,3.366Z" transform="translate(-1069.58 -320.477)"/><path class="aj" d="M1987.59,326.772c0,1.679,2.834.608,5,1.162,1.591.408,2.476,1.661,3.487,2.672l4.649,4.65a6.3,6.3,0,0,0,.838.732,1.642,1.642,0,0,0,.441.285l.563.282c-1.3.3-2.445,1.781-3.351,2.687l-3.08,3.079c-2.653,2.653-2.473,2.931-6.25,2.929-.782,0-1.586-.156-1.992.3a.937.937,0,0,0,.663,1.63c5.756,0,5.391.225,9.572-3.955l3.8-3.8c1.739-1.74,1.586-1.373,4.228,1.268,1.08,1.081,4.183,4.281,5.117,5.027,2.182,1.743,3.72,1.464,6.386,1.464a.975.975,0,0,0,.234-1.924c-.688-.119-2.607.2-4.117-.351-2.241-.821-7.719-8.2-9.522-8.352.024-.017.065-.067.077-.044s.085-.049.157-.085c.04-.02.19-.088.247-.115a3.39,3.39,0,0,0,.466-.259,27.309,27.309,0,0,0,2.284-2.184c1.393-1.392,4.664-5.021,6.227-5.73,1.285-.583,3.218-.082,4.124-.345a1,1,0,0,0-.176-1.987c-2.34,0-4.359-.234-6.245,1.364a41.043,41.043,0,0,0-3.87,3.859c-4.564,4.565-3.613,4.539-6.884,1.268l-2.536-2.536c-4.177-4.177-3.9-3.955-9.571-3.955a.978.978,0,0,0-.967.966Z" transform="translate(-1909.33 -320.222)"/><path class="aj" d="M1708.869,345.632V329.569a4.3,4.3,0,0,0-1.066-2.92c-1.331-1.652-3.692-1.308-5.819-1.308a.989.989,0,0,0-.157,1.969c1.537.419,3.889-.665,4.789,1.129.355.708.2,4.876.2,5.839s-.076,11.478.047,11.91c.292,1.025,2.007,1.116,2.007-.557Z" transform="translate(-1633.991 -319.758)"/><path class="ai" d="M1821.729,188.508c.688,0,.711-.289,1.3-.876,1.149-1.146,1.225-1.259.061-2.416-1.1-1.092-1.3-1.418-2.6-.121-1.154,1.154-1.247,1.358-.061,2.537.348.346.682.875,1.3.875Z" transform="translate(-1747.938 -184.253)"/><path class="aj" d="M1946.341,1032.9h-1.087v-.6h.966c.367,0,.41.21.483.483C1946.555,1032.862,1946.574,1032.9,1946.341,1032.9Zm-.242-1.087h-.845v-.6h.845c.271,0,.265.1.483.242-.126.188-.161.362-.483.362Zm-1.449,1.691c1.721,0,2.283.091,2.778-.845-.214-.4-.09-.341-.483-.6,1.133-1.692-1.5-1.328-2.295-1.328Z" transform="translate(-1868.081 -997.365)"/><path class="aj" d="M2345.776,1031.273c.811,0,.838-.121,1.449-.121v-.6c-1.448.032-1.933.621-1.933-.966,0-.761,1.313-.6,1.933-.6-.015-.691.026-.6-1.087-.6-2.233,0-2.038,2.9-.362,2.9Z" transform="translate(-2252.177 -995.134)"/><path class="aj" d="M2424.951,1047.725h-1.208c.183-.346.045-.378.605-.389S2424.851,1047.35,2424.951,1047.725Zm-1.812.121c0,.651-.014,1.208,1.208,1.208,1.109,0,1.171-.157,1.208-.6-.851,0-1.4.32-1.811-.241h1.811c0-.663.107-1.328-1.208-1.328C2423.626,1046.88,2423.14,1047.126,2423.14,1047.846Z" transform="translate(-2327.73 -1012.915)"/><path class="aj" d="M2669.728,1047.924c.313,0,.125.081.6.121v.241c-.784.065-.635.284-1.208,0a.562.562,0,0,1,.6-.362Zm-.965-.724c.884,0,1.2-.186,1.569.362h-1.45c-.242.361-.362.245-.362.724,0,.876,1.455.508,1.689.517.758.03.726.435.726-1.242a1.725,1.725,0,0,0-.121-.6,3.076,3.076,0,0,0-1.69-.242c-.344,0-.361.14-.361.483Z" transform="translate(-2563.449 -1012.751)"/><path class="aj" d="M2233.695,1047.457a.671.671,0,1,1,1.329,0C2235.023,1048.066,2233.695,1048.066,2233.695,1047.457Zm-.725-.121c0,1.472,2.778,1.477,2.778,0S2232.97,1045.842,2232.97,1047.336Z" transform="translate(-2145.049 -1012.284)"/><path class="aj" d="M2025.8,1048.58v-.362c.952-.252.307-.065,1.087,0v.241A7.269,7.269,0,0,1,2025.8,1048.58Zm-.363-1.208c1.194,0,1.132-.112,1.45.362h-1.45c-1.043,1.557.628,1.293,1.242,1.24a3.216,3.216,0,0,1,.812.089c0-2.123.367-2.174-2.053-2.174v.483Z" transform="translate(-1945.361 -1012.924)"/><path class="aj" d="M2100.42,1047.191c0,1.248-.175,1.811.362,1.811.516,0,.362-.463.362-1.57h1.087c0,1.106-.153,1.57.362,1.57.493,0,.362-.379.362-1.328,0-1.228-1.291-.752-1.92-.777-.239-.009-.616-.209-.616.294Z" transform="translate(-2017.691 -1012.863)"/><path class="aj" d="M2496.1,1047.321c0,1.248-.175,1.812.362,1.812.515,0,.362-.464.362-1.57h1.087a4.18,4.18,0,0,1,.121,1.57c.713-.016.6.045.6-1.328,0-1.241-1.253-.737-1.811-.759C2496.514,1047.033,2496.1,1046.784,2496.1,1047.321Z" transform="translate(-2397.791 -1012.994)"/><path class="aj" d="M1665.335,1030.282a1.748,1.748,0,0,1,.121-.6,4.172,4.172,0,0,1,1.57-.121v1.329a2.4,2.4,0,0,1-1.57,0,1.751,1.751,0,0,1-.121-.6Zm1.691-.967c-1.435-.688-2.592.753-1.838,1.717.422.54,1.325.251,1.72.248.7-.005.48.309.48-2.81h-.362Z" transform="translate(-1599.394 -995.23)"/><path class="aj" d="M2567.782,1032.135c-.561.047-.211-.13-.483.242.116.436.011.323.483.362v1.208c.718.481.664.425,1.45.241-.044-.541-.015-.483-.846-.483v-.966h.725v-.6h-.725c-.012-.571.123-.474-.362-.6-.333.244-.241-.008-.241.6Z" transform="translate(-2466.214 -998.169)"/><path class="aj" d="M2174.69,1047.711c0,1.514,1.483,1.271,1.844,1.12s.3-.105.329-.516c-1.116,0-1.448.222-1.448-.6,0-.4.351-.467.728-.467.576,0,.583.282.6-.5C2176.188,1046.745,2174.69,1046.607,2174.69,1047.711Z" transform="translate(-2089.063 -1012.779)"/><path class="aj" d="M1777.716,1030.9c-1.9.441-1.57-.12-1.57-.966,0-.482.342-.362,1.207-.362C1777.974,1029.567,1777.87,1030.553,1777.716,1030.9Zm-.845.483c1.734,0,1.867-2.174.121-2.174a6.633,6.633,0,0,0-.845.121v-.845h-.362q0,1.032-.007,2.063c0,.079,0,.425.009.481.032.18-.014.219.208.286l.877.069Z" transform="translate(-1705.857 -995.239)"/><path class="aj" d="M1249.508,1048.58a4.167,4.167,0,0,1-1.57.121v-1.328c.787-.183,1.691-.377,1.691.6a2.4,2.4,0,0,1-.121.6Zm-1.933,1.087h.362v-.724c2.576.6,2.591-2.053.966-2.053-1.692,0-1.32.109-1.338.587-.026.691.01,1.486.01,2.191Z" transform="translate(-1198.421 -1012.924)"/><path class="aj" d="M1488.475,1047.325h.725c.365,0,.333.142.362.483h-1.57c.073-.274.116-.483.483-.483Zm-.845.6c0,1.691,1.969,1.291,2.295.845-.593-.245-1.843.468-1.932-.6.436,0,1.816.174,1.978-.147C1490.484,1047,1487.63,1046.315,1487.63,1047.93Z" transform="translate(-1429.055 -1012.998)"/><path class="aj" d="M1392.274,1047.813a3.947,3.947,0,0,0,.724-1.45h.241a2.715,2.715,0,0,0,.845,1.45c.177-.335.327-.762.466-1.1.179-.438.4-.73.259-1.069a2.834,2.834,0,0,0-.725,1.57c-.584-.428-.381-1.142-.966-1.57a3.372,3.372,0,0,0-.724,1.57c-.43-.315-.927-2.321-1.011-1.365a4.325,4.325,0,0,0,.39,1.019c.159.394.208.736.5.95Z" transform="translate(-1336.598 -1011.674)"/><path class="aj" d="M1598.9,1046.373h.6c.367,0,.41.209.483.483h-1.57C1598.485,1046.582,1598.528,1046.373,1598.9,1046.373Zm-.845.6v.725c1.222.818.745.394,2.174.362-.053-.613.3-.237-.971-.23-.643,0-.791-.023-.841-.615h1.932A1.154,1.154,0,0,0,1598.05,1046.977Z" transform="translate(-1535.128 -1012.045)"/><path class="aj" d="M1319.292,1047.967c0-.934.713-.832,1.691-.6.273,1.172.133,1.6-1.57,1.208a1.745,1.745,0,0,1-.121-.6Zm-.362,0c0,1.345,1.647,1.218,2.182.853.429-.293.883-1.939-.974-1.939-.792,0-1.208.305-1.208,1.087Z" transform="translate(-1266.998 -1012.915)"/><path class="aj" d="M1841.326,1048.933c0,.361-.2.38-.394.452-.519.192-.206-.228-.573.273.97.545,1.361-.667,1.57-1.087a5.745,5.745,0,0,0,.725-1.69c-.44.118-.348.187-.566.641a3.934,3.934,0,0,0-.4.929h-.241c-.053-.226-.76-2.034-1-1.435-.116.288.879,1.381.879,1.917Z" transform="translate(-1767.897 -1012.915)"/><path class="aj" d="M2625.3,1047.233c0,1.879-.147,1.795.6,1.812v-1.57h.968v-.6c-.536,0-.533.1-.951.075-.246-.014-.62-.219-.62.287Z" transform="translate(-2521.916 -1012.905)"/><path class="aj" d="M2745.21,1031.006c0,.4.217.353.6.362v-2.9h-.6v2.536Z" transform="translate(-2637.12 -995.23)"/><path class="aj" d="M1560.538,1047.233c0,1.488-.151,1.523.241,1.811.271-.564.014-.88.116-1.454.16-.891.729.187.971-.72-.4,0-.566.074-.857.086S1560.538,1046.768,1560.538,1047.233Z" transform="translate(-1499.066 -1012.905)"/></g></g></g></svg>