<svg xmlns="http://www.w3.org/2000/svg" xmlns:xlink="http://www.w3.org/1999/xlink" width="266.443" height="636.566" viewBox="0 0 266.443 636.566"><defs><style>.a{fill:#f2a496;}.a,.b,.c,.d,.e,.f,.g,.h,.i,.j,.k,.l,.m,.n,.o,.p,.q,.r,.s,.t,.u{fill-rule:evenodd;}.b{fill:#f2a396;}.c{fill:#1a1a1a;}.d{fill:#f3b3aa;}.e{fill:#fdfdfd;}.f{fill:#39312e;}.g{fill:#e68d84;}.h{fill:#1b1b1b;}.i{fill:#d6726e;}.j{fill:#d36866;}.k{fill:#eca399;}.l{fill:#454444;}.m{fill:#43403f;}.n{fill:#494747;}.o{fill:#f3f3f0;}.p{fill:#fefefe;}.q{fill:#f1f1ef;}.r,.s{fill:#e91c2b;}.r,.u{stroke:#e91c2b;stroke-width:3px;}.t,.v{fill:#fff;}.u{fill:none;}.v{font-size:35px;font-family:TheBoldFont, The Font;}.w{filter:url(#c);}.x{filter:url(#a);}</style><filter id="a" x="145.576" y="0" width="120.867" height="116.713" filterUnits="userSpaceOnUse"><feOffset dx="-5" dy="3" input="SourceAlpha"/><feGaussianBlur stdDeviation="7.5" result="b"/><feFlood flood-opacity="0.341"/><feComposite operator="in" in2="b"/></filter><filter id="c" x="145.576" y="0" width="120.867" height="116.713" filterUnits="userSpaceOnUse"><feOffset dy="5" input="SourceAlpha"/><feGaussianBlur stdDeviation="6" result="d"/><feFlood flood-opacity="0.31" result="e"/><feComposite operator="out" in="SourceGraphic" in2="d"/><feComposite operator="in" in="e"/><feComposite operator="in" in2="SourceGraphic"/></filter></defs><g transform="translate(-1303.455 -2415.844)"><path class="a" d="M2838.736,739.008c.187,4.7-3.6,19.751-4.921,25.282-1.938,8.124-3.187,17.413-4.652,25.575-1.7,9.483-10.82,66.3-14.827,75.771-11.52,27.228,1.625,47.363,8.114,41.407,3.36-3.085,5.819-18.033,6.6-23.758l.716.774c1.219,1.864,1.5,3.95,3.011,6.228l3.022-.019c1.743-3.269,2.111-12.818,1.581-17.275-.744-1.356-.947-2.819-1.817-4.422-1.136-2.089-1.735-2.336-2.808-4.112,6.886-23,14.042-45.351,21.074-68.4,3.434-11.256,6.919-22.6,10.3-34.07,3.489-11.844,6.423-23.558,10.092-35.231l-.093-4.062-.683-11.706-27.318-6.247c-.656,4.378-5.827,32.522-7.392,34.268Z" transform="translate(-1506.316 1913.931)"/><g transform="translate(1380.941 2425.236)"><path class="b" d="M3149.522,208.138c.689,9.058-12.069,19.164-21.348,14.632-6.184-3.019-14.017-14.273-16.477-21.716.738,1.921,5,6.115,6.519,7.466a24.286,24.286,0,0,0,9.428,5.152c9.17,2.531,17.031-1.776,21.875-5.533Zm-2.072-19.12c-.651,4.608-5.1,5.893-10.3,5.78-5.182-.113-8.319-1.691-9.9-5.767l20.2-.014ZM3096.776,170.9c.886-.758-1.342-.412,1.534-.766,2.673-.329,6.725,2.673,7.3,6.549-1.987-.867-.384.338-1.707-1.3a12.747,12.747,0,0,0-1.194-1.586c-3.6,3.272-1.394,2.9-1.016,6.036-5.138-.576-.162-7.6-.156-7.606l-3.664-.843c-1.068-.242-.458-.066-1.09-.486Zm14.215,72.145c.782.453,1.836,2.723,2.728,3.763a22.994,22.994,0,0,0,3.886,3.681c9.349,7.051,23.961,4.921,30.6-7.5,3.478-6.508,2.242-19.37,2.256-27.692.014-8.525-.939-6.777,3.327-11.629a27.735,27.735,0,0,0,5.308-9.763c.928-3.365,1.167-7.315,2.753-10.392l-.78-1.51c-.025-.167-.146-.206-.236-.291-2.424.261-9.725,5.83-17.58-4-1.018.708-.675.041-.73,2.226-.022.8.085,1.748.052,2.572-.206,5.533-6.521,3.785-7.4,2.012,2.552-1.232,2.945,1.438,6-.653l-.187-12.467-.524-.56c-6.033-1.062-1.779,4.136-7.251,9.236a12.187,12.187,0,0,1-17.22-.121c-3.069-3.027-2.476-3.936-3.908-8.253-7.551-.03-6.42.288-6.994-1.652-.738-2.981.071-2.492-2.187-4.748-2.039-2.039-2.182-1.444-5.015-2.838-1.833,1.474-9.722,2.371-3.379,15.261,5.166,10.5,10.178,8.355,12.6,8.547.733,5.1,1.916,7.949,1.886,13.389-.027,5.042-.005,10.092-.005,15.134,0,12.5-.958,17.327,2,28.251Z" transform="translate(-3092.08 -117.866)"/><path class="c" d="M3159.372,44.138c.406-.513.08-.821,2.226-1.562a12.98,12.98,0,0,1,6.135-.53c2.124.162,2.791-1.112,2.791.919.694.747.3.209.7.961,1.9.766,1.276.6,2.564,1.8.5.467.678.5,1.079.873.889.837.4.187.985,1.257.058.552,3.288,9.711-2.531,13.3-1,2.6-5.923,3.727-8.374,3.631a11.29,11.29,0,0,1-8.44-4.312,11.506,11.506,0,0,1-2.333-9.2c.587-3.005,2.761-6.5,5.2-7.136Zm-49.806.447c2.833,1.394,2.975.8,5.014,2.838,2.256,2.256,1.449,1.768,2.188,4.748h.856c.645-3.977,2.108-8.61,2.887-12.832.881-4.787,1.188-8.918,1.864-13.82,3.135.9,6.738,2.679,10.251,3.854,25.663,8.561,29.352,3.277,36.126,4.081l1.784,8.6c-4.191-1.01-3.1-2.769-6.565-3.036a62.35,62.35,0,0,0-8.915-.008c.019,6.5-.233,4.364,1.394,5.942-1.29,1.581-3.159,4.128-2.874,7.024-.379,1.279,1.592,1.114-1.436.991l.524.56c.683.862.274-.25.711,1.51.121.483.129,1.139.288,1.759a21.02,21.02,0,0,0,1.268,3.041c7.858,9.834,15.159,4.265,17.58,4a5.5,5.5,0,0,1,.738-1.021c1.562-1.762,3.664-3.1,4.29-7.315.985-6.631-2.528-8.4-2-10.131.576-4,1.134-7.328,1.842-11.242.45-2.492-.036-4.331.184-6.34.151-1.381,1.521-2.86,2.3-4.3,4.279-7.943,2.05-14.207-2.984-18.694-11.325-10.1-31.723-1.589-41.775,1.331l-1.12-2.317c-4.9-.53-14.053,4.37-15.637,14.229-16.913,10.37-7.3,18.749-8.786,26.547Z" transform="translate(-3103.752 0.011)"/><path class="b" d="M3142.6,119.671c.747,1.331,4.611.711,6.239.59.392-1.768,1.081-5.19,2.476-6.6.6-.6.3-.261,1.035-.752l-.689-.895c2.223-2.017,2.6-4.581,5.654-4.872.59-.637-.95-.354,1.356-.7l9.993-.14c.324,5.536-.683,3.53,2.366,6.906a11.3,11.3,0,0,1,2.49,6.491l5.028-.233c-.285-2.9,1.586-5.443,2.874-7.024-1.625-1.578-1.375.56-1.394-5.942a62.352,62.352,0,0,1,8.915.008c3.472.269,2.374,2.026,6.565,3.036l-1.784-8.6c-6.774-.8-10.463,4.479-36.126-4.081-3.516-1.172-7.12-2.953-10.252-3.854-.675,4.9-.983,9.033-1.864,13.82-.777,4.221-2.242,8.857-2.887,12.832Z" transform="translate(-3128.726 -67.486)"/><path class="d" d="M3179.4,169.624c-2.511-2.709-1.024-6,2.432-5C3184.323,165.354,3184.908,170.876,3179.4,169.624Zm-5.978-8.478c-.95.98-.469.87-1.584.988-1.88,4.2-4.553,8.015-1.068,13.688,7.367,12,25.262,2.767,20.349-9.8a10.5,10.5,0,0,0-1.639-2.86l-1.891-2.034c-.033-.038-.121-.151-.181-.228l-.785-.019a106.641,106.641,0,0,0-13.2.264Z" transform="translate(-3147.942 -116.665)"/><path class="d" d="M3285.125,172.064l-5.52-3.6c-1.592-1.249-.867.049-1.172-1.91,1.71.543,2.36,1.3,3.755,2.319,3.955,2.893,2.69,1.106,2.934,3.187Zm-4.246-5.868c-1.117-3.195-.335-5.251,3.719-4.636C3287.23,164.338,3285.581,168.038,3280.879,166.2Zm-.431-8.536c-2.435.637-4.611,4.131-5.2,7.136a11.506,11.506,0,0,0,2.333,9.2,11.3,11.3,0,0,0,8.44,4.312c2.454.1,7.37-1.032,8.374-3.631a17.128,17.128,0,0,0,.848-3.6c.368-2.989.294-2.094-.5-4.334l-2.443-9.3c-.409-.752-.008-.211-.7-.961-1.238.582-1.065-.705-.98.541l.823,1.287a59.922,59.922,0,0,0-11-.656Z" transform="translate(-3224.832 -113.511)"/><path class="c" d="M3201.382,310.154c-4.844,3.758-12.705,8.067-21.875,5.533a24.288,24.288,0,0,1-9.428-5.152c-1.523-1.348-5.778-5.544-6.519-7.466,2.457,7.441,10.293,18.7,16.477,21.716,9.28,4.532,22.038-5.575,21.349-14.632Z" transform="translate(-3143.941 -219.883)"/><path class="e" d="M3240.4,259.22l-20.2.014c1.584,4.073,4.721,5.651,9.9,5.767,5.2.113,9.647-1.172,10.3-5.78Z" transform="translate(-3185.034 -188.068)"/><path class="f" d="M3165.951,146.845c.058.077.146.189.181.228l1.891,2.034a10.5,10.5,0,0,1,1.639,2.86c4.91,12.568-12.982,21.8-20.349,9.8-3.483-5.676-.812-9.489,1.068-13.688l-.274-.044c-.736.494-.442.154-1.035.752-1.395,1.4-2.083,4.825-2.476,6.6-1.628.121-5.492.741-6.239-.59h-.856c.574,1.941-.56,1.622,6.994,1.652,1.433,4.317.84,5.226,3.908,8.253a12.187,12.187,0,0,0,17.22.121c5.473-5.1,1.219-10.3,7.251-9.236,3.028.124,1.057.288,1.436-.991l-5.028.233a11.3,11.3,0,0,0-2.49-6.491c-3.049-3.376-2.042-1.37-2.366-6.906l-9.994.14c-2.305.343-.766.06-1.356.7l10.715-.2.165,4.779Z" transform="translate(-3126.484 -102.608)"/><path class="g" d="M3342.58,183.814c.09.085.211.121.236.291l.78,1.51c1.751-.253,2.693-2.339,3.928-4.169a25.919,25.919,0,0,0,2.9-5.684c1.773-5.16.977-10.145-4.814-10.411-.53,1.732,2.983,3.5,2,10.131-.626,4.219-2.728,5.553-4.29,7.315a5.579,5.579,0,0,0-.739,1.021Z" transform="translate(-3273.825 -119.963)"/><path class="h" d="M3176.319,149.71l.274.044c1.115-.115.634-.005,1.584-.988l2.786-1.754a11.167,11.167,0,0,1,3.7-.821c2.728-.129,5.124.253,6.719,2.308l.785.019L3192,143.74l-10.716.2c-3.049.288-3.434,2.855-5.654,4.872Z" transform="translate(-3152.698 -104.284)"/><path class="i" d="M3257.177,201.35a20.993,20.993,0,0,1-1.268-3.041c-.159-.62-.17-1.276-.288-1.759-.437-1.759-.025-.65-.711-1.51l.187,12.467c-3.052,2.089-3.445-.579-6,.653.881,1.773,7.2,3.521,7.4-2.012.03-.821-.074-1.768-.052-2.572.055-2.185-.288-1.521.73-2.226Z" transform="translate(-3206.002 -141.504)"/><path class="j" d="M3109.176,191.119c.631.42.022.244,1.09.486l3.664.843c0,.008-4.979,7.029.156,7.606-.376-3.132-2.586-2.767,1.015-6.036a12.784,12.784,0,0,1,1.194,1.586c1.326,1.639-.28.431,1.707,1.3-.573-3.878-4.625-6.881-7.3-6.549-2.874.354-.645.008-1.534.766Z" transform="translate(-3104.479 -138.085)"/><path class="k" d="M3345.889,179.756c.793,2.237.867,1.345.5,4.334a17.128,17.128,0,0,1-.848,3.6c5.819-3.593,2.588-12.752,2.531-13.3-1.032.837-.695-.925-1.167,2.336-.137.95-.165,1.8-.321,2.964l-.7.066Z" transform="translate(-3275.972 -126.522)"/><path class="l" d="M3203.373,179.247c5.509,1.252,4.924-4.271,2.432-5C3202.349,173.247,3200.862,176.538,3203.373,179.247Z" transform="translate(-3171.916 -126.287)"/><path class="l" d="M3295.057,179.4c4.7,1.842,6.351-1.858,3.719-4.636C3294.723,174.143,3293.94,176.2,3295.057,179.4Z" transform="translate(-3239.01 -126.711)"/><path class="l" d="M3294.72,154.658a59.936,59.936,0,0,1,11,.656l-.823-1.287c-.085-1.246-.258.041.98-.541,0-2.031-.667-.758-2.791-.919a12.977,12.977,0,0,0-6.135.53C3294.8,153.838,3295.126,154.148,3294.72,154.658Z" transform="translate(-3239.101 -110.509)"/><path class="m" d="M3184.91,155.19a106.107,106.107,0,0,1,13.2-.263c-1.594-2.059-3.988-2.44-6.719-2.308a11.082,11.082,0,0,0-3.7.821l-2.786,1.754Z" transform="translate(-3159.431 -110.709)"/><path class="n" d="M3340.353,169.359l.7-.066c.157-1.164.181-2.015.321-2.964.472-3.261.135-1.5,1.167-2.336-.579-1.07-.1-.42-.985-1.257-.4-.376-.579-.406-1.079-.873-1.287-1.2-.667-1.038-2.564-1.8Z" transform="translate(-3270.436 -116.125)"/><path class="g" d="M3294.069,198.766c-.244-2.081,1.018-.294-2.934-3.187-1.394-1.021-2.045-1.776-3.755-2.319.3,1.96-.42.661,1.172,1.91l5.52,3.6Z" transform="translate(-3233.776 -140.212)"/></g><path class="c" d="M3016.047,1047.971c-.022,19.63-.862,39.7-1.466,59.3-1.781,57.752-3.862,118.534-6.972,175.847h36.148l5.959-99.433c2.209-48.834,8.182-99.642,13.027-148.512,2.253-22.726.066-22.186,6.774-21.974,4.032.126,2.715,1.5,3.9,13.32.67,6.692,1.436,13.628,2.086,20.333,1.356,13.976,2.756,27.694,4.172,41.41,2.972,28.715,5.714,56.585,7.076,85.561l6.609,109.032,33.947.263c-.76-9.107-3.208-92.978-2.237-96.156-1.441-2.857-3.428-112.979-3.469-114.823-.417-18.895-1.436-38.36-1.452-57.307,0-5.476-3.727-50.9-4.721-54.414-4.6,1.309-39.974.37-47.8.37-14.956,0-32.5-.84-47.133.088-1.029,6.576-1.114,15.156-1.545,21.906-.461,7.2-.911,14.308-1.378,21.45-.96,14.7-.936,29.157-1.523,43.734Z" transform="translate(-1649.854 1728.428)"/><path class="o" d="M2957.179,572.393l103.076-.008-.34,4.348-102.121-.016Zm-.6-18.038,104.525.036-.03,4.323-104.629-.063Zm-1.076-18.143,106.614.008-.25,4.345-106.2-.011-.162-4.339Zm-17.281-12.5-2.333.228-2.02,8.789c-.552,3-.557,1.974.362,3.755l21.406,4.759.033,4.128c-5.146-.747-17.336-4.477-21.343-3.947l-2.275.1-2.739,12.623.261-.1,27.019,5.5.077,4.46c-6.255-.8-23.432-5.863-27.807-5.325-1.581,1.891-2.874,9.969-3.208,12.727l4.548,1.164,27.318,6.247.683,11.706h101.146l.724-12.091,25.622-5.893,4.625-1.024a61.519,61.519,0,0,0-1.334-7.081c-.5-2.193-.412-4.735-2.231-5.654-6.036-.231-18.821,4-25.984,4.872l.3-3.917c3.944-2.52,18.192-4.092,23.514-5.514.889-.785-.557-1.021,1.861-1.265l-1.935-9.121c-.694-3.132.038-2.089-2.207-2.706l-20.544,3.8.31-4.339,19.677-4.131c1.139-2.355.458-2.931-.271-6.252-.478-2.174-1-4.315-1.447-6.661l-2.457.181c-4.842-.121-10.175,2.709-14.791,2.377l-.041-3.543-107.953,0-.058,4.048C2949.886,526.529,2943.271,523.436,2938.218,523.71Z" transform="translate(-1590.389 2046.107)"/><path class="a" d="M3412.09,722.621l-.25,4.1c1.367,16.164,24.1,86.2,29.621,103.847,3.365,10.746,6.524,23.421,10.487,33.681-1.586,3.6-4.383,4.652-4.951,11.2-.362,4.172.478,11.918,1.941,14.772,5.047.392,3.988-3.486,6.258-7.076,2.665,3.9,1.883,20.4,8.012,24.576,8.33.527,11.429-11.16,11.6-19.287.2-9.338-2.347-18.058-5.748-25.578-1.828-4.046-4.1-20.6-5.141-26.231-4.924-26.6-9.376-53.012-14.775-79.537-3.549-17.443-7.474-34.9-10.713-52.438l-25.622,5.893-.725,12.091Z" transform="translate(-1943.133 1914.003)"/><path class="o" d="M3016.779,456.842c-16.378,2.824-29.44-6.118-43.279,8.736-1.219,1.306-1.672,2.627-3.061,4.134,2.7.458-.2-.365,1.2,1.238l15.335,3.332.016-3.881,107.289-.145c1.713.439.922,1.842,1.85,3.519l12.944-2.761,1.279-1.134c-3.953-6.711-11.141-12.6-18.412-13.243l-25.243-.156c-3.93,1.757-5.536,3.6-10.976,5.05a59.226,59.226,0,0,1-13.822,1.691c-10.493.143-18.033-1.7-25.112-6.376Z" transform="translate(-1622.885 2094.05)"/><path class="o" d="M3045.941,800.9c4.606.941,94.328.939,98.9,0l.711-12.661-100.517-.011.908,12.672Z" transform="translate(-1677.004 1853.357)"/><path class="o" d="M3052.558,929.538c14.635-.928,32.179-.088,47.132-.088,7.825,0,43.2.939,47.8-.371,1.479-.854,1.235-9.7,1.312-11.86l-97,0Z" transform="translate(-1681.914 1759.771)"/><path class="c" d="M3321.559,2181.488l-3.06-.409c-1.855,2.616-4.422,15.821-5.059,19.96l29.072-.033c.052-2.125,4.15-10.093,5.55-11.791l3.53,1.452-4.735,10.466,5.149.077,3.985-8.934,3.813,1.666-3.373,6.928,31.735.285c-.291-5.682-2.665-8.792-6.719-10.762-3.524-1.716-8.481-3.338-12.348-4.9-4-1.619-8.333-3.437-12.327-4.954-3.527-1.342-8.917-4.482-12.983-3.928-2.879,2.311-4.7,6.357-9.774,7.842C3330.941,2185.35,3320.4,2183.281,3321.559,2181.488Z" transform="translate(-1871.742 846.098)"/><path class="c" d="M2901.781,2199.764a10.647,10.647,0,0,1-2.4-5.67l3.683-1.469,4.1,8.967,4.817.14-4.694-10.57,3.694-1.611,5.613,11.75,28.954.318c-.521-3.412-3.554-17.909-4.918-19.836l-3.695.607c-1.488,2.443-8.928,3.587-12.329,2.443-3.368-1.134-7.817-5.113-8.632-7.521-4.575-1.175-20.363,6.332-25.614,8.393-4.065,1.595-8.094,3.162-12.274,4.979-4.534,1.971-6.84,4.836-7.3,10.891l30.4.049c1.287-1.09.4.354.59-1.858Z" transform="translate(-1550.586 845.63)"/><path class="o" d="M3048.5,855.53l.59,11.714,97.646.005.587-11.712Z" transform="translate(-1679.52 1804.529)"/><path class="h" d="M2968.1,507.362c-2.457.189-1.685.176-2.536,2.627.7,2.577-.376.25,1.617,2.188,5.053-.274,11.668,2.819,16.507,2.9l.058-4.048,107.953,0,.041,3.543c4.617.335,9.95-2.5,14.791-2.377l1.993-1.589-1-3.472-1.993.294-12.944,2.761c-.925-1.677-.137-3.08-1.85-3.519l-107.289.145-.017,3.881-15.335-3.332Z" transform="translate(-1619.346 2057.636)"/><path class="h" d="M3034.562,576.629l106.2.014.25-4.345L3034.4,572.29Z" transform="translate(-1669.291 2010.027)"/><path class="h" d="M3037.83,642.685l104.629.063.03-4.323-104.525-.036Z" transform="translate(-1671.779 1962.07)"/><path class="h" d="M3041.138,708.421l102.12.016.34-4.348-103.078.008Z" transform="translate(-1673.73 1914.402)"/><path class="c" d="M3044.333,774.212l100.8.033.25-4.1H3044.24Z" transform="translate(-1676.43 1866.474)"/><path class="e" d="M3342.084,2234.512c-1.194,1.4.285.552-1.779,1.117l-27.456.082.058,3.875,74.6.228.294-4.095-29.753.025c-2.152-.532-1.169-.211-2.045-1.37l3.373-6.928-3.812-1.666-3.985,8.934-5.149-.077,4.735-10.466-3.53-1.452C3346.237,2224.419,3342.136,2232.387,3342.084,2234.512Z" transform="translate(-1871.313 812.595)"/><path class="h" d="M3147.187,834.4c-4.567.939-94.292.941-98.9,0l-.022,4.63,98.871-.008.049-4.622Z" transform="translate(-1679.354 1819.859)"/><path class="e" d="M2901.7,2232.443c1.334,1.079.675-1.919,1.216,1.685-2.8,2.179-10.367,1.229-15.98,1.229H2870.68l.038,3.865,74.588.236.291-4.1-26.042.071c-2.995-.192-2.5-.758-3.041-1.452l-5.613-11.75-3.694,1.611,4.694,10.57-4.817-.14-4.1-8.967-3.683,1.468a10.64,10.64,0,0,0,2.4,5.671Z" transform="translate(-1550.508 812.951)"/><path class="h" d="M3051.471,906.231l97,0,.192-3.952-97.317-.206Z" transform="translate(-1681.588 1770.763)"/><path class="p" d="M3033.164,2150.212c.815,2.407,5.264,6.387,8.632,7.521,3.4,1.145,10.842,0,12.329-2.443,1.583-4.205.834-10.8,1.018-15.448l-22.592,0c.014,3.39-.851,7.463.612,10.372Z" transform="translate(-1667.773 872.727)"/><path class="p" d="M3340.926,2154.386c-1.158,1.792,9.379,3.859,12.456,2.961,5.072-1.485,6.895-5.531,9.774-7.842l-.219-10.139c-27.162,0-22.6-1.628-22.389,4.929.11,3.368.028,6.744.379,10.092Z" transform="translate(-1891.109 873.2)"/><path class="h" d="M2937.34,641.883c4.375-.538,21.552,4.521,27.807,5.325l-.077-4.46-27.019-5.5-.711,4.63Z" transform="translate(-1598.871 1962.897)"/><path class="h" d="M3443.914,642.439c.832-2.07.53-1.617-.016-4.364l-2.155-.195c-5.322,1.422-19.57,2.995-23.514,5.514l-.3,3.917C3425.094,646.441,3437.878,642.208,3443.914,642.439Z" transform="translate(-1947.551 1962.44)"/><path class="h" d="M3442.092,577.849l.941-1.254c.4-.716.274-2.322-1.5-3.414l-19.677,4.131-.31,4.339,20.544-3.8Z" transform="translate(-1950.178 2009.381)"/><path class="h" d="M2952.355,578.211c4.007-.53,16.2,3.2,21.343,3.947l-.033-4.128-21.406-4.759-1.759,3.516c.222.129.623.414.719.491.071.058.28.217.362.283s.3.253.379.316.261.222.392.335Z" transform="translate(-1608.418 2009.316)"/><path class="c" d="M3321.12,444.854l25.243.156c-1.8-1.9-8.059-4.353-10.455-4.466l-11.253-.085A34.73,34.73,0,0,0,3321.12,444.854Z" transform="translate(-1877.313 2105.673)"/><path class="h" d="M3069.187,444.81c-.719-.865-2.6-3.5-3.766-4.106l-11.237-.074c-3.1.36-8.078,2.7-10.254,4.1Z" transform="translate(-1676.205 2105.55)"/><path class="q" d="M3081.29,429.151l11.237.074-.966-4.416C3088.956,424.773,3082.841,427.493,3081.29,429.151Z" transform="translate(-1703.311 2117.029)"/><path class="q" d="M3334,429.206l11.253.085c-.115-.129-.277-.505-.343-.384l-1.537-1.147a22.827,22.827,0,0,0-2.577-1.092c-2.13-.856-3.2-1.779-5.533-1.715Z" transform="translate(-1886.658 2116.927)"/><path class="b" d="M3112.38,397.792l.881,4.018c1.2.631,3.154,3.357,3.9,4.252l.944.552c7.329,4.839,15.132,6.747,25.993,6.6a61.255,61.255,0,0,0,14.308-1.748c5.632-1.5,7.293-3.409,11.363-5.229a36.031,36.031,0,0,1,3.659-4.548l1.307-4.4c-1.806-2.146-8.089-4.136-10.7-5.278l-.044-4.726h-40.35c-.058,1.573-.146,3.082-.272,4.493-3.014,1.474-9.126,3.93-10.982,6.022Z" transform="translate(-1725.867 2144.257)"/><g transform="translate(1498.363 2437.327) rotate(24)"><g data-type="innerShadowGroup"><g class="x" transform="matrix(0.91, -0.41, 0.41, 0.91, -186.8, 59.65)"><path class="r" d="M21.144,45.2c2.006,1.263,6.319,4.537,8.494,3.434,8.453-4.286,16.979-10.337,22.347-17.993,3.308-4.717,6.95-13.415,3.744-20.682-1.821-3.486-1.9-4.357-4.7-6.724A13.692,13.692,0,0,0,42.412.111c-10-.133-11.161,5.856-13.974,9.148l-.894-1.277C25.39,4.184,22.89,1.239,18.07.324A14.512,14.512,0,0,0,3.928,5.135C-2.078,11.868-.648,22.7,4.475,30.111,5.254,31.238,13.6,40.442,21.144,45.2Z" transform="translate(194.91 21.48) rotate(24)"/></g><path class="s" d="M21.144,45.2c2.006,1.263,6.319,4.537,8.494,3.434,8.453-4.286,16.979-10.337,22.347-17.993,3.308-4.717,6.95-13.415,3.744-20.682-1.821-3.486-1.9-4.357-4.7-6.724A13.692,13.692,0,0,0,42.412.111c-10-.133-11.161,5.856-13.974,9.148l-.894-1.277C25.39,4.184,22.89,1.239,18.07.324A14.512,14.512,0,0,0,3.928,5.135C-2.078,11.868-.648,22.7,4.475,30.111,5.254,31.238,13.6,40.442,21.144,45.2Z" transform="translate(0 0)"/><g class="w" transform="matrix(0.91, -0.41, 0.41, 0.91, -186.8, 59.65)"><path class="t" d="M21.144,45.2c2.006,1.263,6.319,4.537,8.494,3.434,8.453-4.286,16.979-10.337,22.347-17.993,3.308-4.717,6.95-13.415,3.744-20.682-1.821-3.486-1.9-4.357-4.7-6.724A13.692,13.692,0,0,0,42.412.111c-10-.133-11.161,5.856-13.974,9.148l-.894-1.277C25.39,4.184,22.89,1.239,18.07.324A14.512,14.512,0,0,0,3.928,5.135C-2.078,11.868-.648,22.7,4.475,30.111,5.254,31.238,13.6,40.442,21.144,45.2Z" transform="translate(194.91 21.48) rotate(24)"/></g><path class="u" d="M21.144,45.2c2.006,1.263,6.319,4.537,8.494,3.434,8.453-4.286,16.979-10.337,22.347-17.993,3.308-4.717,6.95-13.415,3.744-20.682-1.821-3.486-1.9-4.357-4.7-6.724A13.692,13.692,0,0,0,42.412.111c-10-.133-11.161,5.856-13.974,9.148l-.894-1.277C25.39,4.184,22.89,1.239,18.07.324A14.512,14.512,0,0,0,3.928,5.135C-2.078,11.868-.648,22.7,4.475,30.111,5.254,31.238,13.6,40.442,21.144,45.2Z" transform="translate(0 0)"/></g></g><text class="v" transform="translate(1499.209 2481.443) rotate(24)"><tspan x="0" y="0">$</tspan></text></g></svg>