<svg xmlns="http://www.w3.org/2000/svg" width="243.916" height="626.775" viewBox="0 0 243.916 626.775"><defs><style>.a{fill:#f2a396;}.a,.b,.c,.d,.e,.f,.g,.h,.i,.j,.k,.l,.m,.n,.o{fill-rule:evenodd;}.b{fill:#1a1a1a;}.c{fill:#f1a295;}.d{fill:#f3b3aa;}.e{fill:#fefefe;}.f{fill:#372c2a;}.g{fill:#d6726e;}.h{fill:#454444;}.i{fill:#f2a496;}.j{fill:#f3f3f0;}.k{fill:#1b1b1b;}.l{fill:#fdfdfd;}.m{fill:#1c1c1c;}.n{fill:#686266;}.o{fill:#292728;}</style></defs><g transform="translate(-856.223 -2435.634)"><g transform="translate(856.223 2435.634)"><g transform="translate(42.36 0)"><path class="a" d="M1525.1,213.757l21.626.011c-1.106,4.927-5.234,7.452-11.056,7.455-5.854,0-9.788-2.336-10.57-7.468Zm39.068-11.072c.543-4.578,6.727-8.709,8.682-5.467-2.042.95-2.259-.231-4.537,1.482.76,1.271,1.853,1.96,1.888,3.958.027,1.617-.524,3.069-2.163,3.192-.206-3.088,2.555-2.5-1.04-5.882-1.636,1.732-.6,2-2.83,2.72Zm-59.651-3.985c-2.141-1.641-2.607-.618-4.51-1.482.428-.335-.338-1.512,2.97-.925a7.909,7.909,0,0,1,5.783,6.469c-2.783-1-1.084-1.372-3.357-2.726-2.1,3.812-1.65,1.946-.113,5.811-1.713-.143-1.531.291-2.314-1.158-1.469-2.72,1.123-5.259,1.54-5.989Zm52.605,33.3c-1.282,1.628-1.389,4.973-2.355,7.059-3.093,6.683-9.431,10.735-17.138,9.661s-17.336-11.973-19.3-17.017a6.335,6.335,0,0,1,2.264,1.833c10.523,10.169,26.918,7.1,36.033-5.38l.645-.036c.634-2.58,2.511-4.589,3.554-7.7a50.64,50.64,0,0,0,1.946-8.544c4.307,1.068,5.756-.79,7.746-3.033,5.273-5.945,9.81-22.608-3.532-18.585-1.584,1.976-1.669,1.707-2.146,4.982l-.124,1.973c-1.087.851-.749.393-1.888.988-1.084,7.161-6.406,12.747-14.819,10.9-6.626-1.455-8.133-6.214-9.231-10.507-.659-2.577-3.373-2.155-3.6-1.249a16.935,16.935,0,0,0-.689,6.294c-.022,11.012,2.885,3.475,5.918,5.929-1.477,1.732-6.714,2.819-7.26-1.466-.324-2.547.664-3.582-.543-4.381-1.693,2.061-2,2.923-4.5,4.213a12.437,12.437,0,0,1-6.727,1.455c-5.193-.335-8.742-3.442-9.928-7.23l-1.114-4.241-2.056-.7c-.538-5.072-.777-3.944-2.649-7.046-10.076-2.421-9.505,5.783-7.213,11.717,4.688,12.14,9.1,9.892,11.764,10.356.936,5.981,2.3,10.984,5.146,15.189,1.18,1.743,1.172,1.169,1.221,3.848.151,8.478-.925,27.974,1.131,33.864,5.964,17.083,28.526,17.621,36.483,3.906,3.291-5.673,2.937-10.125,2.937-17.495C1557.1,246.655,1557.692,236.05,1557.127,232Z" transform="translate(-1497.031 -145.171)"/><path class="b" d="M1562,28.639c-5.2.332-12.461,3.338-16.99,5l-.881-2.325c-3.939-.428-9.318,3.181-11.223,4.954-4.372,4.07-3.318,8.767-5.056,10.751-6.623,7.573-4.927,13.929-3.327,25.595,1.872,3.1,2.108,1.973,2.649,7.046l2.056.7,1.114,4.241.741.093c-4.96-11.918,8.413-20.865,17.426-13.317,1.172.983,1.537,2.149,2.577,2.846l.294-.014c-.417-2.531-2.352-3.867-4.545-4.729,1.43-1.276-1.919-.716,2.122-.914l.467-5.281c-9.837-.016-11.569-1.224-16.271,5.006,1.372,1.07.727.362,2.5.8a13.788,13.788,0,0,0-4.482,3.963c-1.526,2.267-1.312,3.129-1.757,4.672-.623,2.157.381.705-1.032,1.617-.316-.675-.947.873.08-3.033.28-1.07.554-2.13.8-3.211a128.339,128.339,0,0,0,3.28-20.5c5.542,1.062,22.6,10.367,39.593,8.5,2.086-.231,4.092-1.035,5.9-.955l4.677,18.033c.071-1-.217-.124,1.029-.494.475-3.274.563-3.005,2.146-4.982l2.157-13.77c.148-2.41-.859-5.009.022-7.013,2.237-5.078,5.544-10.282.008-17.621-1.441-1.91-5.887-5.273-9.612-5.726a34.875,34.875,0,0,0-16.46.063Z" transform="translate(-1515.923 -27.617)"/><path class="c" d="M1564.118,140.277c.574.491.393.071.876.867.4.664.17.187.453,1.076a18.85,18.85,0,0,1,.456,2.481c1.726-.261,3.508-.1,4.526-.283.59-3.974,2.487-7.123,5.108-8.053l2.061-1.781-4.326-.126-.008-5.111c2.4,0,8.662-.134,10.685.285,2.193.456,4.943,3.582,5.089,4.781l.856.373c-2.251,2-.689-.277,2.418,4.2a10.844,10.844,0,0,1,2.119,6.417c2.133-.211.23.189,1-1.164l-4.677-18.033c-1.806-.082-3.812.725-5.9.955-16.99,1.872-34.051-7.435-39.593-8.5a128.015,128.015,0,0,1-3.28,20.5c-.247,1.081-.519,2.141-.8,3.211-1.024,3.9-.4,2.358-.08,3.033,1.413-.908.409.541,1.032-1.617.445-1.543.23-2.4,1.757-4.672a13.852,13.852,0,0,1,4.482-3.963c-1.77-.439-1.125.269-2.5-.8,4.7-6.231,6.431-5.026,16.271-5.006l-.467,5.281c-4.037.2-.692-.362-2.122.914,2.2.862,4.131,2.2,4.545,4.729Z" transform="translate(-1528.659 -93.678)"/><path class="d" d="M1659.92,183.2c3.321-2,5.349,3.242,2.468,4.611-1.768.84-3.288.151-3.821-1.109-.928-2.193.28-2.857,1.35-3.5Zm-3.324-4.315a7.019,7.019,0,0,1-1.175,1.46,6.036,6.036,0,0,0-1.073,1.361c-5.849,9.055,1.8,19.131,11.1,17.451a11.154,11.154,0,0,0,7.224-17.182c-2.042-2.865-3.81-3.228-4.946-4.521-2.267.052-3.538-.8-6.519-.239a10.091,10.091,0,0,0-2.583.889,5.846,5.846,0,0,1-2.028.78Z" transform="translate(-1609.687 -136.019)"/><path class="d" d="M1562.129,187.945c-5.662.447-4.518-4.386-2.281-5.1C1562.9,181.871,1564.814,184.97,1562.129,187.945Zm-12.683,5.1c6.722,9.887,16.77,6.859,20.212-.384,1.781-3.752.733-6.648-.206-10.084-1.04-.7-1.405-1.866-2.577-2.846-9.014-7.548-22.386,1.4-17.426,13.317Z" transform="translate(-1534.284 -135.962)"/><path class="b" d="M1613.424,333.8c-.381-3.038.365-1.853-.5-3.843-9.112,12.48-25.509,15.549-36.033,5.38a6.335,6.335,0,0,0-2.264-1.833c1.962,5.045,11.585,15.944,19.3,17.017s14.045-2.978,17.138-9.661c.966-2.086,1.073-5.432,2.355-7.059Z" transform="translate(-1553.331 -246.975)"/><path class="e" d="M1620.926,277.511,1599.3,277.5c.782,5.13,4.718,7.471,10.57,7.468,5.822,0,9.947-2.531,11.056-7.455Z" transform="translate(-1571.23 -208.914)"/><path class="f" d="M1593.192,176.611c1.136,1.293,2.9,1.652,4.946,4.521a11.154,11.154,0,0,1-7.224,17.182c-9.3,1.68-16.949-8.4-11.1-17.451a6.005,6.005,0,0,1,1.073-1.361,7.015,7.015,0,0,0,1.175-1.46l-.033-.187c-2.621.933-4.518,4.081-5.108,8.053-1.021.187-2.8.022-4.526.283a18.871,18.871,0,0,0-.456-2.481c-.283-.889-.049-.412-.453-1.076-.486-.8-.3-.373-.876-.867l-.294.014c.939,3.436,1.99,6.332.206,10.084-3.442,7.246-13.49,10.271-20.212.384l-.741-.093c1.183,3.788,4.732,6.895,9.928,7.23a12.449,12.449,0,0,0,6.727-1.455c2.49-1.29,2.8-2.152,4.5-4.213a13.587,13.587,0,0,0,1.249-2.86c.5-2.13-.22-2.459,1.328-3.516.231-.906,2.948-1.328,3.6,1.249,1.1,4.293,2.6,9.052,9.23,10.507,8.413,1.85,13.735-3.736,14.819-10.9,1.139-.6.8-.137,1.888-.988l.123-1.973c-1.246.371-.958-.5-1.029.494-.777,1.35,1.128.952-1,1.164a10.888,10.888,0,0,0-2.119-6.417c-3.107-4.485-4.669-2.21-2.418-4.2l-.856-.373c-1.844-.184-1.515.274-2.339.705Z" transform="translate(-1535.15 -135.17)"/><path class="b" d="M1661.823,164.531l.033.187a5.861,5.861,0,0,0,2.028-.779,10.021,10.021,0,0,1,2.583-.889c2.981-.563,4.252.294,6.519.239.823-.434.494-.889,2.339-.705-.146-1.2-2.9-4.326-5.089-4.781-2.023-.42-8.286-.285-10.685-.285l.008,5.111,4.326.126-2.061,1.781Z" transform="translate(-1614.943 -121.847)"/><path class="g" d="M1507.88,214.355c1.9.865,2.369-.159,4.51,1.482-.417.73-3.008,3.269-1.54,5.989.779,1.446.6,1.016,2.314,1.158-1.537-3.862-1.987-2,.113-5.811,2.273,1.353.574,1.724,3.357,2.726a7.912,7.912,0,0,0-5.783-6.469c-3.3-.59-2.542.59-2.97.925Z" transform="translate(-1504.902 -162.311)"/><path class="g" d="M1741.64,219.632c2.226-.716,1.194-.985,2.83-2.72,3.6,3.387.834,2.794,1.04,5.882,1.641-.124,2.19-1.575,2.163-3.192-.033-2-1.125-2.687-1.888-3.958,2.275-1.713,2.495-.532,4.537-1.482-1.954-3.242-8.138.889-8.682,5.467Z" transform="translate(-1674.501 -162.121)"/><path class="h" d="M1675.6,198.346c-1.073.645-2.278,1.306-1.35,3.5.532,1.26,2.05,1.949,3.821,1.109,2.882-1.37.854-6.607-2.468-4.611Z" transform="translate(-1625.371 -151.16)"/><path class="h" d="M1587.594,203.047c2.684-2.975.771-6.074-2.281-5.1C1583.076,198.661,1581.932,203.494,1587.594,203.047Z" transform="translate(-1559.749 -151.063)"/><path class="g" d="M1626.613,224.076c1.208.8.22,1.833.543,4.381.546,4.285,5.783,3.2,7.26,1.466-3.033-2.454-5.94,5.083-5.918-5.929a16.985,16.985,0,0,1,.689-6.294c-1.548,1.057-.834,1.386-1.328,3.516a13.706,13.706,0,0,1-1.249,2.86Z" transform="translate(-1591.044 -165.527)"/></g><path class="i" d="M1914.647,716.515c-6.6-.349-12.941,3.862-18.96,6.258.826-3.615,3.653-3.974,1.633-7.35-3.173.538-8.621,3.483-10.858,5.437-3.187,2.783-3.785,4.125-4.855,7.875-5.284,3.063-22.839,7.589-29.824,9.922-8.135,2.717-20.981,7.5-28.9,9.2-.823-2.824,2.665-32.956,1.661-36.9l-25.471,1.2c-1.979.3-1.156,2.171-1.125,4.672l.228,17.632c.077,7.68.2,15.379.288,23,.324,28.732,16.765,16.982,34.079,9.019,15.889-7.312,31.751-14.369,47.755-21.886,8.8-4.136,16.691-4.523,24.958-9.546,9.651-5.86,14.635-15.689,9.4-18.53Z" transform="translate(-1672.85 -523.401)"/><path class="a" d="M1526.67,432.272l.881,4.018c1.2.631,3.154,3.357,3.9,4.252l.944.552c7.328,4.839,15.132,6.747,25.993,6.6a61.257,61.257,0,0,0,14.308-1.748c5.632-1.5,7.293-3.409,11.363-5.229a36.023,36.023,0,0,1,3.659-4.548l1.306-4.4c-1.806-2.146-8.089-4.136-10.7-5.278l-.044-4.726h-40.35c-.058,1.573-.146,3.082-.272,4.493-3.014,1.474-9.126,3.93-10.982,6.022Z" transform="translate(-1476.175 -313.578)"/><path class="b" d="M1428.6,1198.649c.9,5.5-.5,18.788-.736,24.977-.928,24.379-3.008,52.6-3.3,75.851l33.908.038,12.159-151.056,11.308-112.8,4.976.442,12.925,108.8c3.154,25.35,4.54,51.417,6.62,76.921,2.119,25.968,4.257,51.9,6.11,77.711l33.95-.014-.286-6.335c-1.96-51.755-4.353-103.674-6.815-155.514-1.23-25.91-1.68-52.092-3.4-77.819-.878-13.081-.917-25.477-2.108-38.6l-3.06-37.616c-5.649-1.468-39.274-.379-47.753-.379-15.667,0-32.341-.549-47.882.06-1.367,20.284-4.016,214.031-6.609,215.321Z" transform="translate(-1402.092 -720.681)"/><path class="j" d="M1366.642,541.447c-2.693.653-3.708.4-6.414-.176-.36,2.141-.763,4.241-1.164,6.456-.469,2.586-1.15,4.114-.28,6,3.06-.085,4.751-.906,7.219,1.139l37.015,2.64-.582,3.974c-10.88,1.051-28.927-3.681-39.052-2.166-2.97.832-3.327.033-6.261-.255l-1.973,12.3c3.563.209,2.446.231,3.629,1.057l40.669,3,1.112-3.579,80.407-.06v3.952l21.3-4.123c-.008-3.088-1.23-11.182-3.252-13.051-4.913-.585-12.42,3.118-17.962,3.033l-.456-3.464-77.8-.041,1.216-4.318,76.729-.016.272,3.661,15.815-3.4c1.74-1.521-2.687-1.112,1.595-1.12-.335-2.734-1.6-10.265-2.953-12.093-3.307-.307-10.194,1.96-14.314,2.462l-.354-3.288-77.475.148.631,3.626c-7.518-.516-31.614-3.288-37.317-2.3Z" transform="translate(-1351.733 -399.343)"/><path class="j" d="M1387.179,489.579l34.693,2.544-1.076-3.779,79.251-.036.228,2.923c2.267.206,9.766-1.54,12.014-2.2l.543-1.787c-3.694-5.27-5.451-6.848-11.489-10.164-4.441-2.44-2.854-1.916-8.78-1.88-3.678.022-7.449-.274-11.08.244-8,13.018-44.5,8.734-55.759-.283-14.561.261-24.741-3.014-37.4,5.668-4.463,3.06-3.535,3.917-6.771,7.5,8.6,0,4.136.038,5.632,1.243Z" transform="translate(-1370.887 -352.04)"/><path class="j" d="M1461,948.094c15.543-.609,32.215-.06,47.882-.06,8.478,0,42.1-1.092,47.753.379l.187-14.026-96.719-.077Z" transform="translate(-1427.877 -685.447)"/><path class="j" d="M1554.325,876.9l-.058-7.611-97.109.25c-1.01,4.394-.253,8.253-.08,12.689l97.3.049-.052-5.374Z" transform="translate(-1425.37 -638.273)"/><path class="j" d="M1461.5,817.917l96.5.052,0-12.826-93.771-.093Z" transform="translate(-1428.893 -591.666)"/><path class="b" d="M1770.693,2202.8c-.447,2.125-6.329,6.719-8.6,7.452-3.415,1.1-10.707.044-12.357-2.495l-3.837-.928-4.787,19.976,29.133.033,5.223-11.833,3.881,1.447-4.759,10.545,5.138.135,3.939-8.857,3.714,1.167a15.207,15.207,0,0,1-2.61,6.2c.851,2.017-1.219,1.425,6.878,1.4l24.343-.036c-.535-5.948-2.6-8.676-6.928-10.754l-24.683-9.875c-3.925-1.562-9.552-4.795-13.682-3.573Z" transform="translate(-1631.757 -1605.573)"/><path class="b" d="M1367.375,2219.235l32.852-.088-2.012-5.27c1.521-1.452,1.726-1.485,3.922-1.943l3.247,7.167,3.895-.022-3.629-8.794,3.763-1.523c1.573,2.468,4.254,7.82,4.614,10.158l4.087-.03c.324-11.179-.5-10.051-4.334-19.2l-2.907-4.694c-.077-.091-.222-.269-.327-.406-6.011-.642-15.11.354-20.629-.684l-7.081,4.979c-8.874,6.261-16.567,8.953-15.458,20.349Z" transform="translate(-1360.527 -1599.321)"/><path class="k" d="M1356.619,656.03l-3.7.019-.752,3.843c1.01.058,2.36.06,3.277.17.233.027.917.113,1.106.162,1.307.329.436.077,1.147.571,6.074-1.079,30.81,1.957,38.978,2.391l1.153-3.22,80.917-.231.173,4.139c5.613-.409,14.536-3.889,19.8-3.626l2.437-1.553-1.062-3.475-21.3,4.123V655.39l-80.407.06-1.112,3.579-40.669-3Z" transform="translate(-1349.571 -482.96)"/><path class="k" d="M1382.826,525.354l-6.327-.011-.95,3.489c1.139.181,1.935.231,3,.343.472.049,1.3.1,1.74.2,1.232.3.505.115,1.156.541,5.7-.991,29.8,1.781,37.317,2.3l-.631-3.626,77.475-.148.354,3.288c4.12-.5,11.006-2.769,14.314-2.462a6.944,6.944,0,0,0-.354-2.827c-1.046-2.185-.708-1.1-1.984-1.633-2.248.656-9.747,2.4-12.014,2.2l-.228-2.923-79.251.036,1.076,3.779-34.693-2.544Z" transform="translate(-1366.534 -387.814)"/><path class="e" d="M1769.6,2161.794c1.652,2.539,8.942,3.6,12.357,2.5,2.27-.733,8.155-5.328,8.6-7.452,1.99-3.854.571-12.667.417-17.322l-22.474-.335c-.016,4.891-.077,18.873,1.1,22.614Z" transform="translate(-1651.628 -1559.613)"/><path class="e" d="M1363.879,2258.494c-1.737.714-1.416-1.265-1.381,6.2,3.878,1.339,45.206.219,52.877.214l-.84-5.736c-1.444,0,.4.181-1.161.06-2.819-.217-1.861-.1-2.844-1.057-.362-2.336-3.041-7.691-4.614-10.158l-3.763,1.523,3.629,8.794-3.895.022-3.247-7.167c-2.2.458-2.4.491-3.922,1.943l2.012,5.27-32.852.088Z" transform="translate(-1357.031 -1638.579)"/><path class="k" d="M1624.961,594.973l.025-4.156-2.2-.384-15.815,3.4-.272-3.661-76.729.016-1.216,4.317,77.8.041.456,3.464c5.542.085,13.048-3.618,17.962-3.033Z" transform="translate(-1477.684 -435.764)"/><path class="k" d="M1458.52,858.5l97.109-.25.192-4.068-96.615-.107Z" transform="translate(-1426.731 -627.238)"/><path class="l" d="M1769.935,2259.813c-.777,1.367.37.541-1.394,1.117l-27.851.146.151,4.027,74.753.06.148-4.09c-7.35,0-26.113.881-32.1-.461-.653-4.1-.277-.335.818-2a15.228,15.228,0,0,0,2.61-6.2l-3.714-1.167-3.939,8.857-5.138-.135,4.759-10.545-3.881-1.447Z" transform="translate(-1631.453 -1638.551)"/><path class="k" d="M1565.787,787.458l-92.4-.038-.991,4.241,93.428.03Z" transform="translate(-1436.801 -578.875)"/><path class="b" d="M1459.454,923.688l96.719.077-.047-3.933-96.917-.162Z" transform="translate(-1427.231 -674.826)"/><path class="k" d="M1507.3,726.114l2.544.121,78.884-.019,2.4-.085.1-1.847-.047-2.33-2.451-.113-78.266.019-2.476.049Z" transform="translate(-1462.122 -531.294)"/><path class="e" d="M1447.2,2153.637c5.52,1.037,14.618.041,20.629.683l1.029-.371.379-15.165c-3.854-.384-19.405-.717-22.479.263l-.464,12.944c-.082,2.2-.283.552.906,1.644Z" transform="translate(-1417.814 -1559.051)"/><path class="k" d="M1369.322,597.41c10.125-1.515,28.169,3.217,39.052,2.166l.582-3.974-37.015-2.64-8.116-.48-.494,3.958c1.833.14,4.949,0,5.995.969Z" transform="translate(-1357.668 -437.44)"/><path class="m" d="M1483.375,464.492c-.736-1.647-2.822-3.351-4.076-4.438-8.339-.126-12.854.343-18.749,4.337Z" transform="translate(-1428.203 -341.349)"/><path class="m" d="M1748.93,461.573l13.133-.148a20,20,0,0,0-12.184-4.685l-.95,4.836Z" transform="translate(-1637.431 -338.957)"/><path class="j" d="M1469.306,685.44l2.451.113.047,2.33-.1,1.847-2.4.088-78.884.019-2.544-.121.686-4.2,2.476-.049,78.266-.019ZM1350.83,672.732c-2.951.738-2.586.154-5.393-.222L1342.7,687.2l5.572.653,33.294,3.307-2.275,12.28,92.393.041.151-13.134,19.534-4.471c2.045-.812,3.483-.39,5.748-1.691l-2.27-11.654c-.584-.148.113-.1-1.493-.275-.264-.027-.834,0-1.5-.077-5.267-.261-14.19,3.22-19.8,3.626l-.173-4.139-80.917.231-1.153,3.22c-8.168-.434-32.9-3.469-38.978-2.391Z" transform="translate(-1342.7 -494.895)"/><g transform="translate(45.229 128.52)"><path class="n" d="M1634.954,536.671c11.907-3.453,16.773,14.9,5.009,18.176-11.725,3.261-17.871-14.446-5.009-18.176Zm-46.219-39.444c-1.784,3.36-2.02-.036-4.188,8.347-6.016,23.262-14.072,51.041-19.167,73.109l-44.662-.011c-2.893.316-.963.145-1.718.768l46.128.077-2.174,7.924,109.542.06c5.912-5.775,5.989,1.523,11.281-18.42,2.02-7.617,4.136-14.9,6.291-22.677,2.1-7.595,4.2-15.077,6.3-22.644,1.666-5.992,6.667-18.063,2.934-23.3-4.474-6.28-15.944-4.282-24.521-4.282-17.091,0-77.462-1.2-86.05,1.057Z" transform="translate(-1515.839 -495.859)"/><path class="o" d="M1554.6,808.341l2.174-7.924-46.128-.077c-4.532.985-3.648,5.141-.747,7.644,4.7,1,16.7.373,22.186.373,7.5,0,15.022.063,22.515-.019Z" transform="translate(-1507.484 -716.768)"/><path class="e" d="M1922.5,643.412c-12.862,3.73-6.719,21.436,5.009,18.176,11.767-3.272,6.9-21.628-5.009-18.176Z" transform="translate(-1803.385 -602.601)"/></g><path class="i" d="M1486.827,723.055c-6.6-.349-12.941,3.862-18.961,6.258.826-3.615,3.653-3.974,1.633-7.35-3.173.538-8.621,3.483-10.858,5.437-3.187,2.783-3.785,4.125-4.855,7.875-5.284,3.063-22.839,7.589-29.824,9.922-8.135,2.717-20.981,7.5-28.9,9.2-.823-2.824,2.665-32.956,1.661-36.9l-25.471,1.2c-1.979.3-1.156,2.171-1.125,4.672l.228,17.632c.077,7.68.2,15.379.288,23,.324,28.732,16.765,16.982,34.078,9.019,15.889-7.312,31.751-14.369,47.756-21.886,8.8-4.136,16.691-4.523,24.958-9.546,9.651-5.86,14.635-15.689,9.4-18.53Z" transform="translate(-1362.455 -528.146)"/></g></g></svg>