<svg xmlns="http://www.w3.org/2000/svg" width="256.218" height="627.131" viewBox="0 0 256.218 627.131"><defs><style>.a{fill:#f2a496;}.a,.b,.c,.d,.e,.f,.g,.h,.i,.j,.k,.l,.m,.n,.o,.p,.q,.r,.s,.t,.u,.v{fill-rule:evenodd;}.b{fill:#f2a396;}.c{fill:#1a1a1a;}.d{fill:#f3f3f0;}.e{fill:#04162d;}.f{fill:#f2f2f2;}.g{fill:#fefefe;}.h{fill:#f4afa8;}.i{fill:#1b1b1b;}.j{fill:#fdfdfd;}.k{fill:#1c1c1c;}.l{fill:#f3b3aa;}.m{fill:#f3b1a7;}.n{fill:#372c2a;}.o{fill:#454444;}.p{fill:#e68d84;}.q{fill:#d6726e;}.r{fill:#d36866;}.s{fill:#eca399;}.t{fill:#494747;}.u{fill:#dc958a;}.v{fill:#cc9890;}</style></defs><g transform="translate(-409.688 -2435.676)"><path class="a" d="M571.947,742.135c-6.6-.349-12.941,3.862-18.961,6.258.826-3.615,3.653-3.974,1.633-7.35-3.173.538-8.621,3.483-10.858,5.437-3.187,2.783-3.785,4.125-4.855,7.875-5.284,3.063-22.839,7.589-29.824,9.922-8.135,2.717-20.981,7.5-28.9,9.2-.823-2.824,2.665-32.956,1.661-36.9l-25.471,1.2c-1.979.3-1.156,2.171-1.125,4.672l.228,17.632c.077,7.68.2,15.379.288,23,.324,28.732,16.765,16.982,34.079,9.019,15.889-7.312,31.751-14.369,47.756-21.886,8.8-4.136,16.691-4.523,24.958-9.546,9.651-5.86,14.635-15.689,9.4-18.53Z" transform="translate(79.537 1887.011)"/><path class="b" d="M183.97,457.9l.881,4.018c1.2.631,3.154,3.357,3.9,4.252l.944.552c7.328,4.839,15.132,6.747,25.993,6.6a61.257,61.257,0,0,0,14.308-1.748c5.632-1.5,7.293-3.409,11.363-5.229a36.023,36.023,0,0,1,3.659-4.548l1.306-4.4c-1.806-2.146-8.089-4.136-10.7-5.278l-.044-4.726h-40.35c-.058,1.573-.145,3.082-.272,4.493-3.014,1.474-9.126,3.93-10.982,6.022Z" transform="translate(276.213 2096.826)"/><path class="c" d="M85.9,1224.279c.9,5.5-.5,18.788-.736,24.977-.928,24.379-3.008,52.6-3.3,75.851l33.908.038,12.159-151.056,11.308-112.8,4.976.442,12.925,108.8c3.154,25.35,4.54,51.417,6.62,76.921,2.119,25.968,4.257,51.9,6.11,77.711l33.95-.014-.285-6.335c-1.96-51.755-4.353-103.674-6.815-155.514-1.23-25.91-1.68-52.092-3.4-77.818-.878-13.081-.917-25.477-2.108-38.6l-3.06-37.617c-5.649-1.468-39.274-.379-47.753-.379-15.667,0-32.341-.549-47.882.06-1.367,20.284-4.016,214.031-6.609,215.321Z" transform="translate(350.295 1689.724)"/><path class="d" d="M23.942,567.067c-2.693.653-3.708.4-6.414-.176-.36,2.141-.763,4.241-1.164,6.456-.469,2.586-1.15,4.114-.28,6,3.06-.085,4.751-.906,7.219,1.139l37.015,2.64-.582,3.974c-10.88,1.051-28.927-3.681-39.052-2.166-2.97.832-3.327.033-6.261-.255l-1.973,12.3c3.563.209,2.446.231,3.629,1.057l40.669,3,1.112-3.579,80.407-.06v3.952l21.3-4.123c-.008-3.088-1.23-11.182-3.253-13.051-4.913-.585-12.42,3.118-17.962,3.033l-.456-3.464L60.1,583.7l1.216-4.318,76.729-.016.272,3.661,15.815-3.4c1.74-1.521-2.687-1.112,1.595-1.12-.335-2.734-1.6-10.265-2.953-12.093-3.307-.307-10.194,1.96-14.314,2.462l-.354-3.288-77.475.148.631,3.626c-7.518-.516-31.614-3.288-37.317-2.3Z" transform="translate(400.654 2011.069)"/><path class="d" d="M44.469,515.2l34.693,2.544-1.076-3.78,79.251-.036.228,2.923c2.267.206,9.766-1.54,12.014-2.2l.543-1.787c-3.694-5.27-5.451-6.848-11.489-10.164-4.441-2.44-2.855-1.916-8.78-1.88-3.678.022-7.449-.274-11.08.244-8,13.018-44.5,8.734-55.759-.283-14.561.261-24.741-3.014-37.4,5.668-4.463,3.06-3.535,3.917-6.771,7.5,8.6,0,4.136.038,5.632,1.243Z" transform="translate(381.508 2058.372)"/><path class="d" d="M118.287,973.714c15.543-.609,32.215-.06,47.882-.06,8.478,0,42.1-1.092,47.753.379l.187-14.026-96.719-.077.9,13.784Z" transform="translate(324.518 1724.965)"/><path class="d" d="M211.625,902.531l-.058-7.611-97.109.25c-1.01,4.394-.253,8.253-.08,12.689l97.3.049-.052-5.374Z" transform="translate(327.018 1772.131)"/><path class="d" d="M118.79,843.537l96.5.055,0-12.829-93.771-.093Z" transform="translate(323.502 1818.746)"/><path class="c" d="M427.983,2228.417c-.447,2.124-6.329,6.719-8.6,7.452-3.414,1.1-10.707.044-12.357-2.5l-3.837-.928-4.787,19.976,29.133.033,5.223-11.833,3.881,1.446-4.759,10.545,5.138.134,3.939-8.857,3.714,1.167a15.209,15.209,0,0,1-2.61,6.2c.851,2.017-1.219,1.425,6.878,1.4l24.343-.036c-.535-5.948-2.6-8.676-6.928-10.754l-24.683-9.876c-3.925-1.562-9.552-4.795-13.682-3.573Z" transform="translate(120.637 804.839)"/><path class="c" d="M24.675,2244.855l32.852-.088-2.012-5.27c1.521-1.452,1.726-1.485,3.922-1.943l3.247,7.167,3.895-.022L62.95,2235.9l3.763-1.523c1.573,2.468,4.254,7.82,4.614,10.158l4.087-.03c.324-11.179-.5-10.051-4.334-19.2l-2.907-4.694c-.077-.091-.222-.269-.327-.406-6.011-.642-15.11.354-20.629-.683l-7.081,4.979c-8.874,6.261-16.567,8.953-15.458,20.349Z" transform="translate(391.859 811.091)"/><g transform="translate(616.771 2601.998)"><path class="e" d="M821.024,688.712l-2.72-.047c.906-3.56,6.22-14.786,5.594-17.786-1.586-2.059-8.083-4-11.146-5.284-4.938-2.064-8.031-4.812-9.659,1.757-.7.744-7.018,18.461-8.059,21.23-1.139,3.033-4.441,8.745-1.186,10.438,1.8.936,9.467,4.04,11.034,4.117l-.28,3.195c1.724,1.748.884,1.254,3.409,1.982a41.507,41.507,0,0,1,4.677,1.488c-1.523,1.68-3.181.623-4.954.074l-16.241-6.535c-5.9-2.347-2.9-5.6.994-15.807A122.472,122.472,0,0,0,796.662,676c1.153-2.015,2.6-6.738,3.541-9.253,4.172-11.2,2.627-10.441,16.029-4.982,2.295.933,9.217,3.45,10.7,4.523,2.846,2.056-.48,8.05-1.63,11.1-1.3,3.447-2.651,7.858-4.279,11.317Z" transform="translate(-778.925 -657.907)"/><path class="b" d="M772.212,721.568a122.466,122.466,0,0,1-4.175,11.533c-3.889,10.2-6.895,13.457-.994,15.807l16.241,6.535c-1.254.925-6.464,2.451-8.393,2.951-4.271,1.1-5.907-.217-9.222-1.389,0-.005.552-.618-1.287-.59a21.223,21.223,0,0,1-2.479.211c-6-.338-6.464-6.494-7.334-8.086-.5-5.146,1.1-6.678,4.1-8.58.535-4.707,3.467-7.946,5.424-11.539.994-1.825,1.88-3.727,2.849-5.363,1.265-2.141,3.121-3.211,5.27-1.493Z" transform="translate(-754.477 -703.474)"/><path class="f" d="M857.739,702.722l-8.457-.178c-.025-2.256-2.111-7.982-2.846-10.408-.98-3.228-2.561-7.534-3.154-10.669l-.752-.055c1.628-6.568,4.721-3.823,9.659-1.757,3.06,1.279,9.56,3.225,11.146,5.284.626,3-4.688,14.229-5.594,17.786Z" transform="translate(-818.362 -671.966)"/><path class="g" d="M821.148,713.462c-2.2-.088-3.6-.03-4.326,1.554-.961,2.091.247,3.148,1.375,3.771-.829,2.415-1.51,2.775-.113,5.253a4.058,4.058,0,0,0-1.123,3.914l-.779.162c-1.567-.077-9.233-3.181-11.034-4.117-3.255-1.7.049-7.408,1.186-10.438,1.038-2.769,7.356-20.487,8.059-21.23l.752.055c.593,3.134,2.174,7.441,3.154,10.669.736,2.426,2.822,8.155,2.846,10.408Z" transform="translate(-790.228 -682.882)"/><path class="h" d="M864.437,769.471c5.179.686,5.358,5.355,1.746,6.79,1.109,3.247.414,4.894-2.679,5.61.519,2.657-.167,4.016-2.476,4.652-.3,3.519-1.523,4.919-4.932,4.038a42.671,42.671,0,0,0-4.677-1.488c-2.528-.73-1.685-.233-3.409-1.982l.28-3.195.78-.162a4.064,4.064,0,0,1,1.123-3.914c-1.4-2.479-.716-2.838.112-5.253-1.128-.62-2.339-1.677-1.375-3.771.727-1.584,2.127-1.641,4.326-1.554l8.456.178,2.72.047Z" transform="translate(-822.338 -738.666)"/></g><path class="i" d="M13.909,681.65l-3.7.019-.752,3.843c1.01.058,2.36.06,3.277.17.233.027.917.112,1.106.162,1.306.329.436.077,1.147.571,6.074-1.079,30.81,1.957,38.978,2.391l1.153-3.22,80.917-.231.173,4.139c5.613-.409,14.536-3.889,19.8-3.626l2.437-1.554-1.062-3.475-21.3,4.123V681.01l-80.407.06-1.112,3.579-40.669-3Z" transform="translate(402.824 1927.452)"/><path class="i" d="M40.116,550.974l-6.327-.011-.95,3.489c1.139.181,1.935.231,3,.343.472.049,1.3.1,1.74.2,1.232.3.505.115,1.156.541,5.7-.991,29.8,1.781,37.317,2.3l-.631-3.626,77.475-.148.354,3.288c4.12-.5,11.006-2.769,14.314-2.462a6.946,6.946,0,0,0-.354-2.827c-1.046-2.185-.708-1.1-1.984-1.633-2.248.656-9.747,2.4-12.014,2.2l-.228-2.923-79.251.036,1.076,3.779-34.693-2.544Z" transform="translate(385.861 2022.598)"/><path class="g" d="M426.9,2187.414c1.652,2.539,8.942,3.6,12.357,2.495,2.27-.733,8.155-5.327,8.6-7.452,1.99-3.854.571-12.667.417-17.322L425.8,2164.8c-.016,4.891-.077,18.873,1.1,22.614Z" transform="translate(100.76 850.799)"/><path class="g" d="M21.179,2284.114c-1.737.714-1.416-1.265-1.381,6.2,3.878,1.339,45.206.219,52.877.214l-.84-5.737c-1.444,0,.4.181-1.161.06-2.819-.217-1.861-.1-2.844-1.057-.362-2.336-3.041-7.691-4.614-10.158l-3.763,1.523,3.629,8.794-3.895.022-3.247-7.167c-2.2.458-2.4.491-3.922,1.943l2.012,5.27Z" transform="translate(395.355 771.833)"/><path class="i" d="M282.261,620.593l.025-4.156-2.2-.384-15.815,3.4-.272-3.661-76.729.016-1.216,4.317,77.8.041.456,3.464c5.542.085,13.048-3.618,17.962-3.033Z" transform="translate(274.703 1974.648)"/><path class="i" d="M115.82,884.125l97.109-.25.189-4.068-96.612-.107Z" transform="translate(325.656 1783.174)"/><path class="j" d="M427.235,2285.433c-.777,1.367.371.541-1.394,1.117l-27.851.145.151,4.027,74.753.06.148-4.09c-7.35,0-26.113.881-32.1-.461-.653-4.1-.277-.335.818-2a15.23,15.23,0,0,0,2.61-6.2l-3.714-1.167-3.939,8.857-5.138-.135,4.759-10.545-3.881-1.447Z" transform="translate(120.936 771.862)"/><path class="i" d="M223.084,813.081l-92.393-.041-.991,4.241,93.428.033Z" transform="translate(315.586 1831.537)"/><path class="c" d="M116.747,949.308l96.719.077-.047-3.933L116.5,945.29Z" transform="translate(325.164 1735.587)"/><path class="i" d="M164.6,751.734l2.544.121,78.884-.016,2.4-.088.1-1.847-.047-2.33-2.451-.112-78.266.019-2.478.049Z" transform="translate(290.266 1879.118)"/><path class="g" d="M104.491,2179.257c5.52,1.038,14.618.041,20.629.683l1.029-.371.379-15.165c-3.854-.384-19.405-.716-22.479.263l-.464,12.944C103.5,2179.811,103.3,2178.164,104.491,2179.257Z" transform="translate(334.58 851.361)"/><path class="i" d="M26.612,623.03c10.125-1.515,28.169,3.217,39.052,2.166l.582-3.974L29.23,618.58l-8.116-.48-.494,3.958c1.833.14,4.949,0,5.994.969Z" transform="translate(394.727 1972.972)"/><path class="k" d="M140.665,490.112c-.736-1.647-2.822-3.351-4.076-4.438-8.338-.126-12.854.343-18.749,4.337l22.825.1Z" transform="translate(324.191 2069.063)"/><path class="k" d="M406.23,487.193l13.134-.148a20,20,0,0,0-12.184-4.685l-.95,4.836Z" transform="translate(114.957 2071.455)"/><g transform="translate(455.389 2435.676)"><path class="c" d="M183.574,95.247c3.818,1.389,6.132,2.544,6.472,7.054l.11-.154h.81a211.4,211.4,0,0,0,4.586-25.564c4.965,1.326,10.3,4.394,20.08,6.681,16.913,3.95,21.217.576,24.711.944l1.688,8.2c-1.21-1.032-3.253-4.359-4.99-4.847s-7.883-.277-10.029-.274l.187,5.185c2.629-.091,3.5-.439,5.056.357l-.066.3c3.159-.129,8.654-1.96,10.477,1.191,1.77.727,1.257.609,2.478,1.726.439.4.689.505,1.043.843.856.818.379.173.939,1.224.173,1.463,2.514,6.609-.568,10.993-.8,1.134-.755.829-1.4,1.271-.25.837.258.107-.368.884a3.449,3.449,0,0,1-.76.692c-.681.549-1.1.571-1.559,1.32l-.06.285a12.494,12.494,0,0,1,1.49-.041l1.463-1.724c7.293-7.037,1.084-14.857,1.466-16.092.53-3.947,1.073-7.027,1.773-10.833.439-2.391-.036-4.183.176-6.115.258-2.336,10.263-12.428-.664-22.183-10.946-9.774-30.705-1.463-40.287,1.287l-1.076-2.234c-3.118-.327-8.558,2.808-10.013,4.161-2.811,2.618-4.257,4.438-5.067,9.568-13.164,8.1-9.686,13.768-8.105,25.883Z" transform="translate(-177.708 -51.94)"/><path class="b" d="M216.235,234.818c2.588.077,1.364.239,1.9.755-1.88,1.46-16.386,2.6-17.487-3.922,2.429.258,1.145.659,3.272,2.075C207.646,236.209,213.811,234.746,216.235,234.818Zm-45.31-17.248c.9-.771-1.337-.39,1.477-.741,2.8-.349,6.351,2.684,7.166,6.445-2.973-1.479-.7-.532-2.786-2.747-3.653,1.693-1.3,3.255-1.128,5.671-4.575-.587-.8-6.162-.143-7.356-2.443-.774-3.612-.612-4.592-1.268Zm8.778,15.047,1.169-.34c.329,2.322.815,6.527,1.735,7.839,1.161.766.689.011,1.027,1.737,0,.022-.03,2.262-.036,2.478-.03,1.614-.005,3.247-.005,4.864,1.334-.445.705-.121,2.553,0l-.851-2.657c.653,1.984,4.954,6.107,6.31,7.306a22.715,22.715,0,0,0,9.085,4.971c8.706,2.344,16.617-1.773,21.107-5.333l.963.091c.527-2.432,2.256-3.187,3.793-5.207a28.049,28.049,0,0,0,3.091-5.174c2.045-4.367,2.218-9.95,4.037-13.452-.535-.478-.011-.047-.417-.876L232.7,228a12.483,12.483,0,0,0-1.49.041c-2.679,3.222-11.237,2.21-15.543-3.936-.889.749-.576.338-.615,2.182-.016.782.08,1.688.049,2.481-.2,5.259-6.263,3.749-7.145,1.938,2.454-1.2,2.868,1.386,5.783-.618l-.192-11.973c-1.178-1.2-2.056-1.125-3.686-.025-.044.058-1.18,11.761-12.167,11.687-8.775-.06-10.595-6.887-11.989-11.451-8.385-.036-6.247.178-6.758-1.707l-.11.154c-.34-4.51-2.654-5.665-6.472-7.054-2.78.856-5.135,1.394-5.726,4.938-.511,3.063.508,5.975,1.677,8.484,1.957,4.208,5.344,9.845,11.377,9.475Z" transform="translate(-166.508 -166.414)"/><path class="a" d="M264.137,365.552c2.248-9.947.618-21.17,1.183-31.628l-.963-.091c.65,7.828-10.169,17.912-19.559,14.536-8.852-3.184-14.967-18.1-16.09-18.823-1.847-.118-1.219-.442-2.553,0,0-1.617-.025-3.25.005-4.864.005-.217.038-2.459.036-2.479-.338-1.729.134-.972-1.027-1.737.494,8.789.1,18.664.1,27.571,0,9.357-.818,16.63,4.334,22.831,7.142,8.6,18.886,10.595,28.883,2.682,3.362-2.662,3.184-4.806,5.654-8Z" transform="translate(-209.069 -246.766)"/><path class="b" d="M214.82,167.282c.911,1.035-2.144.826,6.047.763l1.894-6.2-1-.683c11.38-8.734,21.738-3.546,22.913,6.283l4.444-.318c.95-4.891,3.036-7.9,7-9.162-1.556-.8-2.426-.445-5.056-.357l-.187-5.185c2.144,0,8.3-.211,10.029.274s3.779,3.815,4.99,4.847l-1.688-8.2c-3.494-.368-7.8,3.005-24.711-.944-9.785-2.286-15.115-5.355-20.08-6.681a211.4,211.4,0,0,1-4.586,25.564Z" transform="translate(-201.56 -117.078)"/><path class="l" d="M346.077,210.29l5.333,3.45c1.891,1.416.865-.316,1.145,1.888l-5.349-3.494C345.41,210.721,346.716,212.121,346.077,210.29Zm2.981-4.466c3.313-2.339,5.36,2.284,3.431,4C349.6,212.406,345.841,208.1,349.058,205.824Zm-.082-5.506a33.22,33.22,0,0,1-3.06,2.942,10.624,10.624,0,0,0-1.754,12.414c3.821,7.169,10.065,5.942,15.1,4.792.464-.749.876-.771,1.559-1.32a3.518,3.518,0,0,0,.76-.692c.626-.777.121-.047.368-.884.154-1.773.725-3.952.349-5.715l-.291-.917c-.041-.134-.126-.307-.187-.464l-2.366-8.964c-1.823-3.154-7.317-1.32-10.477-1.191Z" transform="translate(-294.492 -159.126)"/><path class="m" d="M242.7,210.213c-1.691,4.3-3.436,8.253-.082,12.84a11.04,11.04,0,0,0,11.3,4.562,10.7,10.7,0,0,0,8.366-8.067c1.693-6.5-2.9-9.87-3.447-11.218-1.018.672-.53-.675-1.361,2.034a17.482,17.482,0,0,0-.524,2.6l-2.484-.307c.285,3.31-.4,4.628-3.9,3.823-2.41-2.629-.963-2.849-.1-5.111-2.989-.755-4.32-1.543-7.77-1.158Z" transform="translate(-220.339 -165.405)"/><path class="c" d="M235.8,346.507c1.123.727,7.238,15.639,16.09,18.823,9.39,3.379,20.209-6.705,19.559-14.536-4.488,3.557-12.4,7.674-21.107,5.333a22.681,22.681,0,0,1-9.085-4.971c-1.353-1.2-5.657-5.322-6.31-7.306l.851,2.657Z" transform="translate(-216.164 -263.729)"/><path class="n" d="M221.776,201.507c.124-.066.3-.14.382-.184,2.116-1.112,4.271-3.87,7.685-4.433,2.339.368,5.012,1.323,6.711,1.479.994.14.87-.807.87.242.851,0,.486-.151.486,1.013.543,1.348,5.138,4.721,3.447,11.218a10.7,10.7,0,0,1-8.366,8.067,11.04,11.04,0,0,1-11.3-4.562C218.337,209.76,220.082,205.805,221.776,201.507Zm-9.1,5.4h-.81c.511,1.886-1.628,1.672,6.758,1.707,1.394,4.564,3.214,11.391,11.989,11.451,10.987.077,12.123-11.629,12.167-11.687,1.633-1.1,2.509-1.177,3.686.025.815,1.123.508,1.488.919,3.134a14.767,14.767,0,0,0,1.2,2.855c4.306,6.145,12.865,7.156,15.543,3.936l.06-.285c-5.034,1.15-11.278,2.377-15.1-4.792a10.632,10.632,0,0,1,1.754-12.414,33.583,33.583,0,0,0,3.06-2.942l.066-.3c-3.961,1.257-6.047,4.271-7,9.162l-4.444.318c-1.175-9.829-11.533-15.019-22.913-6.283l1,.683-1.894,6.2C210.533,207.729,213.591,207.938,212.68,206.9Z" transform="translate(-199.419 -156.699)"/><path class="o" d="M247.96,202.987c3.453-.384,4.781.4,7.77,1.158-.867,2.262-2.311,2.481.1,5.111,3.5.8,4.183-.513,3.9-3.823l2.484.307a17.478,17.478,0,0,1,.524-2.6c.832-2.709.34-1.361,1.361-2.034,0-1.164.365-1.013-.486-1.013,0-1.048.124-.1-.87-.242-.826.884,1.383.958-1.8.689-1.691-.143-4.1-.881-4.91-2.168-3.414.563-5.569,3.324-7.685,4.433-.085.044-.258.115-.382.184Z" transform="translate(-225.604 -158.179)"/><path class="p" d="M407.7,229.236l.56.862c.4.829-.118.4.417.876,1.694-.255,2.6-2.262,3.793-4.021a24.951,24.951,0,0,0,2.8-5.484c1.713-5.037.958-9.733-4.639-10.048-.379,1.232,5.827,9.055-1.466,16.092l-1.463,1.724Z" transform="translate(-341.499 -167.647)"/><path class="q" d="M308.377,293.542c-.532-.516.692-.678-1.9-.755-2.424-.071-8.588,1.392-12.318-1.092-2.127-1.416-.843-1.817-3.272-2.075C291.991,296.141,306.5,295.005,308.377,293.542Z" transform="translate(-256.75 -224.383)"/><path class="q" d="M325.26,246.3a14.767,14.767,0,0,1-1.2-2.855c-.412-1.647-.1-2.012-.919-3.134l.192,11.973c-2.915,2-3.329-.579-5.783.618.881,1.812,6.947,3.324,7.145-1.938.03-.793-.066-1.7-.049-2.481C324.684,246.637,324.371,247.048,325.26,246.3Z" transform="translate(-276.093 -188.608)"/><path class="o" d="M362.045,220.362c-3.217,2.27.538,6.582,3.431,4C367.405,222.646,365.355,218.026,362.045,220.362Z" transform="translate(-307.479 -173.666)"/><path class="r" d="M182.6,236.283c.98.656,2.149.5,4.592,1.268-.653,1.194-4.433,6.769.143,7.356-.176-2.413-2.525-3.977,1.128-5.671,2.086,2.215-.187,1.268,2.786,2.747-.818-3.76-4.37-6.79-7.166-6.445-2.813.349-.579-.03-1.477.741Z" transform="translate(-178.183 -185.126)"/><path class="s" d="M411.793,225.358c.058.156.143.332.187.464l.291.917c.376,1.765-.195,3.941-.349,5.715.645-.442.6-.14,1.4-1.271,3.085-4.386.744-9.53.568-10.993-.994.8-.664-.87-1.117,2.248-.132.909-.165,1.746-.31,2.855l-.67.066Z" transform="translate(-344.467 -174.01)"/><path class="t" d="M405.553,215.332l.67-.066c.145-1.109.176-1.946.31-2.855.453-3.118.124-1.444,1.117-2.248-.56-1.051-.082-.406-.939-1.224-.354-.338-.607-.445-1.043-.843-1.224-1.117-.711-1-2.478-1.726l2.366,8.964Z" transform="translate(-338.227 -163.983)"/><path class="u" d="M354.45,238.35c.639,1.831-.667.431,1.128,1.844l5.349,3.494c-.28-2.2.747-.472-1.145-1.888l-5.333-3.45Z" transform="translate(-302.865 -187.186)"/><path class="v" d="M284.071,199.849c-1.7-.159-4.372-1.114-6.711-1.479.81,1.287,3.22,2.026,4.91,2.168C285.457,200.807,283.245,200.733,284.071,199.849Z" transform="translate(-246.934 -158.179)"/></g><path class="a" d="M38.754,736.768,11.941,733.54l-1.394.313c-1.908,14.926-4.416,28.677-6.541,43.29-1.633,11.226-2.758,10.581.744,22.619,2.374,8.163,4.545,16.076,6.821,24.049,4.408,15.447,10,32.193,13.559,47.662,1.652,7.183-.269,12.244,5.347,23.709,3.041,6.209,8.226,13.043,16.1,11.135,2.816-5.553-1.65-14.89-2.953-21.725a4.851,4.851,0,0,1,1.63,1.068c2.223,1.787,3.445,3.807,5.105,1.6.436-.615.994.785.458-2.253-.854-4.853-5-14.426-11.61-15.725-4.386-24.716-7.661-50-11.764-74.819-1.364-8.242,2.86-20.366,4.773-29,1.029-4.644,2.16-9.277,3.261-13.993,1.125-4.82,2.649-10,3.277-14.709Z" transform="translate(407.91 1889.217)"/><path class="d" d="M126.606,711.06l2.451.112.047,2.33-.1,1.847-2.4.088-78.884.019-2.544-.121.686-4.2,2.476-.049,78.266-.019ZM8.13,698.352c-2.951.738-2.586.154-5.393-.222L0,712.822l5.572.653,33.294,3.307-2.275,12.28,92.393.041.151-13.133,19.534-4.471c2.045-.812,3.483-.39,5.747-1.691l-2.27-11.654c-.585-.148.113-.1-1.493-.274-.264-.027-.834,0-1.5-.077-5.267-.261-14.19,3.22-19.8,3.626l-.173-4.139-80.917.231-1.153,3.22c-8.168-.434-32.9-3.469-38.978-2.391Z" transform="translate(409.688 1915.517)"/></g></svg>