<svg xmlns="http://www.w3.org/2000/svg" width="47.813" height="58.738" viewBox="0 0 47.813 58.738"><defs><style>.a{fill-rule:evenodd;}</style></defs><path class="a" d="M10247.653,4608.365c.459-2.8,1.455-1.942,5.226-1.895l19.016-.051c3.2.216,1.642-.3,2.635,1.27-1.107,2.175-2.4,1.439-5.395,1.4-5.246-.065-19.029.8-21.477-.727Zm-7.712-14.4,42.382-.047a16.468,16.468,0,0,1-6.68,9.483c-3.519,2.462-25.464,2.406-28.737.137C10243.338,4601.062,10241.461,4598.663,10239.941,4593.964Zm-.578-2.505-.245-4.115,44.16,0-.234,4.371C10277.785,4592.236,10242.34,4592.508,10239.363,4591.459Zm8.5-11.5c-.133-6.388.478-9.131,3.814-12.6,9.017,7.713,8.228,2.715,16.35,6.249,5.073,2.2,1.7,3.954,5.766,5.756,3.087,1.366,5.021,1.863,5.066,6.27l-35.173.127C10243.548,4581.626,10245.672,4582.076,10247.862,4579.963Zm21.712-7.28c.743-2.862,3.307-7.483,4.571-10.014,2.679-5.359,3.032-7.737,5.738-8.217,1.22,2.627-4.159,9.706-6.572,14.146C10271.391,4572.129,10272.036,4572.014,10269.574,4572.683Zm11.2,12.752c-1.746-11.111-12.512-5.182-6.406-15.119,2.425-3.958,8.306-12.284,7.579-16.8-5.476-2.68-6.188,1.826-8.4,6.517-1.746,3.718-4.257,7.706-5.544,11.329-2.811-.418-6.728-1.016-9.533-1.7-5.033-1.24-3.113-2.819-6.255-4.842-5.046,3.444-6,6.6-6.255,14.318-2.868,1.911-3.2,2.581-4.568,6.346l-4.117,1.013c-.917,8.876,3.935,16.294,8.946,18.268l.373,5.839c3.8,1.138,25.84,1.2,29.291-.194.718-2.168.62-3.159-.077-5.509,4.553-2.027,11-10.736,8.677-18.788Z" transform="translate(-10237.167 -4552.717)"/><path class="a" d="M10506.13,4910.97c-.815-2.558-2.37-2.564-5.218-2.609-7.974-.132-3.658-.8-7.163-1.092.076,2.655,1.851,2.838,4.412,2.918C10501.191,4910.286,10504.411,4911.04,10506.13,4910.97Z" transform="translate(-10477.726 -4885.122)"/></svg>