<svg xmlns="http://www.w3.org/2000/svg" width="44.794" height="56.933" viewBox="0 0 44.794 56.933"><defs><style>.a{fill-rule:evenodd;}</style></defs><path class="a" d="M3067.224,8424.916c-2.553.838-6.727.249-9.691.258-5.824.025-5.214.848-5.129-5.043l15.373.216C3067.788,8422.189,3068.125,8423.747,3067.224,8424.916Zm-10.491-25.065-.01-1.675-4.23-.2c-.269-4.117,1.834-5.6,4.187-6.965.233-1.726,1.48-12.575.983-13.98-.726-2.043-.914-.425-.835-3.974l6.5.019c.173,6.085-1.467-.12-.71,8.625.255,2.953.419,6.28.869,9.2,2.3,1.569,4.522,2.7,4.174,7.076-1.87,0-2.857-.252-4.227.489l.02,1.276c1.517.836,2.32.32,4.334.636l-.12,17.49-14.99.007c-.614-2-.45-15.009-.169-17.565l4.228-.463Zm1.22,27.584c7.423-.006,11.906,1.295,12.13-3.882l-.008-23c.013-6.732-.429-7.871-4.427-11.021-.428-2.953-.669-6.5-.894-9.484-.277-3.636,2.066-3.957.578-8.991-2.038-.513-8.695-.631-10.484.1a10.412,10.412,0,0,0-.36,3.958c.31,4.921,1.505-2.358.431,10.391-.373,4.434.231,3.063-2.252,5.594-4.175,4.252-2.58,12.9-2.58,20.731,0,16.265-1.3,15.6,7.865,15.6Z" transform="translate(-3049.788 -8370.644)"/><path class="a" d="M3441.088,8783.465c-14.655.288-12.637.542-12.574-5.069l15.375.1c0,.752.073,1.765.038,2.483-.075,1.582.209,1.048-.531,1.877C3442.517,8783.716,3442.764,8783.432,3441.088,8783.465Zm-12.577-27.191,15.382.1,0,4.149c-5.389.741-10.584,3.521-15.356,1.521Zm.436,8.428c5.968,1.837,9.454-1.951,14.95-1.682v13.094c-19.3.023-13.734.626-16.088-2.177-2.275.37-1.606.7-1.61,6.61,0,2.56.247,4.562,2.752,5.053,2.07.408,14.643.291,15.88-.468,2.258-1.385,1.367-11.573,1.367-15.041s.419-12.961-.273-15.733c-2.067-.646-17.071-.59-19.443-.094-.476,1.826-.27,5.214-.274,7.475-.007,4.86-.6,5.452,1.981,5.456Z" transform="translate(-3401.578 -8728.899)"/><path class="a" d="M3126.839,8876.942c4.118-2.555,6.671,3.583,3.257,5.469C3126.761,8884.249,3122.856,8879.42,3126.839,8876.942Zm.218-2.718c-7.085,1.937-4.376,12.395,2.7,10.749C3136.343,8883.445,3134.432,8872.217,3127.058,8874.225Z" transform="translate(-3118.142 -8841.168)"/><path class="a" d="M3429.659,8996.49c1.682.383,2.3-.237,1.85-1.928l-1.763.158Z" transform="translate(-3404.896 -8953.889)"/><path class="a" d="M3192.437,8792.9l-.1,1.254C3195.115,8795.66,3195.115,8791.4,3192.437,8792.9Z" transform="translate(-3183.046 -8765.068)"/></svg>