<svg xmlns="http://www.w3.org/2000/svg" width="42.752" height="51.84" viewBox="0 0 42.752 51.84"><defs><style>.a{fill-rule:evenodd;}</style></defs><path class="a" d="M299.983,9565.993h5.739c.711,2,2.765,4.4,5.475,4.406,2.681.007,4.823-2.395,5.5-4.4l5.729-.007c.023,10.561,1.974,8.886-11.227,8.886h-6.077c-2.451,0-3.325.429-5.015-.838Zm5.051-7.869c1.53-.051.959-.17,1.5-1.792a6.7,6.7,0,0,1,.96-1.951,4.523,4.523,0,0,1,3.7-2.4,4.464,4.464,0,0,1,3.718,2.379,9.856,9.856,0,0,1,1.017,2.151c.459,1.463-.01,1.53,1.533,1.612l-.157-1.737,5.118-.008,0,8.354-5.137-.032c.257-1.2.5-1.044-.277-1.756-1.472.552-1.7,6.175-5.813,6.187-3.883.015-4.472-5.212-5.549-6.187-1.1.407-.734.563-.516,1.778h-5.137v-8.344l5.056.017-.016,1.728Zm5.122-26.807c-.256-.021-.747.015-1.067.015l.02-1.212h4.2c.337,3.938,1.4,3.764.97,6.739-.057.389-2.349,6.129-.065,7.37a62.622,62.622,0,0,1,5.822,3.169c2.146,1.774,2.819,4.063,2.3,7.708h-5.544c-.923-2-2.707-4.405-5.589-4.4-2.934,0-4.584,2.426-5.569,4.4h-5.544c-.968-7.318,2.659-7.835,7.373-10.541,1.728-.983,4.417-.017,3.765-1.551-.368-.432-1.573-.3-2.154-.3l.017-2.588c.818,0,2.53.277,2.3-.743-.176-.779-1.81-.535-2.695-.528-.493-1.623-1.36-4.934.394-6.255,1.229,0,2.57.271,2.169-.978C311.043,9531.364,311.187,9531.39,310.156,9531.317Zm-2.333-5.5,6.782.039,0,2.987-6.794-.086Zm15.57,49.059c.743-5.8.3-14.039.3-20.233,0-3.414-.4-6.418-2.411-7.964a51.97,51.97,0,0,0-6.643-3.651c-.068-5.914.638-3.234.943-6.418.27-2.814-.943-3.785-.952-6.015.458-1.24.368-.16,1-1.124.09-.136,1.038-3.782-.665-4.811-1.1-.21-7.019-.354-7.757.1-.866.531-.694,2.033-.674,3.205.043,2.58,1.037,1.413,1.248,2.628-.02,2.351-1.322,3.2-.908,6.248.422,3.1.967.345.9,6.2a42.831,42.831,0,0,0-6.916,3.9c-3.055,2.939-2.131,13.548-2.131,19.058,0,2.906-.819,7.789,1.126,9.5,1.442,1.27,7.722.649,10.027.649,3.569,0,30.327.412,31.428-.365l-.018-.53c-1.049-.775-4.47-.369-5.945-.382.734-2.477.9-13.27.313-14.824-1.141-.261-8.908-.413-9.959.1-.794.819.228,1.029,1.074,1.053,2.211.063,6.014-.219,7.858.091v3.063c-2.492.391-7.25-.4-9.119.335.043,1.228.15,1.053,1.532,1.053l7.586.079v6.205c-2.494.395-7.245-.407-9.116.334.032,1.236.143,1.045,1.529,1.045l7.429,0c-.81,1.923-2.375,1.48-4.774,1.474h-6.3Z" transform="translate(-298.551 -9524.464)"/><path class="a" d="M450.355,10060.234c4.124-2.3,5.8,7.678,2.035,9.779-3.086,1.725-5.9-4.594-3.107-8.908.632-.979.316-.451,1.072-.871Zm-.144-1.439c-5.614,1.93-3.589,14.646,2.238,12.594,2.36-.832,3.641-4.17,3.3-7.4-.311-2.93-2.336-6.3-5.535-5.193Z" transform="translate(-438.675 -10028.985)"/><path class="a" d="M361.373,10386.1c1.627.3,6.942.586,8.067-.133-.1-1.367-.613-.94-4.232-.94-2.643,0-4.177-.434-3.835,1.082Z" transform="translate(-357.848 -10337.291)"/><path class="a" d="M391.49,9903.1c1.158.143,5.951-2.566,5.519-3.443-.44-.9-2.38.64-2.984,1C392.772,9901.4,391.611,9901.6,391.49,9903.1Z" transform="translate(-386.341 -9878.608)"/></svg>