<svg xmlns="http://www.w3.org/2000/svg" width="45.545" height="53.111" viewBox="0 0 45.545 53.111"><defs><style>.a{fill-rule:evenodd;}</style></defs><path class="a" d="M1758.151,10823.737a15.028,15.028,0,0,0,3.166-1.415l2.351-2.529c8.43,4.637,6.643-1.747,12.577.5.78,4.791-1.048,6.792,2.339,9.411,0,3.833-.775,15.278.519,17.679,2.155-.556,1.614-.3,1.591-6.133-.071-18.736,1.25-9.086,2.029-14.542l.1-6.122c.589-1.644,1.528-1.562,1.988.01l.014,30.923-4.1.245c.468,2.681.464,1.889,3.818,1.889-1.372,2.409-2.172,2.072-5.319,2.061l-15.05-.01c-3.248.017-4.849.4-5.712-2.021,2.943-.033,5.888-.017,8.831-.017,7.264.009,6.768.808,7.233-1.712-3.39-1.313-11.849.054-16.345-.554Zm28.835,4.1,4.014.019.035,15.387-4.041.092Zm-.007-3.163c.694-1.5-.79-.619,1.531-1.008.1-.017,2.581,0,2.627,0,5.442.313,4.022,4.168,4.022,11.883,0,7.873,1.89,12.721-6.164,11.98-3.072-.279-1.434.31-2.016-1.1.884-2.008.184-.6,4.13-1.021,3.5-.377,2.009-2.969,2.046-13.476.024-6.686.665-6.1-3.614-6.178C1785.5,10825.688,1787.693,10825.493,1786.979,10824.676Zm-31.557,7.133c-2.347-.742-1.508-3.064-1.5-6.1.034-8.765-1.39-12.658,7.668-14.419,2.754-.53,1.842-1.9,4.555-3.324,5.426-2.848,6.552,1.865,10.74,1.546,1.705-.13,1.642-.548,3.55,1.516l.839.918c.837-.147,6.013-1.642,5.593,2.806-.324,3.428-3.594,2.05-5.7,2.486l-.568,2.741c-.174,4.8,1.184,6.911-1.447,7.694-1.772-3.237,1.82-9.888-5.2-10.167-3.341-.126-2.732,1.9-5.619,1.905-3.157,0-1.837-1.845-5.662-1.829-1.385,1.078-1.126,1.811-2.66,2.918-.946.678-.717.39-1.74.792-5.165,2.008-.261,6.524-2.847,10.514Zm31.557-10.221c0-6.089,2.019-3.262,2-7.256-.032-5.852-4.83-4.1-7.663-5.7-5.091-2.883-3.555-.321-6.251-1.578a19.407,19.407,0,0,0-2.66-1.515c-6.782-2.447-7.785,2.743-13.137,3.895-4.767,1.036-7.451,4.612-7.451,10.057,0,17.8-.132,12.011,4.221,15.022,0,5.016.016,10.024-.007,15.037-.025,5.237.573,8.2,6.085,8.2,19.828,0,24.866,2.481,24.866-8.2,6.7-.114,10.3.7,10.3-6.751C1797.275,10821.512,1798.984,10821.8,1786.979,10821.588Z" transform="translate(-1751.814 -10804.891)"/><path class="a" d="M1995.471,11083.7c.075,3.389-.582,16.853.594,19.086,1.928-.427,1.6,0,1.6-2.5V11083.7c0-2.77.4-2.217-1.758-2.6Z" transform="translate(-1977.017 -11060.302)"/><path class="a" d="M1888.133,11083.566v16.581c0,2.522-.345,2.1,1.605,2.487,1.151-2.214.628-17.863.259-21.687-2.287.389-1.865-.174-1.865,2.618Z" transform="translate(-1877.839 -11060.165)"/><path class="a" d="M2082.72,11429.889c.406,2.274,1.966,1.939,1.675-.191Z" transform="translate(-2057.803 -11382.646)"/></svg>