<svg xmlns="http://www.w3.org/2000/svg" width="58.999" height="47.513" viewBox="0 0 58.999 47.513"><defs><style>.a{fill-rule:evenodd;}</style></defs><path class="a" d="M8399.6,10019.188c.6-6.334.2-5.1,1.886-5.358.574.886.744.156-.1,3.022C8400.807,10018.832,8401.375,10018.553,8399.6,10019.188Zm-15.9-8.362,14.938-.062-1.015,8.43-12.9-.023Zm-33.8-3.807c1.869-.822,23.587-.647,26.567-.24-.713.584.077.3-1.069.565-2.771.648-2.868-.882-3.825.934,1.653,1.09,5.212.308,7.039.72-1.913,1.509-4.415-.053-7.024.93.986,2.314,5.047.233,9.169,1.27-.573.468.7.614-1.849.614-4.115,0-26.979.671-29.006-.491,3.261-1.951,15.3,1.2,18.459-.8-.791-1.55-4.826-.885-8.566-.885q-5.033,0-10.074,0l.063-.859c3.051-.009,6.1,0,9.144,0,1.589,0,3.187-.012,4.779,0,1.714.014,3.205.245,4.461-.494-.752-1.215.727-.486-1.4-.843C8364.127,10007,8352,10008.414,8349.9,10007.02Zm23.7-2.652c-1.388.782-13.632.326-15.977.333-5.244.019-3.753.221-4.518-.837C8356.525,10003.851,8371.689,10003.084,8373.6,10004.367Zm13.322-1.066c5-.412,3.741.284,5.72-3.54a23.526,23.526,0,0,1,.836,2.661c.971,1.54.682.188,2.035,1,1.314.808.049.267,1.121,1.478l1.979,1.472-14.773-.012c1.439-2.037,2.881-.088,5.047-1.56-.15-1.81.278-1.423-1.959-1.5Zm-33.962-1.1c1.152-.925,1.983-.524,4.663-.523,4.159.014,12.712-.876,14.069.936-3.25,0-16.984.7-18.725-.412Zm.238-1.809c.586-.5-.617-.685,1.785-.876.519-.042,1.622.025,2.207.027,3.7.026,11.08-.771,12.283.849Zm28.684-.3c1.463-1.063,3.664-.512,5.242-.158C8385.83,10000.827,8383.37,10000.366,8381.879,10000.094Zm-1.681,2.943c-.271-2.589-4.868-4.977-6.862-8.2,1.857.231,3.873,3.135,5.079,4.381,1.616,1.67,3.013,3.172,4.657,4.72l-3.889,3.638a33.631,33.631,0,0,0-4.605-4.958c-.891-.908-1.456-1.506-2.369-2.407s-1.59-1.083-1.448-2.6c3.194,3.488,4.2,3.93,5.849,5.6,1.045,1.063.711,1.532,1.905,1.253.272-.845-.34-1.313-1.092-2.07-1.827-1.833-5-4.531-5.534-6.322C8375.156,9997.679,8377.143,10002.772,8380.2,10003.037Zm-5.427-10.171c.9-1.2,2.5-3.16,4.037-3.688-.439,1.393-.854,1.427-1.836,2.4C8376.01,9992.537,8376.1,9992.959,8374.771,9992.866Zm22.418,9.291c-1.187-1.125-1.191-.365-1.985-1.474-1.4-1.973-.675-3.519-4.026-2.7-.662,1.113-.817,2.272-1.371,3.249l-1.172-2.252a2.72,2.72,0,0,0-2.057-1.315c-7.324-1.267-4.113,2.407-9.726-2.911,1.648-2.56,6.286-4.176,2.358-8.068-1.036-1.032-2.27-2.77-4.471-2.269-1.523.348-3.256,1.751-2.515,3.614,2.165.151,1.225-1.263,3.6-1.808-.669,1.461-2.534,2.822-3.707,3.978-2.449,2.412-2.949,2.188-3.277,4.3,1.91-.331,4.595-3.582,6.492-5.459,1.848-1.83,1.486-1.282,1.809-1.124.2.631-3.686,3.993-4.352,4.688-.394.405-.74.866-1.252,1.355-1.34,1.28-.957.451-2.388,2.368l-1.106,1.271c-1.77-.911.753,1.129-.591-.59-.943-1.2.848.158-.713-1.066-1.64,1.351-.554,1.2-2.727,1.635.559-1.179.106-.5.98-1.5l4.874-4.676c2.465-2.385,1.024-4.513-4.087,1.139-1.325,1.47-2.8,3.617-4.191,4.511-2.071,1.33-5.757-.1-8.393.74-2.669.853-2.163,3.624-2.128,6.567-2.99,1.679-3.557.573-3.187,6.951l-.68.382c-1.691.868-3.365.838-.723,7.288,1.24,3.034,5.783,2.131,9.4,2.131h11.728c5.233,0,9.466.9,9.817-1.407-3.182-1.841-23.035.6-28.742-.766a21.8,21.8,0,0,1-1.537-5.106c6.037-.03,31.348-.479,35.025.239l.6,5.07c-2.035.1-1.622-.28-2.542.854.87,1.854,3.653,1.115,8.228,1.115,12.232,0,13.445,1.329,14.859-4.055,1.025-3.87,1.792-5.122-2.786-5.15.819-2.7.392-.279,1.754-2.012a1.889,1.889,0,0,0,.075-2.467l-5.172-5.278Z" transform="translate(-8345.102 -9973.779)"/><path class="a" d="M8723.421,10068.128C8728.194,10067.331,8720.349,10064.425,8723.421,10068.128Z" transform="translate(-8705.628 -10052.033)"/><path class="a" d="M9162.41,9948.825c1.313.73.824.688,2-.1l-.3-1.231C9162.164,9947.586,9162.781,9947.041,9162.41,9948.825Z" transform="translate(-9125.49 -9938.591)"/><path class="a" d="M8964.125,9752.516c.953-.042.261-.013.788-.417-.448-1.981-2.21-1.87-1.738.2C8964.017,9752.637,8962.223,9752.61,8964.125,9752.516Z" transform="translate(-8935.181 -9750.677)"/><path class="a" d="M8564.444,9941.232c.048-1.719.155-1.79-1.431-1.451C8562.148,9941.423,8562.9,9941.316,8564.444,9941.232Z" transform="translate(-8552.821 -9931.085)"/><path class="a" d="M9182.519,10139.144c1.624,1.3,1.411.217,1.737,0C9184.434,10137.852,9182.95,10136.831,9182.519,10139.144Z" transform="translate(-9144.689 -10120.279)"/><path class="a" d="M8795.087,9901.134C8794.961,9897.113,8790.9,9901.162,8795.087,9901.134Z" transform="translate(-8772.953 -9892.638)"/><path class="a" d="M8526.868,10146.648c.214-2.225-1.272-2.453-1.643-.3C8526.274,10146.98,8525.105,10146.928,8526.868,10146.648Z" transform="translate(-8517.09 -10127.047)"/></svg>