<svg xmlns="http://www.w3.org/2000/svg" width="50.521" height="50.514" viewBox="0 0 50.521 50.514"><defs><style>.a{fill-rule:evenodd;}</style></defs><g transform="translate(0 -0.001)"><path class="a" d="M16197.054,22240.861c3.4-1.25,1.351-1.795,3.638-2.9,2.172.875.58,1.838,3.717,2.836l-.147,11.084-7.182-.053Zm8.83-5.109c4.857.811,4.262,7.178.007,7.852Zm-8.83,3.326c0-2.205-.419-4.4.705-5.529.6.564.732-1.006.732,1.775C16198.491,22237.891,16198.721,22238.1,16197.054,22239.078Zm7.338.041c-2.089-1.168-1.509-3.1-1.365-5.576C16205.113,22234.48,16204.4,22236.408,16204.392,22239.119Zm-4.55-4.244c.163-2.387.288-1.057,1.315-1.316a2.907,2.907,0,0,1,0,2.893C16200.379,22236.287,16199.715,22236.818,16199.842,22234.875Zm-10.158-10.674c.548-.373-.19-.227.795-.3.051,0,.26.221.3.121.051-.125.207.127.321.182C16190.023,22225.836,16190.383,22225.621,16189.684,22224.2Zm1.2-2.51c-.2,1.314.072.236-.859.5-1.125-1.437-.219-1.029.459-1.518C16190.911,22221.346,16191.074,22220.477,16190.888,22221.691Zm.123,10.395c.187-1.611-.205-3.859.366-5.234.584-1.393,1.236-.357,1.236-3.572,0-4.088.095-4.75-4.408-3.787-.214,9.633,1.432,4.99,1.432,7.959,0,4.463.057,3.006-1.331,3.826-2.732,1.611-1.854,4,1.265,4.227,1.748.135,3.99-.023,5.958.014l.023,16.5c.163,1.363.426.865,1.083,1.752.368.5.387-3.3.387,8.443,0,3.012-1.756,1.373-2.89,3.26,1.438,1.039,2.3.07,4.371-.406l.024-11.562,4.381-.023.111,11.549c2,.574,2.849,1.439,4.3.443-2.729-3.686-2.9,3.822-2.891-11.6l.546-.385c1.548-1.514.912-3.477.912-8.09,1.625-.709,2.97-1.035,4.047-2.693a5.817,5.817,0,0,0,.375-5.389c-1.028-2.252-1.914-2.072-3.783-3.166-1.751-1.025-.773-2.137-4.443-2.137-9.4,0-4.094,1.965-7.417,1.965-2.767,0-4.979.4-6.343-.5C16189.025,22231.49,16188.689,22233.334,16191.011,22232.086Z" transform="translate(-16186.672 -22215.623)"/><g transform="translate(8.514)"><path class="a" d="M16726.623,22452.834c1.086-.646,2.5-.379,3.99-.406,2.891-.037,3.006-.707,3.328,1.453l-6.152.014C16725.576,22453.467,16727.1,22453.523,16726.623,22452.834Zm-8.83,0c1.1-.662,2.477-.379,4.012-.406,2.891-.037,3-.707,3.3,1.453l-6.127.023C16716.621,22453.463,16718.271,22453.555,16717.793,22452.834Zm-8.852,0c1.125-.662,2.461-.379,4.059-.406,2.891-.037,2.973-.707,3.273,1.453l-6.105.029C16707.65,22453.463,16709.453,22453.578,16708.941,22452.834Zm22.088-3.334h2.912c-.2,1.438.416,1.561-1.471,1.561C16730.566,22451.061,16731.27,22450.891,16731.029,22449.5Zm-8.846,0,6.152-.033c2.012.371.836-.1,1.184,1.039-1.1.707-2.43.414-4.016.438C16722.457,22450.977,16722.57,22451.646,16722.184,22449.5Zm-8.852,0c4.723,0,6.824-.742,7.33,1.006-1.072.707-2.451.424-3.967.438C16713.645,22450.977,16713.742,22451.646,16713.332,22449.5Zm-4.4,1.006c.3-.975-.846-1.006,2.895-1.006-.336,2.025.75,1.09-1.141,1.5A1.776,1.776,0,0,1,16708.934,22450.506Zm17.715-3.895c1.949-.191,6.34-.713,7.359.648-1.031,1.354-5.41.842-7.281.65Zm-8.844,1.119,5.875-1.268c2.125.236.715-.279,1.48.8-.906,1.246-1.373.777-3.355.758C16720.457,22448,16718.9,22448.2,16717.8,22447.73Zm-5.273.287a9.463,9.463,0,0,1-3.59-.287l.016-.932c1.121-.486,2.629-.289,4.049-.295,2-.023,2.457-.506,3.314.756C16715.432,22448.535,16714.475,22448.018,16712.531,22448.018Zm14.352-6.062c-2-.051-1.488.2-1.727-1.174,1.145-.609,2.8-.42,4.352-.258l-.039,1.176A7.779,7.779,0,0,1,16726.883,22441.955Zm-9.148-.07h-4.4c.313-1.654-.262-1.635,2.457-1.527C16718.27,22440.451,16717.418,22440.125,16717.734,22441.885Zm11.807-3.428a4.477,4.477,0,0,1-4.4,0c.436-.559-1.062-1.062,2.23-1.049C16729.7,22437.422,16729.133,22437.232,16729.541,22438.457Zm-11.811.494h-4.4v-1.467h4.4Zm11.727-3.041c-1.473.158-3.156.338-4.32-.234l.076-1.107,4.307.182Zm-16.125-1.357h4.4c-.3,1.646.246,1.631-2.437,1.529C16712.826,22435.988,16713.664,22436.3,16713.332,22434.553Zm14.039-1.428c-2.568.027-1.848.059-2.2-1.16a5.592,5.592,0,0,1,4.332,0C16729.162,22433.23,16729.789,22433.115,16727.371,22433.125Zm-9.637-.076h-4.4c.307-1.646-.391-1.666,2.457-1.545C16718.357,22431.605,16717.451,22431.242,16717.734,22433.049Zm8.873-12.676c0-1.937-.244-1.324.756-2.172.918,1.008.686.436.686,2.172,0,4.9.193,3.242-1.3,3.576l-.139-3.576Zm-11.387-2.213c1.4.559,1.053-.445,1.053,2.213,0,3.084.277,2.566-.5,3.623-1.162-.418-.977,1.188-1.066-3.629Zm10.721,7.391c.055.086.164.182.211.271.672,1.164.453,2.7.391,4.27-2.635.01-1.678-.252-3.453,1.336a7.67,7.67,0,0,1-.754.537c.287,1.029.148.42.684,1.145,1.689,2.32-.586-1.393.621.717a4.718,4.718,0,0,1-.687.736c-.111.1-.418.584-.49.434-.037-.078-.166.137-.252.211l1.152,1.186c.043-.074.188.131.277.211-.629,1.406.016.4-1.379,1.4,1.023,2.217.449-.326,1.379,1.846-.09.082-.232.158-.281.205l-.5.422c-.711.672,0-.25-.637.773l.789.7c.066.068.164.172.223.242,1.531,1.582,1.014,1.205,3.352,1.205v1.648c-1.91,0-3.812-.014-5.707,0l-4.582-.545c.662-2.021-.359-.395,1.313-1.109.816-.348-.016.369,1.314-.492.092-.057,1.52-1.443,1.725-1.645-.77-1.141-.477-.424-1.412-1.4.773-2.172.447.348,1.455-1.8-1.555-1.375-.861.176-1.455-1.443.818-.889.705-.414,1.42-1.4a6.392,6.392,0,0,1-.631-.527c-.072-.088-.459-.344-.5-.551-.051-.182-.2-.2-.291-.3l1.443-1.736c-.139-.094-.756-.539-.98-.734-1.66-1.492-.93-1.213-3.385-1.314a27.536,27.536,0,0,1,.029-3.562c.77-2.8.719.717,1.395-2.389a16.853,16.853,0,0,0-.553-6.967,4.7,4.7,0,0,0-3.295-.006c-.75,1.859-.576,4.584-.576,6.973.41,3.461,1.6-1.947,1.447,5.941-4,.211-1.574.148-4.371,2.035l1.441,1.76c-.086.1-.207.23-.273.3s-.184.219-.256.289l-.881.793,1.41,1.4c-.482.818-.1.273-.7.908l-.668.488a4.807,4.807,0,0,0,.684.932,4.578,4.578,0,0,1,.68.914l-1.4,1.4c4.4,4.584,3.332.107,4.363,3.246l-1.768.561c-1.43.148-3.426-.3-5.191.223-.65,1.336-.428,3.166-.426,4.768.016,1.732-.02,3.383.078,5.314l27.9-.061c.125-2.869.512-7.559-.285-10.227l-7.021-.033v-1.648c3.152-.006,2.416-.312,4.373-2.143l-1.416-1.4c.652-1.426.871-.715,1.379-1.846-1.424-1.025-.715.023-1.379-1.4l1.416-1.4-1.416-1.381c1.285-2.109.572.471,1.455-2.043-3.086-.844-.4-.447-1.77-1.289-.887-.533-1.258-.4-2.6-.4-.34-7.521,1.322-2.143,1.49-6.893a15.531,15.531,0,0,0-.625-6.217c-5.072-1.156-3.871,2.869-3.871,7.107Z" transform="translate(-16693.576 -22404.842)"/><path class="a" d="M16394.27,22146.063c2.559,6.895-9.066,7.246-6.342-.3C16389.852,22145.512,16392.744,22145.246,16394.27,22146.063Zm-.641-3.246-.02,1.3-5.187-.145.111-1.414Zm1.4-2.324c-1.312.992-6.674,1.016-7.994,0,.105-1.074.906-.855,2.107-.855C16394.793,22139.637,16394.316,22139.109,16395.033,22140.492Zm-1.26,11.594c4.432-2.926,1.242-7.664,1.391-8.8.729-2.113.693-.363,1.225-2.113.461-1.48.219-1.2-.33-1.906-.246-.324.275-.918-2.24-1.156-13.116-1.16-6.738,3.855-6.971,6.008-.2,1.832-1.492,2.207-.793,5.031A5.234,5.234,0,0,0,16393.773,22152.086Z" transform="translate(-16385.498 -22137.938)"/></g></g></svg>