<svg xmlns="http://www.w3.org/2000/svg" width="39.853" height="39.785" viewBox="0 0 39.853 39.785"><defs><style>.a{fill-rule:evenodd;}</style></defs><path class="a" d="M7123.22,3914.6c3.867-4.239,5.992-6.34,7.8-14.018,6.71-.486,13.708,1.64,16.771,5.479Zm-11.2,3.755,12.228-35.842c5.038,4.387,7.175,14.425,4.086,22.4C7125.815,3911.439,7119.957,3916.6,7112.022,3918.356Zm19.166-19.246.151-3.244c3.055-.369,4.945.606,5.162,3.37-3.854-.278-2.58.069-3.415-1.981a1.584,1.584,0,0,0-.131-.273C7131.27,3897.558,7132.809,3897.938,7131.188,3899.111Zm-3.36-14.674c4.768-.138,6.409,4.227,3.166,7.077-.154-.181-1.189.35-.008-2.392-2.153-2.393-1-.779-1.562-2.363-.368-1.022-.119-.55-.739-1.208l-.425-.36C7127.5,3884.3,7128.356,3885.345,7127.828,3884.437Zm-1.824-2.38c1.116-.473,3.556.23,5.089.689,4.471,1.333,3.178,2.063,4.417.715-.907-2.21-9.219-3.2-12.05-3.03-1.6,6.167-4.7,13.6-6.786,19.893-1.3,3.908-6.383,16.82-6.526,19.874,3.622-.087,32.311-11.411,39.8-13.28.08-1.757.177-3.245-.5-4.6-1.335.535-.375-.06-.921.938a5.215,5.215,0,0,0-.164.564l-.091.531a24.212,24.212,0,0,0-10.062-4.8c-1.461-4.6-2.059-4.792-7.1-5.263.066-1.555-.018-.979,1.081-2a5.307,5.307,0,0,0-1.683-8.982c-3.253-.983-2.7,1.07-4.5-1.248Z" transform="translate(-7110.148 -3880.412)"/><path class="a" d="M7557.911,3913.747c2.224-.238,2.129.119,3.409,1.332,1.307,1.248,2.026.9,1.722,3.386C7554.055,3923.679,7556.137,3916.562,7557.911,3913.747Zm6.366,5.072c1.735-3.45-6.759-10.413-8.443-3.727-.661,2.621-1.81,6.667,1.727,6.6C7559.664,3921.648,7563.619,3920.129,7564.277,3918.82Z" transform="translate(-7530.062 -3910.5)"/><path class="a" d="M7608.983,4093.981c.716,1.616.279,2.756-1.693,2.062C7606.417,4094.661,7606.726,4093.68,7608.983,4093.981Zm-3.4,1.885c.7,3.107,5.95,2.044,5.066-1.5C7609.915,4091.395,7604.658,4091.772,7605.581,4095.867Z" transform="translate(-7577.584 -4080.482)"/><path class="a" d="M7715.352,4167.919c-.5.28.614.218-.9.344-1.657.138-.493-.093-.922-.307C7712.206,4164.946,7716.666,4165.081,7715.352,4167.919Zm-3.552-.492c.282,3.379,5.792,3.061,5.222-.778C7716.541,4163.409,7711.511,4163.973,7711.8,4167.427Z" transform="translate(-7677.914 -4148.507)"/><path class="a" d="M7706.306,4062.2a15.7,15.7,0,0,0-1.745-2.221l-.912.476a22.519,22.519,0,0,0,2.653,4.225c1.315-.747.946-1.052,0-2.48Z" transform="translate(-7670.23 -4049.869)"/><path class="a" d="M7604.8,3950.616v.891l1.376,0,0-1.361C7603.8,3950.157,7605.45,3950.165,7604.8,3950.616Z" transform="translate(-7576.947 -3946.224)"/><path class="a" d="M7652.429,3998.642l1.337,0c.03-2.282-.079-.781-.427-1.371C7652.155,3997.763,7652.663,3997.286,7652.429,3998.642Z" transform="translate(-7621.895 -3990.69)"/><path class="a" d="M7604.367,3998.639l1.348,0c-.215-2.427.505-.741-.907-1.373l-.358.581C7604.142,3999.251,7604.538,3997.231,7604.367,3998.639Z" transform="translate(-7576.505 -3990.692)"/></svg>