<svg xmlns="http://www.w3.org/2000/svg" width="39.95" height="39.95" viewBox="0 0 39.95 39.95"><defs><style>.a{fill-rule:evenodd;}</style></defs><path class="a" d="M1.326,20.287A18.248,18.248,0,0,1,3,12.205a14.738,14.738,0,0,1,.774-1.489,22.1,22.1,0,0,1,2.994-3.95L9.238,4.713A18.192,18.192,0,0,1,20.287,1.327a18.314,18.314,0,0,1,12.268,4.9c.231.23.391.305.628.542l2.054,2.471c.318.479.611.9.885,1.378a18.721,18.721,0,0,1,1.5,15.456,18.1,18.1,0,0,1-3.342,5.866l-1.095,1.246c-.227.227-.368.29-.589.5A18.611,18.611,0,0,1,13.878,37.62a18.1,18.1,0,0,1-5.866-3.342,7.729,7.729,0,0,1-.618-.552c-.231-.23-.391-.305-.628-.542s-.29-.368-.5-.589a7.3,7.3,0,0,1-.556-.614A18.2,18.2,0,0,1,3.02,27.8a18.549,18.549,0,0,1-1.694-7.513ZM18.9,0h2.154A20.242,20.242,0,0,1,24.86.576c.671.168,1.229.345,1.855.564A20.327,20.327,0,0,1,31.49,3.622a19.859,19.859,0,0,1,8.46,15.541V20.69a20.617,20.617,0,0,1-1.14,6.025,14.368,14.368,0,0,1-.706,1.713,19.891,19.891,0,0,1-9.727,9.7,18.958,18.958,0,0,1-8.1,1.82h-.611A18.984,18.984,0,0,1,11.521,38.1a19.89,19.89,0,0,1-9.7-9.727A19.639,19.639,0,0,1,0,19.429,19.74,19.74,0,0,1,3.622,8.46,20.211,20.211,0,0,1,18.9,0Z" transform="translate(0)"/><path class="a" d="M145.876,162.7c-.078-.506.866-2.291.994-2.986.268-1.462-.18-2.631.442-3.537.481-.7,1.487-1.162,2.218-2.7.8-1.672.388-1.989,2.231-2.763a6.016,6.016,0,0,0,2.484-1.5c2.2-2.229,1.422-1.063,4.5-1.5,1.032-.148,2.033-.935,2.982-.991.778-.046,2.148.822,2.971.972,1.462.268,2.631-.18,3.537.442,1.087.747.857,1.488,3.42,2.51a4.831,4.831,0,0,1,1.337.692,3.822,3.822,0,0,1,.7,1.248c.117.279.175.453.288.726.984,2.379,2.646,2.041,2.632,4.312-.022,3.82.971,3.259,1.07,4.932.046.778-.822,2.148-.972,2.971-.268,1.462.18,2.631-.442,3.537-.481.7-1.487,1.162-2.218,2.7-1.083,2.276-.29,1.947-2.957,3.051-2.379.984-2.041,2.646-4.312,2.632a12.992,12.992,0,0,0-1.95.079c-1.032.148-2.033.935-2.982.991-.74.044-2.167-.807-2.97-.973-1.406-.291-2.6.2-3.538-.442-1.087-.747-.857-1.488-3.421-2.51-1.743-.695-1.589-.879-2.328-2.666-.121-.293-.2-.392-.342-.672a14.916,14.916,0,0,0-1.879-2.1,2.111,2.111,0,0,1-.411-1.539,12.992,12.992,0,0,0-.079-1.95,6.045,6.045,0,0,0-.493-1.457c-.113-.253-.2-.462-.3-.718a3.49,3.49,0,0,1-.11-.358c-.017-.07-.113-.433-.113-.433Zm-1.326-.078c0,1.13.841,2.276,1.017,3.274.259,1.469-.212,2.6.525,3.766a19.673,19.673,0,0,0,1.8,1.949,1.08,1.08,0,0,1,.227.319c.359.663.735,1.8,1.021,2.256,1.062,1.678,2.3,1.251,3.888,2.511a10.244,10.244,0,0,0,1.683,1.594c1.158.77,2.26.293,3.746.546a7.243,7.243,0,0,1,1.614.571c2.8,1.12,3.012-.209,5-.56,1.709-.3,3.322.556,5.164-1.78a2.848,2.848,0,0,1,.871-.768c.489-.265.989-.445,1.515-.67a3.291,3.291,0,0,0,2.162-2.13c1.38-3.319,1.309-1.723,2.684-3.792.77-1.158.293-2.26.546-3.746.345-2.026,1.683-2.292.593-5.013a8.047,8.047,0,0,1-.582-1.6c-.3-1.709.556-3.322-1.78-5.164a1.924,1.924,0,0,1-.3-.245c-.1-.113-.133-.177-.24-.307a7.527,7.527,0,0,1-.9-1.835,4.187,4.187,0,0,0-.818-1.367c-.9-.9-2.138-.868-3.421-1.885a10.241,10.241,0,0,0-1.683-1.594c-1.159-.77-2.26-.293-3.746-.546-2.026-.345-2.292-1.683-5.013-.593a8.045,8.045,0,0,1-1.6.582c-1.709.3-3.322-.556-5.164,1.78a1.923,1.923,0,0,1-.245.3c-.113.1-.177.133-.307.24a1.078,1.078,0,0,1-.319.227c-.663.359-1.8.735-2.256,1.021a3.221,3.221,0,0,0-1.421,1.778,6.816,6.816,0,0,1-1.09,2.109,10.481,10.481,0,0,0-1.595,1.682c-.769,1.16-.292,2.26-.545,3.746-.186,1.091-1.028,2.2-1.028,3.342Z" transform="translate(-141.819 -142.642)"/><path class="a" d="M1316.081,732.346a1.4,1.4,0,0,1,.512,2.7,1.367,1.367,0,0,1-1.511-.372,1.387,1.387,0,0,1,1-2.325Zm-2.731,1.326a2.755,2.755,0,1,0,.76-1.815A3.087,3.087,0,0,0,1313.35,733.673Z" transform="translate(-1288.537 -717.209)"/><path class="a" d="M548.142,1061.429a1.386,1.386,0,1,1,2.731,0,1.321,1.321,0,0,1-1.17,1.17h-.39A1.346,1.346,0,0,1,548.142,1061.429Zm1.17,2.5a2.609,2.609,0,0,0,2.276-.923,2.753,2.753,0,1,0-2.276.923Z" transform="translate(-536.438 -1038.489)"/><path class="a" d="M1097.191,1388.859a1.505,1.505,0,0,1,.96.367,1.424,1.424,0,0,1,0,2.075,1.409,1.409,0,0,1-2.348-1.037,1.439,1.439,0,0,1,1.388-1.4Zm-2.731,1.4a2.742,2.742,0,0,0,4.624,1.972,2.706,2.706,0,0,0,.078-3.866,1.845,1.845,0,0,0-.721-.527A2.731,2.731,0,0,0,1094.46,1390.264Z" transform="translate(-1073.783 -1361.316)"/><path class="a" d="M696.581,478.463a1.4,1.4,0,0,1,0-2.809A1.4,1.4,0,0,1,696.581,478.463Zm-2.731-1.639a2.73,2.73,0,0,0,4.269,2.475l.7-.7a2.732,2.732,0,1,0-4.972-1.772Z" transform="translate(-680.741 -465.354)"/><path class="a" d="M1132.956,440.139a.709.709,0,1,1,1.4.156C1134.361,441.005,1132.956,441.085,1132.956,440.139Zm-1.326-.078a2.006,2.006,0,0,0,2.263,2.107,1.973,1.973,0,0,0,1.795-1.795v-.468c0-1.873-3.033-2.562-3.849-.65A2.212,2.212,0,0,0,1131.63,440.061Z" transform="translate(-1110.25 -429.84)"/><path class="a" d="M988.406,1024.21a.7.7,0,1,1,1.4,0C989.811,1025.036,988.406,1025.166,988.406,1024.21Zm-1.326-.234v.39a2.034,2.034,0,1,0,0-.39Z" transform="translate(-968.431 -1002.831)"/><path class="a" d="M439.1,732.742a.7.7,0,0,1,1.4,0A.7.7,0,0,1,439.1,732.742Zm-1.327-.156a2.032,2.032,0,1,0,4.057.234,1.867,1.867,0,0,0-.612-1.573,2.063,2.063,0,0,0-3.445,1.338Z" transform="translate(-429.499 -716.903)"/><path class="a" d="M1464.215,1134.249c-1.6,0-.666-2.014.281-1.217A.705.705,0,0,1,1464.215,1134.249Zm-2.185-.78a2.03,2.03,0,1,0,4.057.078,1.848,1.848,0,0,0-.563-1.388A2.019,2.019,0,0,0,1462.03,1133.469Z" transform="translate(-1434.408 -1110.139)"/><path class="a" d="M733.049,1464.016a.7.7,0,0,1,0-1.4A.7.7,0,0,1,733.049,1464.016Zm-2.029-.781a2.009,2.009,0,0,0,2.185,2.107,2.04,2.04,0,0,0,1.282-3.466,2.1,2.1,0,0,0-2.4-.385A1.965,1.965,0,0,0,731.02,1463.235Z" transform="translate(-717.209 -1433.663)"/><path class="a" d="M875.57,840.3c0,.451.494.64.832.806a4.451,4.451,0,0,0,1.2.52.723.723,0,0,0,.7-.624c0-.609-.872-.863-1.326-1.093a1.679,1.679,0,0,0-.833-.284A.692.692,0,0,0,875.57,840.3Z" transform="translate(-859.028 -823.755)"/><path class="a" d="M1643.75,951.246a.642.642,0,0,0,.739.661,4.792,4.792,0,0,0,1.082-.478c1.632-.807.612-1.509.208-1.509a4.076,4.076,0,0,0-1.144.494C1644.238,950.612,1643.75,950.716,1643.75,951.246Z" transform="translate(-1612.695 -931.973)"/><path class="a" d="M1424.86,475.333c0,.422.353.753.724,1.071.316.272.721.457,1.082.11.958-.918-1.806-2.788-1.806-1.181Z" transform="translate(-1397.941 -465.736)"/><path class="a" d="M1280.074,1133.658a.658.658,0,0,0,.7-.7,2.1,2.1,0,0,0-1.326-1.326.671.671,0,0,0-.492,1.114C1279.131,1132.954,1279.8,1133.658,1280.074,1133.658Z" transform="translate(-1254.637 -1110.25)"/><path class="a" d="M365.118,1060.37c.568,0,.583-.153.956-.526.218-.219.527-.411.527-.8a.676.676,0,0,0-.633-.682c-.438-.021-1.324.969-1.369,1.255-.047.3.229.753.519.753Z" transform="translate(-357.705 -1038.366)"/><path class="a" d="M1094.46,731.7a.732.732,0,0,0,.418.6c.538.238.777-.208,1.2-.623.26-.254.658-.646.226-1.125C1095.646,729.822,1094.46,731.352,1094.46,731.7Z" transform="translate(-1073.783 -716.559)"/><path class="a" d="M912.74,1279.6a2.1,2.1,0,0,0,1.326,1.326.535.535,0,0,0,.505-.2c.359-.39.154-.753-.132-1.035-.176-.174-.369-.4-.549-.544C913.435,1278.78,912.74,1278.932,912.74,1279.6Z" transform="translate(-895.496 -1254.791)"/><path class="a" d="M512.13,1425.484c0,.61,1.188,1.8,1.806,1.182a.719.719,0,0,0,.176-.525c-.038-.333-.876-1.281-1.358-1.281A.587.587,0,0,0,512.13,1425.484Z" transform="translate(-502.454 -1397.941)"/><path class="a" d="M1462.03,1426.031c0,.424.161.941.749.827.266-.052,1.245-.87,1.237-1.363a.627.627,0,0,0-.659-.634C1462.895,1424.86,1462.03,1425.874,1462.03,1426.031Z" transform="translate(-1434.408 -1397.941)"/><path class="a" d="M949.91,328.761a2.1,2.1,0,0,0,1.326,1.326.65.65,0,0,0,.671-.749c-.057-.293-.387-.567-.572-.754-1.036-1.046-1.425-.147-1.425.176Z" transform="translate(-931.964 -321.895)"/><path class="a" d="M987.08,1643.927v.858c0,.469,1.326,1.15,1.326-.624C988.406,1643,987.08,1643.087,987.08,1643.927Z" transform="translate(-968.431 -1612.248)"/><path class="a" d="M1168.8,913.7a.668.668,0,1,0,1.327.156C1170.126,912.91,1168.8,913,1168.8,913.7Z" transform="translate(-1146.718 -895.909)"/><path class="a" d="M1569.41,658.437a.668.668,0,1,0,1.327-.156C1570.736,657.615,1569.41,657.493,1569.41,658.437Z" transform="translate(-1539.76 -645.328)"/><path class="a" d="M731.02,950.534a.714.714,0,0,0,.546.7.666.666,0,1,0,.078-1.326A.587.587,0,0,0,731.02,950.534Z" transform="translate(-717.209 -931.964)"/><path class="a" d="M1131.63,1718.29a.663.663,0,0,0,1.326,0A.663.663,0,0,0,1131.63,1718.29Z" transform="translate(-1110.25 -1685.206)"/><path class="a" d="M437.78,1243.34a.663.663,0,0,0,1.327,0A.663.663,0,0,0,437.78,1243.34Z" transform="translate(-429.509 -1219.23)"/><path class="a" d="M1131.63,1279.346a.664.664,0,0,0,1.326,0A.664.664,0,0,0,1131.63,1279.346Z" transform="translate(-1110.25 -1254.533)"/><path class="a" d="M548.167,547.994c1.521,0,.552-1.933-.3-1.081A.632.632,0,0,0,548.167,547.994Z" transform="translate(-537.321 -536.368)"/></svg>