<svg xmlns="http://www.w3.org/2000/svg" width="52.449" height="58.383" viewBox="0 0 52.449 58.383"><defs><style>.a{fill-rule:evenodd;}</style></defs><path class="a" d="M14685.155,3586.114c-2.263,0-2.473.093-2.163-1.742l2.163-.16,5.831,0,2.079.033,1.1,1.773-1.716.1Zm10.512-1.907,3.139.042c-.663,1.5-.074.765-1.653,2.046Zm.671-5.527c1.82.73,2.634,1.7,4.79,1.213,2.433-.552,1.189-1.666,4.712-.753-.079,2.458-1.672,3.094-4.154,3.094H14687.1c-2.306,0-4.114-.337-4.161-2.588,2.6.764,3.362-.24,5.614-.963C14693.825,3580.782,14691.343,3580.269,14696.338,3578.68Zm.769-2.231,6.205.228-3.142,1.5Zm-7.776,0,6.214.23-3.153,1.491Zm-1.613.1a6.124,6.124,0,0,1-3.071,1.338,2.377,2.377,0,0,1-2.471-1.421l2.01-.024,1.458-.019,2.074.127Zm30.987-8.28c2.229.166,1.834-.909,1.5,4.816-.2,3.4.684,3.588-2.157,4.113Zm-11.271-4.108c1.909.512,1.664.405,2.335,2.3,1.379,3.881,2.159,5.158,2.2,9.485-2.764-1.1-1.907-2.191-3.313-5.455C14707.627,3568.122,14706.993,3566.657,14707.434,3564.16Zm5.467-3.34a15.331,15.331,0,0,0,1.912-2.017c.82.644,1.021.87,1.879,1.475a89.389,89.389,0,0,1-.71,16.889c-1.942.025-1.887-.66-2.051-2.592Zm-8.857,4.959c-2.194-.538-1.791-.019-2.4-1.982C14703.88,3563.907,14703.547,3563.717,14704.043,3565.78Zm18.114,9.682c-.019-1.966.528-6.117.283-7.637-.374-2.288-.791.125-.567-2.8.067-.97.308-2.346.482-3.555l2.826.82C14724.845,3565.283,14723.72,3574.016,14722.157,3575.461Zm-18.529-23.3c2.013,0,2.194-.075,2.275,1.885l-17.327.009c-.062-2.28.2-1.895,2.417-1.895Zm1.076-13.992.815,1.544-7.268,4.644-.1,5.765-1.822.055-.049-1.887-.024-2.917.182-1.888Zm-10.451,11.928c-4.771.313-7.335-1.177-7.766,3.9a14.661,14.661,0,0,0-2.7.21c-3.786,1.06-2.049,7.978-1.287,10.679,2.773-.544,1.588-1.992,1.311-4.855,5.747-.538,8.954,1.035,8.278-1.612l-.7-.325c-1.6-.312.735,0-.859-.149-.6-.054-1.8.009-2.457.013-1.457.011-2.912,0-4.358,0,.063-2.325-.03-1.917,2.412-1.917h22.366c2.1,0,2.182-.137,2.278,1.826-2.849.219-5.741.094-8.605.094-6.964,0-7.332-.861-7.812,1.69l16.719.291-.242,3.338a7.862,7.862,0,0,0-4.286-1.308l-.923,1.357-.938-1.414-5.244.1.143,2.712c-4.157.086-16.608-1.236-16.224,3.344,1.692.157,4.042-1.34,7.624-1.34,6.459,0,16-1.138,16.7,7.726l-26.78,0c.246-2.466,1.385-3.193,1.117-5.04-1.867-.243-1.637.014-2.442,2-2.183,5.412.542,4.291,1.092,7.086a15.591,15.591,0,0,0,1.075,4.31c-1.024,1.295-.956,1.2-1.045,3.293l-1.855.413c-.534,5.327,1.527,7.417,6.308,7.417,1.949,0,2.415.114,2.112-1.513-1.968-.983-3.076-.1-4.7-.723-1.563-.607-1.735-1.78-1.821-3.59l13.188-.028c2.233.065,1.907.442,3.373.946,2.123-1.267,3.563-5.939,7.279-4.751,1.22.391,2.06,1.19.407,1.714-.7.225-.859.027-1.351.138a1.58,1.58,0,0,0-1.486.707c-.656,1.925,3.624,1.194,5.745,1.383l-.57,3.111c-3.722,1.176-15.623-.192-17.746,1.208l-.1,1.116c4.672.649,9.432.294,14.14.283,5.377,0,6.325-2.05,6.236-7.31-.693-.39-1.206-.517-1.917-.9-.162-2.1-.148-1.75-1.2-3.041,1.741-2.8.328-2.179,2.151-6.114,2.91,1.481,8.906,5.6,14.907.168,1.957-1.772,1.342-1.543,2.674-4.027l2.594-.184-1.078,7.936c-.126,1.438-.168,1.855.577,2.36,2.036,1.385,3.011-13.5,2.065-11.92l-1.689-.361c-.867-.048-2.149.034-3.067.034.212-3.1.8-7.927,2.059-10.257,1.578,1.869,1.306,1.737.626,4.664-.633,2.708-1.236,3.14,1.014,3.69.636-1.275,1.932-5.237,1.543-7.106a26.144,26.144,0,0,0-1.539-2.771c-.307-.528-.577-1.049-.892-1.516-.708-1.042-.275-.623-1.239-1.235-1.676.9-1.378,2.464-1.939,4.278-1.837-.529-2.634-1.371-4.691-1.164-.681,2.209-.3,5.256-1.514,6.95-.543-2.367-1.055-7.127-.564-9.437,2.522.2,2.679,1.815,4.7.827-.385-2.407-3.552-3.323-6.2-2.344l-.853,1.831-1.494-1.049a6,6,0,0,0-1.981,1.542c-.553-3.107-1.614-3.409-4.9-3.422-.436-4.873-2.561-3.791-7.791-3.9-.229-5.2-.491-4.205,3.656-6.971,1.642-1.094,3-1.735,4.1-3.159a7.992,7.992,0,0,0-2.891-4.362c-1.953.516-5.989,3.569-7.84,4.793C14693.059,3543.221,14694.466,3544.314,14694.253,3550.092Z" transform="translate(-14678.746 -3535.659)"/><path class="a" d="M15339.883,4538.667l-12.583-.016c-2.711-.009-2.562-.431-2.943,1.748,4.979.643,10.129.274,15.149.264,2.832,0,2.336-.741,2.676-3.485.216-1.72.817-3.647.212-5.2-1.858.055-1.522-.319-1.861,2.407C15340.33,4535.909,15340.165,4537.206,15339.883,4538.667Z" transform="translate(-15292.224 -4482.393)"/><path class="a" d="M15369.748,4472.947c1.854,2.5.085,4.6-2.828,2.708l.318-2.614Zm-4.673,3.314c3.828,4.515,8.65,1.391,7.405-2.715C15371.349,4469.781,15364.232,4468.982,15365.075,4476.261Z" transform="translate(-15330.853 -4424.191)"/><path class="a" d="M14875.075,4241.059c1.3.278,1.539.159,1.227-1.222-1.326-.655-1.378-.208-1.411-.2C14874.6,4241.019,14874.439,4240.1,14875.075,4241.059Z" transform="translate(-14864.89 -4204.451)"/><path class="a" d="M15089.747,4202.049c1.33.25,1.558.112,1.23-1.219-1.274-.667-1.333-.232-1.4-.223C15089.281,4201.978,15089.112,4201.048,15089.747,4202.049Z" transform="translate(-15068.879 -4167.373)"/><path class="a" d="M15167.9,4242.441c1.308.242,1.535.106,1.228-1.217-.938-.5-1.366-.237-1.408-.233C15167.432,4242.383,15167.257,4241.443,15167.9,4242.441Z" transform="translate(-15143.137 -4205.815)"/><path class="a" d="M14796.963,4222.746c1.4.288,1.528.075,1.229-1.233l-1.411-.283C14796.481,4222.722,14796.332,4221.786,14796.963,4222.746Z" transform="translate(-14790.661 -4187.108)"/><path class="a" d="M15015.193,4224.374c1.568.229,1.771.094,1.465-1.227l-1.406-.227-.062,1.454Z" transform="translate(-14998.446 -4188.713)"/><path class="a" d="M14936.9,4204.936c1.588.267,1.8.123,1.48-1.23-.1-.054-.254-.287-.3-.175Z" transform="translate(-14924.05 -4170.261)"/></svg>