<svg xmlns="http://www.w3.org/2000/svg" width="60.313" height="59.929" viewBox="0 0 60.313 59.929"><defs><style>.a{fill-rule:evenodd;}</style></defs><g transform="translate(-0.001)"><path class="a" d="M42796.289,7267c-.922-2.95-1.18-3.646.766-5.882,4.539-.7,5.8.614,5.133,5.14C42799.945,7268.148,42799.234,7267.93,42796.289,7267Zm-34.2-4.28c2.414-2.756,4.43-2.235,6.734.1C42769.117,7269.764,42761.766,7269.285,42762.094,7262.715Zm-3.883-19.707,48.18.073.125,15.487c.055,2.992.32,2.78-.555,4.412-1.328-.549-.844-.329-1.687-1.457-1.156-1.527-2.055-3.193-5.2-3.208-4.992-.031-4.891,4.22-6.914,4.714l-20.891-.006c-.828-2.909-2.531-5.143-6.687-4.638-5.391.658-2.43,3.6-6.586,4.642l.219-20.015Zm-1.164-2.464c-3.422,0-1.734-.16-2.5-.8.984-1.645-1.914-1.354,2.438-1.631l52.984.076v2.356h-52.922Zm-4.9,1.875,3.3.787c.313,5.554-.672,17.634.516,22.069l3.68.259a5.935,5.935,0,0,0,5.531,4.65c4.023.162,5.273-1.933,6.148-4.7l20.836-.007c2.773,1.37,2.063,4.279,6.281,4.676,3.641.344,5.547-1.813,6.43-4.561.227-.019,1.719-.069,1.781-.08,2.063-.362-.758.33,1.063-.228,3.133-.967.742-17.233,1.43-22.271,2.367-.064,1.453.32,3.133-.762l.188-6.258c-5.383-.689-57.148-.771-60.172.248Z" transform="translate(-42752.148 -7210.265)"/><path class="a" d="M42941.809,6863.775c2.121-16.331,24.8-16.265,26.723,0Zm11.578-18.3c4.961-.453,4.191,3.989-.535,3.266Zm-2.562,4.252c-6.309,1.758-10.488,6.464-11.531,13.731-2.8.689-2.293-.038-2.852,1.992,1.586,1.1.793.81,3.113.81,7.777,0,27.793.381,34.246-.307.012-2.448-.332-2-2.766-2.35-.961-7.374-5.449-12.439-12.129-13.991l.047-4.3-2.355-2.343C42951.129,6842.324,42949.508,6844.82,42950.824,6849.729Z" transform="translate(-42924.605 -6842.873)"/></g></svg>