<svg xmlns="http://www.w3.org/2000/svg" width="55.732" height="55.135" viewBox="0 0 55.732 55.135"><defs><style>.a{fill-rule:evenodd;}</style></defs><path class="a" d="M4.043,639.678a10.241,10.241,0,0,1,.238-3.354,2.578,2.578,0,0,1,1.954-1.575c0,1.354.4,4.6-2.192,4.929Zm8.643-2.9c-2.552,0-4.332.119-5.008-2.155C10.212,634.341,12.141,634.623,12.686,636.777Zm-6.752-7.563.057,3.515C4.6,632.323,2,629.641,1.911,627.8c2.068,1.144,3.875.923,4.023,1.413Zm.605-1.516a10.133,10.133,0,0,1-4.65-1.457c-.655-.384-.572-.534-.528-1.452a8.514,8.514,0,0,1,2.5-5.623,6.052,6.052,0,0,1,.889,1.53,11.419,11.419,0,0,0,3.311,3.668c-.249.571-.614.829-.944,1.513a11.03,11.03,0,0,0-.579,1.821ZM4.873,617.586a8.933,8.933,0,0,1,4.981-2.127,11.352,11.352,0,0,0,1.528,3.975,16.42,16.42,0,0,0,2.344,3c-3.692.5-2.355.651-4.08,1.4-1.727-.683-4.319-3.99-4.772-6.248Zm11.876,5.151c-1.077-.057-2.6-1.789-3.15-2.438-.356-.422-3.681-5.32-1.81-5.543l14.191,0A7.337,7.337,0,0,1,21.733,622,10.069,10.069,0,0,1,16.749,622.737Zm11.937-16.185c0,2.31-.527,5.161-2.1,6.613-.475.438-1.919.226-2.725.226-1.654,0-12.223-.215-12.972.169-.63.323-.23.392-.976.5-2.054.3-5.752,1.4-6.346,3.175-.336,1-.3.474-.988,1.291A9.691,9.691,0,0,0-.01,625.861c0,.645.034.2.135.536.414,1.39.261,2.307,1.445,4.187.532.845,2.264,2.826,3.248,3.055-.32.478-.819.531-1.453,1.5-.949,1.444-.692,3.239-.692,5.208,0,1.713,2.879.417,3.726-.43a4.239,4.239,0,0,0,1.235-2.788c2.051,1.374,2.729,1.073,5.632,1.073,1.95,0,.529-3.293-.96-4.27-1.4-.92-2.617-.692-4.806-.692a6.981,6.981,0,0,1-.134-1.877,8.018,8.018,0,0,0,3.621,1.073c.829,0,1.292-1.349-.136-1.473-1.079-.094-3.484-.606-3.484-1.879,0-.481.639-.449.671-1.877H8.3c.405,1.518,3.942,4.383,4.467,2.608.26-.881-.807-.722-1.619-1.3-1-.709-2.241-2.72-2.043-3.052.411-.692.282.218,1.609-.671.237.495.348.966.624,1.521,1.076,2.161,4.069,4.4,4.069,2.368,0-.475-.622-.7-.966-.911a5.565,5.565,0,0,1-2.386-3.648c.315-.151.489-.117.8-.268a6.417,6.417,0,0,0,3.216,3.626c1.411.684,2.041-.625.721-1.261a5.144,5.144,0,0,1-2.462-2.365c2.044,0,1.218.268,2.011.268,3.224,0,5.783.025,8.283-2.444a8.269,8.269,0,0,0,1.775-2.381,7.83,7.83,0,0,0,.937-4.561,5.3,5.3,0,0,0,3.7-2.065,7.085,7.085,0,0,0,1.011-1.939c.471-1.4,1.048-3.1-.287-3.1-.577,0-.623.719-.728,1.283-.276,1.479-.9,3.522-2.49,3.946,1.407-2.1,1.475-3.471,1.475-6.034,0-.437-.381-.517-.671-.671a6.031,6.031,0,0,0-.671.4Z" transform="translate(0.01 -586.049)"/><path class="a" d="M724.274,28.611a2.574,2.574,0,0,1,1.953,1.574,10.217,10.217,0,0,1,.24,3.355c-2.6-.333-2.193-3.581-2.193-4.928Zm-6.451,2.026c.544-2.16,2.474-2.431,5.008-2.156C722.149,30.756,720.38,30.637,717.822,30.637Zm6.7-4.047c.069-4.777-.457-3.408,2.139-4.161a10.541,10.541,0,0,0,1.94-.768c-.092,1.857-2.686,4.5-4.079,4.928Zm-2.07-8.365c2.057-.946,3.953-4.987,4.2-5.2a8.41,8.41,0,0,1,2.479,6.686c-.96.959-3.346,1.7-5.155,1.845a9.828,9.828,0,0,0-1.523-3.334Zm-1.584-.531c-1.738-.754-.392-.9-4.079-1.4a15.357,15.357,0,0,0,3.242-4.781c.319-.725.431-1.468.7-2.142a8.408,8.408,0,0,1,4.907,2.076c-.437,2.245-3.067,5.581-4.773,6.249ZM704.529,8.618l14.19,0c1.872.223-1.454,5.119-1.811,5.542-.546.649-2.07,2.382-3.149,2.438-3.468.18-6.14-.571-8.066-3.431a6.953,6.953,0,0,1-1.164-4.548ZM700.481.68c0,2.563.068,3.933,1.475,6.034-1.528-.408-2.2-2.392-2.469-3.833-.211-1.122-.174-1.4-1.017-1.4-1.058,0-.227,2.432-.051,3,.666,2.141,2.561,4.058,4.744,4.106a7.841,7.841,0,0,0,.892,4.471,8.841,8.841,0,0,0,7.824,4.915h2.279c.808,0-.051-.268,2.011-.268a5.021,5.021,0,0,1-2.462,2.365c-1.314.633-.7,1.9.628,1.306a6.418,6.418,0,0,0,3.31-3.67c.315.151.489.117.8.268a5.667,5.667,0,0,1-2.3,3.6c-.766.487-1.05.4-1.05,1.23,0,1.38,3.124-.127,4.37-3.273.143-.361.179-.584.323-.884.333.223.282.274.71.363.522.109,1.043-.1.91.505a5.757,5.757,0,0,1-2.573,3.139c-.551.209-1.212.243-1.119.927.194,1.415,2.4.118,3.152-.637a6.383,6.383,0,0,0,1.334-1.884h.268a3.4,3.4,0,0,0,.189,1.017c.251.627.481.361.481.994,0,.722-1.768,1.472-2.513,1.644-.52.12-1.332,0-1.678.345a.639.639,0,0,0-.159.737c.56,1.415,4.254-.554,4.35-.579a7,7,0,0,1-.134,1.877c-2.1,0-3.352-.223-4.724.639-1.614,1.014-2.992,4.322-1.042,4.322,2.9,0,3.581.3,5.632-1.073a4.179,4.179,0,0,0,4.425,4.023c.844,0,.536-2.327.536-3.755,0-2.4-1.841-3.3-2.146-3.755.984-.229,2.715-2.21,3.247-3.055,1.173-1.863,1.031-2.771,1.412-4.087.247-.852.168-.3.168-1.709a9.735,9.735,0,0,0-2.587-6.263c-.394-.47-.691-.507-.895-.983-.005-.013-.084-.281-.093-.309-.505-1.51-3.636-2.689-5.283-3.031-.35-.073-.992-.1-1.293-.182-.856-.239.066-.641-2.454-.63-3.977.017-7.957,0-11.935,0-1.758,0-1.854.376-2.96-1.465a6.613,6.613,0,0,1-.549-1.06c-1.225-3.076.314-3.853-1.318-4.716-.29.154-.67.234-.67.671Z" transform="translate(-674.796 -0.01)"/><path class="a" d="M1067.971,295.064c-1.587-.113-1.13,1.4-.518,1.53a.676.676,0,0,0,.8-.524A1.166,1.166,0,0,0,1067.971,295.064Z" transform="translate(-1031.507 -285.273)"/><path class="a" d="M573.362,900.043l-.879-.153C571.318,901.776,574.114,902.213,573.362,900.043Z" transform="translate(-553.22 -870.048)"/></svg>