<svg xmlns="http://www.w3.org/2000/svg" width="41" height="53.796" viewBox="0 0 41 53.796"><defs><style>.a{fill-rule:evenodd;}</style></defs><path class="a" d="M16371.705,11641.653c6.7,0,22.846-.329,28.5.276-1.193,2.881-3.729.326-6.3,1.806-1.709.986-1.43,2.673-4.217,3.595-4.168-1.6-1.791-5.1-9.042-3.838.8,2.122-.761.7,1.654,1.411,1.372.4.8-.5,2.517.546,1.123.688,1.678,2.405,3.242,3.118,4.3,1.962,4.285-3.645,7.982-3.645h3.7c6.848,0,3.443,8.185-3.174,8.185h-23.739c-4.918,0-7.482-2.866-6.549-7.5,2.914-1.139,5.634-.6,9.154-.643,2.244-.025,2.045.111,3.286-.71-1.061-1.515-2.117-1.011-4.362-.963-2.019.042-3.879.3-5.157-.526C16369.94,11641.262,16368.9,11641.653,16371.705,11641.653Zm12.973-6.509c3.6-.021,12.313-.488,15,.7,1.119,3.053.2,4.18-3.1,4.18H16373.3c-4.356,0-4.936-1.766-3.008-4.648l3.008-.248C16376.871,11634.793,16378.109,11644.247,16384.678,11635.145Zm5.578-4.114c-.662-.68.262-.214-.875-.641l-3.908-.173c-1.941.02-3.886.006-5.834.006-2.354,0-9.875.309-11.656-.1-4.378-1-1.6-10.379,5.216-13.478,3.4-1.547,17.78-1.716,21.47-.647,5.127,1.485,10.049,7.049,8.354,13.6-2.426.92-9.2-.286-10.814,1.43,1.98,2.187,5.566-.489,7.938,1.588-1.594,2.033-13.842.177-15.734,1.015-2.83,1.235-2.753,7.916-8.751-.069-2.619-.1-5.258.5-6.405-.945,1.537-1.378,13.063-.8,16.76-.75C16389.836,11631.917,16389.3,11632.09,16390.256,11631.03Zm-4.686-26.916,8.076-.017.047,4.925c-2.381.058-1.588-.4-2.715.846,1.332,1.24,2.537.979,4.34.272l-.283-7.065a2.057,2.057,0,0,0-.367-.2l-1.27-.4c-.189-.024-1.312-.047-1.559-.047-11.928-.086-2.613-1.325-7.889-1.323l-.262,12.784c-8.835.087-13.5.841-17.039,6.27-1.388,2.126-3.123,5.882-2.094,9.032.589,1.784,1.28,1.423,2.328,2.463a4.178,4.178,0,0,1,1.144,4.169c-.835,3.632.013,1.884.235,4.319.392,4.326-7.051,4.841-2.736,11.333,3.114,4.676,12.417,3.207,19.406,3.207,7.223,0,16.008,1.519,19.1-3.51,3.277-5.329-1.5-7.517-1.779-7.858-.293-.356-.084.063-.578-1.044-1.719-3.8.734-.688-.418-6.843-.691-3.724,3.242-4,3.758-7.1.457-2.8-1.121-6.833-2.445-8.6-4.08-5.43-8.57-5.609-16.967-5.867l.02-2.938c2.018-.781,1.693.479,3.408-1.06-1.156-1.321-1.051-.778-3.525-.933Z" transform="translate(-16364.178 -11601.109)"/><path class="a" d="M16973.732,12151.038c.125-.135.836.187.8-1.459-.033-3.053-.139-.927-.8-1.74C16972.086,12149.252,16972.623,12150.149,16973.732,12151.038Z" transform="translate(-16946.641 -12124.429)"/><path class="a" d="M16973.758,11999.878c.527-.7.961,1.26.793-1.837-.09-1.545-.35-.9-.793-1.362C16972.6,11997.643,16972.152,11998.4,16973.758,11999.878Z" transform="translate(-16946.666 -11979.742)"/><path class="a" d="M16821.7,12073.737c.971-1.077.533.934.693-1.368.145-2.169-.121-1.214-.648-1.848C16820.266,12071.412,16820.271,12072.79,16821.7,12073.737Z" transform="translate(-16801.088 -12050.424)"/><path class="a" d="M16672.436,12152.294c1.178-.8,1.7-1.849,0-3.1-.34.462-.807-.917-.7,1.686C16671.807,12152.462,16672.156,12151.965,16672.436,12152.294Z" transform="translate(-16658.555 -12125.723)"/><path class="a" d="M16516.238,12074.888c.867-1.239.625,1.4.7-1.308.078-3.192-.057-.875-.7-1.8C16514.832,12073,16514.809,12073.674,16516.238,12074.888Z" transform="translate(-16508.707 -12051.625)"/><path class="a" d="M16672.881,12000.4c1.5-1.178,1.434-1.91,0-3.1-.875,1.334-.607-1.449-.668,1.336C16672.139,12001.654,16672.311,11999.588,16672.881,12000.4Z" transform="translate(-16659.004 -11980.333)"/><path class="a" d="M17130.7,12075.108c1.52-1.141,1.49-1.943,0-3.088-.82,1.279-.578-1.385-.637,1.32C17129.992,12076.311,17130.168,12074.3,17130.7,12075.108Z" transform="translate(-17097.262 -12051.856)"/></svg>