<svg xmlns="http://www.w3.org/2000/svg" width="49.844" height="53.647" viewBox="0 0 49.844 53.647"><defs><style>.a{fill-rule:evenodd;}</style></defs><path class="a" d="M39199.316,2768.532V2741.41l1.8-1.239,2.484,1.531,1.891-.775c.5,4.808.027,11.533.094,16.579C39205.684,2768.445,39206.6,2768.686,39199.316,2768.532Zm-16.906-28.922c-.027-4.857,6.723-5.62,7.625-1.229l-2.156,1.265-2.777-1.514Zm-9.055-2.957c-1.777-4.474,3.547-9.911,7.348,1.256-1.031.593-1.1.289-1.934.706-.625.3-.969.667-1.762,1.022l-2.051-1.27c.746-1.151,1.176-1.176,2.039-1.776l-.957-1.44C39174.883,2735.84,39174.773,2736.288,39173.355,2736.653Zm10.816-8.281,7.941.01.02,9.236c-2.5-2.735-2.387-4.4-7.973-3.645Zm9.777,10.511.039-11.124,3.539-3.47,1.738,1.637c-.223,1.758-1.648,5.031-2.3,6.722C39196.211,2734.667,39195.684,2737.727,39193.949,2738.884Zm-8.2-12.405c1.359-2.417,2.449-2.665,6.3-2.634l3.094.1c-1.566,2.027-1.844,2.608-5.535,2.6l-2.469.018Zm18.207,13.12c-1.348-.334-1.461-.826-2.8-1.383l-2.738,1.524a7.716,7.716,0,0,1-1.711-1.147l6.2-16.788c2.43-6.123,8.445-2.833,7.98,1.336a40.669,40.669,0,0,1-1.973,5.693c-.73,1.807-1.465,3.8-2.105,5.614C39205.555,2738.012,39205.656,2738.627,39203.961,2739.6Zm-28.48-17.193c.074-.038-.43-.7,1.07-.237,1.109.338,1.461,2.539,2.738,1.191,1.063-1.119-.281-2.933.863-4.713,2.91.171.121,3.791,1.762,4.97,1.871.56,1.035-1.934,3.762-1.376.387,1.862-.2,1.554-1.332,2.7-3.707,3.788-1.348,5.24-1.945,9.484-.223,1.481-.25.8-.484,1.194l-.82-1.107c-3.484-6.854-4.18-3.407-5.539-5.332-.832-1.173.289-1.648.512-1.677,1.461-.2.969.375,1.93-.448-.246-2.149-3.418-2.684-2.516-4.654Zm13.16-2.065,8.012.037-.121,1.712-7.844-.09Zm-10.77.23c-7.066-1.238-3.3,5.26-3.277,5.484l-.719.626c-1.1-.619-.5-.581-1.406-1.268l-1.219.746c.566,1.091,1.789,3.091,1.957,4.345-1.836-.807-2.012-1.925-3.543-2.867l-1.18,1.1a42.336,42.336,0,0,1,3.168,3.222c-1.969,6.219,1.832,4.54,1.8,9.441-.027,4.259-.016,8.518-.016,12.778l1.766-.054v-13.177l1.789.756,2.441-1.419c1.527.311,1.555.815,2.82,1.377,1.289-.367,1.5-.854,2.8-1.412,3.316,1.685,1.789,2.012,5.219-.046,1.582.534,1.359,1.032,2.82,1.47.168-.007,3.418-2.647,4.414-.211v27.017l-19.566.076.063,1.552c1.332.4,24.852.38,26.266-.045,3.9-1.191,3.039-5.686,3.066-10.107l-.055-20.3c-.039-3.474,3.8-10.409,5.129-15.323a5.853,5.853,0,0,0-5.668-7.583c-4.109.163-5.637,3.656-6.469,7.336l-1.863-1.5-.121-3.768c-1.945-.646-9.016-.407-11.223-.192l-.359,2.029-3.512-.255c-.047-1.934-.414-3.606-2.7-3.577C39178.285,2716.852,39178.051,2718.6,39177.871,2720.571Z" transform="translate(-39162.805 -2716.746)"/><path class="a" d="M39014.164,3730.836a10.629,10.629,0,0,1-2.527-8.077c.813-5.106,6.121-.75,6.148-.75,1.391-.542,1.68-1.976,3.813-1.68,4.8.664,1.555,9.677-.316,10.48-2.469.43-2.105-.625-3.484-.591C39016.445,3730.251,39016.836,3731.146,39014.164,3730.836Zm4.574-11.851c-.242-2.5-1.164-3.646-3.562-4.007-.027,3.717,1.473.269,1.715,4.026-9.656-2.521-7.336,8.975-4.73,12.192,2.227,2.74,3.281,1.032,5.637,1,2.121-.033,3.895,1.789,5.82-1.142C39025.973,3727.383,39028.77,3717.128,39018.738,3718.985Z" transform="translate(-39009.883 -3679.219)"/></svg>