<svg xmlns="http://www.w3.org/2000/svg" width="48.85" height="48.849" viewBox="0 0 48.85 48.849"><defs><style>.a{fill-rule:evenodd;}</style></defs><g transform="translate(0.001)"><path class="a" d="M28543.631,4444.234c3.846-.952,2.262.357,4.111,1.158,1.473.639,1.934-.77,3.889,1.261-.414,1.8-.648,1.781-1.934,2.738-.344-.562-1.064-2.019-2.3-2.17-2.533-.306-.365-.274-1.355.361.777,2.324-.057.186,1.342,1.527.852.81.594.225.982,1.718l-2.619,2.421c-1.531-.759-1.229-.913-2.426-2.123-5.84,1.784-6.9-4.429-2.3-5.637.568,1,.539,3.719,2.543,4.269,2.971.813,1.053.161,1.742-.322-.727-1.736-1.285-.477-2.092-2.215A3.312,3.312,0,0,1,28543.631,4444.234Zm-11.328,11.691c1.369-1.88,4.807-1.111,3.7-4.7-.588-1.874-2.264-3.727-3-5.929,6.492,1.922,1.785,4.565,5.51,7.1,2.594,1.775,3.287-.209,5.215,1.662C28541.8,4455.958,28535.037,4457.389,28532.3,4455.925Zm20.545-10.864c-5.3-2.015-6.084-1.071-4.76-3.372,3.059.88,3.064.723,6.076-.248Zm-37.049-6.017c.287,1.475,5.434,9.972,6.488,12.524C28520.031,4449.55,28515.24,4444.339,28515.8,4439.044Zm33.824-5.825c4.662-1.877,7.137,5.419,2.684,7.12C28547.762,4442.076,28544.133,4435.428,28549.623,4433.219Zm-21.557,21.766c-3.508-1.075-3.525-2.895-6.582-8.741-.855-1.631-5.447-8.945-4.545-9.846,1.34-1.336,2.49,2.068,3.125,3.376C28522.379,4444.451,28526.166,4450.31,28528.066,4454.985Zm9.24-9.33c-6.441-3.9-4.756-.8-7.8-6.5-5.24-9.844,9.752-13.036,13.4-7.832,1.168,1.675.414,3.231,1.574,5.375.824,1.569,2.15,2.751,1.975,4.8C28545.209,4442.5,28539.881,4443.954,28537.307,4445.655Zm-17.145-11.022c1.934.215,4.895,6.809,6.236,9.481,1.123,2.245,4.854,7.918,4.787,9.535-.055,1.072.08.355-.367,1.077-1.941-.59-1.012-.377-3.414-4.663l-5.463-10.305C28521.162,4438.27,28519.236,4436,28520.162,4434.633Zm14.242,18.385c-2.068.116-1.08.431-3.586-4.051l-6.986-12.975c-.592-1.05-1.379-1.994-.518-2.827,1.244-1.21,4.955,6.909,6.014,8.938C28530.506,4444.37,28534.559,4450.788,28534.4,4453.018Zm11.3-18.371c-.139-.238-.447.393-.447-1.375-.008-1.184.053-.389.4-.863C28547.275,4433.17,28546.918,4432.411,28545.7,4434.647Zm-30.154.429a19.065,19.065,0,0,1,1.537-6.41c2.83,3.6.582,1.521,4.512,3.615Zm37.715-5.758.676,2.783c-1.57-.742-1.078-.17-2.26-1.291,1.416-1.362.912-.164,1.146-1.167C28552.859,4429.482,28552.992,4429.463,28553.262,4429.318Zm-7.113-5.492c4.6-2.273,7.717,4.783,3.088,6.97A3.815,3.815,0,1,1,28546.148,4423.827Zm-3.934,1.73.008,2.919-4.232-1.005Zm-17,5.8c6.148-3.937,3.031-2.414,5.57-5.8l2.961,1.63c-4.717,2.934-4.1,1.254-6.9,6.761Zm-5.918-1.864c-.861-5.792,7.939-8.341,9.4-5.742C28530.572,4427.087,28523.535,4431.962,28519.3,4429.49Zm22.65-8.023c.248,5.987-9.23,4.584-10.439,2.181C28529.43,4419.5,28538.26,4418,28541.947,4421.466Zm-19.125.195c.582-.649-.174.07.771-.758,2.9-2.514,7.611-3.806,11.387-3.8,3.359,0,8.887,1.421,11.23,3.492,1.064.941.354.144,1.037,1.229-1.582.3-1.83.158-2.775,1.311-1.471-1.511-.891-4.982-7.152-5.263-5.707-.254-6.627,2.163-7.9,3.985C28526.664,4420.767,28525.857,4421.118,28522.822,4421.661Zm8.756-5.888a21.262,21.262,0,1,0,24.492,17.721C28554.482,4422.944,28544.139,4413.643,28531.578,4415.773Z" transform="translate(-28510.623 -4412.325)"/><path class="a" d="M28460.41,4344.265c13.9-2.886,24.67,6.574,27.035,17.69,2.959,13.845-6.943,24.717-17.846,26.919a22.773,22.773,0,0,1-9.189-44.609Zm28.865,25.682c2.1-14.379-8.406-25.651-20.322-27.526a24.421,24.421,0,1,0,20.322,27.526Z" transform="translate(-28440.693 -4342.111)"/><path class="a" d="M28924.051,4823.354c2.91-2.375,4.945,2.154,2.566,3.581a2.468,2.468,0,0,1-3.037-.551C28922.443,4824.94,28923.045,4824.174,28924.051,4823.354Zm.256-2.146c-4.656,1.262-3.121,8.854,2.244,7.509C28931.143,4827.567,28929.467,4819.812,28924.307,4821.208Z" transform="translate(-28900.949 -4800.532)"/><path class="a" d="M29329.77,4864.051c-1.73.8-.314.046-.967-.283.713-.522-.369-1.51,1.525-.484C29329.938,4864.137,29330.627,4863.656,29329.77,4864.051Zm-1.6-2.5c-1.791,2.6-.459,5.349,2.391,4.206C29332.738,4864.888,29332.715,4860.59,29328.172,4861.553Z" transform="translate(-29289.395 -4839.176)"/><path class="a" d="M29254.176,4639.116c-.453-1.137-.582-.792-1.145-1.423l-.895-1.294c-2.461.769.074-.275-1.461,1.25-1.52,1.524-.488-1-1.246,1.467a11.637,11.637,0,0,1,1.3.881c.574.52-.055.06.719.742,1.563,1.387-1-.269.691.411l.367-.675c.059-.082.133-.218.2-.3l1.113-.886C29253.883,4639.125,29254.063,4639.181,29254.176,4639.116Z" transform="translate(-29214.795 -4623.796)"/><path class="a" d="M28668.85,4663.261c.316.825-1.109.72,1.611,1.392,2.533.627,1.732-.041,2.217-.465-.387-.859.555-.69-1.588-1.269-2.895-.782-1.8.048-2.24.339Z" transform="translate(-28658.992 -4648.869)"/><path class="a" d="M28733.594,4627.292c.5.784-.725.646,1.842,1.21,1.877.411,1.158.29,1.986-.282-.264-1.167.523-.93-1.723-1.478C28732.938,4626.071,28734.256,4626.784,28733.594,4627.292Z" transform="translate(-28721.057 -4614.293)"/><path class="a" d="M29035.572,4542.832c-.084.242-1.641-.3.654,2a4.815,4.815,0,0,0,1.646,1.213l.68-.72a3.26,3.26,0,0,0-1.133-1.7c-.75-.747-.545-.774-1.564-.857A1.469,1.469,0,0,0,29035.572,4542.832Z" transform="translate(-29009.529 -4534.172)"/><path class="a" d="M28962.672,4535.313c-.16.352-1.418-.5.387,1.542.629.7,1.117,1.028,1.66,1.6l1.152-1.082-2.109-2.13C28961.871,4534.33,28963.129,4535.1,28962.672,4535.313Z" transform="translate(-28939.768 -4526.556)"/></g></svg>