<svg xmlns="http://www.w3.org/2000/svg" width="43.316" height="49.539" viewBox="0 0 43.316 49.539"><defs><style>.a{fill-rule:evenodd;}</style></defs><path class="a" d="M20167.508,148.837c5.512-6.568,16.371-8.622,24.371-4.929,3.355,1.547,4.535,2.946,6.895,4.4-.516,2.494-1.961,3.767-2.3,6.365-.316,2.477.012,5.555-.148,8.152-2.047,1.24-3.117-.12-3.23,3.561-.059,2.461.891,4.969-1.762,4.427l-.527-3.916c-1.9.323-2.391,2.641-4.062,5.98a70.609,70.609,0,0,1-3.547,6.9l-4.645-8.718c-.977-1.619.2-.367-1.219-1.138-1.109,1.648-.469,2.793-.586,5.278-.117,2.505-1.723,2.427-2.039.444-.473-2.995.34-7.721-.152-11.022-.609-4.094-5.395-11.969-7.047-15.79Zm-2.422-1.228c-.855-1.775-2.086-3.28-2.047-5.579,5.84-3.45,9.059-7.609,20.156-7.585,7.984.017,16.605,3.812,20.07,8.117a10.3,10.3,0,0,1-2.508,5.045c-2.328-.48-14.227-14.174-31.645-2.4C20167.137,146.551,20167.617,147.506,20165.086,147.609Zm13.16,26.633a35.535,35.535,0,0,1,2.344,4.39c.758,1.5,1.3,3.357,2.605,3.965,1.559-1.356,4.918-9.188,6.207-11.588,5.8,4.557,5.156-1.99,5.2-4.218.031-2.961.734-1.269,2.453-2.434,2.355-1.6-.855-6.244,2.168-12.874,1.332-2.9.285-1.372,2.406-2.616.914-.535,3.508-4.839,3.152-6.568-.5-2.387-8.4-6.765-11.785-7.79-10.539-3.2-22.566-1.085-30.543,6.14-2.109,1.91-.242,4.987.977,7.046,1.285,2.174,1.594.535,2.824,2.2.34.466,1.309,2.665,1.652,3.357,2.184,4.368,5.27,8.774,5.293,14.4.008,2.641-1.461,13.4,3.844,10.594,1.285-.678,1.156-2.2,1.207-4.011Z" transform="translate(-20161.494 -133.059)"/><path class="a" d="M20587.359,804.271c1.332-1.1,2.555-.5,3.561.564l-.111,1.672c-1.332,1.463-1.666,1.292-3.553.542Zm.158-1.588c-1.025.469-1.332.2-1.756,1.787a3.814,3.814,0,0,0,.27,3.034,3.63,3.63,0,0,0,4.82,1.161C20594.2,806.755,20592.164,800.519,20587.518,802.683Z" transform="translate(-20567.41 -773.579)"/><path class="a" d="M20751.668,565.742c1.967-2.443,4.486-1.176,3.391,2.253l-2.631.313A2.877,2.877,0,0,1,20751.668,565.742Zm.895-2.55a3.433,3.433,0,1,0,2.125,6.523C20758.789,568.448,20756.877,561.516,20752.563,563.192Z" transform="translate(-20724.811 -544.525)"/><path class="a" d="M20426.162,480.664c-1.389-1.317-1.621-1.884-.08-3.651C20430.484,476.826,20429.631,481.045,20426.162,480.664Zm-2.459-.263c3.842,4.162,7.846.547,6.467-2.861C20428.895,474.372,20422.9,474.271,20423.7,480.4Z" transform="translate(-20412.404 -460.746)"/><path class="a" d="M20929.3,279.7c.252-1.482-4.863-4.689-6.338-4.156-.039,1.2,3.576,3.276,4.781,4.026,2.143,1.324,1.123.37,1.557.131Z" transform="translate(-20890.355 -269.382)"/><path class="a" d="M20530.3,695.142c.844-.146,1.91-.41,2.055-1.777.064-.71-.121-.648-.229-.914C20530.758,692.341,20530.3,693.441,20530.3,695.142Z" transform="translate(-20514.504 -668.491)"/><path class="a" d="M20661.986,516.042c-.033.107-.113.16-.107.318.023.645-.4,1.528,2.367,1.618C20663.98,516.267,20663.35,515.949,20661.986,516.042Z" transform="translate(-20640.438 -499.629)"/><path class="a" d="M20853.1,449.217c1.234.666,1.293.346,2.516-.314-.254-.821.023-1.246-1.039-1.136C20853.266,447.9,20853.3,448.55,20853.1,449.217Z" transform="translate(-20823.48 -434.274)"/><path class="a" d="M20789.775,778.3l.652-.643c-.693-1.2-.531-1.311-2.211-1.163C20788.3,777.855,20788.617,777.861,20789.775,778.3Z" transform="translate(-20761.377 -748.889)"/><path class="a" d="M20644.9,1027.628c1.443.457,1.684-.186,1.938-1.548C20645.379,1026.181,20644.91,1026.013,20644.9,1027.628Z" transform="translate(-20624.195 -987.841)"/></svg>