<svg xmlns="http://www.w3.org/2000/svg" width="50.604" height="50.588" viewBox="0 0 50.604 50.588"><defs><style>.a{fill-rule:evenodd;}</style></defs><g transform="translate(-0.001)"><path class="a" d="M28571.555,14579.816c.959,1.658,1.5,1.135.936,3.229-1.779.457-2.109-.373-3.232-1.232-2.09.719-3.119.578-2.756-2.041l2.578-.541c.463-1.9.545-3.277,2.818-2.061A2.467,2.467,0,0,1,28571.555,14579.816Zm-9,.258c-1.2.857-3.58,2.588-3.115-1.047,1.045-1.072.635-.539,1.832-1.033l-.012-3.012c2.408-1.561,2.428,1.473,2.738,2.643l1.557.7-.811,2.566Zm5.393-13.541c-1.441-3.287-.572-1.771-.4-2.307.2.027-.365-1.709,1.1,1.57,1.279,2.848,3.537,2.568,4.945,3.77,1.35,1.172.979,2.311,2.156,3.758,1.416,1.75,1.941,1.2,3.609,2.252-.8.684-.49.619-1.672.207-4.285-1.5-2.627-2.793-4.426-5.115C28571.531,14568.438,28569.621,14570.359,28567.943,14566.533Zm11.467,6.293c1.816.8,1.068.184,1.7,1.066-1.141.547-3.549-.617-4.178-1.35-.83-.963-.961-2.775-2.25-4.076-1.426-1.443-2.93-1-4.051-2.27a6.053,6.053,0,0,1-1.055-2.115c-.492-1.381-.781-.836.07-1.859,1.063,1.213.717,2.418,2.2,3.557,1.158.883,2.85,1.021,3.826,2.1C28577.18,14569.539,28576.338,14571.467,28579.41,14572.826Zm3.619-.91c-1.178.74-3.432-.531-4.164-1.318-1.2-1.312-.65-2.578-2.271-4.031-1.359-1.221-2.93-1.135-4.047-2.283-.756-.787-1.672-2.838-1.311-3.811,1.389.574.5.355,1.3,1.846,1.42,2.641,3.637,2.178,5,3.7,1.129,1.266.947,2.324,2.2,3.727C28581.473,14571.693,28581.693,14570.5,28583.029,14571.916Zm-28.936,2.256c-.662-2.363-4.578-2.705-3.818-8.182.467-3.316,2.99-4.881,5.736-6.127,4.1-1.861,4.215-4.955,6.928-5,3.943-.062,4.26,4.133,4.2,7.5l-1.732,2.1,2.035,4.689c-.568,1.664-2,3.549-3.213,4.031-2.072.813-1.9-1.242-4.594,1.727-3.254-.016-2.291-.842-3.838.166.742,1.953,1.156.7,3.582,1.578l-.852,1.129a3,3,0,0,0,1.3,4.822c1.48.377,1.416-.062,2.473-.307,3.291-.768,2.3,1.008,5.4,1.432,2.445.328,1.246.646,2.926,1.035a2.92,2.92,0,0,0,3.592-3.594c-.184-.82-.443-.848-.537-1.432-.172-1,.611-3.27-1.68-4.27-2.738-1.2-3.848,1.357-4.3,1.977l-.418.363c-1.783-1.4-1.318-.676-2.174-3.127l3.762-4.437c3.787.686,2.99,1.771,4.605,4.578.8,1.4,3.551,2.822,5.664,2.988.141-.039,5.227-4.207,5.729-6.287-1.365-2.238-2.873-1.271-4.182-2.736-1.062-1.205-.611-2.6-2.217-4.1-1.268-1.174-3.215-1.27-4.09-2.24-1.238-1.383-1.3-5.705-4.187-3.041-.912.838-.311.486-1.447,1.092-.312-3.852-2.273-7.758-6.557-7.111-2.078.318-2.861,1.871-3.779,2.953-1.176,1.391-2.4,1.826-4.033,2.666C28543.33,14564.678,28551.18,14576.023,28554.094,14574.172Z" transform="translate(-28542.055 -14539.391)"/><path class="a" d="M28387.162,14237.074a23.763,23.763,0,1,1,26.066,20.758A23.779,23.779,0,0,1,28387.162,14237.074Zm19.869-27.861c-12.58,1.949-23.607,13.57-21.275,28.715a25.2,25.2,0,0,0,28.5,21.3c12.666-1.773,23.756-13.635,21.488-28.738C28433.875,14217.98,28422.143,14206.873,28407.031,14209.213Z" transform="translate(-28385.441 -14208.899)"/><path class="a" d="M29004.137,14350.739c1.484,1.653,1.891,1.058,3.461,2.166-.859.58,1.129.6-1.168.361-3.492-.353-3.98-4.29-5.246-5.5-.539-.52-7.109-3.107-5.129-6.341.059.074.152.165.184.214s.133.161.18.222c.727,1.21-.41-.908.262.514,2.258,4.744,2.965,2.357,5.309,4.586C29003.418,14348.322,29002.746,14349.177,29004.137,14350.739Zm-6.289-9.554c-.566-1.483-.711-.879.172-1.638.238.358,2.734,5.868,3.047,2.725.148-1.485-2.91-3.288-1.043-4.692.82,1.791.754,2.371,2.184,3.64,1.379,1.229,2.48.824,3.73,2.188,1.191,1.313.957,3.69,3.754,4.93,1.309.582.922-.017,1.8,1.1-1.547.519-4.078-.927-4.844-2.4-1.008-1.99-1.312-3.993-3.793-3.905-.168,2.191.266.631,1.461,2.292a18.978,18.978,0,0,1,1.02,2.524c1.117,2.2,3.191,1.707,4.227,3.472a5.851,5.851,0,0,1-4.391-1.712c-1.051-1.4-.7-2.78-2.234-4.084C29000.289,14343.393,28999.668,14345.933,28997.848,14341.186Zm-4,.663c2.137,7.131,4.363,5.086,6.316,6.946,1.078,1.025,1.375,5.87,7.418,6.39,9.625-9.61,4.7-5.854,1.543-9.032-.934-.946-1.113-3.03-2.2-4.115-1.145-1.139-2.957-1.07-4.094-2.232-2.461-2.5-.621-6.9-6.2-1.325-1.109,1.113-2.219,1.827-2.785,3.367Z" transform="translate(-28969.246 -14330.652)"/><path class="a" d="M28787.8,14921.465c-2.658,0-.377-1.366-2.416-.789-.3.712-.426-.871-.242.813a2.063,2.063,0,0,0,2.615,1.632c1.91-.339,2.26-2.368,1.146-3.793C28787.031,14919.909,28788.453,14919.84,28787.8,14921.465Z" transform="translate(-28768.9 -14890.605)"/><path class="a" d="M28685,14798.02c-3.133-.065.633.938-2.5.926l-.379-2.246c-3,.547-1.172,3.164-.176,3.621C28683.813,14801.188,28685.07,14799.863,28685,14798.02Z" transform="translate(-28668.547 -14772.934)"/><path class="a" d="M28862,14675.8c1.705.295,1.287-.61,2.293.677-.83,1.973-.717-.232-1.072,1.973,2.67,1.248,2.576-2.28,2.129-3.7C28863.912,14674.292,28862.387,14673.468,28862,14675.8Z" transform="translate(-28842.732 -14655.414)"/></g></svg>