<svg xmlns="http://www.w3.org/2000/svg" width="40.019" height="53.708" viewBox="0 0 40.019 53.708"><defs><style>.a{fill-rule:evenodd;}</style></defs><path class="a" d="M10195.109,5815.046c-.294,2.594-2.678,1.98-5.615,1.968l-15.226-.011c-2.327.033-4.937.6-5.165-1.986Zm-22.627-1.5c-3.289,0-4.693.813-5-2.243l29.082.074-.241,1.931C10191.406,5813.8,10178.154,5813.542,10172.482,5813.542Zm-3.034-22.065c-2.181-2.142-4.307.942-4.849-2.156,1.616-1.092,30.335-.448,34.967-.448-.348,3.279.053.931-2.55,2.238.486,1.245-1.018.9,2.093,1.058l-1.264,9.531c-4.148.271-20.034-.543-21.906.6.683,1.275.017.9,2.317,1.005l19.389-.057-.946,6.124c-1.646.985-28.258.453-29.474.4l-.814-6.4,3.342-.451c-.729-1.768-1.268-1.15-3.562-1.146l-1.125-9.572c4.68-.239,1.867.817,5.181,1.661,2.7-.659,1.221-1.472,3.582-1.722,2.074-.221,3.339.581,4.925-.582-.762-1.333-1.206-.907-3.111-.916-1.351-.006-2.7.007-4.05.093-1.085,1.774.321.8-1.346,1.574C10169.1,5791.529,10169.92,5791.938,10169.448,5791.477Zm9.75-20.966a3.721,3.721,0,0,1-1.333,7.286c-3.937-.206-5.25-5.39-.907-7.384l1.018,2.125C10179.453,5771.735,10178.359,5772.239,10179.2,5770.511Zm6.2,11.643c-1.621-1.917-11.447.235-15.741-1.165-.548-2.494.09-3.187,2.827-3.187,3.837,0,4.905,3.527,8.925.309,3.6-2.863,1.479-6.139.466-8.112l4.489-2.244a43.071,43.071,0,0,1,4.49,7.784c-2.937,1.382-3.651,1.382-4.038,3.036,2.107.911.573-1.326,7.338-.53,1.785,4.812-2.711,2.1-4.5,4.11,1.024,1.313,1.194.738,3.426.738,5.609,0,5.051,4.517.442,4.51l-13.87-.011c-4.062,0-15.319,1.2-12.208-3.509C10169.368,5780.963,10183.244,5784.718,10185.4,5782.154Zm-12.155-10.739a8.053,8.053,0,0,0-.015,4.788c-3.529.643-6.4.515-4.943,5.061-1.916,1.988-3.362,2.376-2.161,6.146-2.137.01-1.9.034-2.188-2.52-.161-1.5-.312-2.973-.528-4.493-.624-.588-.207-.378-1.325-.557-.2,6.561,2.328,19.4,3.184,26.509,1.783,14.829,3.889,12.106,17.068,12.106,17.751,0,14.193,2.254,18.338-26.038.3-2.036.54-4.239.819-6.306.249-1.822.869-3.8.463-5.564l-.374-.724c-1.29.912-1.194,2.911-1.349,4.574-.244,2.674.245,2.967-2.208,3,1.019-4.875.231-3.824-2.212-6.139,1.174-4.406-1.452-4.127-2.6-5.045-1.233-.994-4.455-8.824-6.4-10.556-2.282.926-4.849,3.3-7.2,3.4.016-2.578,1.332-2.162,1.118-4.074-2.327-.414-1.856,2.592-3.414,3.659-.765.522-1.241.257-2.4,1.171C10173.993,5770.536,10174.2,5770.771,10173.241,5771.416Z" transform="translate(-10162.068 -5764.945)"/><path class="a" d="M10515.987,6242.654c-1.483-.663-.517-.116-1.344-1.668l-4.48.28c1.057,1.341-2.479.334,2.6,1.307,1.737.333.457.357,1.856,1.167,2.209,1.274,3.1-.495,4.054-1.23,1.239-.414,2.99.828,4.937-.6-.894-1.578-2.007-.886-6.282-.875-.07.082-.156.213-.2.263l-1.144,1.354Z" transform="translate(-10491.238 -6215.301)"/><path class="a" d="M10342.273,6449.074c-1.2-.813-.937-.817-2.186-.133C10340.664,6450.344,10341.422,6450.839,10342.273,6449.074Z" transform="translate(-10330.519 -6411.715)"/><path class="a" d="M10753.391,6502.778c-.733,1.454.173.736.312.961,1.023-.522.492.575.732-.677.216-1.109.1-.473-.395-.61C10752.762,6502.1,10753.57,6502.424,10753.391,6502.778Z" transform="translate(-10721.349 -6462.676)"/><path class="a" d="M10755.669,6325.6c-.806-.919-1.11.16-1.111.165.778.936-.994.446.958.933C10755.564,6326.619,10756.484,6326.528,10755.669,6325.6Z" transform="translate(-10722.723 -6295.121)"/><path class="a" d="M10403.392,6373.275c.753-1.628-.053-.508-.251-.938-1.323.554-1.448.051-.452,1.423C10403.606,6373.417,10403,6374.132,10403.392,6373.275Z" transform="translate(-10389.139 -6339.696)"/><path class="a" d="M10404.36,6549.024c.733-1.6-.074-.528-.277-.926-1.4.568-1.247.293-.453,1.431C10404.605,6549.158,10403.955,6549.928,10404.36,6549.024Z" transform="translate(-10390.082 -6506.013)"/><path class="a" d="M10288.078,6501.29c-.212-1.252.244-.153-.787-.533-1.1,1.256-.479.964.452,1.432C10288.085,6501.628,10288.257,6502.351,10288.078,6501.29Z" transform="translate(-10280.002 -6461.134)"/><path class="a" d="M10521.135,6502.775c-.207-1.125.27-.13-.748-.508-1.172,1.285-.4.979.447,1.378C10521.115,6503.157,10521.307,6503.733,10521.135,6502.775Z" transform="translate(-10500.563 -6462.601)"/><path class="a" d="M10522.17,6326.491c-.077-1.243.061-.208-.764-.534-1.06,1.177-.284.845,0,1.314C10522.368,6326.864,10522.268,6327.945,10522.17,6326.491Z" transform="translate(-10501.583 -6295.717)"/><path class="a" d="M10640.659,6550.031c.908-1.538.52-.831-.451-1.374-.464.552-.489-.1-.3.9C10640.1,6550.644,10639.788,6549.743,10640.659,6550.031Z" transform="translate(-10614.127 -6506.542)"/><path class="a" d="M10640.926,6374.053c.969-1.635.405-.84-.449-1.365-.451.553-.481-.067-.295.918C10640.387,6374.694,10640.118,6373.806,10640.926,6374.053Z" transform="translate(-10614.39 -6340.03)"/><path class="a" d="M10288.3,6327.876c-1.306.08-.212-.049-.557.776.646.4.543.524,1.365,0C10288.658,6327.642,10289.8,6327.784,10288.3,6327.876Z" transform="translate(-10280.89 -6297.563)"/></svg>