<svg xmlns="http://www.w3.org/2000/svg" width="45.211" height="64.846" viewBox="0 0 45.211 64.846"><defs><style>.a{fill-rule:evenodd;}</style></defs><path class="a" d="M8701.267,8552.5c3.2,0,3.84-.333,4.784,2.1h-31.074c.27-2.023,2.5-2.1,4.654-2.1Zm-12.809-6.453,4.176-.007.033,4.284-4.27-.034Zm-14.031-10.748c7.517-.291,4.414-3.083,9.261-4.252,2.974,1.526,3.155,4.584,7.394,4.143,3.6-.368,2.747-3.247,6.8-4.154,4.262,1.718,2,4.487,8.758,4.1-.226,6.105-3.228,8.714-9.409,8.714C8683.22,8543.843,8674.848,8546.066,8674.427,8535.3Zm-1.687-4.737c-2.5-2.237-2.263-.307-2.521-3.554.779-.51,38.015-.73,40.346.057.242,3.02.283,1.341-2.224,3.69-1.756,1.643-.881,1.735-3.9,2.531l-5.205-4.231c-6.479-.7-4.2,2.725-8.787,4-3.508-1.411-2.9-4.409-7.425-4.167C8676.405,8529.253,8679.819,8536.917,8672.74,8530.56Zm29.662-6.876c-1.183,1.039-.4,1.642-2.224,0C8700.868,8520.952,8701.69,8522.523,8702.4,8523.684Zm-10.656-1.3c2.262.458,1.561-.229,2.059,2.049C8690.536,8524.2,8691.975,8525.437,8691.746,8522.387Zm-2.276.619c-1,2.128,1.9,1.477-2.235,1.3.091-.951.021-1.135.836-1.587C8690.316,8521.479,8688.9,8522.787,8689.47,8523.006Zm-9-.636c.863,2.864.917,1.807-1.884,2.207C8679.312,8521.758,8678.271,8523.136,8680.465,8522.37Zm19.233-2.012c-1.4,1.783-1.417,2.605-2.484,4-2.466-1.432-.326-.444-2.072-2.671-1.157-1.488-1.155-.87-2.533-2.165,9.221-8.845,15.351.907,13.389,4.752C8702.328,8522.878,8706.5,8520.061,8699.7,8520.358Zm-24.809,3.818c-2.091-5.667,7.291-12.561,13.415-4.557-5.12,4.159-1.269,1-3.946,4.721-2.679-1.389-.96-4.083-4.736-4.053C8674.972,8520.314,8679,8523.275,8674.89,8524.177Zm9.116-12.209c1.756-.936,1.463-.3,2.532-1.659s.519-1.763,1.884-2.895l1.062,1.641c3.763,6.67,6.728-1.04,7.73-1.723.436.657,1-.729.644,2.7a5.868,5.868,0,0,1-1.037,2.432,7.64,7.64,0,0,1-3.847,2.987c-4.757,1.427-7.58-.948-8.972-3.484Zm-.526-2.572c-2.175-6.374,8.221-12.835,13.42-4.657-3.646,2.6-1.758.019-3.6,4.657-3.2-1.293-.955-4.077-4.888-4.122C8684.393,8505.223,8686.677,8508.049,8683.479,8509.4Zm-12.313-1.271c1.283-2.291,2.339-2.969,3.915-4.546,2.342-2.348,2.089-2.705,4.55-3.783,4.667,5.391-.319,4.694,2.489,13.959-3.31.089-4.427-.938-6.452-2.342-1.456-1.014-3.345-1.989-4.5-3.288Zm20.476-9.442c.316-3.626.641-3.919,4.255-4.253C8695.594,8498.08,8695.307,8498.378,8691.642,8498.682Zm-6.457-4.071c3.779-.113,3.944.37,4.229,4.071C8685.708,8498.327,8685.513,8498.273,8685.185,8494.61Zm12.8-2.2a10.956,10.956,0,0,0-7.535,1.552c-2.521-1.5-3.382-2.117-7.359-1.4-.435,8.218,2.472,5.464,1.521,7.887-1.011,2.593-3.88-3.7-3.987-3.9-3.325.8-11.759,9.832-12.645,12.441l8.73,5.961c-2.812,3.629-4.289,3.054-4.466,9.518-3.787.257-4.625,2.052-4.043,5.964,3,1.566,3.69.811,4.054,4.7.892,9.648,3.687,10.094,13.944,11.053l.017,3.892c-5.79.775-15.649-1.216-13.565,6.253,3.149,1.11,30.911.884,35.811.229.526-3.07-.824-3.911-2.264-6.038l-11.206-.466-.062-4.023c18.557,0,11.673-10.644,14.792-13.9,2.491-2.6,4.454.394,2.938-6.425a7.551,7.551,0,0,0-3.835-1.364c-.2-6.617-3.47-10.176-9.867-10.6,2.131-7.621,1.561-8.871-2.925-13.741C8698.108,8497.647,8698.19,8496.682,8697.985,8492.412Z" transform="translate(-8667.98 -8492.267)"/></svg>