<svg xmlns="http://www.w3.org/2000/svg" width="47.137" height="46.899" viewBox="0 0 47.137 46.899"><defs><style>.a{fill-rule:evenodd;}</style></defs><g transform="translate(0.001)"><path class="a" d="M32182.393,406.918h43.48c0,2.486.02,4.973,0,7.459,0,2.537-.68,4.665,1.2,5.365.891-1.072.648-.549.648-2.121l-.006-12.43-46.959.035-.061,35.785,46.908-.152.117-12.574c0-2.978,0-1.13-.648-1.956-1.369.49-1.215.117-1.248,2.38l-.023,10.438h-43.4l-.01-32.229Z" transform="translate(-32180.615 -405.19)"/><path class="a" d="M32218.309,1287.616c5.424-.757,7.125-.414,7.422-2.519-1.475-.944-9.047.919-10.832,1.227-4.295.742-6.893,1.387-11.451,1.192-4.168-.179-8.365-.309-12.51-.458-3.33-.119-10.525-1.031-12.15.357.811,1.753-.932.786,1.537,1.186,1.346.218,11.76.059,16.1.766-2.082.726-6.775,1.26-9.238,1.689l-7.207,1.211c-1.693.7-.879-.045-1.178,1.781,4.121.274,18.135-2.742,23.092-3.594,6.771-1.165,11.334-.71,18.223-.442,4.57.177,4.625.768,5.746-.741-1.555-2.327-4.5-.13-7.557-1.654Z" transform="translate(-32178.787 -1247.166)"/><path class="a" d="M32964.742,852.4c-1.766,1.178-2.457,1.227-3.352-.838A2.582,2.582,0,0,1,32964.742,852.4Zm-3.379-4.945c4.184.112,3.531,1.427,3.652,1.789C32964.02,849.837,32961.555,850.061,32961.363,847.456Zm3.645-1.188-3.352-1.025C32961.875,843.657,32964.211,843.058,32965.008,846.268Zm-5.461,5.759c.828,4.479,9.453,5.428,7.219-6.936a3.626,3.626,0,0,0-6.371-1.7C32959.016,845,32959.109,849.591,32959.547,852.027Z" transform="translate(-32925.84 -823.369)"/><path class="a" d="M32317.66,852.792c.477.1,1.793.349,2.109.483,2.145.885.637.044,1.3,1.188C32319.016,855.363,32318.145,855.191,32317.66,852.792Zm0-3.091c.3-.156-.641-1.565,3.645.629l-.062,1.41C32316.121,850.33,32318.426,851.044,32317.66,849.7Zm1.738-2.026c-2.043-.613-.977-.691-1.2-1.219,1.984-1.125,2.289-.665,3.078.928C32321.094,847.479,32322.238,848.529,32319.4,847.674Zm3.426,7.126c.719-1.51.625-7.574-.191-9.009-1.387-2.393-5.285-2.391-6.395.053-.84,1.882-.758,7.819.215,9.358C32318.051,857.741,32321.824,856.9,32322.824,854.8Z" transform="translate(-32309.799 -825.214)"/><path class="a" d="M32749.709,853.511c.414-.211-1.01-.986,1.748-.263,1.42.368,1.172.569,1.6,1.178C32750.785,855.753,32750.777,855.251,32749.709,853.511Zm2.566-1.931c-3.037.191-2.6-1.776-2.6-1.778.4-.186.105-.292,1.027-.319,2.869-.085,2.633,1.708,2.633,1.71-.592.317.041.317-1.062.388Zm1.021-3.342-3.318-1.116C32750.162,845.811,32752.518,844.85,32753.3,848.238Zm-.02,8.484c2.506-2.88,1.979-2.834,1.934-7.4-.023-2.856-.764-5.357-3.918-5.207-3.1.147-3.508,2.788-3.508,5.679-.014,4.487-.516,4.121,1.934,7.064Z" transform="translate(-32723.371 -825.316)"/><path class="a" d="M32536.742,852.387c1.867.737.73.24,1.262,1.071-2.152,1.087-2.832.855-3.375-1.588a13.893,13.893,0,0,1,2.113.517Zm.441-1.886c-3.035.133-2.555-1.74-2.555-1.742.477-.251,0-.313.992-.36,2.848-.134,2.668,1.75,2.668,1.752-.48.231-.094.307-1.105.351Zm-.777-3.785a4.69,4.69,0,0,1-1.414-.739c.063-1.143,2.047-1.858,3.242.464C32537.484,846.842,32539.633,847.453,32536.406,846.716Zm1.82,8.988c2.422-2.765,2.035-3.314,1.953-7.9-.066-2.881-1.367-5.555-4.816-4.584-3.047.854-2.687,4.721-2.617,7.875.078,3.755,1.688,5.1,5.48,4.6Z" transform="translate(-32517.547 -824.273)"/><path class="a" d="M32753.547,506.23c5.867-2.316,8.322,6.492,3.18,8.457C32751.441,516.706,32747.52,508.609,32753.547,506.23Zm-4.584,6.157c2.107,7.423,14.414,5.091,12.4-3.63C32759.643,501.292,32746.361,503.328,32748.963,512.387Z" transform="translate(-32724.229 -499.955)"/><path class="a" d="M32409.91,506.555c5.947-2.6,8.318,6.636,3.164,8.46C32407.9,516.842,32403.912,509.184,32409.91,506.555Zm-4.686,5.655a6.359,6.359,0,0,0,7.594,4.83,6.491,6.491,0,0,0,5-7.6C32416.408,501.767,32403.383,503.277,32405.225,512.21Z" transform="translate(-32395.355 -500.243)"/><path class="a" d="M32497.945,589.387c.559.751,1.438.007,0,1.676C32496.129,590.376,32496.715,589.99,32497.945,589.387Zm-2.7-.529c-.508,4.149,1.688,4.542,4.7,3.485.84-2.646.988-2.609-.906-4.76l-2.555-.023-1.238,1.3Z" transform="translate(-32481.623 -579.751)"/><path class="a" d="M32840.852,588.357c1.352.609,1.832.96,0,1.657C32839.387,588.57,32840.543,588.769,32840.852,588.357Zm-2.277,2.382c2.5,2.213,5.52,1.489,5.051-3.016-1.75-1.307-1.281-1.357-3.859-1.166C32838.516,588.007,32838.141,588.315,32838.574,590.739Z" transform="translate(-32810.156 -578.713)"/><path class="a" d="M33239.043,800.234c-.1-1.5-.1-.32-.883-.7-.68.73-.309-.093-.418,1.016-.223,2.648-.543-.695.418.731C33239.406,800.626,33239.141,802.145,33239.043,800.234Z" transform="translate(-33192.172 -782.568)"/></g></svg>