<svg xmlns="http://www.w3.org/2000/svg" width="99.113" height="99.112" viewBox="0 0 99.113 99.112"><defs><style>.a{fill:#e3e3e3;}.b{fill:#c6c5c5;fill-rule:evenodd;}</style></defs><g transform="translate(-2443.045 -4938.12)"><g transform="translate(112 257.816)"><rect class="a" width="99.113" height="99.113" rx="19" transform="translate(2331.045 4680.303)"/><g transform="translate(2348.115 4692.752)"><path class="b" d="M8435.7,285.783a5.617,5.617,0,0,1,1.014-2.637l.04-.039a6.062,6.062,0,0,1,4.433-2.486c.074-.067.111-.047.235-.049.034,0,.142,0,.171.006a.2.2,0,0,1,.1.042c.817,0,.992.4,1.526.557a4.443,4.443,0,0,1,1.418.687,3.257,3.257,0,0,1,1.335,1.822c.105.467.177.353.373.723l.039.042a7.076,7.076,0,0,1,.387,1.339,8.171,8.171,0,0,1-.13,1.565c0,.064.017.05-.044.05-.084.924-1.34,2.34-1.928,2.864a5.969,5.969,0,0,1-3.359,1.438,4.442,4.442,0,0,1-3.446-1.3,5.336,5.336,0,0,1-.556-.623c-.362-.492-.5-.334-.669-.552a4.165,4.165,0,0,1-.647-1.752l-.041-.042v-.111l-.04-.057-.213-.916a.877.877,0,0,1,0-.572Zm4.3-14.085c-.038.033.049.04-.13.04l-2.063.212-.084.045-1.753.46c0,.064.015.044-.055.044a14.374,14.374,0,0,0-3.122,1.505,13.676,13.676,0,0,0-4.525,4.817,15.884,15.884,0,0,0-1.4,3.271l-.039.044-.716,2.944-.041.084v.505a1.337,1.337,0,0,1,0,.166c-.015.086-.012.045-.04.089v1.258c.026.043.022.009.04.089a.858.858,0,0,1,0,.123v.511c.027.04.019.005.035.083a.631.631,0,0,1,.006.122l.211,1.634.04.092.465,1.675.04.05.171.991a.137.137,0,0,1,.019.029c0,.008.012.025.015.034a.189.189,0,0,1,.008.083c.035.133.932,1.133.965,1.687.031.505.006.3.308.575.556.5,1.055,1.343,1.614,1.964.159.176.306.3.438.446.232.256-.042.3.353.531a12.4,12.4,0,0,1,2.121,1.456,1.966,1.966,0,0,0,1.063.746c.063,0,.049-.017.049.044a17.14,17.14,0,0,1,1.581.727c.314.138,1.688.483,1.777.578.111.521-.412,1.083-.655,1.448l-2.634,3.973a24.184,24.184,0,0,1-1.814,2.606,5.074,5.074,0,0,0-.829,1.359c-.251.472-.621.959-.841,1.389l-.044.044-.673.924-.041.041a1.843,1.843,0,0,0,.008,1.169c.107.375.367.491.792.556a19.073,19.073,0,0,0,2.65.085c1.87,0,5.042.189,6.683.033.533-.051.828.063,1.036-.352a15.106,15.106,0,0,1,1.085-1.651c.361-.524.839-1.009,1.207-1.527.121-.17.3-.682.424-.923.166-.31.351-.586.506-.883l.041-.043.969-1.472.042-.042c.572-.853,1.154-1.713,1.725-2.568a12.671,12.671,0,0,1,.915-1.231,4.4,4.4,0,0,0,.812-1.378l.042-.045c.365-.661.9-1.369,1.33-2.034a8.513,8.513,0,0,1,.709-.975c.209-.256.67-.628.694-.987l.044-.044,2.692-4.459.042-.04,1.223-1.98.04-.04.213-.676.04-.04a26.508,26.508,0,0,1,.63-2.653c.321-1.181-.126-1.528-.126-2.823-.028-.042-.018-.011-.042-.085a.4.4,0,0,1,0-.081l-.206-2.573-.046-.078a10.028,10.028,0,0,0-.811-2.764,16.639,16.639,0,0,1-1.164-2.457l-.041-.04c0-.019-2.339-2.533-2.525-2.695-.444-.384-1.021-.772-1.441-1.167-.229-.215-.376-.488-.684-.621l-2.727-1.231a3.9,3.9,0,0,0-2.1-.554c-.55-.044-2.054-.461-2.122-.453a18.757,18.757,0,0,1-2.374.281Z" transform="translate(-8393.703 -271.417)"/><path class="b" d="M7741.817,290.1l-.041.052v.075l-.042.041c-.447,1.936-3.258,4.029-5.984,3.631a4.989,4.989,0,0,1-3.17-1.67,5.929,5.929,0,0,1-1.45-3.444c-.066-.078-.043-.066-.043-.2v-.547l.043-.192.46-1.828c0-.062-.016-.047.046-.047.215-.874,1.606-1.957,2.4-2.352a6.113,6.113,0,0,1,1.765-.591,7.3,7.3,0,0,1,2.147.088l.04.04a5.684,5.684,0,0,1,2.685,1.695,5.335,5.335,0,0,1,1.316,3.061l.041.042v.47c.025.033.042-.058.04.116s.009.022-.04.1l-.21,1.462Zm-11.147-15.11c0,.06.016.044-.046.044a15.635,15.635,0,0,0-4.09,2.516,14.427,14.427,0,0,0-3.024,3.628l-.039.04-.461.886c0,.067.018.052-.045.052l-.711,1.757c0,.06.014.045-.047.045l-.716,3.406-.041.084v3.03l.041.084.716,3.412.04.04c.108,1,1.8,3.659,2.364,4.372.541.685,2.746,3.059,3.53,3.246l.041.041.464.211.041.041.464.211.041.041.464.211.041.041.464.211.041.041.464.211.041.041.465.212.041.041,1.222.465.039.04.312.235-.522.817-.039.04-6.945,10.314-.041.056c-.029,1.119-.412,1.872.934,2.166a19.818,19.818,0,0,0,3.232.009h6.733a33.549,33.549,0,0,1,2.428-3.885c.193-.268,1.432-1.7,1.439-1.718a40.041,40.041,0,0,1,3.63-5.839c.41-.638.84-1.255,1.279-1.876.162-.228.233-.21.388-.371a2.015,2.015,0,0,0,.248-.552c.17-.365.376-.7.563-1.038l.041-.044a29.891,29.891,0,0,1,2.412-3.6,9.176,9.176,0,0,1,.668-.8c.534-.539.271-.253.507-1.01.2-.649.806-1.645.916-2.115l.041-.042.676-2.062.039-.055.213-1.376c0-.141.008-.092.041-.138l0-.325c0-.06-.016-.045.044-.045v-2.907l-.049-.079-.456-2.521-.042-.047c-.021-1.086-1.774-4.072-2.314-4.84a14.67,14.67,0,0,0-3.617-3.534l-.046-.044-2.69-1.431-.043-.042-.589-.208c-.073,0-.06.022-.06-.044l-.7-.213-.054-.039-2.176-.465-.059-.04c-.648,0-1.444-.161-2.172-.171a17.47,17.47,0,0,0-2.231.17,19.13,19.13,0,0,0-3.74,1.01Z" transform="translate(-7721.451 -273.696)"/><path class="b" d="M8759.229,1319.4l-.041.053-.212.578-.04.041a3.444,3.444,0,0,1-1.22,1.392,3.25,3.25,0,0,1-2.147.422c-.079,0-.063.023-.063-.044a4.061,4.061,0,0,1-2.01-1.083,3.6,3.6,0,0,1-.914-2.243l-.027-.054c-.027-.105,0,.058-.014-.07,0-.015,0-.107,0-.128v-1.852c0-.187,0-.083.039-.125,0-1.548.984-3.2,2.35-3.326l.049-.042h2.063l.051.042a1.853,1.853,0,0,1,.945.6c.347.427.595.427.839.76.309.415.057.938.263,1.3a2.56,2.56,0,0,1,.3,1.281c.018.035.014,0,.037.1a.541.541,0,0,1,0,.084v.926a.192.192,0,0,1-.01.083c0,.009-.012.039-.014.033s-.011.019-.018.029Zm3.414-16.835-.046.042-2.772.983-.047,5.162c0,1.584.082,1.108-.5,1.094-.067,0-.053.019-.053-.042l-2.054-.465-.039-.041a7.143,7.143,0,0,0-2.811-.031,7.375,7.375,0,0,0-2.264.891,5.068,5.068,0,0,0-1.651,1.463,7.113,7.113,0,0,0-.978,2.18l-.041.041-.419,2.064a1.08,1.08,0,0,1,0,.169.187.187,0,0,1-.041.1v2.23l.045.191.46,2.439.044.044.926,1.9.041.04.716.717.041.04a6.353,6.353,0,0,0,1.282.866,3.244,3.244,0,0,0,1.623.562l.115.046,2.2.212.1.041h.862c0-.06-.014-.045.046-.045a13.144,13.144,0,0,0,1.262-.417c.234-.074.406-.131.629-.219.354-.139.381-.2.381.257l.039.087c.012.484.222.252.715.251.933,0,2.231-.125,3.117-.125l0-.842c0-.054-.009-.166,0-.213.021-.191.021-.088.048-.138v-11.273a3.457,3.457,0,0,1-.044-1.045v-7.155c0-.12-.042-.391.044-.451v-.715c-.056-.041-.044.071-.044-.1l0-.884-.925.084Z" transform="translate(-8701.789 -1255.185)"/><path class="b" d="M8396.6,1461.907c-.049.046.081.044-.13.044h-.757c-.194,0-.082,0-.127-.044a3.928,3.928,0,0,1-1.977-.717l-.041-.041a5.726,5.726,0,0,1-1.352-1.765c-.519-1.037-.164-1.666-.212-2.781l.048-.076a6.75,6.75,0,0,1,.756-2.2,2.611,2.611,0,0,1,1.729-1.263l.04-.04.112,0c0-.062-.013-.042.056-.042a9.136,9.136,0,0,1,1.491-.147,6.239,6.239,0,0,1,1.466.263c.681.231,1.7.906,1.715,1.736l.043.043a3.725,3.725,0,0,1,.673,2.1c0,1.472-.3,3.336-1.467,4.175a4.178,4.178,0,0,1-2.065.751Zm-7.661-8.208c0,.07.02.057-.042.057l-.211.911c0,.076.023.062-.041.062l-.21,1.2c0,.075.021.061-.044.061v2.3c.069.084.044.105.044.245l.21,1.665c.063,0,.041-.013.041.06.016,1.015,1.075,2.078,1.22,2.645l.042.049c.146.6.6.65,1.064,1,.317.235.813.794,1.25.815l.046.04,2.269.462.043.043c.452.01.825.165,1.558.169a9.156,9.156,0,0,0,4.205-1.013,5.91,5.91,0,0,0,1.837-1.657,7.336,7.336,0,0,0,1.071-2.424l.039-.04.212-1.18.041-.081c0-.6.128-1.156.127-1.855,0-.32.008-.651,0-.969-.008-.34-.122-.577-.128-.885l-.041-.04-.212-.969-.041-.041a21.288,21.288,0,0,0-1.21-2.831,7.03,7.03,0,0,0-2.45-1.588l-.044-.043-1.515-.424-.1-.039c-.494-.013-.942-.129-1.543-.127-.566,0-1.144,0-1.647.035a8.44,8.44,0,0,0-4.67,2.149,5.9,5.9,0,0,0-1.173,2.236Z" transform="translate(-8357.797 -1395.251)"/><path class="b" d="M8028.861,1453.531l.041-.041c.193-.851,1.383-2.251,2.348-2.274,0-.06-.013-.042.05-.042l1.1-.168.042-.042,1.936.211.047.042a3.225,3.225,0,0,1,1.847,2.134c.062,0,.042-.014.042.054.02.239.164.618.208.927a6.461,6.461,0,0,1-.1,3.138c-.361.989-1.081,2.269-2.246,2.375,0,.062.016.044-.052.044a15.1,15.1,0,0,1-1.514.21,13.01,13.01,0,0,1-1.515-.21c-.074,0-.062.022-.062-.044-1.007-.1-1.9-1.476-2.216-2.352A6.34,6.34,0,0,1,8028.861,1453.531Zm2.1-5.977-.04.039-.109,0-.059.04-.875.171c0,.06.014.042-.052.042a5.992,5.992,0,0,0-1.911.824,5.311,5.311,0,0,0-1.414,1.365l-.041.04-.674,1.138-.041.044-.463,1.429-.043.049-.211,3.655c0,.2,0,.084-.041.129,0,.43-.24.662-.088.964a3.069,3.069,0,0,1,.34.874c.061,0,.043-.013.043.054,0,.5-.049.8.2,1.064a5.891,5.891,0,0,1,.519.866l.041.048a7.741,7.741,0,0,0,.753,1.141c.5.628.234.538,1.018.877a8.982,8.982,0,0,0,2.732,1.056c.186,0,.088,0,.128.04l2.355.212.1.04c1.127,0,.593.029,1.448-.348a8.218,8.218,0,0,1,1.511-.41l.059-.04c1.537-.169,3.6-2.7,3.747-4.169l.04-.041.212-1.053c0-.072-.021-.058.041-.058v-4.181c-.061,0-.041.014-.041-.054l-.716-2.356-.044-.044c-.76-1.49-2.908-3.42-5.132-3.409l-.043-.042c-.409,0-1.141-.124-1.6-.164a12.435,12.435,0,0,0-1.639.164Z" transform="translate(-8010.933 -1393.441)"/><path class="b" d="M7748.3,1361.168c.044-.028,0-.023.088-.04.014,0,.074-.006.076-.006.044,0,.123,0,.173,0l7.069-.076V1357.3h-4.544l-2.97-.02a.3.3,0,0,1-.008-.108c.014-.164,0-.034.031-.095l0-1.041c0-.1,0-.2,0-.3a1.518,1.518,0,0,1,0-.165c.012-.076.017-.055.037-.09l.041-2.48h9.049l-.02-3.7h-12.941l.133,20.792a27.052,27.052,0,0,0,3.149.042c.833.009.589-.1.589-1.011l.042-7.955Z" transform="translate(-7743.339 -1299.858)"/><path class="b" d="M7830.12,1519a28.475,28.475,0,0,0-2.947-.043v-.18c-.028.061-.019-.069-.03.095a.3.3,0,0,0,.008.108l2.969.019Z" transform="translate(-7822.292 -1461.563)"/><path class="b" d="M9067.82,1506.316v-.794c0-.23.007-.183-.047-.251A3.486,3.486,0,0,0,9067.82,1506.316Z" transform="translate(-9006.006 -1448.673)"/><path class="b" d="M9067.9,1339.891c.074-.058.043-.069.047-.208,0-.077,0-.164,0-.243C9067.855,1339.5,9067.9,1339.771,9067.9,1339.891Z" transform="translate(-9006.127 -1290.45)"/><path class="b" d="M8757.081,471.021a.2.2,0,0,0-.1-.042c-.029-.005-.136-.007-.17-.006-.125,0-.163-.019-.236.049Z" transform="translate(-8709.09 -461.817)"/><path class="b" d="M8635.986,585.172V584.6A.871.871,0,0,0,8635.986,585.172Z" transform="translate(-8593.989 -570.234)"/><path class="b" d="M7827.892,1484.631c.023-.039.023-.007.037-.087,0-.04,0-.121,0-.164,0-.1,0-.2,0-.3-.021.035-.026.015-.038.09a1.524,1.524,0,0,0,0,.164c0,.1,0,.2,0,.3Z" transform="translate(-7823.007 -1428.455)"/><path class="b" d="M9068.033,1774.17c.066-.05.027.06.047-.123,0-.049,0-.172,0-.227-.031.05-.027-.053-.049.137C9068.025,1774,9068.033,1774.116,9068.033,1774.17Z" transform="translate(-9006.263 -1704.905)"/><path class="b" d="M7830.055,1607.038c-.048,0-.128-.006-.17,0,0,0-.065,0-.08.006-.083.016-.043.012-.086.04.049,0,.129.006.171,0,0,0,.064,0,.078-.006C7830.051,1607.061,7830.01,1607.066,7830.055,1607.038Z" transform="translate(-7824.753 -1545.77)"/><path class="b" d="M8748.891,1595.463a.192.192,0,0,0,.04-.1,1.214,1.214,0,0,0,0-.17c-.06.047-.028-.007-.042.086A1.319,1.319,0,0,0,8748.891,1595.463Z" transform="translate(-8701.761 -1534.468)"/><path class="b" d="M8425.971,582.425c.027-.044.025,0,.039-.089a1.167,1.167,0,0,0,0-.166c-.057.047-.027-.006-.041.087a1.2,1.2,0,0,0,0,.168Z" transform="translate(-8393.653 -567.916)"/><path class="b" d="M8170.06,592.654c.048-.075.037.092.039-.1s-.014-.084-.039-.116v.214Z" transform="translate(-8149.483 -577.715)"/><path class="b" d="M8388.434,1646.084c0-.139.025-.161-.044-.244l.014.19c0,.009.012.022.014.029a.091.091,0,0,0,.016.026Z" transform="translate(-8357.797 -1582.795)"/><path class="b" d="M8827.861,1646.832c0-.021,0-.113,0-.128l-.041-.124c0,.021,0,.113,0,.128.016.128-.016-.035.014.071Z" transform="translate(-8777.072 -1583.501)"/><path class="b" d="M7931.456,596.15a.72.72,0,0,0,0-.113c-.021-.083-.011-.041-.041-.086C7931.412,596.083,7931.388,596.071,7931.456,596.15Z" transform="translate(-7921.778 -581.064)"/><path class="b" d="M8426.03,615.382a.734.734,0,0,0,0-.123c-.02-.08-.015-.046-.04-.089a1.062,1.062,0,0,0,0,.125c.023.089,0,.037.042.088Z" transform="translate(-8393.668 -599.402)"/><path class="b" d="M8426.956,631.145a.84.84,0,0,0,0-.122c-.018-.077-.012-.042-.037-.083a.586.586,0,0,0,0,.118C8426.936,631.134,8426.934,631.106,8426.956,631.145Z" transform="translate(-8394.555 -614.449)"/><path class="b" d="M8978.188,1617.035a.446.446,0,0,0,0-.084c-.024-.1-.018-.065-.036-.1C8978.148,1616.985,8978.121,1616.976,8978.188,1617.035Z" transform="translate(-8920.499 -1555.135)"/><path class="b" d="M8564.65,1724.569c-.209,0-.082,0-.131.044C8564.728,1724.614,8564.6,1724.615,8564.65,1724.569Z" transform="translate(-8525.848 -1657.913)"/><path class="b" d="M8545.395,1724.621c-.05-.049.083-.044-.124-.044C8545.314,1724.619,8545.2,1724.618,8545.395,1724.621Z" transform="translate(-8507.482 -1657.921)"/><path class="b" d="M8027.859,1643.949c.039-.046.041.069.041-.129C8027.859,1643.865,8027.859,1643.752,8027.859,1643.949Z" transform="translate(-8013.805 -1580.868)"/><path class="b" d="M8149.087,1798.06c-.04-.035.058-.04-.128-.04C8149,1798.056,8148.9,1798.06,8149.087,1798.06Z" transform="translate(-8129.35 -1727.995)"/><path class="b" d="M8727.949,277.54c-.18,0-.09.005-.131.04C8728,277.58,8727.91,277.573,8727.949,277.54Z" transform="translate(-8681.656 -277.259)"/><path class="b" d="M8827.869,1603.6c.038-.042.04.062.04-.125C8827.872,1603.522,8827.869,1603.419,8827.869,1603.6Z" transform="translate(-8777.118 -1542.379)"/><path class="b" d="M9084.631,590.6a.633.633,0,0,0,0-.08c-.026-.083-.009-.037-.042-.087a.347.347,0,0,0,0,.081c.024.074.013.044.042.085Z" transform="translate(-9022.058 -575.797)"/><path class="b" d="M9068.123,1321.846c0-.159.013-.063-.043-.1C9068.08,1321.917,9068.068,1321.8,9068.123,1321.846Z" transform="translate(-9006.31 -1273.572)"/><path class="b" d="M8379.26,644.458c.039-.043.039.02.039-.138C8379.267,644.366,8379.26,644.317,8379.26,644.458Z" transform="translate(-8349.086 -627.215)"/><path class="b" d="M8448.072,732.4a.224.224,0,0,0-.008-.083c0-.008-.01-.026-.014-.033s-.014-.02-.02-.029C8448.031,732.418,8448.031,732.35,8448.072,732.4Z" transform="translate(-8414.704 -711.112)"/><path class="b" d="M8978.256,1641.214c.007-.009.019-.033.019-.029s.012-.024.015-.033a.25.25,0,0,0,.007-.083C8978.251,1641.121,8978.256,1641.06,8978.256,1641.214Z" transform="translate(-8920.606 -1578.244)"/><path class="b" d="M8892.478,1724.542c0-.067.013-.044-.066-.044C8892.411,1724.566,8892.4,1724.542,8892.478,1724.542Z" transform="translate(-8838.698 -1657.842)"/><path class="b" d="M8165.087,294.035c0-.066.015-.044-.06-.044C8165.027,294.056,8165.012,294.035,8165.087,294.035Z" transform="translate(-8144.68 -292.951)"/><path class="b" d="M8159.587,1719.044c0-.066.015-.044-.062-.044C8159.526,1719.066,8159.512,1719.044,8159.587,1719.044Z" transform="translate(-8139.431 -1652.596)"/><path class="b" d="M8393.867,1566.731c-.064,0-.043-.013-.043.062C8393.891,1566.794,8393.867,1566.807,8393.867,1566.731Z" transform="translate(-8362.979 -1507.314)"/><path class="b" d="M8388.363,1594.25c-.065,0-.046-.014-.046.062C8388.385,1594.311,8388.363,1594.325,8388.363,1594.25Z" transform="translate(-8357.726 -1533.57)"/><path class="b" d="M8393.871,1687.511c0-.074.021-.06-.042-.06C8393.829,1687.525,8393.807,1687.511,8393.871,1687.511Z" transform="translate(-8362.983 -1622.496)"/><path class="b" d="M7931.5,580.012c.031-.047.024,0,.041-.086a.956.956,0,0,0,0-.106Z" transform="translate(-7921.866 -565.674)"/><path class="b" d="M8358.1,1670.98c-.061,0-.041-.013-.041.058C8358.125,1671.038,8358.1,1671.051,8358.1,1670.98Z" transform="translate(-8328.858 -1606.781)"/><path class="b" d="M8641.616,294.006c-.067,0-.054-.019-.054.044C8641.632,294.05,8641.616,294.069,8641.616,294.006Z" transform="translate(-8599.356 -292.967)"/><path class="b" d="M8748.953,1649.951l-.044-.191a.616.616,0,0,0,0,.105C8748.936,1649.946,8748.922,1649.905,8748.953,1649.951Z" transform="translate(-8701.78 -1586.536)"/><path class="b" d="M8399.379,1545.619c-.063,0-.043-.013-.043.057C8399.4,1545.676,8399.379,1545.689,8399.379,1545.619Z" transform="translate(-8368.239 -1487.171)"/><path class="b" d="M8525.716,1529.987c-.07,0-.058-.02-.058.042C8525.729,1530.029,8525.716,1530.049,8525.716,1529.987Z" transform="translate(-8488.77 -1472.254)"/><path class="b" d="M8273.7,1577.53c0-.068.021-.054-.041-.054C8273.663,1577.544,8273.644,1577.53,8273.7,1577.53Z" transform="translate(-8248.331 -1517.567)"/><path class="b" d="M7754.476,454.613c-.063,0-.046-.014-.046.052C7754.492,454.666,7754.476,454.68,7754.476,454.613Z" transform="translate(-7752.916 -446.209)"/><path class="b" d="M8973.44,1462.124c0-.061.016-.042-.053-.042C8973.388,1462.143,8973.375,1462.124,8973.44,1462.124Z" transform="translate(-8915.961 -1407.464)"/><path class="b" d="M8358.114,1578.7c0-.067.018-.054-.042-.054C8358.072,1578.715,8358.054,1578.7,8358.114,1578.7Z" transform="translate(-8328.867 -1518.684)"/><path class="b" d="M8033.354,1686.731c0-.067.019-.054-.041-.054C8033.313,1686.744,8033.294,1686.731,8033.354,1686.731Z" transform="translate(-8019.006 -1621.759)"/><path class="b" d="M8226.952,1719.025c-.064,0-.05-.017-.05.045C8226.967,1719.07,8226.952,1719.087,8226.952,1719.025Z" transform="translate(-8203.717 -1652.621)"/><path class="b" d="M8133.388,1456.586c-.064,0-.053-.018-.053.042C8133.4,1456.628,8133.388,1456.646,8133.388,1456.586Z" transform="translate(-8114.442 -1402.22)"/><path class="b" d="M8598.49,896.869c0-.061.016-.044-.048-.044C8598.442,896.886,8598.429,896.869,8598.49,896.869Z" transform="translate(-8558.215 -868.135)"/><path class="b" d="M8874.6,618.852c-.061,0-.043-.014-.043.049C8874.615,618.9,8874.6,618.916,8874.6,618.852Z" transform="translate(-8821.662 -602.914)"/><path class="b" d="M8164.378,1530c-.065,0-.052-.018-.052.042C8164.391,1530.039,8164.378,1530.057,8164.378,1530Z" transform="translate(-8144.011 -1472.264)"/><path class="b" d="M8861.864,1797.946l-.114-.046C8861.8,1797.955,8861.658,1797.946,8861.864,1797.946Z" transform="translate(-8809.444 -1727.88)"/><path class="b" d="M7942.494,538.909c-.061,0-.044-.015-.044.047C7942.509,538.956,7942.494,538.97,7942.494,538.909Z" transform="translate(-7932.311 -526.637)"/><path class="b" d="M7921.455,299.522c-.062,0-.047-.016-.047.044C7921.47,299.566,7921.455,299.581,7921.455,299.522Z" transform="translate(-7912.235 -298.231)"/><path class="b" d="M7737.979,494.055c-.06,0-.045-.015-.045.045C7738,494.1,7737.979,494.115,7737.979,494.055Z" transform="translate(-7737.178 -483.841)"/><path class="b" d="M8380.081,636.225c-.059,0-.044-.015-.044.045C8380.1,636.27,8380.081,636.284,8380.081,636.225Z" transform="translate(-8349.826 -619.489)"/><path class="b" d="M8933.261,1803.387c-.06,0-.044-.015-.044.045C8933.277,1803.432,8933.261,1803.447,8933.261,1803.387Z" transform="translate(-8877.633 -1733.114)"/><path class="b" d="M8912.313,1803.56l-.1-.041C8912.244,1803.572,8912.146,1803.56,8912.313,1803.56Z" transform="translate(-8857.59 -1733.243)"/><path class="b" d="M8380.019,571.248c0-.138.013-.046-.05-.079Z" transform="translate(-8349.763 -557.419)"/><path class="b" d="M8681.112,283.025c-.144,0-.05-.013-.082.045Z" transform="translate(-8637.013 -282.491)"/><path class="b" d="M9079.136,532.708c0-.135.012-.046-.047-.078Z" transform="translate(-9016.814 -520.648)"/><path class="b" d="M8467.189,1607.367c.061-.033.049.057.049-.077Z" transform="translate(-8432.983 -1546.014)"/><path class="b" d="M8844.36,1073.09l-.039.042Z" transform="translate(-8792.814 -1036.317)"/><path class="b" d="M8822.342,1106.11l-.043.042Z" transform="translate(-8771.804 -1067.823)"/><path class="b" d="M8524.2,1161.18l-.043.043Z" transform="translate(-8487.341 -1120.367)"/><path class="b" d="M7804.06,1174.02l-.04.056Z" transform="translate(-7800.233 -1132.618)"/><path class="b" d="M8508.611,1182.28l-.041.041Z" transform="translate(-8472.465 -1140.499)"/><path class="b" d="M9047.114,1304.32l-.044.043Z" transform="translate(-8986.265 -1256.941)"/><path class="b" d="M8157.249,1451.13l-.038.04Z" transform="translate(-8137.223 -1397.016)"/><path class="b" d="M8100.048,277.58l-.059-.04Z" transform="translate(-8082.627 -277.259)"/><path class="b" d="M8927.881,1451.171l-.041-.041Z" transform="translate(-8872.504 -1397.016)"/><path class="b" d="M8153.6,1452.05l-.06.04Z" transform="translate(-8133.721 -1397.895)"/><path class="b" d="M8597.34,1452.09l-.1-.04Z" transform="translate(-8557.069 -1397.895)"/><path class="b" d="M8148.774,288.589l-.053-.039Z" transform="translate(-8129.123 -287.764)"/><path class="b" d="M8632.434,1462.183l-.044-.043Z" transform="translate(-8590.605 -1407.522)"/><path class="b" d="M8179.272,299.6l-.044-.042Z" transform="translate(-8158.231 -298.269)"/><path class="b" d="M8238.854,331.724l-.046-.044Z" transform="translate(-8215.076 -328.916)"/><path class="b" d="M8060.01,1505.27l-.039.04Z" transform="translate(-8044.443 -1448.673)"/><path class="b" d="M9035.219,417.97l-.038-.04Z" transform="translate(-8974.92 -411.21)"/><path class="b" d="M8189.372,1525.46l-.042.042Z" transform="translate(-8167.869 -1467.937)"/><path class="b" d="M8341.623,1526.413l-.042-.044Z" transform="translate(-8313.136 -1468.805)"/><path class="b" d="M7765.529,434.45l-.038.04Z" transform="translate(-7763.472 -426.972)"/><path class="b" d="M8081.109,476.75l-.04-.04Z" transform="translate(-8064.574 -467.293)"/><path class="b" d="M8232.488,1530.092l-.047-.042Z" transform="translate(-8209.002 -1472.317)"/><path class="b" d="M8443.469,504.18l-.039.044Z" transform="translate(-8410.313 -493.503)"/><path class="b" d="M8879.979,1530.05l-.05.042Z" transform="translate(-8826.791 -1472.317)"/><path class="b" d="M8926.019,1530.092l-.049-.042Z" transform="translate(-8870.718 -1472.317)"/><path class="b" d="M8044.421,1530.96l-.041.044Z" transform="translate(-8029.567 -1473.185)"/><path class="b" d="M8522.419,1531.01l-.039.04Z" transform="translate(-8485.642 -1473.233)"/><path class="b" d="M8369.162,515.237l-.042-.047Z" transform="translate(-8339.412 -504.008)"/><path class="b" d="M8759.05,1549.31l-.04.04Z" transform="translate(-8711.417 -1490.693)"/><path class="b" d="M8713.2,1559.451l-.041-.041Z" transform="translate(-8667.672 -1500.33)"/><path class="b" d="M8033.412,1563.08l-.042.049Z" transform="translate(-8019.063 -1503.832)"/><path class="b" d="M8659.118,526.27l-.037.039Z" transform="translate(-8616.071 -514.58)"/><path class="b" d="M8628.784,1570.442l-.044-.042Z" transform="translate(-8587.123 -1510.816)"/><path class="b" d="M8869.142,554.7l-.041-.042Z" transform="translate(-8816.459 -541.668)"/><path class="b" d="M7721.46,569.414l.041-.084Z" transform="translate(-7721.46 -555.665)"/><path class="b" d="M8112.33,1580.54l-.04.041Z" transform="translate(-8094.362 -1520.491)"/><path class="b" d="M8718.73,1581.47l-.041-.04Z" transform="translate(-8672.946 -1521.34)"/><path class="b" d="M8426.921,569.414l.041-.084Z" transform="translate(-8394.562 -555.665)"/><path class="b" d="M8169.182,581.312l-.041-.042Z" transform="translate(-8148.606 -567.057)"/><path class="b" d="M8641.65,617.107l-.039-.057Z" transform="translate(-8599.405 -601.196)"/><path class="b" d="M8642.55,620.762l-.04-.042Z" transform="translate(-8600.262 -604.698)"/><path class="b" d="M8164.591,628.98l-.041.051Z" transform="translate(-8144.226 -612.579)"/><path class="b" d="M8163.671,631.73l-.041.041Z" transform="translate(-8143.348 -615.203)"/><path class="b" d="M7721.5,637.314l-.041-.084Z" transform="translate(-7721.46 -620.45)"/><path class="b" d="M8432.469,671.112l-.039-.092Z" transform="translate(-8399.817 -652.69)"/><path class="b" d="M8373.809,677.33l-.039.055Z" transform="translate(-8343.849 -658.711)"/><path class="b" d="M8443.469,709.59l-.039-.05Z" transform="translate(-8410.313 -689.443)"/><path class="b" d="M7738.009,713.48l-.039-.04Z" transform="translate(-7737.213 -693.164)"/><path class="b" d="M8718.68,1663.241l.041-.081Z" transform="translate(-8672.938 -1599.321)"/><path class="b" d="M9073.77,713.44l-.039.04Z" transform="translate(-9011.701 -693.164)"/><path class="b" d="M8972.8,1671.35l-.041.053Z" transform="translate(-8915.363 -1607.135)"/><path class="b" d="M8967.3,1685.12l-.039.04Z" transform="translate(-8910.114 -1620.273)"/><path class="b" d="M8358.161,723.49l-.041.042Z" transform="translate(-8328.917 -702.753)"/><path class="b" d="M9068.261,729.05l-.041.039Z" transform="translate(-9006.443 -708.058)"/><path class="b" d="M8713.22,1690.66l-.04.04Z" transform="translate(-8667.69 -1625.56)"/><path class="b" d="M8352.691,1695.24l-.041.041Z" transform="translate(-8323.696 -1629.929)"/><path class="b" d="M8759.973,1707.135l-.042-.044Z" transform="translate(-8712.297 -1641.236)"/><path class="b" d="M8501.3,1708.1l-.041-.041Z" transform="translate(-8465.489 -1642.161)"/><path class="b" d="M9040.722,773.07l-.041.04Z" transform="translate(-8980.168 -750.059)"/><path class="b" d="M8981.013,871.18l-.045.044Z" transform="translate(-8923.194 -843.669)"/><path class="b" d="M7867.36,880.451l-.04-.041Z" transform="translate(-7860.63 -852.475)"/><path class="b" d="M7878.371,885.952l-.041-.042Z" transform="translate(-7871.134 -857.723)"/><path class="b" d="M8228.792,1451.173l-.042-.043Z" transform="translate(-8205.48 -1397.016)"/><path class="b" d="M8049.92,1729.989l-.039-.049Z" transform="translate(-8034.816 -1663.038)"/><path class="b" d="M8421.461,1746.48l-.04-.05Z" transform="translate(-8389.313 -1678.771)"/><path class="b" d="M8781.069,1749.43l-.04-.04Z" transform="translate(-8732.427 -1681.595)"/><path class="b" d="M8797.581,1765.94l-.041-.041Z" transform="translate(-8748.181 -1697.348)"/><path class="b" d="M8259.122,888.61l-.042.044Z" transform="translate(-8234.42 -860.299)"/><path class="b" d="M8269.748,1787.03l-.058.039Z" transform="translate(-8244.543 -1717.509)"/><path class="b" d="M8472.835,1787.069l-.045-.039Z" transform="translate(-8438.327 -1717.509)"/><path class="b" d="M8983.811,1795.256l-.04-.086Z" transform="translate(-8925.868 -1725.276)"/><path class="b" d="M7889.381,891.461l-.041-.041Z" transform="translate(-7881.639 -862.98)"/><path class="b" d="M8523.293,1798l-.043-.043Z" transform="translate(-8486.471 -1727.938)"/><path class="b" d="M7900.391,896.971l-.041-.041Z" transform="translate(-7892.144 -868.238)"/><path class="b" d="M7911.4,902.481l-.041-.041Z" transform="translate(-7902.649 -873.495)"/><path class="b" d="M7922.4,907.991l-.041-.041Z" transform="translate(-7913.145 -878.752)"/><path class="b" d="M7933.41,913.5l-.04-.04Z" transform="translate(-7923.65 -884.01)"/><path class="b" d="M8203.175,1803.56l-.094-.041Z" transform="translate(-8180.989 -1733.243)"/><path class="b" d="M7960.93,924.52l-.041-.04Z" transform="translate(-7949.906 -894.524)"/><path class="b" d="M7956.35,948.29l-.04.04Z" transform="translate(-7945.537 -917.242)"/><path class="b" d="M8920.494,959.24l-.043.045Z" transform="translate(-8865.454 -927.69)"/></g></g></g></svg>