<svg xmlns="http://www.w3.org/2000/svg" width="99.113" height="99.112" viewBox="0 0 99.113 99.112"><defs><style>.a{fill:#dbdbda;}.b{fill:#fff;fill-rule:evenodd;}</style></defs><g transform="translate(-2433.752 -4630.747)"><g transform="translate(98 -171.172)"><rect class="a" width="99.113" height="99.113" rx="19" transform="translate(2335.752 4801.919)"/><g transform="translate(2347.457 4817.221)"><path class="b" d="M3099.163,427.388c0-6.491.4-11.033,4.787-15.971a16.06,16.06,0,0,1,12.818-5.838c1.918,0,1.941,1.809,2.3,3.213,1.054,4.066,3.339,3.962,6.3,4.732,3.225.836,2.453,4.734,7.043,4.041.605-.091,1.752-.265,2.345-.339,1.164-.145,1.367.065,1.916.758,4.629,5.848.773,26.221-3.1,26.221-2.161,0-2.952-5.518-8.934-5.518-4.486,0-4.916,5.676-9.13,1.772-6.834-6.329-7.963,7.311-14.169-5.013A19.812,19.812,0,0,1,3099.163,427.388Zm18.13-25.488h1.587c2.116.018.232.24,3.405,2.365a14.513,14.513,0,0,0-.263,1.839c0,2.847,3.182,4.467,4.992,4.467.681,0,.27-.176,1.314-.263,3.268,4.88,3.681,3.931,8.146,2.89,1.345.985.626,1.339,2.9,1.564,1.09.108,1.12-.05,1.475.89,1.324,3.509,1.4,10.081,1.4,14.1,0,4.984-1.972,12.495-4.252,16.244-.732,1.2-1.6,3.2-3.369,3.2-3.707,0-8.067-9.241-12.426-5.33-1.106.993-1.852,2.44-3.866,2.44-2.641,0-4.477-3.153-6.569-3.153-2.9,0-6.057,4.931-10.454.206-.483-.52-.594-.765-1.049-1.316-3.141-3.8-5.052-10.762-5.052-17.021a25.518,25.518,0,0,1,6.12-16.477c3.235-3.882,10.477-6.646,15.952-6.646Z" transform="translate(-3079.456 -401.9)"/><path class="b" d="M3858.768,1491.819c-.033-1.506-.379-1.314-2.366-1.314-.808,0-1.05.77-1.05,1.577,0,2.894-.313,9.089.262,11.562,5.628,1.311,3.188-1.934,3.708-7.591.177-1.926.239-2.131,1.547-2.131,2.773,0-.671,9.985,2.1,9.985,3.425,0,2.891.089,2.891-4.729,0-3.092-.683-5.256,1.577-5.256,2.772,0-.671,9.985,2.1,9.985,3.662,0,2.891.889,2.891-8.671,0-2.633-1.4-4.992-3.941-4.992-1.8,0-2.354,1.128-3.416,1.839a3.606,3.606,0,0,0-1.149-1.216C3861.249,1489.22,3859.577,1491.276,3858.768,1491.819Z" transform="translate(-3804.638 -1440.318)"/><path class="b" d="M3179.9,1500.022c-.5-2.156-.526.093-.526-4.2,0-1.358.7-1.636,1.576-2.1,1.311,1.139,1.314,1.454,1.314,3.416,0,3.349-1.156,2.89-2.365,2.89Zm4.992,6.044h-1.764c-1.479-.052-1.127-.467-1.127-3.153-3.738,2.5-6.569-1.116-6.569-6.044,0-3.275,1.432-6.569,4.73-6.569.657,0,.927.469,1.491.606,1.266.306.231-.343,1.4-.343,1.865,0,2.89-.342,2.89,1.577v11.824C3185.941,1504.9,3185.813,1506.066,3184.89,1506.066Z" transform="translate(-3155.985 -1440.375)"/><path class="b" d="M2758.352,1499.769v.263c0,1.527-2.8,1.672-3.013-.056C2755.127,1498.266,2758.352,1497.958,2758.352,1499.769Zm-3.941-4.73c1.393,0,.071-1.051,2.627-1.051,1.13,0,1.051.957,1.051,2.1a9.044,9.044,0,0,0-2.1-.526c-2.115,0-4.467,1.653-4.467,3.679v1.314c0,1.5,2.376,5.7,7.357,2.365,1.022,1.526,4.2,1.73,4.2,0,0-2.363.181-2.262-1.051-2.365,0-4.552,1.049-10.248-5.255-10.248-4.1,0-7.494,4.73-2.365,4.73Z" transform="translate(-2751.521 -1440.385)"/><path class="b" d="M3610.578,1500.379c-2.5,0-1.921-6.569-.263-6.569C3612.582,1493.81,3612.1,1500.379,3610.578,1500.379Zm-5.519-4.467c0,6.374.694,7.883,6.569,7.883,4.759,0,4.89-9.194,2.828-11.762-2.694-3.353-9.4-2.431-9.4,3.879Z" transform="translate(-3565.908 -1440.206)"/><path class="b" d="M4250.864,1494.227c0-.742.6-1.013,1.051-1.313,1.26.293,1.46.7,1.577,2.1h-2.628Zm-4.2,2.1c0,3.9,1.27,7.826,5.9,7.219,4.3-.563,4.736-4.057,3.886-4.639a7.331,7.331,0,0,0-2.694-.478c-.577,1.2-.154,1.576-1.839,1.576-1.07,0-1.231-1.358-1.314-2.365a29.566,29.566,0,0,0,3.61-.07c.988-.124,2.7.085,2.7-.982,0-2.343-.354-5.258-2.434-6.237C4250.868,1488.657,4246.661,1490.374,4246.661,1496.329Z" transform="translate(-4178.079 -1439.835)"/><path class="b" d="M3421.76,1499.282c0,4.99.788-1.16.788,7.095,1.413.681,3.887,1.2,3.964-1.039.037-1.079-.022-2.325-.022-3.428a8.263,8.263,0,0,0,2.627-.263c0-3.4.543-3.153-2.627-3.153a5.544,5.544,0,0,1,.263-1.577c2.979,0,2.891.17,2.891-2.365,0-1.815-5.648-1.556-6.616,1a12.408,12.408,0,0,0-.435,1.93C3422.214,1499.541,3421.76,1497.923,3421.76,1499.282Z" transform="translate(-3391.017 -1443.313)"/><path class="b" d="M3009.106,1553.55c0,1.952-.1,2.1,1.577,2.1v3.942c-1.81.04-1.577.521-1.577,2.365,0,1.576,2.64,1.051,5.518,1.051a3.789,3.789,0,0,0,1.313-.263c.467-2,.65-2.99-1.313-3.153v-3.942c1.77-.039,1.576-.517,1.576-2.1,0-1.767-3.463-1.314-5.255-1.314C3010.06,1552.236,3009.106,1552.7,3009.106,1553.55Z" transform="translate(-2997.282 -1499.421)"/><path class="b" d="M3261.361,796.33c0,6.659,5.607,7.418,6.011.225.232-4.122-3.294-7.853-5.235-3.653a13.093,13.093,0,0,0-.776,3.427Z" transform="translate(-3237.975 -773.207)"/><path class="b" d="M3673.81,796.685c0,7.135,5.781,6.5,5.781,1.051,0-1.883-.1-6.306-2.627-6.306a2.109,2.109,0,0,0-1.971,1.149c-1,1.551.576-1.007-.189.329A7.032,7.032,0,0,0,3673.81,796.685Z" transform="translate(-3631.505 -773.562)"/><path class="b" d="M3032.22,1440.8c0,3.97,4.992,2.983,4.992.263C3037.212,1438.136,3032.22,1437.791,3032.22,1440.8Z" transform="translate(-3019.344 -1391.143)"/></g></g></g></svg>