<svg xmlns="http://www.w3.org/2000/svg" width="99.113" height="99.112" viewBox="0 0 99.113 99.112"><defs><style>.a{fill:#ec2333;}.b{fill:#fff;fill-rule:evenodd;}</style></defs><g transform="translate(-2413.787 -3955.9)"><rect class="a" width="99.113" height="99.113" rx="19" transform="translate(2413.787 3955.9)"/><g transform="translate(2439.621 3970.534)"><g transform="translate(0.001 0)"><path class="b" d="M35.449,3.507A10.624,10.624,0,0,0,25.976,8.9a10.4,10.4,0,0,0,.778,11.351c1.862,2.455,1.312.3,1.815,4.135l1.039,7.882A25.778,25.778,0,0,1,29.94,35L54.3,31.1a10.5,10.5,0,0,0,.468-2.681l.8-6.282c.1-.711,1.244-.981,2.363-3.149a11.878,11.878,0,0,0,.906-2.243,10.386,10.386,0,0,0-2.11-9.5,10.6,10.6,0,0,0-3.87-2.863,11.13,11.13,0,0,0-4.46-.876A7.537,7.537,0,0,0,42.363.01,7.662,7.662,0,0,0,37.85,1.1a7.222,7.222,0,0,0-2.4,2.413Z" transform="translate(-18.479 -0.01)"/><path class="b" d="M50.591,196.039c-.981,0-4.127.7-4.811.7a16.766,16.766,0,0,0,1.312,4.2,12.061,12.061,0,0,0,5.684,5.509,10.991,10.991,0,0,0,4.115,1.136h1.827a12.247,12.247,0,0,0,11.551-12.157c0-.916-.175-1.622-.175-2.535a32.948,32.948,0,0,0-4.831.806,6,6,0,0,0,.033,1.016c.663,6.047-6.215,10.022-11.138,6.941a8.172,8.172,0,0,1-2.328-2.22,11.039,11.039,0,0,1-1.239-3.4Z" transform="translate(-34.319 -144.613)"/><path class="b" d="M0,206.305v7.784H2.275v-6.122c2.525-.588,2.012,1.382,2.012,4.46,0,2.047-.453,1.662,2.1,1.662.2,0,.263-.06.263-.263v-3.935a16.583,16.583,0,0,0-.175-1.75c.781-.375,1.827-.508,2.1.616a42.543,42.543,0,0,1,.085,4.638c-.015.879-.248.693,2.28.693v-5.161c0-3.164-3.214-3.752-5.424-2.275-1.692-1.472-4.343-.375-5.509-.35Z" transform="translate(0.003 -154.354)"/><path class="b" d="M3.754,148.089c.383,0,1.312.035,1.312.438v3.935c-1.364,0-2.613.233-2.758-2.13C2.24,149.248,2.631,148.089,3.754,148.089Zm-3.762,2.551v-.8c0-1.77,1.266-3.674,3.149-3.674a4.1,4.1,0,0,1,1.925.263c0-4.13-.383-3.494,1.034-3.687a7.956,7.956,0,0,1,1.327-.16c-.115.23-.088-.073-.088.263v10.845c0,.348.243.318-.423.451-2.37.473-5.409.773-6.575-1.85a3.9,3.9,0,0,1-.35-1.647Z" transform="translate(0.01 -106.896)"/><path class="b" d="M171.93,192.548v11.283h2.275v-5.859c0-.363,1.945-.821,2.228.571a38.18,38.18,0,0,1,.133,4.766c0,.621-.636.526,2.012.526.2,0,.263-.06.263-.263v-4.2a3.746,3.746,0,0,0-1.159-3.126,4.1,4.1,0,0,0-3.477-.373V192.2c-.713.015-1.562.333-2.275.35Z" transform="translate(-128.894 -144.096)"/><path class="b" d="M129.474,158.467c1.014,0,1.574.39,1.574,1.487h-2.886C128.323,159.27,128.608,158.467,129.474,158.467Zm-3.674,2.36c0,2.8,1.76,4.11,4.46,4.11a9.471,9.471,0,0,0,2.535-.438,18.376,18.376,0,0,0-.263-1.925,5.865,5.865,0,0,1-2.535.35,1.716,1.716,0,0,1-1.837-1.4h5.074a3.763,3.763,0,0,0,.088-.786,4.772,4.772,0,0,0-.859-2.988C130.693,155.528,125.8,156.257,125.8,160.827Z" transform="translate(-94.31 -117.361)"/><path class="b" d="M36.952,158.454a1.244,1.244,0,0,1,1.134.441,1.45,1.45,0,0,1,.353,1.046H35.553A1.436,1.436,0,0,1,36.952,158.454Zm-3.762,2.188c0,3.8,2.7,4.633,5.737,4.162.523-.08.831-.28,1.259-.315,0-.631-.248-1.294-.263-1.925a5.873,5.873,0,0,1-2.535.35,1.693,1.693,0,0,1-1.837-1.4h5.073c0-.461.093-.626.083-.956a4.935,4.935,0,0,0-.728-2.6C38.236,155.343,33.19,156.331,33.19,160.642Z" transform="translate(-24.88 -117.348)"/><path class="b" d="M179.61,157.338c.19.821.523,1.7.776,2.46l1.907,4.568c.26.531.393.508.053,1.039-.621.966-1.249.666-2.122.593,0,2.045-.213,1.975.518,2.022,2.415.16,3.154-.843,4.17-3.284a61.639,61.639,0,0,0,2.388-6.448,3.338,3.338,0,0,0,.273-1.039,7.332,7.332,0,0,1-2.012.088c-.335,0-.033.028-.263-.088-.355.743-1.181,4.608-1.662,5.161l-1.519-4.786C181.96,157.067,182.1,157.338,179.61,157.338Z" transform="translate(-134.652 -117.894)"/><path class="b" d="M98.279,165.289c1.887,0,1.634.41,2.548-1.825.278-.681.608-1.367.871-2.1l1.322-3.857c.085-.411.023-.178-.283-.178h-2.1a15.307,15.307,0,0,1-.688,2.548,20.247,20.247,0,0,0-.8,2.526l-.931-2.48a16.456,16.456,0,0,1-.731-2.593,8.731,8.731,0,0,1-2.448-.088,33.175,33.175,0,0,0,1.387,4.21c.13.32,1.429,3.835,1.85,3.835Z" transform="translate(-71.249 -117.886)"/><path class="b" d="M143.963,209.755c0,3,1.3,4.46,4.373,4.46a4.623,4.623,0,0,0,1.026-.11c.313-.058.656-.213.984-.24a18.355,18.355,0,0,0-.263-1.925c-1.407.328-3.762.819-3.762-1.574,0-1.807.34-2.535,2.188-2.535a9.114,9.114,0,0,1,1.312.263l.438-1.837c-.308-.073-.631-.233-1-.313a4.456,4.456,0,0,0-4.1.986,4.208,4.208,0,0,0-1.2,2.823Z" transform="translate(-107.925 -154.305)"/><path class="b" d="M66.04,143.1v8.485c0,2.18,1.056,2.8,3.236,2.8.05-.611.263-1.156.263-1.837-.678-.325-1.224.2-1.224-1.925V142.57a7.977,7.977,0,0,0-1.239.16C66.7,142.783,66.04,142.743,66.04,143.1Z" transform="translate(-49.508 -106.888)"/><path class="b" d="M157.95,157.434v7.609h2.275v-5.859c0-.7,2.255-.153,2.535-.088a9.978,9.978,0,0,0,.35-1.837c0-.5-2.953-.378-3.832-.158A12.273,12.273,0,0,1,157.95,157.434Z" transform="translate(-118.413 -117.64)"/><path class="b" d="M85.785,157.449H83.86v7.959h2.275v-7.784C86.135,157.256,86,157.449,85.785,157.449Z" transform="translate(-62.868 -118.005)"/><path class="b" d="M82.82,144.319c0,1.815,2.711,1.617,2.711.175,0-.829-.285-1.574-1.312-1.574A1.376,1.376,0,0,0,82.82,144.319Z" transform="translate(-62.088 -107.15)"/></g></g></g></svg>