<svg xmlns="http://www.w3.org/2000/svg" width="102.247" height="102.247" viewBox="0 0 102.247 102.247"><defs><style>.a{fill:#0ad875;}.a,.b{fill-rule:evenodd;}.b{fill:#fff;}</style></defs><g transform="translate(-2430.618 -4469.773)"><rect width="102.247" height="102.247" rx="20" transform="translate(2430.618 4469.773)"/><path class="a" d="M229.75,550.222l0,20.078,14.44-.021.021-3.462-10.541-.018-.022-5.12,10.131.022-.024-3.389-10.377.019.4-5.077,10.411.011.021-3.456Z" transform="translate(2222.831 3970.596)"/><path class="a" d="M399.77,609.683c-.542-6.26,8.641-6.626,9.223-1.033C409.655,615,400.253,615.26,399.77,609.683Zm9.213,5.832c.156,1.654-1.146,1.141,3.8,1.213l0-15.125c-4.714.08-3.569.366-3.847.688l-.239.443a7.98,7.98,0,0,0-12.671,6.586,7.856,7.856,0,0,0,8.706,7.756c2.339-.17,2.7-.843,4.259-1.561Z" transform="translate(2072.459 3924.145)"/><path class="b" d="M434.832,291.347a5.132,5.132,0,0,1,2.585,9.934c-6.5,1.662-9.373-7.967-2.584-9.934ZM428.1,303.791h2.345c.632-.711.067.1.454-.8.207-.48.019-.35.269-.873,2.311,1.464,4.672,3.1,8.636,1.245,9.848-4.6,1.788-19.12-7.27-13.8a11.611,11.611,0,0,1-1.531.967l.015-7.268-2.952.01.034,20.521Z" transform="translate(2043.47 4211.665)"/><path class="a" d="M727.219,612.125c-1.163,2.42-5.758,1.911-6.72-.743l-3.83,0c1.469,7.456,11.363,5.57,13.461,3.274a4.154,4.154,0,0,0-1.375-6.583c-2.192-1.106-6.544-.826-7.878-2.515.306-1.7,1.306-1.934,3.426-1.69,2.152.247,1.877,1.377,3.293,2.138l3.268,0c-1.661-7.862-11.323-5.279-12.963-3.211-2.23,2.812-.65,5.537,1.987,6.572a28.8,28.8,0,0,0,4.014,1.049C725.628,610.829,726.68,610.7,727.219,612.125Z" transform="translate(1782.459 3924.594)"/><path class="b" d="M232.068,297.8c.1,6.135,9.189,8.318,12.5,4.206.453.865-.221-.366.233.727.029.07.072.185.105.261s.092.191.127.266l2.889.541-.071-20.483-3.079-.048c.107,3.654.593,12.92-.731,15.555-1.921,3.821-8.577,3.575-9.17-2.344-.68-1.33-.489-10.858-.132-12.875l-2.959-.04c.429,3.889.207,10.175.288,14.235Z" transform="translate(2220.995 4211.656)"/><path class="b" d="M614.785,344.3c1.349-5.049,8.1-4.966,8.881.068Zm11,5.97-1.727-1.349c-4.441,3.507-8.62,2.068-9.35-2.159l12.076-.053c-.232-4.038-1.148-7.582-5.844-8.6-8.969-1.937-12.8,10.671-5.092,14.553a8.249,8.249,0,0,0,5.734.626,6.93,6.93,0,0,0,3.567-1.878c.993-1.165.293-.095.637-1.144Z" transform="translate(1877.391 4162.241)"/><path class="a" d="M588.691,568.388l2.9-.031c.064,11.518-1.241,11.672,8.168,11.715l0-3.452c-4.712.022-4.527,1.433-4.308-8.252l4.3.009.009-3.42-4.283.01-.036-4.247-3.836-.079-.105,4.331-2.808-.039-.01,3.456Z" transform="translate(1898.205 3960.802)"/><path class="b" d="M790.231,355.869l2.932.166c0-9.4-1.288-11.8,4.516-12.416l-.035-2.539c-2.409-.3-3.219.208-4.209,1.584l-.3-1.639-2.921.078.021,14.764Z" transform="translate(1715.949 4159.449)"/></g></svg>