<svg xmlns="http://www.w3.org/2000/svg" width="99.113" height="99.112" viewBox="0 0 99.113 99.112"><defs><style>.a{fill:#ec2333;}.b{fill:#fdfffd;fill-rule:evenodd;}</style></defs><g transform="translate(-2419.396 -4068.13)"><rect class="a" width="99.113" height="99.113" rx="19" transform="translate(2419.396 4068.13)"/><g transform="translate(2427.752 4100.416)"><path class="b" d="M6473.743,743.32c-1.428.09-2.648-.788-6.064.6a14.842,14.842,0,0,0-4.026,3.07c-2.074,2.457-4.366,5.793-4.361,10.094a4.817,4.817,0,0,0,1.4,3.609c1.91,1.867,6.023.9,7.6-.187a12.1,12.1,0,0,0,1.426-1.094c.876-.824.69-1.243,1.263-1.152-.019.983-.772,2.2-.718,3.063,1.108.116,4.4.043,5.73.042,1.112,0,.589-.6,1.132-2.81l2.715-13.045c.3-1.122.39-2.219.668-3.37.25-1.033.451-2.148.667-3.243a27.783,27.783,0,0,0,.65-3.442l-6.34-.008c-.232.65-.616,3.026-.847,3.924a40.069,40.069,0,0,1-.889,3.945Z" transform="translate(-6397.775 -735.403)"/><path class="b" d="M6039.092,900.444a1.058,1.058,0,0,1-.234.089c-.047.015-.187.052-.237.063a11.517,11.517,0,0,0-3.107,1.178,15.335,15.335,0,0,0-2.792,2.064,13.987,13.987,0,0,0-3.648,6.1c-.823,2.628-.759,5.545,1.526,7.379a9.711,9.711,0,0,0,7.741,1.538,12.639,12.639,0,0,0,7.591-4.6l.387-.465a.778.778,0,0,0,.155-.213,14.249,14.249,0,0,0,2-4.081c.922-2.927.612-5.834-1.476-7.458a8.242,8.242,0,0,0-3.375-1.495A15.374,15.374,0,0,0,6039.092,900.444Z" transform="translate(-5986.831 -892.693)"/><path class="b" d="M5600.1,899.69c-.434.067-.664.044-1.111.141-.4.086-.539.166-.913.258a7.784,7.784,0,0,0-1.834.623,12.381,12.381,0,0,0-2.982,1.891,13.4,13.4,0,0,0-4.77,9.983c.088,2.719,1.724,4.256,3.963,5.168a11.518,11.518,0,0,0,4.938.584,12.475,12.475,0,0,0,6.734-3,13,13,0,0,0,1.2-1.223,12.753,12.753,0,0,0,2.811-4.579c.929-2.631,1.189-5.686-.711-7.611A8.866,8.866,0,0,0,5600.1,899.69Z" transform="translate(-5566.917 -892.018)"/><path class="b" d="M5317.5,742.4l-2.209.028a21.546,21.546,0,0,0-.65,3.658l2.043.012a20.472,20.472,0,0,1-.675,3.571c-.587,3.592-1.488,7.246-2.126,10.943-.117.677-.345,1.644-.5,2.356a17.619,17.619,0,0,0-.452,2.428c1.383.109,4.861.051,6.36.021.14-.858.35-1.554.5-2.4l.978-5.023c.386-1.5,1.121-5.527,1.526-7.421l.744-3.748c.223-1.129-.055-.779,4-.8l.811-.008a9.488,9.488,0,0,0,.424-1.807l.286-1.417c.038-.377.075-.193-.073-.352-.251-.241-3.94-.082-4.569-.1a7.094,7.094,0,0,1,.772-2.859c.728-1.128,1.634-1.194,2.909-1.192,2.873.006,2.963.711,3.742.606a27.739,27.739,0,0,0,.632-3.7,13.56,13.56,0,0,0-4.653-.735,9.473,9.473,0,0,0-6.488,2.384c-2.077,2.14-2.211,2.345-3.325,5.556Z" transform="translate(-5303.995 -734.458)"/><path class="b" d="M5570.664,1411.379a14.9,14.9,0,0,1-3.071,2.422,25.191,25.191,0,0,1-3.77,1.841c-.661.235-1.3.436-2,.709a24.562,24.562,0,0,1-7.452.823,16.379,16.379,0,0,1-10.749-5.851,15.387,15.387,0,0,1-1.656-2.548c-.232-.494-.151-.7-.729-.665-.029,1.1,1.208,4.078,1.671,4.955a17.563,17.563,0,0,0,6.445,6.833,14.98,14.98,0,0,0,4.747,1.916,24.69,24.69,0,0,0,16.542-2.52,21.835,21.835,0,0,0,3.051-2c.287-.233.657-.626,1.008-.62.156.416.252.8.394,1.23s.3.825.468,1.3l.668,1.97a2.13,2.13,0,0,0,.123.343c.108.2.032.151.211.242l2.581-12.857c.247-1.176.063-.885-3.042-.885h-3.18c-2.016,0-4.39-.119-6.359,0,.226.582,3.82,2.686,4.1,3.359Z" transform="translate(-5521.833 -1377.069)"/><path class="b" d="M5118.2,925.078l6.359.016,1.781-9.009c.216-1.245,1.826-8.234,1.688-8.971l-5.119-.007c-1.334,0-1.147-.685-1.838,3.362-.17,1-.433,1.889-.591,2.964-.125.858-.4,1.965-.586,2.871l-1.139,5.905C5118.664,922.561,5118.181,924.836,5118.2,925.078Z" transform="translate(-5118.198 -899.141)"/><path class="b" d="M5209.1,739.624a44.459,44.459,0,0,0,6.231-.08c.325-.205.47-1.705.612-2.47a15.8,15.8,0,0,0,.475-2.619l-6.3-.036a44.208,44.208,0,0,0-1.019,5.2Z" transform="translate(-5204.933 -734.42)"/></g></g></svg>