<svg xmlns="http://www.w3.org/2000/svg" width="180.883" height="92.167" viewBox="0 0 180.883 92.167"><defs><style>.a{fill:#01b5f0;}.b{fill:#26316d;}.b,.c,.d,.e,.f,.g,.h,.i{fill-rule:evenodd;}.c{fill:#fefffd;}.d{fill:#02afea;}.e{fill:#fafefa;}.f{fill:#f9fefe;}.g{fill:#262f6e;}.h{fill:#fdfdfd;}.i{fill:#0b4483;}</style></defs><g transform="translate(-17 4.465)"><rect class="a" width="180.883" height="92.167" rx="20" transform="translate(17 -4.465)"/><g transform="translate(28.201 20.868)"><path class="b" d="M432.16,400.15c.27.879-.318,1.108-.858,1.544s-.909.754-1.557,1.2a31.1,31.1,0,0,1-11.7,4.827,41.2,41.2,0,0,1-19.563-.872,26.394,26.394,0,0,1-10.636-5.915c-1.75-1.683,2.053-.656,2.945-.516a55.012,55.012,0,0,0,15.462.245,4.28,4.28,0,0,0,3.5-1.719c1.679,1.4,1.087,1.542,4.772,1.8a52.534,52.534,0,0,0,12.15-.028c1.362-.171,4.51-.976,5.486-.567Zm-10.946-19.373c4.679-.305,2.123-.563,5.653-1.339a2.381,2.381,0,0,1,2.518.547c2.994,2,6.87,5.865,7.045,10.5-11.426-.3-13.54,2.376-16.893,2.863.29-5.581-.284-8.007,1.677-12.57Zm-37.7,9.83c-.039-3.867,3.056-7.243,4.844-8.895,4.977-4.6,4.194-.981,9.936-.94,1.419,2.886,1.443,4.619,1.376,8.2l.31,4.385c-.812-.16-1.97-.705-2.953-1.034a29.9,29.9,0,0,0-13.515-1.711Zm16.565-14.686c1.373-.808,7.591-1.285,9.676-1.294a36.423,36.423,0,0,1,9.844,1.185,23.58,23.58,0,0,0-3.089,4.11c-1.978,3.5-6.166,14.31-6.754,15.227-.17-.266-5.175-12.485-6.671-15.121-1.633-2.877-2.119-2.763-3.005-4.105Zm33.255,23.948c-.6-.292-.686-.871-1.739-.927-1.1-.059-6.056,1.629-15.208.96-3.154-.231-6.539.211-5.793-3.672.4-2.065,1.887-4.9,2.7-6.847,1.8-4.287,4.1-10.081,6.714-12.576.522-.5.866-.759,1.331-1.237,2.4-2.473,2.377-2.992,3.887-1.9,1.178.852,3.738,1.671,1.032,3.524a1.442,1.442,0,0,1-1.818-.172c.564-1.379.539.035,1.255-.6.449-.4-.088.174-.309-1.281-.218.288-.33.509-.573.8-.574-.3-.4-.385-1.052-.565.883,2.133-.879,2.146-1.842,3.67,1.423.642,1.134-1.572,2.885-1.1,1.9.51,2.345-.9,3.722-.368-.206.885-.816.7-1.752.868-2.106.385-2.67,1-3.7,1.258a18.813,18.813,0,0,1-2.306.118c-1.156,1.067-2.076,4.946-2.013,7.124.088,3.073.184,5.6-.866,8.222,1.688-.435,4.236-1.839,8.437-2.843a28.669,28.669,0,0,1,10.225-.78c-.119,5.023-2.376,6.607-3.225,8.328Zm-41.37-24.315a8.71,8.71,0,0,1,2.412-1.967c.588-.424.942-.711,1.589-.252.121.086.922.936,1.112,1.118,6.166,5.939,6.1,7.754,9.852,16.6,1.308,3.085,4.343,7.963-.47,8.572a55.236,55.236,0,0,1-16.555-.378c-3.249-.669-2.14-.015-3.477.193-1.127-1.328-3.6-5.3-2.819-7.8a26.423,26.423,0,0,1,10.046.744c4.176,1.027,5.94,2.215,7.992,2.8a16.228,16.228,0,0,1-.946-6.411,17.06,17.06,0,0,0-.317-5.131c-1.4-5.364-1.934-3.443-3.947-3.96a23.579,23.579,0,0,0-3.859-1.273c-.889-.157-1.392,0-1.572-.841,1.375-.514,1.842.873,3.706.372,1.57-.423,1.587,1.672,2.885,1.1a11.794,11.794,0,0,0-1.5-1.581c-.8-.883-.834-.936-.351-2.156l-1.047.626c-.479-.5-.22-.249-.493-.876-.433,1.479-.681,1.081-.379,1.361.768.713.032-.031.7.11.482.1.192-.424.563.495-1.416,1.089-2.8-.282-3.123-1.47Zm29.19-1.275c-1.021,1.037-2.131.119-5.367-.34a42.077,42.077,0,0,0-6.4-.386,37.317,37.317,0,0,0-6.21.552c-4.025.727-3.783,1.279-5-.018-.99-1.057-2.163-2.851-4.186-1.438-1.038.725-3.617,1.952-2.849,3.639-.91.7-1.894,1.023-.758,2.52-2.192,1.883-2.078,1.232-4.6,4.01-5.156,5.686-4.237,14.009-.224,19.31,4.668,6.165,13.845,9.622,24.738,9.619,24.1-.006,33.565-17.834,23.573-29.273a19.212,19.212,0,0,0-2.177-2.046c-.742-.64-1.636-1.154-2.4-1.814a1.55,1.55,0,0,0,.162-1.456c-.21-.5-.657-.6-1.023-.871a2,2,0,0,0-1.076-2.37c-3.66-2.662-3.616-2.284-6.216.36Z" transform="translate(-382.233 -372.098)"/><path class="c" d="M727.255,410.6c.85-1.721,3.106-3.305,3.225-8.328a28.649,28.649,0,0,0-10.225.78c-4.2,1-6.749,2.408-8.437,2.843,1.05-2.62.954-5.149.866-8.222-.062-2.177.858-6.057,2.013-7.124a18.8,18.8,0,0,0,2.306-.117c1.025-.254,1.589-.872,3.7-1.258.937-.171,1.546.016,1.752-.868-1.376-.533-1.818.879-3.722.368-1.751-.47-1.462,1.743-2.885,1.1.962-1.524,2.724-1.537,1.842-3.67.651.181.479.265,1.052.565.243-.289.354-.511.573-.8.221,1.456.758.881.309,1.281-.716.638-.691-.777-1.255.6a1.442,1.442,0,0,0,1.818.172c2.706-1.854.146-2.672-1.032-3.524-1.509-1.092-1.486-.573-3.887,1.9-.465.478-.809.739-1.331,1.236-2.619,2.494-4.912,8.289-6.714,12.576-.817,1.943-2.308,4.782-2.7,6.847-.745,3.882,2.639,3.441,5.793,3.672,9.152.669,14.111-1.019,15.208-.96,1.052.057,1.137.636,1.739.927Z" transform="translate(-676.156 -382.825)"/><path class="c" d="M404.652,386c.324,1.187,1.707,2.559,3.123,1.47-.37-.918-.081-.394-.563-.495-.673-.14.064.6-.7-.11-.3-.281-.053.118.379-1.361.273.628.014.374.493.876l1.047-.626c-.484,1.22-.448,1.272.351,2.156a11.793,11.793,0,0,1,1.5,1.581c-1.3.574-1.315-1.52-2.885-1.1-1.864.5-2.331-.887-3.706-.372.18.842.682.685,1.572.841a23.5,23.5,0,0,1,3.859,1.273c2.014.517,2.548-1.4,3.947,3.96a17.061,17.061,0,0,1,.317,5.131,16.228,16.228,0,0,0,.946,6.411c-2.051-.583-3.816-1.771-7.992-2.8a26.441,26.441,0,0,0-10.046-.744c-.78,2.5,1.693,6.468,2.819,7.8,1.337-.208.228-.862,3.477-.193a55.264,55.264,0,0,0,16.555.378c4.813-.61,1.779-5.488.47-8.572-3.753-8.848-3.686-10.663-9.852-16.6-.189-.182-.991-1.032-1.112-1.118-.648-.459-1-.174-1.589.252a8.709,8.709,0,0,0-2.412,1.967Z" transform="translate(-394.924 -382.549)"/><path class="d" d="M485.777,679.418c-.976-.409-4.123.4-5.486.567a52.488,52.488,0,0,1-12.15.028c-3.685-.261-3.094-.408-4.772-1.8a4.278,4.278,0,0,1-3.5,1.719,55.008,55.008,0,0,1-15.462-.245c-.892-.14-4.7-1.167-2.945.516a26.4,26.4,0,0,0,10.636,5.915,41.2,41.2,0,0,0,19.563.872,31.109,31.109,0,0,0,11.7-4.827c.649-.445,1.027-.769,1.557-1.2s1.128-.666.858-1.544Z" transform="translate(-435.849 -651.365)"/><path class="d" d="M585.681,402.211c.887,1.343,1.373,1.228,3.005,4.105,1.5,2.636,6.5,14.856,6.671,15.121.588-.916,4.776-11.726,6.754-15.227a23.578,23.578,0,0,1,3.089-4.11,36.416,36.416,0,0,0-9.844-1.185c-2.085.01-8.3.487-9.676,1.294Z" transform="translate(-567.839 -398.388)"/><path class="d" d="M809.3,455.767c-1.961,4.564-1.386,6.989-1.677,12.57,3.353-.488,5.468-3.165,16.893-2.863-.176-4.633-4.052-8.5-7.045-10.5a2.381,2.381,0,0,0-2.518-.547c-3.53.776-.974,1.033-5.653,1.339Z" transform="translate(-770.315 -447.086)"/><path class="d" d="M396.8,466.379a29.9,29.9,0,0,1,13.515,1.711c.983.329,2.141.874,2.953,1.034l-.31-4.385c.067-3.575.043-5.309-1.376-8.2-5.741-.041-4.959-3.658-9.936.94-1.788,1.652-4.884,5.028-4.844,8.895Z" transform="translate(-395.522 -447.869)"/><path class="e" d="M1391.979,648.979c3.714-1.845,4.791,5.476,2.093,6.757-2,.949-3.346-.392-3.6-2.241a7.172,7.172,0,0,1,.177-2.827C1390.968,649.573,1391.12,649.406,1391.979,648.979Zm-4.231,10.586c.617,4.517,7.893,5.423,10.124,1.256,1.053-1.968.757-4.869.761-7.445.005-3.05-.024-4.649-1.873-6.151a6.86,6.86,0,0,0-6.552-.677c-3.606,1.584-3.959,8.69-.474,11.192,2.178,1.563,4.111.888,5.776-.661.164,1.854-.7,3.674-2.509,3.661-1.383-.01-1.5-.767-2.111-1.051a11.111,11.111,0,0,0-3.143-.124Z" transform="translate(-1299.164 -621.998)"/><path class="b" d="M1118.847,464.079c.463.215.217-.411.383.73.094.643-.187,5.871.056,6.859l2.2.1c.335-.9.1-4.7.171-6.4.011-.273,0-.832.032-1.062.108-.807.022-.365.419-.771.733-.417,1.06-1.169,2.477-.836,2.459.578,1.244,5.066,1.528,9.327l2.783-.036c.352-5.123.991-11.9-4.433-12.285-2.312-.165-2.768.752-4.018,1.465-1.3-.673-1.68-1.727-4.187-1.449-5.511.611-4.545,7.332-4.388,12.286l2.847-.029c.1-2.222-.225-5.481.056-7.513a2.093,2.093,0,0,1,4.075-.39Z" transform="translate(-1047.734 -451.999)"/><path class="f" d="M1121.2,653.246c-.8,4.135-5.868,3.5-5.051-2.2C1116.712,647.13,1122.209,648.029,1121.2,653.246Zm-5.136,3.734c.744.411.678.9,1.856,1.307a4.937,4.937,0,0,0,2.7.13c4.862-1.187,5.284-10.115.563-12.028-3.579-1.451-7.367.324-8.128,3.558a119.727,119.727,0,0,0-.072,12.366c4.13.358,2.919-1.881,3.084-5.331Z" transform="translate(-1048.782 -621.868)"/><path class="b" d="M1834.829,424.306c3.825-1.244,4.415,5.945,1.7,6.931C1832.346,432.755,1831.711,425.32,1834.829,424.306Zm3.177-1.336c-2.568-2.842-6.391-1.5-7.673,1.517-1.478,3.483-.51,7.8,2.433,9,3.694,1.512,7.606-.117,8.352-3.344.379-1.64.231-10.334.118-12.435-4.163-.1-2.66,2.227-3.231,5.262Z" transform="translate(-1702.718 -413.706)"/><path class="g" d="M1324.845,465.08c.083-3.44,5.2-3.273,5.155,0Zm8.146,4.017a20.281,20.281,0,0,0-2.982.017c-.856.206-.773.8-2.209.849-1.956.062-3.114-.919-3.062-2.816l8.553-.021c.162-3.894-1.225-6.467-4.693-7.039-3.689-.609-6.235,1.446-6.886,4.429-2.131,9.769,10.318,9.867,11.278,4.581Z" transform="translate(-1239.1 -452.273)"/><path class="f" d="M1538.135,653.257c-1.112,3.991-6.762,2.306-5.234-3.175C1533.967,646.256,1539.689,647.679,1538.135,653.257Zm-8.584-.367c.566,3.434,3.034,5.661,7.179,5.046,3.375-.5,5.313-3.377,4.807-7.406-1-7.941-13.467-6.633-11.986,2.359Z" transform="translate(-1428.824 -621.328)"/><path class="g" d="M1977.2,461.848c4.1-1.7,5.012,6.124,1.856,7.07-2.184.655-3.456-.781-3.715-2.554C1975.053,464.376,1975.364,462.61,1977.2,461.848Zm-5.143,4.379c.446,3.563,2.772,5.782,6.833,5.421,3.742-.332,5.361-3.051,5.205-7.084C1983.794,456.612,1970.934,457.205,1972.061,466.226Z" transform="translate(-1832.576 -451.381)"/><path class="g" d="M1706.362,466.1c.033,1.521.075,2.5-.921,3.179-2.8,1.914-4.735-1.469-2.24-2.427A31.8,31.8,0,0,1,1706.362,466.1Zm-4.075-2.454c.666-1.047.4-1.591,2.2-1.589,1.4,0,2.084.319,1.773,1.812-1.426.932-3.722.541-5.377,1.4a3.663,3.663,0,0,0-1.733,4.532c1.05,3.275,7.26,2.779,9.256.79,1.339-1.335,1.088-3.3,1.094-5.571.008-2.507.179-3.956-1.81-4.862-3.343-1.522-8.586-.463-8.262,3.523Z" transform="translate(-1583.468 -451.836)"/><path class="h" d="M1262.019,654.04c.087,1.415.053,2.518-.83,3.183-2.764,2.084-4.933-1.326-2.361-2.363.762-.307,2.31-.558,3.19-.82Zm-4.2-2.384c.541-.566.291-1.022,1.149-1.424,2.329-1.091,4.847,1.629,1.623,2.177-2.955.5-5.77.569-5.948,3.825-.189,3.472,2.577,4.191,5.911,3.821,3.106-.344,4.576-1.8,4.6-5.1.037-4.579.464-7.374-4.95-7.407-3.053-.018-5.063,1.142-5.159,4.109h2.77Z" transform="translate(-1178.129 -623.392)"/><path class="g" d="M1565.3,467.785c-.369.614-.307,1.2-.876,1.657a2.7,2.7,0,0,1-2.2.295c-2.41-.6-2.294-6.255-.127-7.026s2.561.577,3.205,1.736l3.255-.05c-.221-3.359-2.933-4.966-6.661-4.435-3.165.451-4.837,2.836-4.856,6.309-.039,7.244,7.009,6.936,9.5,5.106a4.76,4.76,0,0,0,1.914-3.637Z" transform="translate(-1454.013 -452.166)"/><path class="g" d="M1475.238,472.131c.395-8.2-1.285-8.45,3.817-9.1l-.05-3.08a5.775,5.775,0,0,0-6.307,3.185c-.871,1.906-.653,6.588-.532,9.048l3.072-.049Z" transform="translate(-1376.477 -452.146)"/><path class="i" d="M1193.14,504.23l.1,7.969a8.916,8.916,0,0,0,2.9-.117c.077-2.484-.292-6.183.263-8.392-.4.406-.311-.036-.419.771-.031.23-.02.788-.032,1.062-.07,1.7.164,5.5-.171,6.4l-2.2-.1c-.243-.987.037-6.216-.056-6.859-.166-1.14.081-.514-.382-.73Z" transform="translate(-1122.027 -492.15)"/></g></g></svg>