<svg xmlns="http://www.w3.org/2000/svg" xmlns:xlink="http://www.w3.org/1999/xlink" width="100.816" height="101.069" viewBox="0 0 100.816 101.069"><defs><style>.a{clip-rule:evenodd;}.b{clip-path:url(#a);}.c,.d,.e,.f,.g,.h,.i{fill-rule:evenodd;}.c{fill:url(#b);}.d{fill:#fefefe;}.e{fill:#f5886c;}.f{fill:#f17562;}.g{fill:#f05865;}.h{fill:#fb503e;}.i{fill:#fcbeb7;}.j{fill:#fa311b;}.k{fill:#fa3923;}</style><clipPath id="a"><path class="a" d="M2690.548,2922.88h58.623a21.157,21.157,0,0,1,21.1,21.1v58.875a21.157,21.157,0,0,1-21.1,21.1h-58.623a21.158,21.158,0,0,1-21.1-21.1v-58.875A21.158,21.158,0,0,1,2690.548,2922.88Z" transform="translate(-2669.451 -2922.88)"/></clipPath><linearGradient id="b" x1="0.875" y1="0.17" x2="0.125" y2="0.83" gradientUnits="objectBoundingBox"><stop offset="0" stop-color="#f05366"/><stop offset="1" stop-color="#f18a5f"/></linearGradient></defs><g class="b"><g transform="translate(-2.834 -3.296)"><path class="c" d="M2719.572,2991.523a24.614,24.614,0,0,0-1.625,2.441l-4.255,4.111c-10.434,7.224-25.057,4.583-30.829-7.249a22.236,22.236,0,0,1-2.125-6.133c8.3,7.7,13.032,1.1,18.62-3.2,11.478-8.843,15.564.227,20.28,2.039,5.821-3.472,9.187-10.044,19.963-2.11,5.844,4.3,9.228,9.864,16.807,4.825.846-.558,1.1-1.064,1.925-1.5-1.428,5.257-2.43,7.524-5.507,10.873-6.276,6.822-16.093,8.287-24.782,4.159-5.6-2.67-6.349-5.389-8.467-8.246Zm-32.563-43.077c-2.388,1.285-1.435,3.564-2.689,5.365-1.7.36-2.5-.5-3.191-1.681-.942-5.191,5.573-9.39,10.631-9.991a13,13,0,0,1,8.582,1.812c1.157.823,4.3,4.688,2.028,7.033.168.191.827.246.473,1.141.685-1.932-.545-1.212,1.477-1.346,2.124-.5,2.142-2.232,6.306-1.648l1.686,1.53c.667-.487,2.059-1.657,3.691-.629,1.715,1.787.24,3.107-.69,5.454-.888,2.226-1.746,3.931-1.74,6.516,2.934-.162,3.317-4.068,4.584-7.194,1.77-4.38,1.621-6.324,6.75-3.96,1-2.922,8.558-3.45,6.487,5.1.864.768.715-1.152.715,1.338-.186-2.449.125-.805.329-.75,1.477-1.236,1.627-4.171,2.718-5.707a2.592,2.592,0,0,1,3.066-.918c2.3.607.294,1.284,2.964-.215s4.8-.792,5.551,1.607c.822,2.64-.277,5.262-.75,7.693,1.188-.653.174-.546,1.494-.24,2.022-6.714,2.994-9.888,7.416-8.612,1.135,2.48-2.9,7.334-2.945,12.015,3.606-1.314,2.652-4.519,5.274-3.738.24,1.549-.955,2.573-1.77,3.587a14.713,14.713,0,0,1-2.652,3.042c-2.166,1.644-6.271,3.8-6.127-1.4-2.4,1.015-4.565,3.517-9.1,3.277-2.094-.107-1.8-.667-3.042-1.189l-2.136,8.527c-2.569.282-2.382-.288-3.924-1.38-.21-2.615.84-5.425,1.6-7.836.155-.756.251-.5-.618-.5a10.218,10.218,0,0,1-4.7,2.148c-3.408.629-3.408.215-5.556-1.062l-2.1,8.61c-6.281.84-3.281-5.9-2.321-9.475-1.063.793-2.191,1.842-3.679,2.052-1.739.252-1.962-.276-2.9-1.379l-1.542.7c0,1.314.276.582-.613,1.074l.481,1.308c-3.523,4.417-13.664,7.987-16.489-5.076-.055-.246-.15-.713-.223-.936l-.324-.791c-1.128,2.129-.63,4.56-1.932,5.32a2.951,2.951,0,0,1-4.008-2.381c-.312-2.478,4.086-15,5.256-16.363-.834-.035-.743.2-.983.233-1.146.127.521.84-.8-.1Zm66.254-6.654c3.811-2.351,6.974,4.087,2.875,6.007C2752.621,2949.443,2748.89,2944.493,2753.263,2941.792Zm-74.925-23.887a16.249,16.249,0,0,0-13.177,13.693c-.457,3.323-.15,49.456-.15,54.11,0,6.565-.774,21.236.234,26.865a16.161,16.161,0,0,0,13.735,13.032c3.42.457,49.28.155,54.014.155,6.792,0,20.845.775,26.8-.239a16.126,16.126,0,0,0,13.218-13.53c.51-3.582.187-49.25.187-54.135,0-6.775.774-21.037-.295-26.954a15.928,15.928,0,0,0-13.644-13.081c-4.968-.619-45.441-.149-54.134-.149C2698.643,2917.672,2683.865,2916.9,2678.338,2917.9Z" transform="translate(-2664.727 -2917.387)"/><path class="d" d="M2730.24,3031.7c2.118,2.849,2.863,5.574,8.468,8.244,8.682,4.134,18.5,2.664,24.781-4.159,3.077-3.342,4.079-5.611,5.508-10.873-.823.439-1.08.943-1.926,1.5-7.574,5.047-10.963-.523-16.807-4.824-10.777-7.933-14.148-1.362-19.963,2.112-4.717-1.819-8.8-10.885-20.28-2.04-5.581,4.3-10.314,10.914-18.621,3.2a22.253,22.253,0,0,0,2.126,6.133c5.777,11.832,20.395,14.479,30.828,7.249l4.255-4.11a22.443,22.443,0,0,1,1.625-2.443Z" transform="translate(-2675.395 -2957.563)"/><path class="d" d="M2767.588,2983.968Zm-15.305-.05Zm8.089.811c-.715-2.159.586-4.824,1.366-6.721.926-2.225,1.976-4.206,3.745-4.89.5,4.051-2.6,10.319-5.111,11.605Zm-15.267.037c-.78-1.968.48-4.711,1.213-6.541.773-1.945,2-4.482,3.853-5.107C2750.693,2977.294,2747.542,2983.157,2745.105,2984.766Zm-16.026-.108c-1.168-2.646,1.56-8.718,2.906-10.464.3-.39.089-.217.557-.595.642-.51-.078-.09.733-.407.989,1.782-.145,4.642-.823,6.352a26.8,26.8,0,0,1-1.312,2.887C2729.518,2985.457,2730.231,2984.4,2729.079,2984.658Zm-1.194-12.836c-1.506,3.1-3.539,4.454-4.157,9.739-.251,2.16.071,4.344,1.325,5.545,1.6,1.524,3.366.636,5.166.083l1.542-.7c.941,1.105,1.159,1.632,2.9,1.381,1.489-.209,2.61-1.261,3.678-2.053-.959,3.569-3.959,10.308,2.322,9.475l2.1-8.609c2.142,1.276,2.147,1.685,5.556,1.06a10.289,10.289,0,0,0,4.705-2.147l.871-.233-.253.731c-.761,2.413-1.817,5.215-1.6,7.837,1.536,1.091,1.35,1.662,3.926,1.379l2.136-8.526c1.241.522.946,1.08,3.042,1.188,4.529.24,6.695-2.263,9.1-3.278-.144,5.2,3.96,3.048,6.125,1.406a14.668,14.668,0,0,0,2.653-3.042c.816-1.014,2.01-2.047,1.771-3.588-2.622-.781-1.663,2.424-5.274,3.737.048-4.687,4.079-9.541,2.946-12.013-4.423-1.278-5.4,1.9-7.417,8.61-.81,2.245-1.679,3.318-3.46,4.176l1.967-3.936c.472-2.43,1.577-5.053.75-7.692-.75-2.4-2.887-3.1-5.55-1.609s-.66.823-2.965.218a2.583,2.583,0,0,0-3.064.916c-1.1,1.531-1.243,4.464-2.719,5.708a7.019,7.019,0,0,1-3.726,6.348c.977-2.525,2.069-3.643,2.681-6.936,2.07-8.551-5.491-8.016-6.486-5.094-5.137-2.37-4.982-.426-6.751,3.958-1.267,3.133-1.65,7.035-4.583,7.2,0-2.592.857-4.292,1.739-6.517.931-2.346,2.406-3.666.689-5.454-1.625-1.027-3.023.145-3.689.63l-1.685-1.53c-4.171-.582-4.184,1.153-6.309,1.651Z" transform="translate(-2688.294 -2938.417)"/><path class="d" d="M2697.876,2964.886c.364-1.861,2.795-3.187,4.368-3.643,8.215-2.388,7.338,8.172-.024,10.765.492-2.657,2.916-6.307,2.8-8.55-2.226-.558-4.7-.955-5.359,1.3-1.164,1.363-5.568,13.879-5.256,16.363a2.949,2.949,0,0,0,4.008,2.382c1.3-.762.8-3.193,1.932-5.322l.324.792c.073.228.168.689.222.937,2.827,13.063,12.974,9.492,16.49,5.077l-.48-1.31c-8.731,3.691-11.3-1.775-11.833-9.869a12.583,12.583,0,0,0,5.106-2.292c1.722-1.152,2.214-1.788,3.055-4.081,2.267-2.345-.871-6.2-2.028-7.033a13,13,0,0,0-8.58-1.812c-5.059.6-11.575,4.8-10.633,9.991.689,1.183,1.482,2.034,3.193,1.681,1.252-1.795.3-4.081,2.688-5.365Z" transform="translate(-2675.595 -2933.826)"/><path class="e" d="M2722.021,2973.241c-.834,2.293-1.325,2.929-3.053,4.08a12.536,12.536,0,0,1-5.107,2.292c.528,8.094,3.1,13.562,11.832,9.871.889-.491.612.24.612-1.073-1.8.551-3.564,1.433-5.165-.086-1.26-1.194-1.584-3.383-1.327-5.543.619-5.293,2.652-6.643,4.159-9.739-2.028.131-.791-.588-1.476,1.345.355-.895-.306-.955-.474-1.142Z" transform="translate(-2684.379 -2939.637)"/><path class="f" d="M2701.861,2966.49c1.326.942-.342.228.8.1.246-.03.155-.27.982-.233.662-2.245,3.133-1.849,5.359-1.3.108,2.246-2.316,5.9-2.8,8.55,7.363-2.586,8.24-13.152.023-10.765C2704.656,2963.3,2702.226,2964.625,2701.861,2966.49Z" transform="translate(-2679.58 -2935.43)"/><path class="d" d="M2810.959,2957.722a3.329,3.329,0,1,0,2.874,6.005C2817.938,2961.814,2814.77,2955.375,2810.959,2957.722Z" transform="translate(-2722.421 -2933.316)"/><path class="g" d="M2784.711,2986.834c2.508-1.289,5.609-7.56,5.112-11.6-1.764.683-2.82,2.664-3.746,4.889-.785,1.89-2.086,4.555-1.366,6.721Z" transform="translate(-2712.634 -2940.522)"/><path class="g" d="M2759.248,2986.857c2.437-1.608,5.587-7.471,5.064-11.646-1.847.625-3.077,3.163-3.851,5.106C2759.728,2982.155,2758.474,2984.9,2759.248,2986.857Z" transform="translate(-2702.435 -2940.514)"/><path class="e" d="M2732.511,2986.806c1.152-.257.439.8,2.06-2.226a28.532,28.532,0,0,0,1.313-2.885c.685-1.71,1.812-4.574.823-6.354-.81.319-.09-.1-.732.408-.468.371-.259.2-.558.594C2734.07,2978.088,2731.34,2984.168,2732.511,2986.806Z" transform="translate(-2691.725 -2940.566)"/><path class="g" d="M2771.37,2988.595a7.029,7.029,0,0,0,3.726-6.348c-.209-.054-.517-1.7-.33.75,0-2.491.15-.571-.713-1.34C2773.446,2984.952,2772.348,2986.069,2771.37,2988.595Z" transform="translate(-2707.382 -2943.093)"/><path class="h" d="M2796.88,2990.357c1.783-.852,2.646-1.934,3.463-4.176-1.319-.3-.306-.415-1.5.24Z" transform="translate(-2717.584 -2944.806)"/><path class="i" d="M2773.218,2996.353l.252-.732-.87.235C2773.47,2995.855,2773.367,2995.6,2773.218,2996.353Z" transform="translate(-2707.872 -2948.678)"/><line class="j" transform="translate(63.99 45.502)"/><line class="k" transform="translate(79.296 45.55)"/></g></g></svg>