<svg xmlns="http://www.w3.org/2000/svg" width="100.653" height="101.057" viewBox="0 0 100.653 101.057"><defs><style>.a{fill:#eaeaea;}.a,.b{fill-rule:evenodd;}.b{fill:#c6c5c5;}</style></defs><path class="a" d="M47.652,16.612l.36-.966c2.517,1.146.292,2.607,4.314-.472.966-.719,1.82-1.3,3.146-.674a4.446,4.446,0,0,1,1.775.966l-.719.539a4.4,4.4,0,0,1-2.786,1.82l.337,1.775H52.663c.382,1.528.427,1.843,2.135,2.337.854.247,2.449.584,3.123.742,1.416.7,1.708.539,2.562,1.416.36.382.629.854.854,1.124l-1.438.067c1.011.989,2.247,1.1,2.629,2.7.562-1.146.067-.36.225-1.3.18-1.168-.449,0,.7-1.416a7.225,7.225,0,0,1,.472,3.708c.809,3.146,1.348.2,3.236,3.977,1.146,2.292,2.607,1.775,3.371,4.359.449.427.315-.09.921,1.056.09.157.315.921.427,1.258-.427.36-.157.337-.472,1.011a23.912,23.912,0,0,1,1.3,5.6c.225,5.82-1.73,7.033-2.045,8.427l-1.056,6.112c-.2,2.719-.157.831-.831,3.146-.607,2.112.315,3.461-.921,5.146-3.146,4.314-.786.045-2.652,6.584-.022.112-.067.225-.09.337l-.157.719c-1.056,3.932-1.213.247-3.685,7.326l.4.831a7.476,7.476,0,0,0-2.112,1.64l-1.506-.135L55.495,88.61c-.742.157-.427-.472-2.4-.067-5.034,1.034-2.225.135-6.022-1.573-1.213-.539-.045-.18-1.64-.472-3.618-.7-2.09-.629-3.281-1.843L40.979,83.6a1.966,1.966,0,0,0-.18-.225,1.965,1.965,0,0,1-.18-.225c-.876-1.169-.876.382.135-1.8-4.629.27-2.157-1.236-4.225-4.966-.652-1.191-1.146-1.888-1.663-2.809-1.034-1.865-.36-2.315-.854-3.213-1.034-1.865-1.079.764-1.326-2.809-.18-2.607-.427-.36-.7-2.944-.247-2.27,1.011-4.831-1.281-6.494-.764.292-.584-.157-.966.337l-.809-1.416c-.449-3.371-2.2-3.168-1.416-8.09L26.485,48.9l-.27,1.64C22.44,46.5,29.406,39.578,28.664,35.8c-.18-.9-.607-1.146-1.056-2.09a11.845,11.845,0,0,1-.4-1.281v-.337l.247-.989c1.888,1.326.764,2.247,3.483,3.505,0-3.977-1.506-5.348,1.91-11.662.674-1.258.539-1.8,1.8-2.674.382-1.6-.719-.427,1.236-1.393a10.813,10.813,0,0,1,1.168-.315c-.854,1.8-.989.7-.449,1.483,2.854-1.371.764-2.022,4.112-3.168,3.865-1.326,1.393-2.315,5.528-3.034-.7,2.09-.674,1.393-1.888,2.607-.674.674-1.168,1.506-1.73,2.18A16.257,16.257,0,0,0,39.5,23.286c7.46-4.539,5.078-5.887,8.179-6.674ZM.351,80.587C1.227,88.542,4.755,93.4,9.2,96.677c5.842,4.27,12.382,4.225,20.9,4.225,9.011,0,44.043.449,50.021-.2,7.955-.854,12.9-4.4,16.157-8.9,4.247-5.842,4.225-12.427,4.225-20.921,0-8.988.449-44.133-.18-50.088-.854-8.045-4.449-13.011-8.876-16.224C85.4.163,79.224.343,70.55.343H45.5C29.383.343,13.249-2.735,4.373,9.421.126,15.219.149,21.893.149,30.364c0,8.921-.427,44.4.2,50.223Z" transform="translate(-0.007 0.005)"/><path class="b" d="M29.07,68.19c1.82-.966,2.09.18,4.472-.742,3.258-1.236-.09-.7,4.225-.36,2.449.2,5.932-1.753,8.584-1.64.225,3.955-1.708,1.528-4.517,5.842-.786,1.236-.607,1.236-1.506,2-1.708-.764-1.91-1.775-4.292-1.258-2.247.494-1.663,1.55-4.067,1.73-1.483-.809-3.573-3.416-2.921-5.573Zm.9-4.854c-.539.337.382-.067-.629.2.764-.786-.786-.494,1.506-.854a3.9,3.9,0,0,1-.854.652ZM19.812,53.09a8.248,8.248,0,0,0,9.91,2.966c5.168-1.8,4.2-3.505,4.966-9.123l3.168.674c-.09,3.685,1.416,6.831,5.078,8.112,4.719,1.663,6.786-1.326,8.786-3.528.292,1.573-.449,5.011-1.483,5.977-.921.876-1.573.135-4.18,3.258-1.079-.427-.18-.022-1.461-.764-1.91-1.1-1.753-1.416-3.82-1.348-.652.764-.764,4.2-7.753,1.438-3.123-1.236-5.371,1.056-8.966.719a16.472,16.472,0,0,1-4.27-8.4Zm19.707-7.483a27.709,27.709,0,0,1,9.685-2.09c4.18.045,3.034,5.483,1.6,7.685C46.687,57.584,39.137,53.876,39.519,45.607Zm-16.044-.921c2.809-.764,7.73-.247,9.146,1.573,3.64,4.7-6.09,13.033-10.7,6.314a13.67,13.67,0,0,1-1.348-4.9c-.067-2.157,1.056-2.494,2.921-2.989ZM21.857,32.708c2.854.247,2.764.989,5.146,1.506,1.685.36,3.55.472,5.348.786,4.135.719,11.73-1.258,15.865-2.786,5.55-2.067,5.82,8.719,5.528,12.224-1.236-4.517-9.865-2.135-13.258-.944-3.056,1.056-3.034,2.854-6.809,1.258a19.23,19.23,0,0,0-6.741-1.73l5.8-.764c-5.6-3.461-5.348-1.528-12.179-.2-2.225-4.921-.427-6.562,1.281-9.37Zm18.471-11.8C38.4,20.1,38.1,20.169,37.07,18.035,39.362,19.113,39.407,18.911,40.328,20.911Zm-5.505-2.989c1.3.562.9.449,1.146,1.685C34.89,19.113,34.845,19.226,34.822,17.922Zm-7.64-.135-.876,3.393c-.36-.584-.652-.517-.292-1.8a3.17,3.17,0,0,1,1.168-1.618ZM45.811,20.08c-1.955-.135-4.652-2-5.775-3.618C42.6,17.271,44.89,18.1,45.811,20.08ZM27.182,17.788c.337-2.359.786-1.955,1.326-2.472l-.876,2.045c-.045.045-.2.27-.225.2s-.157.135-.225.2Zm4.764-6.045c.022,1.371.584.854-1.236,1.685a10.011,10.011,0,0,1,.562-1.191C32.014,11.226,31.272,12.125,31.946,11.743Zm0,0a10.767,10.767,0,0,1,1.82-2.831c.449.7.607-.9.337.831a6.977,6.977,0,0,0-1.056,1.1c-.854.966.022.315-1.1.9Zm-9.258.607a8.495,8.495,0,0,1-.831,1.438c-.831,1.034-.494.584-1.506,1.1l.382-2.292c-1.258.876-1.124,1.416-1.8,2.674-3.416,6.314-1.91,7.685-1.91,11.662-2.719-1.258-1.618-2.18-3.483-3.505l-.247.989v.337c0,.09.337,1.124.4,1.281.449.944.876,1.191,1.056,2.09.742,3.775-6.224,10.7-2.449,14.741l.27-1.64.517-.854c.674.337.562-1.124.539.9-.764,4.921.989,4.719,1.416,8.09,2.157-.157.764-1.528,1.753,1.079,2.27,1.685,1.034,4.225,1.281,6.494.27,2.584.517.337.7,2.944.247,3.573.292.944,1.326,2.809.494.9-.18,1.348.854,3.213.517.921.989,1.6,1.663,2.809,2.067,3.73-.4,5.236,4.225,4.966-1.011,2.2-1.011.629-.135,1.8a1.966,1.966,0,0,1,.18.225,1.964,1.964,0,0,0,.18.225l1.169,1.056c1.191,1.213-.337,1.146,3.281,1.843,1.6.315.427-.067,1.64.472,3.8,1.708.989,2.607,6.022,1.573,1.955-.4,1.64.225,2.4.067l2.562-2.247.674-.629a.955.955,0,0,1,.247-.045c.045-.022.225,0,.247-.022.045,0,.225.067.247-.022s.18,0,.27-.022c1.168-2,.674-1.236,1.483-1.618C49.766,69.246,49.946,72.932,51,69l.157-.719c.022-.112.067-.225.09-.337,1.865-6.539-.494-2.27,2.652-6.584,1.213-1.685.315-3.011.921-5.146.674-2.292.607-.4.831-3.146l1.056-6.112c.315-1.393,2.27-2.607,2.045-8.427a23.912,23.912,0,0,0-1.3-5.6c-.539-.831.045.742-.517-.9a2.966,2.966,0,0,1-.157-.674c-.067-.337-.135-1.281-.2-1.753-.764-2.584-2.225-2.045-3.371-4.359-1.888-3.775-2.427-.831-3.236-3.977-.584.9.292.337-1.416.652l.022-1.64c-.382-1.618-1.64-1.73-2.629-2.7-1.326-.562-2.18-.9-1.955-2.584-.674-.18-2.27-.494-3.123-.742-1.708-.494-1.775-.786-2.135-2.337l-.067-1.6,1.146-.18A4.31,4.31,0,0,0,42.6,8.327c-.067-.09-.18-.225-.225-.292l-.831-1.213c-1.326-.607-2.18-.045-3.146.674-4.022,3.056-1.8,1.618-4.314.472l-.36.966c-3.1.786-.742,2.135-8.179,6.674a16.257,16.257,0,0,1,3.123-4.652c.562-.674,1.056-1.506,1.73-2.18,1.213-1.191,1.191-.517,1.888-2.607-4.135.719-1.64,1.708-5.528,3.034-3.326,1.146-1.258,1.775-4.112,3.168Z" transform="translate(13.924 7.706)"/><path class="a" d="M34.264,25.09c3.1-2.337,12.359-2.674,13.617,1.618-2.472-.382-3.056-1.348-6.449-1.438a58.25,58.25,0,0,1-7.168-.2Zm-17.056-6.7c-1.73,2.809-3.505,4.449-1.281,9.37,6.831-1.326,6.584-3.258,12.179.2l-5.8.764a18.756,18.756,0,0,1,6.741,1.73c3.775,1.573,3.753-.2,6.809-1.258,3.393-1.169,12.022-3.573,13.258.944.292-3.505.022-14.269-5.528-12.224-4.135,1.528-11.73,3.505-15.865,2.786-1.775-.315-3.64-.4-5.348-.786-2.382-.517-2.315-1.258-5.146-1.506Z" transform="translate(18.55 22.042)"/><path class="a" d="M15.02,30.455a16.3,16.3,0,0,0,4.27,8.4c3.6.315,5.865-1.955,8.966-.719,6.989,2.741,7.1-.674,7.753-1.438,2.045-.09,1.888.225,3.82,1.348,1.281.742.36.337,1.461.764,2.607-3.124,3.258-2.382,4.18-3.258,1.034-.966,1.775-4.4,1.483-5.977-2,2.2-4.067,5.191-8.786,3.528C34.5,31.8,33,28.657,33.087,24.994l-3.168-.674c-.764,5.618.18,7.3-4.966,9.123a8.239,8.239,0,0,1-9.91-2.966Z" transform="translate(18.716 30.341)"/><path class="a" d="M18.273,23.509c-1.843.494-2.989.831-2.921,2.989A14.144,14.144,0,0,0,16.7,31.4c4.629,6.7,14.359-1.618,10.7-6.314-1.416-1.82-6.337-2.337-9.146-1.573Z" transform="translate(19.126 28.904)"/><path class="a" d="M23.8,24.88c-.382,8.269,7.168,11.977,11.28,5.6,1.416-2.2,2.584-7.64-1.6-7.685A28.339,28.339,0,0,0,23.8,24.88Z" transform="translate(29.645 28.432)"/><path class="a" d="M19.208,35.294c-.652,2.157,1.438,4.764,2.921,5.573,2.4-.18,1.82-1.236,4.067-1.73,2.359-.517,2.562.494,4.292,1.258.9-.764.7-.764,1.506-2,2.786-4.314,4.741-1.865,4.517-5.842-2.652-.112-6.157,1.82-8.584,1.64-4.314-.337-.966-.876-4.225.36-2.382.9-2.652-.247-4.472.742Z" transform="translate(23.786 40.602)"/><path class="a" d="M23.51,21.906a58.249,58.249,0,0,0,7.168.2c3.393.067,3.977,1.056,6.449,1.438-1.258-4.292-10.539-3.977-13.617-1.618Z" transform="translate(29.304 25.226)"/><path class="a" d="M29.775,14.378C28.831,12.4,26.562,11.569,24,10.76,25.124,12.378,27.843,14.243,29.775,14.378Z" transform="translate(29.915 13.43)"/><path class="a" d="M15.632,9.98l-.382,2.292c.989-.494.674-.067,1.506-1.1a8.495,8.495,0,0,0,.831-1.438c-.539-.786-.382.315.449-1.483-.427.157-.831.157-1.168.315-1.955.966-.854-.18-1.236,1.393Z" transform="translate(19.003 10.3)"/><path class="a" d="M27.842,13.949l-.022,1.64c1.708-.292.854.27,1.416-.652a7.435,7.435,0,0,0-.472-3.708c-1.124,1.416-.517.247-.7,1.416-.157.944.337.157-.225,1.3Z" transform="translate(34.679 14.016)"/><path class="a" d="M27.768,12.687l1.438-.067a10.656,10.656,0,0,0-.854-1.124c-.854-.854-1.146-.7-2.562-1.416-.225,1.685.607,2.022,1.955,2.584Z" transform="translate(32.102 12.582)"/><path class="a" d="M25.948,14.336c-.921-2.022-.966-1.8-3.258-2.876C23.724,13.595,24.016,13.55,25.948,14.336Z" transform="translate(28.281 14.303)"/><path class="a" d="M25.84,39.717l1.506.135a7.171,7.171,0,0,1,2.112-1.64l-.4-.831c-.809.382-.315-.382-1.483,1.618-.09.022-.225-.09-.27.022-.022.09-.225,0-.247.022a.922.922,0,0,0-.247.022c-.045.022-.2.022-.247.045l-.674.629Z" transform="translate(32.21 46.628)"/><path class="a" d="M32.266,19.926c.315-.7.067-.674.472-1.011-.112-.337-.337-1.1-.427-1.258C31.7,16.51,31.839,17,31.39,16.6c.067.472.135,1.438.2,1.753a2.118,2.118,0,0,0,.157.674c.562,1.64-.022.067.517.9Z" transform="translate(39.131 20.713)"/><path class="a" d="M23.477,9.7h1.416L24.556,7.92,23.41,8.1Z" transform="translate(29.179 9.888)"/><path class="a" d="M20.41,10.221c1.124-.584.247.067,1.1-.9a5.441,5.441,0,0,1,1.056-1.1c.27-1.708.112-.135-.337-.831a11.367,11.367,0,0,0-1.82,2.831Z" transform="translate(25.438 9.227)"/><path class="a" d="M19.03,11.35a2.974,2.974,0,0,0-1.168,1.618c-.36,1.258-.067,1.213.292,1.8l.876-3.393Z" transform="translate(22.054 14.166)"/><path class="a" d="M14.653,26.721c-.989-2.584.382-1.236-1.753-1.079l.809,1.416c.36-.494.2-.045.966-.337Z" transform="translate(16.072 31.377)"/><path class="a" d="M22.836,13.085c-.247-1.213.157-1.1-1.146-1.685C21.712,12.7,21.735,12.568,22.836,13.085Z" transform="translate(27.034 14.228)"/><path class="a" d="M21.1,8.654c-.674.382.067-.517-.674.494-.09.135-.427.921-.562,1.191C21.68,9.508,21.118,10.024,21.1,8.654Z" transform="translate(24.752 10.795)"/><path class="a" d="M18.29,12.709c.067-.067.2-.27.225-.2s.18-.157.225-.2l.876-2.045c-.562.517-.989.112-1.326,2.472Z" transform="translate(22.794 12.806)"/><path class="a" d="M25.746,7.946l.719-.539c-.786-.7-.876-.539-1.775-.966l.831,1.213a2.052,2.052,0,0,0,.225.292Z" transform="translate(30.775 8.042)"/><path class="a" d="M11.812,22.329l1.034.045c.022-2,.135-.562-.539-.9l-.517.854Z" transform="translate(14.688 26.557)"/><path class="a" d="M19.272,32.174c1.011-.27.09.135.629-.2a3.407,3.407,0,0,0,.854-.652c-2.292.36-.719.067-1.506.854Z" transform="translate(23.991 39.07)"/></svg>