<svg xmlns="http://www.w3.org/2000/svg" width="36.145" height="36.148" viewBox="0 0 36.145 36.148"><defs><style>.a{fill:#373435;fill-rule:evenodd;}</style></defs><path class="a" d="M19.172,16.706c.411-1.144.023-4.06.238-5.514.849-5.766,5.738-5.912,11.058-5.475l-.008,4.845c-6.231.155-5.518-.23-5.561,6.147l5.361,0L29.609,22.1l-4.7.074.037,13.837a82.6,82.6,0,0,0,8.538.054c1.4,0,2.4-.375,2.569-1.8l.02-21.532C36.072-.7,37.054.074,31.441.075H5.506C1.815.075.051-.748.071,3.238l0,25.936c0,3.562-.669,6.6,1.862,6.871,2.309.243,13.678-.049,17.379.032L19.228,22.1l-4.632,0,0-5.4,4.579,0Z" transform="translate(0.007 -0.004)"/></svg>