<svg xmlns="http://www.w3.org/2000/svg" width="36.514" height="36.466" viewBox="0 0 36.514 36.466"><defs><style>.a{fill:#373435;}.a,.b{fill-rule:evenodd;}.b{fill:#fefefe;}</style></defs><g transform="translate(0.001)"><path class="a" d="M11336.248,346.639c2.255-.038,4.556,0,6.816,0,1.861,0,4.739-.194,6.45.346a8.4,8.4,0,0,1,6.071,7.594c.082,1.094.02,2.375.02,3.49,0,2.576.2,7.87-.334,9.892a8.61,8.61,0,0,1-7.628,6.085c-2.175.131-4.692.027-6.9.028-1.874,0-4.781.19-6.494-.348a8.447,8.447,0,0,1-6.059-7.665c-.093-2.22,0-4.66.007-6.9,0-2-.2-4.58.354-6.466a8.52,8.52,0,0,1,7.7-6.054Zm-6.258-4.4a6.877,6.877,0,0,0-.959.13,7.291,7.291,0,0,0-3.516,2.15,7.629,7.629,0,0,0-1.583,2.993,5.822,5.822,0,0,0-.262,2.063v9.079c0,.756.073,1.45.073,2.179,0,3.679-.126,7.967,0,11.48a7.718,7.718,0,0,0,2.347,4.408,7.264,7.264,0,0,0,4.92,1.835h18.231c3.9,0,7.367.583,9.954-3.7,1.322-2.19.941-5.676.941-8.211V352.986a37.453,37.453,0,0,0-.052-4.523,7.1,7.1,0,0,0-7.356-6.3h-18.231a30.182,30.182,0,0,0-4.5.073Z" transform="translate(-11323.672 -342.114)"/><path class="a" d="M11967.214,978.579a7.205,7.205,0,1,1-6.58,7.812A7.219,7.219,0,0,1,11967.214,978.579Zm-5.447-4.069a6.041,6.041,0,0,0-5.258,5.994c-.012,1.889,0,3.779,0,5.668,0,.928-.052,4.968.061,5.578a6.056,6.056,0,0,0,6.013,5.293l8.5.012a22.951,22.951,0,0,0,2.762-.046,6.048,6.048,0,0,0,5.273-5.97c.014-.893.055-10.458-.039-11.259a6.059,6.059,0,0,0-6.036-5.324h-8.5a22.414,22.414,0,0,0-2.772.054Z" transform="translate(-11949.577 -967.529)"/><path class="b" d="M11740.875,755.634a22.422,22.422,0,0,1,2.773-.054h8.5a6.06,6.06,0,0,1,6.034,5.324c.095.8.053,10.366.041,11.259a6.051,6.051,0,0,1-5.275,5.97,22.964,22.964,0,0,1-2.762.046l-8.5-.012a6.054,6.054,0,0,1-6.01-5.293c-.115-.61-.063-4.65-.062-5.578,0-1.889-.01-3.78,0-5.668a6.042,6.042,0,0,1,5.259-5.994Zm.387-2.456a8.52,8.52,0,0,0-7.7,6.054c-.557,1.887-.352,4.466-.356,6.466-.006,2.244-.1,4.684-.007,6.9a8.449,8.449,0,0,0,6.06,7.665c1.713.537,4.619.349,6.494.348,2.211,0,4.729.1,6.9-.028a8.61,8.61,0,0,0,7.629-6.085c.534-2.023.333-7.316.333-9.892,0-1.115.063-2.4-.02-3.49a8.4,8.4,0,0,0-6.071-7.594c-1.711-.541-4.59-.346-6.449-.346-2.261,0-4.562-.039-6.816,0Z" transform="translate(-11728.687 -748.652)"/><path class="b" d="M12336.073,1358.475a4.683,4.683,0,1,1,5.168,4.163A4.687,4.687,0,0,1,12336.073,1358.475Zm4.063-7.666a7.205,7.205,0,1,0,7.762,6.516A7.211,7.211,0,0,0,12340.137,1350.809Z" transform="translate(-12322.501 -1339.759)"/><path class="a" d="M12563.381,1587.56a4.683,4.683,0,1,0,4.152-5.136A4.678,4.678,0,0,0,12563.381,1587.56Z" transform="translate(-12549.81 -1568.844)"/></g></svg>