<svg xmlns="http://www.w3.org/2000/svg" width="33.747" height="33.765" viewBox="0 0 33.747 33.765"><defs><style>.a{fill:#373435;}.a,.b{fill-rule:evenodd;}.b{fill:#fefefe;}</style></defs><g transform="translate(0.001)"><path class="a" d="M15962.018,606.225c-1.891,0-5.812-1.594-7.074-2.425-.256-.168-.5-.33-.732-.479a21.557,21.557,0,0,1-3.166-2.744,34.042,34.042,0,0,1-2.619-3.342c-1.621-2.276-2.883-5.122-1.508-7.882.4-.8,1.436-2.261,2.48-2.261,1.352,0,1.752-.127,2.242,1.009l1.473,3.558a1.57,1.57,0,0,1-.4,1.812c-.2.24-.371.456-.578.678a2.883,2.883,0,0,0-.547.714c-.174.608,1.82,2.967,2.221,3.37a13.426,13.426,0,0,0,4.869,3.236c.352.157.615.237.916-.049l1.158-1.355c.586-.726.719-1.242,1.4-1.092a37.751,37.751,0,0,1,3.439,1.588c.65.326,1.371.48,1.371,1.1a5.342,5.342,0,0,1-.41,2.2,3.418,3.418,0,0,1-1.016,1.169,5.145,5.145,0,0,1-3.512,1.194Zm-20.955,6.1c.658-.227,3.395-.893,4.344-1.15.371-.1.705-.176,1.076-.277,1.1-.3.791-.348,1.488.06.139.081.307.17.449.251.344.2.59.319.914.483a17.018,17.018,0,0,0,9.154,1.571,16.563,16.563,0,0,0,8.719-3.616l1.086-.966c.355-.358.7-.666,1.031-1.067a16.764,16.764,0,0,0,4.2-11.913,16.693,16.693,0,0,0-3.811-9.928,17.154,17.154,0,0,0-2.795-2.7,16.871,16.871,0,0,0-21.352.693c-.076.065-.133.14-.209.21a13.819,13.819,0,0,0-1.482,1.5c-.258.334-.514.613-.766.955a16.877,16.877,0,0,0-2.289,15.892,17.049,17.049,0,0,0,1.377,2.861c.676,1.094.625.714.324,1.8-.25.892-.482,1.77-.73,2.668-.123.449-.234.87-.359,1.321-.111.408-.293.941-.367,1.353Z" transform="translate(-15939.781 -579.599)"/><path class="b" d="M16554.672,1283.8a5.149,5.149,0,0,0,3.512-1.193,3.419,3.419,0,0,0,1.016-1.169,5.372,5.372,0,0,0,.406-2.2c0-.619-.719-.773-1.369-1.1a37.617,37.617,0,0,0-3.439-1.588c-.68-.151-.811.365-1.4,1.092l-1.158,1.355c-.3.286-.564.205-.916.049a13.441,13.441,0,0,1-4.869-3.236c-.4-.4-2.395-2.762-2.217-3.37a2.786,2.786,0,0,1,.545-.714c.2-.222.379-.438.576-.678a1.561,1.561,0,0,0,.4-1.812l-1.471-3.558c-.49-1.136-.889-1.009-2.24-1.009-1.047,0-2.084,1.464-2.48,2.261-1.377,2.759-.117,5.606,1.506,7.882a34.372,34.372,0,0,0,2.617,3.342,21.689,21.689,0,0,0,3.168,2.744c.238.149.479.311.732.479,1.264.832,5.186,2.426,7.074,2.426Z" transform="translate(-16532.438 -1257.174)"/></g></svg>