<svg xmlns="http://www.w3.org/2000/svg" width="44.718" height="31.235" viewBox="0 0 44.718 31.235"><defs><style>.a{fill:#373435;}.a,.b{fill-rule:evenodd;}.b{fill:#fefefe;}</style></defs><path class="a" d="M5344.085,708.083c.1.029,2.866,1.65,2.916,1.68.483.29.979.557,1.461.845s.968.554,1.451.839c1.448.856,2.93,1.673,4.359,2.525.246.146.486.277.73.423.125.075.652.359.712.427l-2.9,1.671c-1.942,1.1-3.869,2.244-5.811,3.347-.077.044-2.831,1.647-2.914,1.668V708.083Zm2.227-8.923h4.363c.141,0,.228,0,.239,0,.324.044.782-.024,1.122.015s.753-.006,1.122.014,1.49.025,1.643.046c.182.025.376-.016.556.012a3.988,3.988,0,0,0,.56.009c.107,0,.149.018.266.018.085,0,.185,0,.268,0,.248.013.893.019,1.091.046l1.9.072a2.469,2.469,0,0,0,.269.016l2.138.134c.519.013,2.01.157,2.583.241a7.426,7.426,0,0,1,3.057.888c.067.041.11.071.173.111a5.376,5.376,0,0,1,.943.761,1.021,1.021,0,0,1,.075.076l.193.224a7.027,7.027,0,0,1,1.492,3.856c.042.251.212,1.477.224,1.765,0,.087.014.17.026.257l.225,3.168c0,.115.012.177.017.267l.017.552c0,.112.015.159.018.25l.016.837c0,.108.018.149.017.267,0,.374.016.7.017,1.085v1.257c0,.386-.018.721-.017,1.1,0,.114-.018.153-.017.267l-.015.553c-.008.09,0,.192,0,.283l-.05,1.086c0,.117-.018.159-.018.267s-.016.167-.017.267l-.1,1.588c-.008.163-.042.362-.05.518l-.068.784c-.026.345-.106.911-.154,1.267-.063.47-.152.986-.244,1.444a6.327,6.327,0,0,1-.861,2.264,5.771,5.771,0,0,1-.9,1.076l-.3.256a5.65,5.65,0,0,1-1.418.838,11.593,11.593,0,0,1-2.841.568l-1.278.126c-.355.027-.7.023-1.059.078l-2.4.138c-.087.01-.193,0-.282,0l-.517.034c-.092.005-.192,0-.285,0s-.151.018-.267.017a1.758,1.758,0,0,0-.274.01l-.829.024c-.117,0-.167.016-.267.018-.743.009-1.458.049-2.207.049-.2,0-.345.017-.552.017h-.284c-.118,0-.159.017-.267.017-.364,0-.767-.013-1.1.015-.356.029-.779-.023-1.121.015l-.053,0h-4.321c-.146,0-.236,0-.248,0-.325-.044-.782.023-1.123-.015s-.754,0-1.123-.014c-.093,0-.15-.018-.267-.017l-1.377-.026c-.18-.027-.375.013-.557-.012-.3-.041-.758-.011-1.091-.029-.249-.013-.892-.018-1.09-.045l-.546-.022c-.2,0-.346-.017-.535-.016-.118,0-.159-.017-.267-.017-.285,0-.541-.035-.82-.033l-1.344-.077c-.179-.027-.362-.02-.531-.038l-2.339-.2a16.294,16.294,0,0,1-1.959-.3,5.645,5.645,0,0,1-.853-.267c-.135-.054-.265-.115-.391-.177a6.5,6.5,0,0,1-1.192-.8,5.723,5.723,0,0,1-1.04-1.216,4.974,4.974,0,0,1-.483-.938c-.029-.072-.052-.143-.077-.208a7.243,7.243,0,0,1-.291-1.113c-.06-.3-.12-.622-.172-.947-.028-.174-.048-.335-.071-.5s-.046-.34-.066-.5c-.042-.333-.063-.671-.111-1.009l-.129-1.576c-.007-.07-.007-.184-.019-.265s0-.165-.014-.253l-.047-.805c0-.1-.018-.149-.017-.267l-.05-1.07c0-.091.006-.193,0-.283a2.459,2.459,0,0,1-.016-.268c0-.095,0-.19,0-.284,0-.117-.017-.159-.017-.266,0-.371-.015-.694-.017-1.067v-1.308c0-.386.018-.721.017-1.1,0-.114.018-.153.017-.267,0-.2.022-1.242.043-1.378l.058-1.079c.005-.493.075-1.089.1-1.588l.05-.519c.016-.337.071-.682.1-1.021.041-.5.107-.994.192-1.5.055-.331.111-.655.172-.964a6.558,6.558,0,0,1,.747-2.094c.039-.066.071-.116.11-.174.019-.029.032-.053.051-.083a6.946,6.946,0,0,1,.563-.708,1.767,1.767,0,0,1,.281-.286c.061-.047.087-.089.148-.136s.088-.077.146-.122a5.756,5.756,0,0,1,1.036-.668c.067-.033.125-.061.194-.091a5.826,5.826,0,0,1,1.051-.353c.32-.073.638-.118.964-.172.494-.082,1.012-.12,1.52-.184.176-.022.333-.02.509-.043.065-.009.2-.016.26-.024s.2-.02.263-.022l.535-.033c.073,0,.061-.013.134-.017l.918-.051c.428-.035.9-.045,1.339-.082l.8-.035c.261,0,.626-.034.819-.033l1.37-.05c.368-.02.755.008,1.106-.031.182-.02.38.015.556-.012l1.38-.024c.117,0,.167-.016.267-.018.367,0,.764.013,1.1-.015.356-.029.78.023,1.121-.015l.054,0Z" transform="translate(-5326.22 -699.16)"/><path class="b" d="M6960.66,1528.985c.083-.021,2.837-1.624,2.914-1.668,1.941-1.1,3.869-2.249,5.811-3.347l2.9-1.671c-.061-.068-.587-.353-.712-.427-.244-.146-.485-.276-.73-.423-1.429-.852-2.912-1.67-4.36-2.525-.482-.285-.971-.553-1.45-.839s-.978-.556-1.461-.845c-.05-.03-2.816-1.65-2.915-1.68v13.425Z" transform="translate(-6942.795 -1506.637)"/></svg>